<?xml version="1.0" standalone="no"?>
<!DOCTYPE svg PUBLIC "-//W3C//DTD SVG 1.1//EN" "http://www.w3.org/Graphics/SVG/1.1/DTD/svg11.dtd" >
<svg>
<metadata>
Created by FontForge 20090914 at Sun Dec  1 00:49:53 2019
 By www-data
2005 Albert-Jan Pool published by FSI FontShop International GmbH
</metadata>
<defs>
<font id="DINPro-MediumItalic" horiz-adv-x="506" >
  <font-face 
    font-family="DIN Pro Medium"
    font-weight="500"
    font-style="italic"
    font-stretch="normal"
    units-per-em="1000"
    panose-1="2 11 6 4 2 1 1 2 1 2"
    ascent="800"
    descent="-200"
    x-height="507"
    cap-height="712"
    bbox="-154 -227.001 1202 1161"
    underline-thickness="66"
    underline-position="-201"
    slope="-11.31"
    unicode-range="U+000D-U+FEFF"
  />
<missing-glyph horiz-adv-x="540" 
d="M27 0v712h486v-712h-486zM93 66h354v580h-354v-580z" />
    <glyph glyph-name=".notdef" horiz-adv-x="540" 
d="M27 0v712h486v-712h-486zM93 66h354v580h-354v-580z" />
    <glyph glyph-name=".null" horiz-adv-x="0" 
 />
    <glyph glyph-name=".null" horiz-adv-x="0" 
 />
    <glyph glyph-name="CR" unicode="&#xd;" horiz-adv-x="228" 
 />
    <glyph glyph-name="space" unicode=" " horiz-adv-x="228" 
 />
    <glyph glyph-name="exclam" unicode="!" horiz-adv-x="315" 
d="M323 712l-120 -503h-76l79 503h117zM201 109l-22 -109h-107l22 109h107z" />
    <glyph glyph-name="quotedbl" unicode="&#x22;" horiz-adv-x="422" 
d="M440 712l-38 -191h-96l39 191h95zM262 712l-38 -191h-96l39 191h95z" />
    <glyph glyph-name="numbersign" unicode="#" horiz-adv-x="646" 
d="M652 518l-18 -88h-87l-46 -132h79l-18 -88h-92l-73 -210h-103l74 210h-133l-74 -210h-102l73 210h-75l18 88h88l47 132h-81l18 88h93l69 198h103l-70 -198h134l68 198h103l-69 -198h74zM445 430h-133l-47 -132h133z" />
    <glyph glyph-name="dollar" unicode="$" horiz-adv-x="581" 
d="M584 633l-73 -63.001c-29.333 35.333 -69 54.333 -119 57l-43 -225l26 -6c54.667 -12.667 94.5 -33.167 119.5 -61.5s37.5 -66.166 37.5 -113.499c0 -36.667 -7.16699 -69.5 -21.5 -98.5s-33.666 -52.333 -57.999 -70s-51 -31.334 -80 -41.001s-59.5 -15.5 -91.5 -17.5
l-21 -108h-77l21 110c-44 2.66699 -81.333 11.5 -112 26.5s-59.334 38.5 -86.001 70.5l75 66c38 -46 87.333 -70.333 148 -73l44 231l-28 7c-96 24.667 -144 78.334 -144 161.001c0 60 20.833 112.667 62.5 158s100.5 70.333 176.5 75l17 88h77l-17 -90
c70 -6 125.667 -33.667 167 -83zM429 209.999c0 30.667 -8 52.666 -24 65.999s-40.667 23.333 -74 30l-41 -221c40.667 5.33301 74 19.333 100 42s39 50.334 39 83.001zM332 627.998c-38 -4.66699 -69 -19.5 -93 -44.5s-36 -54.167 -36 -87.5c0 -42 29.333 -69.667 88 -83z
" />
    <glyph glyph-name="percent" unicode="%" horiz-adv-x="808" 
d="M750 260c0 -10.667 -1.33301 -22.667 -4 -36l-19 -95c-18 -90 -69 -135 -153 -135c-32 0 -59.333 8.83301 -82 26.5s-34 44.5 -34 80.5c0 10.667 1.33301 22.667 4 36l19 95c18 90 69 135 153 135c32 0 59.333 -8.83301 82 -26.5s34 -44.5 34 -80.5zM677 252
c0 34 -17 51 -51 51c-39.333 0 -63.666 -23.667 -72.999 -71l-19 -95c-2 -10 -3 -19.333 -3 -28c0 -34 17 -51 51 -51c39.333 0 63.666 23.667 72.999 71l19 95c2 10 3 19.333 3 28zM695 712l-460 -712h-80l460 712h80zM391 611c0 -10.667 -1.33301 -22.667 -4 -36l-19 -95
c-18 -90 -69 -135 -153 -135c-32 0 -59.333 8.83301 -82 26.5s-34 44.5 -34 80.5c0 10.667 1.33301 22.667 4 36l19 95c18 90 69 135 153 135c32 0 59.333 -8.83301 82 -26.5s34 -44.5 34 -80.5zM318 603c0 34 -17 51 -51 51c-39.333 0 -63.666 -23.667 -72.999 -71l-19 -95
c-2 -10 -3 -19.333 -3 -28c0 -34 17 -51 51 -51c39.333 0 63.666 23.667 72.999 71l19 95c2 10 3 19.333 3 28z" />
    <glyph glyph-name="ampersand" unicode="&#x26;" horiz-adv-x="697" 
d="M627 356c-16 -88.667 -52.667 -161.669 -110 -219.002l88 -137h-119l-43 70c-59.333 -50.667 -127 -76 -203 -76c-54 0 -99 14.5 -135 43.5s-54 72.167 -54 129.5c0 56.667 15 102.834 45 138.501s75.333 71.834 136 108.501c-30 49.333 -45 92 -45 128
c0 45.333 15.333 86 46 122s78 54 142 54c52 0 89.167 -14.167 111.5 -42.5s33.5 -60.5 33.5 -96.5c0 -58 -34 -108 -102 -150l-57 -36l107 -179c32 34.667 53.667 82 65 142h94zM396 143.998l-122 199.001c-42 -25.333 -73.167 -50.333 -93.5 -75
s-30.5 -54.334 -30.5 -89.001c0 -28.667 9 -52.167 27 -70.5s42 -27.5 72 -27.5c51.333 0 100.333 21 147 63zM426 575.999c0 18.667 -5.33203 33.166 -15.999 43.499s-24.334 15.5 -41.001 15.5c-26 0 -46.333 -9.16699 -61 -27.5s-22 -40.166 -22 -65.499
c0 -21.333 10.667 -49 32 -83l37 23c23.333 14.667 41 29 53 43s18 31 18 51z" />
    <glyph glyph-name="quotesingle" unicode="'" horiz-adv-x="244" 
d="M262 712l-38 -191h-96l39 191h95z" />
    <glyph glyph-name="parenleft" unicode="(" horiz-adv-x="301" 
d="M341 734c-30.667 -26 -51.668 -46.666 -63.001 -61.999c-13.333 -18 -23.333 -43.333 -30 -76l-94 -466c-4.66699 -24.667 -7 -44.334 -7 -59.001c0 -30 15.667 -63.333 47 -100l-74 -65c-46.667 55.333 -70 106.666 -70 153.999c0 17.333 3 42 9 74l93 468
c10.667 50 24.667 87.333 42 112c16.667 24.667 47.334 55.334 92.001 92.001z" />
    <glyph glyph-name="parenright" unicode=")" horiz-adv-x="301" 
d="M292 652c0 -17.333 -2.99902 -42.001 -8.99902 -74.001l-93 -468c-10.667 -50 -24.667 -87.333 -42 -112c-16.667 -24.667 -47.334 -55.334 -92.001 -92.001l-55 72c30.667 26 51.667 46.667 63 62c13.333 18 23.333 43.333 30 76l94 466
c4.66699 24.667 7 44.334 7 59.001c0 30.667 -15.333 64 -46 100l73 65c46.667 -55.333 70 -106.666 70 -153.999z" />
    <glyph glyph-name="asterisk" unicode="*" horiz-adv-x="461" 
d="M467 552l-120 -37l96 -79l-46 -53l-91 86l-21 -124l-69 14l29 122l-117 -44l-23 66l120 36l-97 80l47 53l91 -86l20 124l69 -14l-28 -122l117 44z" />
    <glyph glyph-name="plus" unicode="+" 
d="M472 322l-18 -90h-159l-34 -170h-91l34 170h-159l18 90h159l34 171h91l-34 -171h159z" />
    <glyph glyph-name="comma" unicode="," horiz-adv-x="262" 
d="M161 116l-35 -176l-128 -95l54 271h109z" />
    <glyph glyph-name="hyphen" unicode="-" horiz-adv-x="405" 
d="M356 323l-18 -91h-277l17 91h278z" />
    <glyph glyph-name="period" unicode="." horiz-adv-x="264" 
d="M164 122l-24 -122h-116l24 122h116z" />
    <glyph glyph-name="slash" unicode="/" horiz-adv-x="363" 
d="M473 786l-442 -860h-96l443 860h95z" />
    <glyph glyph-name="zero" unicode="0" 
d="M505 555c0 -15.333 -1.66699 -31.333 -5 -48l-61 -306c-14.667 -74 -43.5 -127 -86.5 -159s-90.167 -48 -141.5 -48c-48.667 0 -88.667 14.5 -120 43.5s-47 68.833 -47 119.5c0 15.333 1.66699 31.333 5 48l61 306c14.667 74 43.5 127 86.5 159s90.167 48 141.5 48
c48.667 0 88.667 -14.5 120 -43.5s47 -68.833 47 -119.5zM409 550c0 28 -7.5 48.667 -22.5 62s-33.167 20 -54.5 20c-28.667 0 -54.834 -9.33301 -78.501 -28s-39.5 -49 -47.5 -91l-61 -311c-3.33301 -14.667 -5 -28 -5 -40c0 -28 7.5 -48.667 22.5 -62s33.167 -20 54.5 -20
c28.667 0 54.834 9.33301 78.501 28s39.5 49 47.5 91l61 311c3.33301 14.667 5 28 5 40z" />
    <glyph glyph-name="one" unicode="1" 
d="M430 712l-143 -712h-96l120 600l-157 -116l22 114l157 114h97z" />
    <glyph glyph-name="two" unicode="2" 
d="M507 548c0 -37.333 -7.83203 -69.667 -23.499 -97s-39.167 -57.333 -70.5 -90l-263 -275h276l-17 -86h-400l18 86l320 335c22 23.333 37.833 44 47.5 62s14.5 38.333 14.5 61c0 28.667 -7.16699 50.5 -21.5 65.5s-34.5 22.5 -60.5 22.5c-64.667 0 -105.667 -37 -123 -111
h-97c12 64.667 37.833 113.667 77.5 147s90.167 50 151.5 50c53.333 0 95.166 -14.833 125.499 -44.5s45.5 -71.5 45.5 -125.5z" />
    <glyph glyph-name="three" unicode="3" 
d="M496 557c0 -42.667 -9.83105 -81.168 -29.498 -115.501s-48.834 -59.833 -87.501 -76.5c46.667 -22.667 70 -65.667 70 -129c0 -66 -22 -123 -66 -171s-100 -72 -168 -72c-60 0 -106.333 14.833 -139 44.5s-49 69.167 -49 118.5c0 14 0.666992 24.667 2 32h95
c-0.666992 -5.33301 -1 -12.333 -1 -21c0 -26 7.83301 -47 23.5 -63s38.5 -24 68.5 -24c38.667 0 71.167 15.167 97.5 45.5s39.5 66.166 39.5 107.499c0 59.333 -31.667 89 -95 89h-17l16 84h18c36 0 65.833 14.167 89.5 42.5s35.5 61.5 35.5 99.5
c0 26 -7.16699 46.5 -21.5 61.5s-34.5 22.5 -60.5 22.5c-28 0 -53.167 -9.16699 -75.5 -27.5s-37.5 -43.166 -45.5 -74.499h-98c15.333 62.667 43.166 109.834 83.499 141.501s89.833 47.5 148.5 47.5c50 0 90.167 -15 120.5 -45s45.5 -69 45.5 -117z" />
    <glyph glyph-name="four" unicode="4" 
d="M467 200l-19 -90h-74l-22 -110h-93l22 110h-277l18 90l337 512h108l-337 -512h168l33 164h93l-33 -164h76z" />
    <glyph glyph-name="five" unicode="5" 
d="M529 712l-17 -86.001h-276l-39 -192c30.667 26 69 39 115 39c50 0 87.667 -14.667 113 -44s38 -66.333 38 -111c0 -27.333 -2.66699 -54.333 -8 -81c-16.667 -85.333 -43.667 -146.666 -81 -183.999c-38.667 -40 -90.667 -60 -156 -60
c-54.667 0 -96.5 14.833 -125.5 44.5s-43.5 67.5 -43.5 113.5c0 12 0.666992 22.333 2 31h93c-0.666992 -5.33301 -1 -12.333 -1 -21c0 -24 6.5 -43.5 19.5 -58.5s32.5 -22.5 58.5 -22.5c40 0 70.333 13.833 91 41.5s35.667 66.167 45 115.5c4.66699 23.333 7 46 7 68
c0 57.333 -25 86 -75 86s-88 -22 -114 -66h-86l77 387h363z" />
    <glyph glyph-name="six" unicode="6" 
d="M449 229c0 -67.333 -20.834 -123.333 -62.501 -168s-93.5 -67 -155.5 -67c-62.667 0 -109.667 18.167 -141 54.5s-47 79.5 -47 129.5c0 32.667 5.83301 63 17.5 91s31.834 64 60.501 108l222 335h106l-208 -311c18 6 34 9 48 9c48.667 0 87.5 -16.5 116.5 -49.5
s43.5 -76.833 43.5 -131.5zM351.999 226c0 31.333 -8.33301 56.666 -25 75.999s-39 29 -67 29c-38 0 -67.667 -15.167 -89 -45.5s-32 -63.833 -32 -100.5c0 -31.333 8.16699 -56.666 24.5 -75.999s38.5 -29 66.5 -29c36.667 0 66.167 14.833 88.5 44.5s33.5 63.5 33.5 101.5
z" />
    <glyph glyph-name="seven" unicode="7" 
d="M557 712l-17 -86l-345 -626h-107l346 626h-210l-21 -108h-93l38 194h409z" />
    <glyph glyph-name="eight" unicode="8" 
d="M507 545c0 -40 -10.667 -76.668 -32 -110.001s-49.333 -58 -84 -74c43.333 -31.333 65 -77 65 -137c0 -64 -21 -118.333 -63 -163s-100.333 -67 -175 -67c-53.333 0 -97.5 15.167 -132.5 45.5s-52.5 74.5 -52.5 132.5c0 94 43.333 161.333 130 202
c-37.333 30 -56 70.667 -56 122c0 62.667 21 115.334 63 158.001s95.667 64 161 64c51.333 0 93.5 -15.833 126.5 -47.5s49.5 -73.5 49.5 -125.5zM358 224.999c0 29.333 -8.5 53.166 -25.5 71.499s-39.833 27.5 -68.5 27.5c-39.333 0 -71.5 -13.833 -96.5 -41.5
s-37.5 -62.167 -37.5 -103.5c0 -29.333 8.5 -53.166 25.5 -71.499s39.833 -27.5 68.5 -27.5c40 0 72.333 13.667 97 41s37 62 37 104zM410 543.999c0 26 -7.50098 47.167 -22.501 63.5s-35.833 24.5 -62.5 24.5c-36 0 -65.167 -13.667 -87.5 -41s-33.5 -59 -33.5 -95
c0 -26 7.33301 -47.167 22 -63.5s35.334 -24.5 62.001 -24.5c36 0 65.333 13.667 88 41s34 59 34 95z" />
    <glyph glyph-name="nine" unicode="9" 
d="M506 534c0 -32.667 -5.83105 -63 -17.498 -91s-31.834 -64 -60.501 -108l-222 -335h-106l209 311c-18 -6 -34.333 -9 -49 -9c-48.667 0 -87.334 16.5 -116.001 49.5s-43 76.833 -43 131.5c0 67.333 20.667 123.333 62 168s93 67 155 67
c62.667 0 109.667 -18.167 141 -54.5s47 -79.5 47 -129.5zM410.002 527c0 31.333 -8.16699 56.666 -24.5 75.999s-38.5 29 -66.5 29c-36.667 0 -66 -14.667 -88 -44s-33 -63.333 -33 -102c0 -31.333 8.16699 -56.666 24.5 -75.999s38.5 -29 66.5 -29
c38 0 67.667 15.167 89 45.5s32 63.833 32 100.5z" />
    <glyph glyph-name="colon" unicode=":" horiz-adv-x="288" 
d="M190 122l-25 -122h-115l24 122h116zM244 407l-24 -121h-116l25 121h115z" />
    <glyph glyph-name="semicolon" unicode=";" horiz-adv-x="288" 
d="M186 116l-35 -176l-129 -95l54 271h110zM245 407l-24 -121h-116l25 121h115z" />
    <glyph glyph-name="less" unicode="&#x3c;" 
d="M464 501l-21 -107l-262 -117l217 -122l-20 -98l-317 185l18 84z" />
    <glyph glyph-name="equal" unicode="=" 
d="M491 416l-18 -90h-409l18 90h409zM455 229l-18 -90h-409l18 90h409z" />
    <glyph glyph-name="greater" unicode="&#x3e;" 
d="M456 311l-17 -84l-385 -175l20 107l263 117l-218 122l20 98z" />
    <glyph glyph-name="question" unicode="?" horiz-adv-x="486" 
d="M504 565c0 -55.333 -23.667 -109.333 -71 -162l-96 -108c-14 -16 -23.333 -34.333 -28 -55l-7 -31h-97l8 38c8 38 25 71.333 51 100l95 105c32 35.333 48 70.333 48 105c0 21.333 -6.5 39 -19.5 53s-31.167 21 -54.5 21c-29.333 0 -54 -8.83301 -74 -26.5
s-33.333 -41.834 -40 -72.501h-98c11.333 60.667 37 106.834 77 138.501s89.667 47.5 149 47.5c43.333 0 80.333 -14 111 -42s46 -65 46 -111zM292 109l-21 -109h-107l21 109h107z" />
    <glyph glyph-name="at" unicode="@" horiz-adv-x="700" 
d="M692 546c0 -23.333 -2.33301 -46.0029 -7 -68.0029l-96 -478h-90l10 51c-34 -38.667 -76 -58 -126 -58c-44.667 0 -79.167 13.333 -103.5 40s-36.5 59.667 -36.5 99c0 26.667 4.33301 60.667 13 102c10 49.333 20.333 87.833 31 115.5s26 51.834 46 72.501
c34.667 35.333 79 53 133 53c51.333 0 89 -19.333 113 -58l13 67c4 22.667 6 37.667 6 45c0 26 -7.33301 48 -22 66c-19.333 23.333 -49.666 35 -90.999 35h-120c-44 0 -80 -12 -108 -36c-26 -22 -44.333 -58.667 -55 -110l-64 -316c-3.33301 -18 -5 -34.333 -5 -49
c0 -21.333 10.333 -42.333 31 -63l-74 -65c-34.667 36.667 -52 74.334 -52 113.001c0 18 2.33301 38.667 7 62l63 317c15.333 78.667 42.333 136.334 81 173.001c41.333 39.333 100.666 59 177.999 59h143c64.667 0 113 -18.667 145 -56c24.667 -28 37 -65.667 37 -113z
M553 312.997c0 22.667 -5.66699 41.835 -17 57.502s-30 23.5 -56 23.5c-37.333 0 -65.666 -13.167 -84.999 -39.5s-34.666 -66.5 -45.999 -120.5c-6.66699 -31.333 -10 -57.333 -10 -78c0 -22.667 5.66699 -41.834 17 -57.501s30 -23.5 56 -23.5
c37.333 0 65.666 13 84.999 39s34.666 66 45.999 120c6.66699 31.333 10 57.666 10 78.999z" />
    <glyph glyph-name="A" unicode="A" horiz-adv-x="594" 
d="M537 0h-105l-18 146h-268l-77 -146h-111l390 712h83zM405 231l-43 327l-173 -327h216z" />
    <glyph glyph-name="B" unicode="B" horiz-adv-x="630" 
d="M612 549c0 -37.333 -9.5 -73.001 -28.5 -107.001s-50.833 -60.667 -95.5 -80c50 -27.333 75 -70.666 75 -129.999c0 -68.667 -22.167 -124.5 -66.5 -167.5s-100.5 -64.5 -168.5 -64.5h-290l143 712h249c64.667 0 111.167 -16.167 139.5 -48.5s42.5 -70.5 42.5 -114.5z
M459 227.999c0 28 -8 49.833 -24 65.5s-39 23.5 -69 23.5h-161l-45 -226h165c40 0 72.333 12.833 97 38.5s37 58.5 37 98.5zM508 535.999c0 56.667 -31.333 85 -94 85h-148l-43 -213h152c41.333 0 73.833 12.833 97.5 38.5s35.5 55.5 35.5 89.5z" />
    <glyph glyph-name="C" unicode="C" horiz-adv-x="599" 
d="M594 503l-103 0.000976562c-0.666992 38 -10.5 68.333 -29.5 91s-46.5 34 -82.5 34c-44.667 0 -83 -17 -115 -51c-16.667 -17.333 -30.334 -41 -41.001 -71s-23 -80 -37 -150c-14.667 -74 -22 -127 -22 -159c0 -34.667 11 -62.167 33 -82.5s49.667 -30.5 83 -30.5
c39.333 0 72.5 11.833 99.5 35.5s46.833 53.5 59.5 89.5h106c-22 -69.333 -57.167 -122.5 -105.5 -159.5s-104.166 -55.5 -167.499 -55.5c-62 0 -112.667 18.167 -152 54.5s-59 83.833 -59 142.5c0 37.333 7.33301 92.333 22 165c16.667 84 31.5 144.667 44.5 182
s33.5 70.666 61.5 99.999c50 53.333 115 80 195 80c68 0 120 -19.833 156 -59.5s54 -91.5 54 -155.5z" />
    <glyph glyph-name="D" unicode="D" horiz-adv-x="632" 
d="M613 516c0 -30 -7.00098 -81.333 -21.001 -154c-17.333 -88 -33.666 -152 -48.999 -192s-38.333 -74.333 -69 -103c-47.333 -44.667 -111 -67 -191 -67h-245l143 712h227c59.333 0 108.333 -15.833 147 -47.5s58 -81.167 58 -148.5zM509.999 508
c0 36.667 -10.168 64.832 -30.501 84.499s-50.166 29.5 -89.499 29.5h-124l-106 -532h122c50 0 91.333 15 124 45c18 16.667 33.167 41.5 45.5 74.5s24.833 83.833 37.5 152.5c14 72.667 21 121.334 21 146.001z" />
    <glyph glyph-name="E" unicode="E" horiz-adv-x="575" 
d="M613 712l-18 -90h-329l-43 -218h282l-18 -90h-282l-45 -224h335l-18 -90h-439l143 712h432z" />
    <glyph glyph-name="F" unicode="F" horiz-adv-x="556" 
d="M613 712l-18 -90h-329l-45 -226h282l-18 -91h-283l-61 -305h-103l143 712h432z" />
    <glyph glyph-name="G" unicode="G" horiz-adv-x="618" 
d="M598 502l-103.002 0.00292969c-1.33301 39.333 -11.833 70.166 -31.5 92.499s-47.167 33.5 -82.5 33.5c-45.333 0 -84 -17 -116 -51c-18 -18 -32.167 -42.167 -42.5 -72.5s-22.5 -79.833 -36.5 -148.5c-14.667 -74 -22 -127 -22 -159
c0 -34.667 11.167 -62.167 33.5 -82.5s49.833 -30.5 82.5 -30.5c38 0 73.5 14.167 106.5 42.5s54.833 70.166 65.5 125.499l8 45h-145l16 86h248l-20 -107c-16.667 -87.333 -48 -155 -94 -203c-51.333 -52.667 -115.333 -79 -192 -79c-64.667 0 -116.167 18.333 -154.5 55
s-57.5 84 -57.5 142c0 40.667 7.33301 95.667 22 165c18 88.667 33.333 150.5 46 185.5s33 67.167 61 96.5c24 25.333 53.333 45 88 59s70.334 21 107.001 21c68 0 120.333 -19.833 157 -59.5s55.334 -91.834 56.001 -156.501z" />
    <glyph glyph-name="H" unicode="H" horiz-adv-x="656" 
d="M661 712l-143 -712h-103l63 315h-273l-64 -315h-103l143 712h103l-61 -307h274l61 307h103z" />
    <glyph glyph-name="I" unicode="I" horiz-adv-x="279" 
d="M284 712l-143 -712h-103l143 712h103z" />
    <glyph glyph-name="J" unicode="J" horiz-adv-x="481" 
d="M494 712l-98.001 -493c-16 -78 -47.167 -135 -93.5 -171s-98.833 -54 -157.5 -54c-72.667 0 -128 23.667 -166 71l74 64c24.667 -30 56.334 -45 95.001 -45c34 0 64.5 12 91.5 36s45.5 60.333 55.5 109l96 483h103z" />
    <glyph glyph-name="K" unicode="K" horiz-adv-x="629" 
d="M685 712l-275 -288l164 -424h-113l-133 355l-146 -145l-42 -210h-102l143 712h102l-71 -357l345 357h128z" />
    <glyph glyph-name="L" unicode="L" horiz-adv-x="548" 
d="M488 90l-18 -90h-432l143 712h103l-124 -622h328z" />
    <glyph glyph-name="M" unicode="M" horiz-adv-x="773" 
d="M778 712l-143 -712h-103l97 480l-223 -336h-76l-91 340l-97 -484h-104l143 712h98l110 -436l288 436h101z" />
    <glyph glyph-name="N" unicode="N" horiz-adv-x="686" 
d="M691 712l-143 -712h-90l-214 510l-103 -510h-103l143 712h91l214 -510l102 510h103z" />
    <glyph glyph-name="O" unicode="O" horiz-adv-x="614" 
d="M592 521c0 -37.333 -7.33301 -92.333 -22 -165c-16.667 -83.333 -31.667 -144 -45 -182s-33.666 -71.333 -60.999 -100c-50.667 -53.333 -116.334 -80 -197.001 -80c-62 0 -111.833 18.333 -149.5 55s-56.5 84 -56.5 142c0 37.333 7.33301 92.333 22 165
c16.667 83.333 31.667 144 45 182s33.666 71.333 60.999 100c50.667 53.333 116 80 196 80c62.667 0 112.834 -18.333 150.501 -55s56.5 -84 56.5 -142zM489 513c0 36 -10.667 64.167 -32 84.5s-47.333 30.5 -78 30.5c-45.333 0 -84 -17 -116 -51
c-16 -16.667 -29.333 -40.5 -40 -71.5s-23 -80.833 -37 -149.5c-14.667 -74 -22 -126.333 -22 -157c0 -36 10.667 -64.167 32 -84.5s47.333 -30.5 78 -30.5c45.333 0 84 17 116 51c16 16.667 29.333 40.5 40 71.5s23 80.833 37 149.5c14.667 74 22 126.333 22 157z" />
    <glyph glyph-name="P" unicode="P" horiz-adv-x="598" 
d="M615 532c0 -68.667 -23.168 -126.667 -69.501 -174s-109.166 -71 -188.499 -71h-158l-58 -287h-103l143 712h247c60.667 0 107 -17 139 -51s48 -77 48 -129zM511.999 524c0 28.667 -8 51.999 -24 69.999s-41 27 -75 27h-147l-49 -244h144c46 0 82.667 14.333 110 43
s41 63.334 41 104.001z" />
    <glyph glyph-name="Q" unicode="Q" horiz-adv-x="614" 
d="M592 521c0 -37.333 -7.33301 -92.333 -22 -165c-16 -78 -30 -135.5 -42 -172.5s-29.333 -69.167 -52 -96.5l54 -70l-64 -56l-55 71c-40.667 -25.333 -88.667 -38 -144 -38c-62 0 -111.833 18.333 -149.5 55s-56.5 84 -56.5 142c0 37.333 7.33301 92.333 22 165
c16.667 83.333 31.667 144 45 182s33.666 71.333 60.999 100c50.667 53.333 116 80 196 80c62.667 0 112.834 -18.333 150.501 -55s56.5 -84 56.5 -142zM489 513c0 36 -10.668 64.168 -32.001 84.501s-47.333 30.5 -78 30.5c-45.333 0 -84 -17 -116 -51
c-16 -16.667 -29.333 -40.5 -40 -71.5s-23 -80.833 -37 -149.5c-14.667 -74 -22 -126.333 -22 -157c0 -36 10.667 -64.167 32 -84.5s47.333 -30.5 78 -30.5s57.667 7.33301 81 22l-63 82l64 57l58 -76c16.667 31.333 34.334 93.666 53.001 186.999
c14.667 74 22 126.333 22 157z" />
    <glyph glyph-name="R" unicode="R" horiz-adv-x="626" 
d="M615 534c0 -50 -15.501 -95.5 -46.501 -136.5s-74.5 -68.833 -130.5 -83.5l101 -314h-113l-91 304h-132l-62 -304h-103l143 712h248c64.667 0 111.834 -16.833 141.501 -50.5s44.5 -76.167 44.5 -127.5zM510.999 529c0 29.333 -8.16699 52 -24.5 68s-40.5 24 -72.5 24
h-148l-47 -231h149c46 0 81.333 14.167 106 42.5s37 60.5 37 96.5z" />
    <glyph glyph-name="S" unicode="S" horiz-adv-x="561" 
d="M564 634l-72 -63.002c-32.667 38.667 -77.667 58 -135 58c-46 0 -83 -13.333 -111 -40s-42 -57.667 -42 -93c0 -41.333 29.667 -69.333 89 -84l62 -15c56.667 -13.333 97.167 -34 121.5 -62s36.5 -67 36.5 -117c0 -71.333 -26.333 -126.5 -79 -165.5
s-118.334 -58.5 -197.001 -58.5c-53.333 0 -97.833 7.66699 -133.5 23s-68.167 40.333 -97.5 75l76 66c38.667 -48.667 93.334 -73 164.001 -73c46.667 0 85.667 12 117 36s47 54 47 90c0 28.667 -7.5 49.834 -22.5 63.501s-36.833 23.834 -65.5 30.501l-63 15
c-48.667 11.333 -87.167 31 -115.5 59s-42.5 63.333 -42.5 106c0 63.333 23.667 118 71 164s113 69 197 69c84.667 0 149.667 -28 195 -84z" />
    <glyph glyph-name="T" unicode="T" horiz-adv-x="532" 
d="M595 712l-18 -91h-184l-125 -621h-103l125 621h-188l19 91h474z" />
    <glyph glyph-name="U" unicode="U" horiz-adv-x="642" 
d="M656 712l-95 -473c-16 -80 -49.167 -140.833 -99.5 -182.5s-110.833 -62.5 -181.5 -62.5c-57.333 0 -106.333 17.5 -147 52.5s-61 83.5 -61 145.5c0 18 2.33301 38.667 7 62l91 458h103l-93 -466c-3.33301 -20 -5 -36 -5 -48c0 -31.333 9.16699 -58 27.5 -80
s46.5 -33 84.5 -33c42.667 0 79.667 14.333 111 43s52.333 69.667 63 123l92 461h103z" />
    <glyph glyph-name="V" unicode="V" horiz-adv-x="536" 
d="M623 712l-362 -712h-82l-82 712h102l56 -526l258 526h110z" />
    <glyph glyph-name="W" unicode="W" horiz-adv-x="831" 
d="M910 712l-314 -712h-89l-38 504l-241 -504h-89l-37 712h106l17 -515l240 515h82l36 -515l217 515h110z" />
    <glyph glyph-name="X" unicode="X" horiz-adv-x="553" 
d="M617 712l-262 -351l142 -361h-115l-100 277l-202 -277h-120l280 371l-131 341h115l89 -258l184 258h120z" />
    <glyph glyph-name="Y" unicode="Y" horiz-adv-x="521" 
d="M605 712l-284 -423l-58 -289h-103l59 294l-125 418h109l85 -319l204 319h113z" />
    <glyph glyph-name="Z" unicode="Z" horiz-adv-x="529" 
d="M570 712l-17 -82l-416 -539h315l-18 -91h-437l17 87l413 534h-299l18 91h424z" />
    <glyph glyph-name="bracketleft" unicode="[" horiz-adv-x="329" 
d="M391 786l-17 -86h-106l-138 -688h115l-17 -86h-211l171 860h203z" />
    <glyph glyph-name="backslash" unicode="\" horiz-adv-x="357" 
d="M292 -74h-88l-99 852h89z" />
    <glyph glyph-name="bracketright" unicode="]" horiz-adv-x="329" 
d="M354 786l-171 -860h-203l17 84h108l138 692h-117l17 84h211z" />
    <glyph glyph-name="asciicircum" unicode="^" horiz-adv-x="547" 
d="M514 401h-96l-67 215l-153 -215h-104l226 318h94z" />
    <glyph glyph-name="underscore" unicode="_" 
d="M436 -102l-13 -66h-506l13 66h506z" />
    <glyph glyph-name="grave" unicode="`" horiz-adv-x="508" 
d="M360 595h-77l-71 159h97z" />
    <glyph glyph-name="a" unicode="a" horiz-adv-x="505" 
d="M456 376c0 -13.333 -1.66699 -27.335 -5 -42.002l-67 -334h-94l10 47c-35.333 -35.333 -79.666 -53 -132.999 -53c-43.333 0 -79 11.333 -107 34s-42 54.334 -42 95.001c0 48.667 15.333 88.334 46 119.001c35.333 35.333 84.666 53 147.999 53h134l9 41
c2 9.33301 3 19.333 3 30c0 43.333 -29 65 -87 65c-49.333 0 -90.333 -18 -123 -54l-53 65c45.333 47.333 107.333 71 186 71c47.333 0 88.333 -10.667 123 -32s52 -56.333 52 -105zM333 226.998l-112.001 -0.000976562c-32.667 0 -58.667 -8.66699 -78 -26
s-29 -40.666 -29 -69.999c0 -38 27 -57 81 -57c38 0 69.333 11.667 94 35c16.667 16.667 28.334 41 35.001 73z" />
    <glyph glyph-name="b" unicode="b" horiz-adv-x="526" 
d="M485 359c0 -26 -4.33301 -61.001 -13 -105.001c-9.33301 -51.333 -20.166 -93.666 -32.499 -126.999s-29.5 -61 -51.5 -83c-33.333 -33.333 -77.333 -50 -132 -50c-59.333 0 -100.333 21.333 -123 64l-11 -58h-95l142 712h97l-50 -256c31.333 38 73.666 57 126.999 57
c43.333 0 77.833 -13 103.5 -39s38.5 -64.333 38.5 -115zM386 338.999c0 58.667 -25.001 88 -75.001 88c-40 0 -70 -14.833 -90 -44.5s-35.333 -72.5 -46 -128.5c-7.33301 -41.333 -11 -70 -11 -86c0 -58.667 25.333 -88 76 -88c40 0 69.833 14.833 89.5 44.5
s34.834 72.834 45.501 129.501c7.33301 41.333 11 69.666 11 84.999z" />
    <glyph glyph-name="c" unicode="c" horiz-adv-x="462" 
d="M457 440l-72.999 -63c-23.333 33.333 -51.666 50 -84.999 50c-34 0 -64.333 -13.667 -91 -41c-29.333 -30 -49.333 -74 -60 -132c-4.66699 -23.333 -7 -47 -7 -71c0 -33.333 8.16699 -58.833 24.5 -76.5s38.166 -26.5 65.499 -26.5c38.667 0 74 17 106 51l55 -70
c-46.667 -44.667 -103 -67 -169 -67c-54 0 -97.333 16.5 -130 49.5s-49 77.167 -49 132.5c0 28 2.33301 54 7 78c16.667 88.667 48 154 94 196s100.667 63 164 63s112.666 -24.333 147.999 -73z" />
    <glyph glyph-name="d" unicode="d" horiz-adv-x="526" 
d="M541 712l-142.001 -712h-94l11 54c-34 -40 -78.333 -60 -133 -60c-50 0 -86 14.167 -108 42.5s-33 64.166 -33 107.499c0 26.667 4.66699 63.334 14 110.001c20.667 104 48.334 173.333 83.001 208c34 34 78.333 51 133 51c56 0 96 -20.667 120 -62l52 261h97z
M363.999 340c0 58 -25.332 87 -75.999 87c-40 0 -69.833 -14.667 -89.5 -44s-34.834 -72.333 -45.501 -129c-7.33301 -41.333 -11 -70.333 -11 -87c0 -58 25 -87 75 -87c40 0 70 15 90 45s35.333 73 46 129c7.33301 41.333 11 70 11 86z" />
    <glyph glyph-name="e" unicode="e" horiz-adv-x="514" 
d="M470 336c0 -30 -5.00098 -66.6641 -15.001 -109.997h-314c-3.33301 -18 -5 -34.333 -5 -49c0 -30.667 8.16699 -55.167 24.5 -73.5s40.5 -27.5 72.5 -27.5c46.667 0 90.334 18.667 131.001 56l54 -64c-52 -49.333 -116.667 -74 -194 -74
c-51.333 0 -94.333 14.667 -129 44s-52 73.666 -52 132.999c0 56.667 8.5 110.167 25.5 160.5s45.333 93.166 85 128.499s87.5 53 143.5 53c53.333 0 95.5 -16.333 126.5 -49s46.5 -75.334 46.5 -128.001zM376.999 336.003c0 31.333 -7.83398 55.333 -23.501 72
s-36.167 25 -61.5 25c-67.333 0 -113.666 -46.667 -138.999 -140h220c2.66699 20 4 34.333 4 43z" />
    <glyph glyph-name="f" unicode="f" horiz-adv-x="312" 
d="M378 717l-17 -82h-40c-36.667 0 -59 -20.333 -67 -61l-14 -67h97l-15 -74h-96l-87 -433h-97l87 433h-55l14 74h55l16 76c18.667 89.333 70.667 134 156 134h63z" />
    <glyph glyph-name="g" unicode="g" horiz-adv-x="522" 
d="M496 507l-100 -503c-15.333 -76 -45 -130.833 -89 -164.5s-94.667 -50.5 -152 -50.5c-68.667 0 -122.667 23 -162 69l68 59c25.333 -30.667 57 -46 95 -46c35.333 0 65.833 11.333 91.5 34s43.167 56 52.5 100l13 64c-31.333 -38 -73.333 -57 -126 -57
c-42.667 0 -77 13 -103 39s-39 62.667 -39 110c0 24.667 4 58.667 12 102c17.333 96 44 162 80 198c34.667 34.667 79 52 133 52c57.333 0 97.333 -21.333 120 -64l12 58h94zM361 342c0 56.667 -25.332 84.998 -75.999 84.998c-38 0 -66.833 -14.167 -86.5 -42.5
s-34.5 -69.166 -44.5 -122.499c-6.66699 -35.333 -10 -61.666 -10 -78.999c0 -56.667 25 -85 75 -85c37.333 0 66.166 14.333 86.499 43s35.5 69.334 45.5 122.001c6.66699 35.333 10 61.666 10 78.999z" />
    <glyph glyph-name="h" unicode="h" horiz-adv-x="540" 
d="M487 371c0 -17.333 -1.66602 -34.999 -4.99902 -52.999l-64 -318h-97l62 311c3.33301 16.667 5 30 5 40c0 24.667 -7.16699 43.5 -21.5 56.5s-32.5 19.5 -54.5 19.5c-10.667 0 -21.5 -1.5 -32.5 -4.5s-23 -8.33301 -36 -16s-24.667 -19.834 -35 -36.501
s-17.833 -37 -22.5 -61l-62 -309h-97l142 712h97l-51 -252c35.333 35.333 80.666 53 135.999 53c38 0 70.167 -12.167 96.5 -36.5s39.5 -59.5 39.5 -105.5z" />
    <glyph glyph-name="i" unicode="i" horiz-adv-x="251" 
d="M226 507l-102 -507h-97l102 507h97zM268 708l-18 -88h-103l17 88h104z" />
    <glyph glyph-name="j" unicode="j" horiz-adv-x="251" 
d="M226 507l-115.999 -577c-18.667 -92 -70.334 -138 -155.001 -138h-64l16 83h39c38 0 61 21.333 69 64l114 568h97zM268.001 708l-18 -88h-103l17 88h104z" />
    <glyph glyph-name="k" unicode="k" horiz-adv-x="523" 
d="M530 507l-208 -204l135 -303h-111l-98 242l-93 -88l-31 -154h-97l142 712h97l-86 -437l232 232h118z" />
    <glyph glyph-name="l" unicode="l" horiz-adv-x="298" 
d="M263 712l-113 -567c-2.66699 -16 -4 -25 -4 -27c0 -24 15.667 -36 47 -36h46l-17 -82h-60c-32 0 -58.833 8.66699 -80.5 26s-32.5 43 -32.5 77c0 15.333 1.33301 29.333 4 42l113 567h97z" />
    <glyph glyph-name="m" unicode="m" horiz-adv-x="833" 
d="M780 371c0 -15.333 -1.99902 -32.998 -5.99902 -52.998l-64 -318h-97l63 311c3.33301 16.667 5 30 5 40c0 24.667 -7.16699 43.5 -21.5 56.5s-32.833 19.5 -55.5 19.5c-10.667 0 -21.334 -1.5 -32.001 -4.5s-22.5 -8.33301 -35.5 -16s-24.667 -19.834 -35 -36.501
s-17.833 -37 -22.5 -61l-62 -309h-97l62 311c3.33301 16.667 5 30 5 40c0 24.667 -7.16699 43.5 -21.5 56.5s-32.5 19.5 -54.5 19.5c-10.667 0 -21.5 -1.5 -32.5 -4.5s-23 -8.33301 -36 -16s-24.667 -19.834 -35 -36.501s-17.833 -37 -22.5 -61l-62 -309h-97l101 507h94
l-10 -52c35.333 38.667 82.333 58 141 58c54 0 93.333 -24.667 118 -74c42.667 49.333 98.667 74 168 74c39.333 0 72.833 -12.5 100.5 -37.5s41.5 -59.833 41.5 -104.5z" />
    <glyph glyph-name="n" unicode="n" horiz-adv-x="540" 
d="M487 371c0 -17.333 -1.66699 -34.999 -5 -52.999l-64 -318h-97l62 311c3.33301 16.667 5 30 5 40c0 24.667 -7.16699 43.5 -21.5 56.5s-32.5 19.5 -54.5 19.5c-10.667 0 -21.5 -1.5 -32.5 -4.5s-23 -8.33301 -36 -16s-24.667 -19.834 -35 -36.501s-17.833 -37 -22.5 -61
l-62 -309h-97l101 507h94l-10 -52c35.333 38.667 82.333 58 141 58c36.667 0 68.167 -12.167 94.5 -36.5s39.5 -59.5 39.5 -105.5z" />
    <glyph glyph-name="o" unicode="o" horiz-adv-x="508" 
d="M464 346c0 -28 -3.00098 -58.666 -9.00098 -91.999c-19.333 -96.667 -50.333 -164.334 -93 -203.001c-41.333 -38 -91.666 -57 -150.999 -57c-46 0 -85.333 14 -118 42s-49 69.667 -49 125c0 28.667 3 59.667 9 93c19.333 96 50.333 163.333 93 202
c40.667 38 91 57 151 57c46 0 85.333 -14 118 -42s49 -69.667 49 -125zM367.999 337.001c0 30 -7.33301 52.5 -22 67.5s-34 22.5 -58 22.5c-30.667 0 -56.667 -10.667 -78 -32c-26 -26 -46 -73 -60 -141c-6.66699 -34 -10 -61.667 -10 -83c0 -30.667 7.5 -53.5 22.5 -68.5
s34.167 -22.5 57.5 -22.5c30.667 0 56.667 10.667 78 32c26.667 26 46.667 73.333 60 142c6.66699 34 10 61.667 10 83z" />
    <glyph glyph-name="p" unicode="p" horiz-adv-x="526" 
d="M485 364c0 -30 -4.33301 -66.668 -13 -110.001c-20.667 -103.333 -48.667 -172.666 -84 -207.999c-34.667 -34.667 -78.667 -52 -132 -52c-56 0 -96 20.667 -120 62l-53 -261h-97l142 712h95l-12 -54c34 40 78.333 60 133 60c50 0 86 -14.167 108 -42.5
s33 -63.833 33 -106.5zM386 339.999c0 58 -25.332 87 -75.999 87c-40 0 -69.833 -14.667 -89.5 -44s-34.834 -72.333 -45.501 -129c-7.33301 -41.333 -11 -70.333 -11 -87c0 -58 25 -87 75 -87c40 0 70 15 90 45s35.333 73 46 129c7.33301 41.333 11 70 11 86z" />
    <glyph glyph-name="q" unicode="q" horiz-adv-x="526" 
d="M500 507l-142.002 -712h-97l50 256c-31.333 -38 -74 -57 -128 -57c-43.333 0 -77.666 13 -102.999 39s-38 64.333 -38 115c0 26.667 4.33301 62 13 106c18.667 102 46.667 171.667 84 209c33.333 33.333 77.333 50 132 50c58.667 0 99.334 -21.333 122.001 -64l12 58h95z
M362.998 339c0 58.667 -25.332 88.001 -75.999 88.001c-40 0 -69.833 -14.667 -89.5 -44s-34.834 -72.333 -45.501 -129c-7.33301 -41.333 -11 -70 -11 -86c0 -58.667 25 -88 75 -88c40 0 70 15 90 45s35.333 73 46 129c7.33301 41.333 11 69.666 11 84.999z" />
    <glyph glyph-name="r" unicode="r" horiz-adv-x="415" 
d="M455 465l-81.001 -72c-17.333 22 -38.666 33 -63.999 33c-30 0 -56.333 -11 -79 -33s-37.667 -50.333 -45 -85l-62 -308h-97l101 507h95l-12 -56c32.667 41.333 78 62 136 62c44.667 0 80.667 -16 108 -48z" />
    <glyph glyph-name="s" unicode="s" horiz-adv-x="473" 
d="M446 454l-66.998 -60.001c-26.667 26 -62.334 39 -107.001 39c-34 0 -60.333 -8 -79 -24s-28 -35 -28 -57c0 -26 20 -42 60 -48l67 -10c44 -6.66699 75.5 -20.334 94.5 -41.001s28.5 -49.667 28.5 -87c0 -43.333 -17.333 -82 -52 -116c-38 -37.333 -96.667 -56 -176 -56
c-83.333 0 -147 24.667 -191 74l70 62c30 -35.333 73 -53 129 -53c39.333 0 69.666 8.33301 90.999 25s32 35.667 32 57c0 16.667 -4.83301 28.834 -14.5 36.501s-24.5 13.167 -44.5 16.5l-67 10c-82.667 12.667 -124 50 -124 112c0 48.667 16.333 89.334 49 122.001
c38 38 93 57 165 57c68 0 122.667 -19.667 164 -59z" />
    <glyph glyph-name="t" unicode="t" horiz-adv-x="328" 
d="M329 507l-14 -74h-92l-57 -289c-2.66699 -14.667 -4 -23 -4 -25c0 -24.667 16 -37 48 -37h42l-16 -82h-58c-32 0 -58.833 8.66699 -80.5 26s-32.5 43 -32.5 77c0 13.333 1.33301 27.333 4 42l57 288h-57l15 74h57l29 145h97l-29 -145h91z" />
    <glyph glyph-name="u" unicode="u" horiz-adv-x="540" 
d="M513 507l-101 -507.001h-94l10 52c-35.333 -38.667 -82.333 -58 -141 -58c-36.667 0 -68.167 12.167 -94.5 36.5s-39.5 59.5 -39.5 105.5c0 17.333 1.66699 35 5 53l64 318h97l-62 -311c-3.33301 -16.667 -5 -30 -5 -40c0 -24.667 7.16699 -43.5 21.5 -56.5
s32.5 -19.5 54.5 -19.5c10.667 0 21.5 1.5 32.5 4.5s23 8.33301 36 16s24.667 19.834 35 36.501s17.833 37 22.5 61l62 309h97z" />
    <glyph glyph-name="v" unicode="v" horiz-adv-x="447" 
d="M490 507l-276 -507h-80l-76 507h97l44 -367l186 367h105z" />
    <glyph glyph-name="w" unicode="w" horiz-adv-x="704" 
d="M745 507l-245 -507h-80l-45 356l-184 -356h-82l-50 507h98l24 -360l182 360h74l42 -360l163 360h103z" />
    <glyph glyph-name="x" unicode="x" horiz-adv-x="480" 
d="M499 507l-203 -252l118 -255h-112l-74 179l-136 -179h-120l214 262l-113 245h112l69 -170l127 170h118z" />
    <glyph glyph-name="y" unicode="y" horiz-adv-x="444" 
d="M489 507l-327.001 -607.999c-14 -25.333 -28.333 -45.333 -43 -60c-27.333 -26.667 -64.666 -40 -111.999 -40h-40l18 87h25c20 0 35 4.16699 45 12.5s21.333 24.166 34 47.499l42 78l-73 483h97l44 -367l186 367h104z" />
    <glyph glyph-name="z" unicode="z" horiz-adv-x="450" 
d="M454 507l-15 -77l-305 -344h243l-17 -86h-367l16 77l303 344h-228l18 86h352z" />
    <glyph glyph-name="braceleft" unicode="{" horiz-adv-x="386" 
d="M446 786l-18 -86.001h-35c-28 0 -47 -5.16699 -57 -15.5s-18 -30.166 -24 -59.499l-34 -169c-11.333 -54.667 -39 -88 -83 -100c30 -16 45 -40.667 45 -74c0 -10.667 -1 -21 -3 -31l-32 -161c-3.33301 -16.667 -5 -29.667 -5 -39c0 -14.667 4.16699 -24.834 12.5 -30.501
s22.5 -8.5 42.5 -8.5h45l-17 -86h-67c-41.333 0 -71 10.167 -89 30.5s-27 44.833 -27 73.5c0 11.333 1.66699 25 5 41l34 167c1.33301 9.33301 2 16 2 20c0 8 -1 15.667 -3 23c-7.33301 24.667 -24 37 -50 37h-31l17 85h34c20 0 37 6.33301 51 19c12 10.667 21.333 31 28 61
l33 164c10.667 52.667 28 89.334 52 110.001c23.333 19.333 58 29 104 29h70z" />
    <glyph glyph-name="bar" unicode="|" horiz-adv-x="321" 
d="M316 786l-172 -860h-96l171 860h97z" />
    <glyph glyph-name="braceright" unicode="}" horiz-adv-x="386" 
d="M372 394l-18 -84.999h-34c-20 0 -37 -6.33301 -51 -19c-12 -10.667 -21.333 -31 -28 -61l-32 -164c-10.667 -52.667 -28 -89.334 -52 -110.001c-23.333 -19.333 -58 -29 -104 -29h-70l17 86h36c28 0 46.833 5 56.5 15s17.5 30 23.5 60l34 169c6 30 16 52.667 30 68
s32 26 54 32c-30.667 16 -46 40.667 -46 74c0 10.667 1 21 3 31l32 161c3.33301 16.667 5 29.667 5 39c0 14.667 -4.16699 24.834 -12.5 30.501s-22.5 8.5 -42.5 8.5h-44l17 86h67c40.667 0 70 -10.167 88 -30.5s27 -44.833 27 -73.5c0 -12.667 -1.33301 -26.334 -4 -41.001
l-34 -167c-2.66699 -16.667 -2.66699 -31 0 -43c7.33301 -24.667 24.333 -37 51 -37h31z" />
    <glyph glyph-name="asciitilde" unicode="~" horiz-adv-x="545" 
d="M512 276c-52.667 -47.333 -102.669 -71 -150.002 -71c-30 0 -64.333 10.667 -103 32c-27.333 15.333 -51.666 23 -72.999 23c-29.333 0 -60.333 -14.333 -93 -43l-50 66c52 46.667 102 70 150 70c30.667 0 65.334 -10.667 104.001 -32
c27.333 -15.333 51.666 -23 72.999 -23c28.667 0 59.334 14.333 92.001 43z" />
    <glyph glyph-name="uni00A0" unicode="&#xa0;" horiz-adv-x="228" 
 />
    <glyph glyph-name="exclamdown" unicode="&#xa1;" horiz-adv-x="315" 
d="M189 298l-78 -503h-117l119 503h76zM244 507l-22 -109h-106l21 109h107z" />
    <glyph glyph-name="cent" unicode="&#xa2;" horiz-adv-x="480" 
d="M494 544l-72.001 -58c-18 26.667 -42 42.667 -72 48l-65 -338c34 4 64.333 20.333 91 49l55 -65c-44 -42 -95.667 -66.333 -155 -73l-21 -107h-76l22 111c-40 8 -72.333 29 -97 63s-37 75 -37 123c0 50 8 97.833 24 143.5s42.167 85.667 78.5 120s79.5 54.5 129.5 60.5
l18 91h76l-18 -91c52.667 -10 92.334 -35.667 119.001 -77zM290.999 535c-27.333 -6 -51 -23.334 -71 -52.001c-37.333 -51.333 -56 -111.666 -56 -180.999c0 -25.333 5.16699 -47.333 15.5 -66s25.833 -31 46.5 -37z" />
    <glyph glyph-name="sterling" unicode="&#xa3;" horiz-adv-x="537" 
d="M565 648l-75.9971 -66c-20.667 30 -50.667 45 -90 45c-80.667 0 -130.334 -47.333 -149.001 -142l-20 -96h125l-14 -73h-125l-44 -225h290l-18 -91h-394l64 316h-59l14 73h59l21 102c31.333 151.333 117.666 227 258.999 227c67.333 0 119.666 -23.333 156.999 -70z" />
    <glyph glyph-name="currency" unicode="&#xa4;" horiz-adv-x="665" 
d="M592 81l-62 -62l-72 72c-38 -25.333 -79.667 -38 -125 -38c-46 0 -88 12.667 -126 38l-72 -72l-62 62l72 72c-25.333 38 -38 79.667 -38 125c0 46 12.667 88 38 126l-72 72l62 62l72 -72c38 25.333 80 38 126 38c45.333 0 87 -12.667 125 -38l72 72l62 -62l-72 -72
c25.333 -38 38 -80 38 -126c0 -45.333 -12.667 -87 -38 -125zM472 278c0 38.667 -13.5 71.667 -40.5 99s-59.833 41 -98.5 41s-71.667 -13.667 -99 -41s-41 -60.333 -41 -99s13.667 -71.5 41 -98.5s60.333 -40.5 99 -40.5s71.5 13.5 98.5 40.5s40.5 59.833 40.5 98.5z" />
    <glyph glyph-name="yen" unicode="&#xa5;" horiz-adv-x="521" 
d="M606 712l-198 -295h84l-14 -73h-120l-37 -55l-9 -48h146l-15 -73h-145l-34 -168h-103l34 168h-145l15 73h144l10 53l-15 50h-119l14 73h83l-88 295h109l85 -319l204 319h114z" />
    <glyph glyph-name="brokenbar" unicode="&#xa6;" horiz-adv-x="327" 
d="M316 786l-70 -350h-97l70 350h97zM214 276l-70 -350h-96l69 350h97z" />
    <glyph glyph-name="section" unicode="&#xa7;" horiz-adv-x="516" 
d="M490 580c0 -11.333 -0.334961 -18.666 -1.00195 -21.999h-89c2.66699 24.667 -3 43.5 -17 56.5s-32.333 19.5 -55 19.5c-30 0 -54 -9 -72 -27s-27 -40.667 -27 -68c0 -33.333 19 -56.666 57 -69.999l60 -21c27.333 -10 50.833 -27.333 70.5 -52s29.5 -55.667 29.5 -93
c0 -95.333 -42 -163.333 -126 -204c41.333 -24.667 62 -63.667 62 -117c0 -54.667 -18.333 -100.5 -55 -137.5s-88.667 -55.5 -156 -55.5c-45.333 0 -82.666 12.5 -111.999 37.5s-44 59.167 -44 102.5c0 10.667 0.333008 19 1 25h92c-2.66699 -24.667 2.5 -44 15.5 -58
s32.833 -21 59.5 -21c28.667 0 53 8.83301 73 26.5s30 42.834 30 75.501c0 36 -19.667 61.333 -59 76l-59 22c-28 10 -51.667 27.167 -71 51.5s-29 55.166 -29 92.499c0 44 10.667 84.333 32 121s53 64.667 95 84c-38.667 26 -58 64 -58 114
c0 51.333 18.333 94.166 55 128.499s84.334 51.5 143.001 51.5c50 0 88.333 -13.333 115 -40s40 -59.334 40 -98.001zM353.998 294c0 26 -7.33105 45.667 -21.998 59s-32.334 20 -53.001 20c-27.333 0 -51.333 -9.33301 -72 -28c-22 -20 -36.667 -48 -44 -84
c-2 -12 -3 -22.667 -3 -32c0 -27.333 7.66699 -47.333 23 -60s32.666 -19 51.999 -19c28 0 52 9 72 27c22 20 36.667 48 44 84c2 12 3 23 3 33z" />
    <glyph glyph-name="dieresis" unicode="&#xa8;" horiz-adv-x="508" 
d="M491 705l-21 -106h-88l21 106h88zM286 705l-21 -106h-88l21 106h88z" />
    <glyph glyph-name="copyright" unicode="&#xa9;" horiz-adv-x="818" 
d="M773 356c0 -94.667 -33.5 -175.667 -100.5 -243s-148.167 -101 -243.5 -101s-176.5 33.667 -243.5 101s-100.5 148.333 -100.5 243s33.5 175.667 100.5 243s148.167 101 243.5 101s176.5 -33.667 243.5 -101s100.5 -148.333 100.5 -243zM703 356
c0 78.667 -26.5 145 -79.5 199s-117.833 81 -194.5 81s-141.667 -27 -195 -81s-80 -120.333 -80 -199s26.667 -145 80 -199s118.333 -81 195 -81s141.5 27 194.5 81s79.5 120.333 79.5 199zM559 216c-37.333 -33.333 -78.666 -50.001 -123.999 -50.001
c-51.333 0 -92.5 17.167 -123.5 51.5s-46.5 80.5 -46.5 138.5s15.5 104.167 46.5 138.5s72.167 51.5 123.5 51.5c45.333 0 86.666 -16.667 123.999 -50l-44 -44c-26 22.667 -52.667 34 -80 34c-34.667 0 -60.5 -11.667 -77.5 -35s-25.5 -55 -25.5 -95
c0 -39.333 8.5 -70.666 25.5 -93.999s42.833 -35 77.5 -35c28 0 54.667 11 80 33z" />
    <glyph glyph-name="ordfeminine" unicode="&#xaa;" horiz-adv-x="429" 
d="M429 607c0 -8 -1.33301 -19.333 -4 -34l-53 -266h-76l8 37c-24 -27.333 -59.667 -41 -107 -41c-34 0 -62 9.16699 -84 27.5s-33 43.833 -33 76.5c0 39.333 12.333 71 37 95c27.333 26.667 66.333 40 117 40h107l6 33c2 12 3 20.333 3 25c0 32.667 -23 49 -69 49
c-41.333 0 -74 -13.667 -98 -41l-43 53c36.667 36.667 86.667 55 150 55c23.333 0 44.833 -2.83301 64.5 -8.5s37 -17.167 52 -34.5s22.5 -39.333 22.5 -66zM330 487h-88.001c-26 0 -46.833 -7 -62.5 -21s-23.5 -32 -23.5 -54c0 -30 22 -45 66 -45
c30.667 0 55.334 9.33301 74.001 28c11.333 11.333 20 30.333 26 57z" />
    <glyph glyph-name="guillemotleft" unicode="&#xab;" horiz-adv-x="562" 
d="M544 500l-26 -128l-125 -108l83 -109l-22 -113l-175 230zM304 500l-26 -128l-125 -108l83 -109l-22 -113l-175 230z" />
    <glyph glyph-name="logicalnot" unicode="&#xac;" 
d="M477 333l-47 -234h-90l29 145h-324l18 89h414z" />
    <glyph glyph-name="uni00AD" unicode="&#xad;" horiz-adv-x="405" 
d="M356 323l-18 -91h-277l17 91h278z" />
    <glyph glyph-name="registered" unicode="&#xae;" horiz-adv-x="818" 
d="M773 356c0 -94.667 -33.5 -175.667 -100.5 -243s-148.167 -101 -243.5 -101s-176.5 33.667 -243.5 101s-100.5 148.333 -100.5 243s33.5 175.667 100.5 243s148.167 101 243.5 101s176.5 -33.667 243.5 -101s100.5 -148.333 100.5 -243zM704 356
c0 78.667 -26.5 145 -79.5 199s-118.167 81 -195.5 81s-142.5 -27 -195.5 -81s-79.5 -120.333 -79.5 -199s26.5 -145 79.5 -199s118.167 -81 195.5 -81s142.5 27 195.5 81s79.5 120.333 79.5 199zM579 170l-78 -0.000976562l-76 148h-48v-148h-67v372h138
c34.667 0 63.5 -11.167 86.5 -33.5s34.5 -49.166 34.5 -80.499c0 -25.333 -6.83301 -46.5 -20.5 -63.5s-31.5 -29.167 -53.5 -36.5zM501 427.999c0 16 -5.66699 29.5 -17 40.5s-26 16.5 -44 16.5h-63v-113h63c18 0 32.667 5.33301 44 16s17 24 17 40z" />
    <glyph glyph-name="macron" unicode="&#xaf;" horiz-adv-x="496" 
d="M488 684l-14 -69h-294l14 69h294z" />
    <glyph glyph-name="degree" unicode="&#xb0;" horiz-adv-x="458" 
d="M457 549c0 -48 -16.167 -88.167 -48.5 -120.5s-72.5 -48.5 -120.5 -48.5s-88.333 16.167 -121 48.5s-49 72.5 -49 120.5s16.333 88.333 49 121s73 49 121 49s88.167 -16.333 120.5 -49s48.5 -73 48.5 -121zM379 549c0 26 -9.00098 48.001 -27.001 66.001
s-39.667 27 -65 27s-46.666 -8.83301 -63.999 -26.5s-26 -39.834 -26 -66.501c0 -26 8.83301 -47.833 26.5 -65.5s39.167 -26.5 64.5 -26.5s46.833 8.83301 64.5 26.5s26.5 39.5 26.5 65.5z" />
    <glyph glyph-name="plusminus" unicode="&#xb1;" 
d="M487 401l-18 -90h-159l-34 -171h-90l34 171h-159l18 90h159l34 171h90l-34 -171h159zM427 90l-18 -90h-409l18 90h409z" />
    <glyph glyph-name="twosuperior" unicode="&#xb2;" horiz-adv-x="310" 
d="M347 612c0 -39.333 -22.665 -81.667 -67.998 -127l-137 -135h159l-13 -65h-249l13 65l183 181c26 26 39 51 39 75c0 30 -14.333 45 -43 45c-34.667 0 -55.334 -19 -62.001 -57h-73c6.66699 35.333 21.167 64.5 43.5 87.5s55.166 34.5 98.499 34.5
c35.333 0 62.333 -9.5 81 -28.5s28 -44.167 28 -75.5z" />
    <glyph glyph-name="threesuperior" unicode="&#xb3;" horiz-adv-x="310" 
d="M345 610c0 -52 -22.335 -88.3301 -67.002 -108.997c24.667 -16.667 37 -44 37 -82c0 -39.333 -13 -72.333 -39 -99s-61.667 -40 -107 -40c-39.333 0 -68.666 9.66699 -87.999 29s-29 41.666 -29 66.999c0 8 0.666992 17.333 2 28h72
c-0.666992 -2.66699 -1 -6.66699 -1 -12c0 -31.333 16.667 -47 50 -47c18 0 33.667 6.5 47 19.5s20 31.167 20 54.5c0 35.333 -16.333 53 -49 53h-10l12 62h9c23.333 0 40.5 7.16699 51.5 21.5s16.5 31.166 16.5 50.499c0 15.333 -4 26.666 -12 33.999s-18 11 -30 11
c-34 0 -55.333 -18.333 -64 -55h-73c16.667 80 64.667 120 144 120c32.667 0 58.834 -9.66699 78.501 -29s29.5 -45 29.5 -77z" />
    <glyph glyph-name="acute" unicode="&#xb4;" horiz-adv-x="496" 
d="M485 754l-130 -159h-84l114 159h100z" />
    <glyph glyph-name="mu" unicode="&#xb5;" horiz-adv-x="542" 
d="M515 507l-101 -507.001h-94l10 53c-35.333 -39.333 -82.333 -59 -141 -59c-28 0 -49.667 9.33301 -65 28l-46 -227h-96l142 712h97l-62 -311c-3.33301 -14.667 -5 -28 -5 -40c0 -24.667 7.16699 -43.5 21.5 -56.5s32.5 -19.5 54.5 -19.5c10.667 0 21.5 1.5 32.5 4.5
s23 8.33301 36 16s24.667 19.834 35 36.501s17.833 37 22.5 61l62 309h97z" />
    <glyph glyph-name="paragraph" unicode="&#xb6;" horiz-adv-x="605" 
d="M609 712l-183.001 -917.001h-97l165 827h-102l-166 -827h-97l108 540c-40.667 2.66699 -75.667 19.834 -105 51.501s-44 71.5 -44 119.5c0 56.667 20.833 105.167 62.5 145.5s102.834 60.5 183.501 60.5h275z" />
    <glyph glyph-name="periodcentered" unicode="&#xb7;" horiz-adv-x="264" 
d="M207 336l-23 -116h-116l23 116h116z" />
    <glyph glyph-name="cedilla" unicode="&#xb8;" horiz-adv-x="508" 
d="M248 -61l-77 -145h-94l90 145h81z" />
    <glyph glyph-name="onesuperior" unicode="&#xb9;" horiz-adv-x="310" 
d="M308 712l-86 -427h-72l68 341l-98 -72l18 87l97 71h73z" />
    <glyph glyph-name="ordmasculine" unicode="&#xba;" horiz-adv-x="435" 
d="M433 583c0 -23.333 -2.66699 -47.668 -8 -73.001c-14 -75.333 -38.667 -129.333 -74 -162c-32 -30 -72 -45 -120 -45c-34 0 -64.667 10.5 -92 31.5s-41 55.167 -41 102.5c0 26.667 2.33301 51 7 73c14 74.667 38.667 128.334 74 161.001c32 30 72 45 120 45
c34 0 64.833 -10.333 92.5 -31s41.5 -54.667 41.5 -102zM356 574.998c0 24 -6.16699 41.833 -18.5 53.5s-27.5 17.5 -45.5 17.5c-24 0 -44.667 -8.66699 -62 -26c-21.333 -21.333 -37 -58 -47 -110c-5.33301 -30 -8 -52 -8 -66c0 -24 6 -41.833 18 -53.5s27 -17.5 45 -17.5
c24.667 0 45.667 8.66699 63 26c20.667 20.667 36 57.667 46 111c6 33.333 9 55 9 65z" />
    <glyph glyph-name="guillemotright" unicode="&#xbb;" horiz-adv-x="562" 
d="M292 270l-265 -228l26 127l125 109l-83 109l22 113zM532 270l-264 -228l26 127l124 109l-82 109l22 113z" />
    <glyph glyph-name="onequarter" unicode="&#xbc;" horiz-adv-x="809" 
d="M308 712l-86 -427h-72l68 341l-98 -72l18 87l97 71h73zM696 712l-461 -712h-79l460 712h80zM770 427l-198 -297h87l17 84h70l-17 -84h39l-12 -67h-40l-12 -63h-70l13 63h-168l13 67l198 297h80z" />
    <glyph glyph-name="onehalf" unicode="&#xbd;" horiz-adv-x="809" 
d="M308 712l-86 -427h-72l68 341l-98 -72l18 87l97 71h73zM696 712l-461 -712h-79l460 712h80zM789 327c0 -39.333 -22.665 -81.667 -67.998 -127l-137 -135h159l-13 -65h-249l13 65l183 181c26 26 39 51 39 75c0 30 -14.333 45 -43 45c-34.667 0 -55.334 -19 -62.001 -57
h-73c6.66699 35.333 21.167 64.5 43.5 87.5s55.166 34.5 98.499 34.5c35.333 0 62.333 -9.5 81 -28.5s28 -44.167 28 -75.5z" />
    <glyph glyph-name="threequarters" unicode="&#xbe;" horiz-adv-x="809" 
d="M345 610c0 -52 -22.335 -88.3301 -67.002 -108.997c24.667 -16.667 37 -43.667 37 -81c0 -39.333 -13 -72.333 -39 -99s-61.667 -40 -107 -40c-39.333 0 -68.666 9.66699 -87.999 29s-29 41.666 -29 66.999c0 8 0.666992 17.333 2 28h72
c-0.666992 -2.66699 -1 -6.66699 -1 -12c0 -31.333 16.667 -47 50 -47c18 0 33.667 6.5 47 19.5s20 31.167 20 54.5c0 35.333 -16.333 53 -49 53h-10l12 61h9c23.333 0 40.5 7.16699 51.5 21.5s16.5 31.166 16.5 50.499c0 15.333 -4 26.666 -12 33.999s-18 11 -30 11
c-34 0 -55.333 -18.333 -64 -55h-73c16.667 80 64.667 120 144 120c32.667 0 58.834 -9.66699 78.501 -29s29.5 -45 29.5 -77zM695.998 712.003l-461 -712h-79l460 712h80zM769.998 427.003l-198 -297h87l17 84h70l-17 -84h39l-12 -67h-40l-12 -63h-70l13 63h-168l13 67
l198 297h80z" />
    <glyph glyph-name="questiondown" unicode="&#xbf;" horiz-adv-x="486" 
d="M366 -25c-11.333 -60.667 -36.999 -106.835 -76.999 -138.502s-89.667 -47.5 -149 -47.5c-42.667 0 -79.334 14 -110.001 42s-46 65 -46 111c0 55.333 23.667 109.333 71 162l95 108c15.333 17.333 25 35.666 29 54.999l7 31h97l-8 -38
c-8 -37.333 -25.333 -70.666 -52 -99.999l-94 -105c-32 -35.333 -48 -70 -48 -104c0 -21.333 6.5 -39.166 19.5 -53.499s31.167 -21.5 54.5 -21.5c29.333 0 54 8.83301 74 26.5s33.333 41.834 40 72.501h97zM324.001 506.999l-21 -109h-107l21 109h107z" />
    <glyph glyph-name="Agrave" unicode="&#xc0;" horiz-adv-x="594" 
d="M537 0h-105l-18 146h-268l-77 -146h-111l390 712h83zM405 231l-43 327l-173 -327h216zM432 777h-77l-71 159h97z" />
    <glyph glyph-name="Aacute" unicode="&#xc1;" horiz-adv-x="594" 
d="M537 0h-105l-18 146h-268l-77 -146h-111l390 712h83zM405 231l-43 327l-173 -327h216zM557 936l-130 -159h-84l114 159h100z" />
    <glyph glyph-name="Acircumflex" unicode="&#xc2;" horiz-adv-x="594" 
d="M537 0h-105l-18 146h-268l-77 -146h-111l390 712h83zM405 231l-43 327l-173 -327h216zM556 776h-77l-62 100l-104 -100h-85l155 162h82z" />
    <glyph glyph-name="Atilde" unicode="&#xc3;" horiz-adv-x="594" 
d="M537 0h-105l-18 146h-268l-77 -146h-111l390 712h83zM405 231l-43 327l-173 -327h216zM569 839c-35.333 -33.333 -69.999 -50 -103.999 -50c-22 0 -46 6.83301 -72 20.5s-43.667 20.5 -53 20.5c-18.667 0 -39.334 -10.667 -62.001 -32l-38 49c35.333 33.333 70 50 104 50
c22 0 46 -6.83301 72 -20.5s43.667 -20.5 53 -20.5c20 0 40.667 10.667 62 32z" />
    <glyph glyph-name="Adieresis" unicode="&#xc4;" horiz-adv-x="594" 
d="M537 0h-105l-18 146h-268l-77 -146h-111l390 712h83zM405 231l-43 327l-173 -327h216zM564 887l-21 -105h-88l21 105h88zM358 887l-20 -105h-88l21 105h87z" />
    <glyph glyph-name="Aring" unicode="&#xc5;" horiz-adv-x="594" 
d="M537 0h-105l-18 146h-268l-77 -146h-111l390 712h83zM405 231l-43 327l-173 -327h216zM518 870c0 -34.667 -12 -63.834 -36 -87.501s-52.667 -35.5 -86 -35.5s-62 11.833 -86 35.5s-36 52.834 -36 87.501c0 34 11.833 62.833 35.5 86.5s52.5 35.5 86.5 35.5
s62.833 -11.833 86.5 -35.5s35.5 -52.5 35.5 -86.5zM461 870c0 17.333 -6.5 32.333 -19.5 45s-28.167 19 -45.5 19s-32.333 -6.33301 -45 -19s-19 -27.667 -19 -45s6.33301 -32.333 19 -45s27.667 -19 45 -19s32.5 6.33301 45.5 19s19.5 27.667 19.5 45z" />
    <glyph glyph-name="AE" unicode="&#xc6;" horiz-adv-x="911" 
d="M949 712l-18 -90h-329l-44 -219h282l-18 -90h-282l-45 -223h334l-18 -90h-436l33 167h-222l-116 -167h-115l497 712h497zM499 622l-255 -368h182z" />
    <glyph glyph-name="Ccedilla" unicode="&#xc7;" horiz-adv-x="599" 
d="M594 503l-103 0.000976562c-0.666992 38 -10.5 68.333 -29.5 91s-46.5 34 -82.5 34c-44.667 0 -83 -17 -115 -51c-16.667 -17.333 -30.334 -41 -41.001 -71s-23 -80 -37 -150c-14.667 -74 -22 -127 -22 -159c0 -34.667 11 -62.167 33 -82.5s49.667 -30.5 83 -30.5
c39.333 0 72.5 11.833 99.5 35.5s46.833 53.5 59.5 89.5h106c-22 -69.333 -57.167 -122.5 -105.5 -159.5s-104.166 -55.5 -167.499 -55.5c-62 0 -112.667 18.167 -152 54.5s-59 83.833 -59 142.5c0 37.333 7.33301 92.333 22 165c16.667 84 31.5 144.667 44.5 182
s33.5 70.666 61.5 99.999c50 53.333 115 80 195 80c68 0 120 -19.833 156 -59.5s54 -91.5 54 -155.5zM306 -60.999l-77 -145h-94l90 145h81z" />
    <glyph glyph-name="Egrave" unicode="&#xc8;" horiz-adv-x="575" 
d="M613 712l-18 -90h-329l-43 -218h282l-18 -90h-282l-45 -224h335l-18 -90h-439l143 712h432zM433 777h-77l-71 159h97z" />
    <glyph glyph-name="Eacute" unicode="&#xc9;" horiz-adv-x="575" 
d="M613 712l-18 -90h-329l-43 -218h282l-18 -90h-282l-45 -224h335l-18 -90h-439l143 712h432zM558 936l-130 -159h-84l114 159h100z" />
    <glyph glyph-name="Ecircumflex" unicode="&#xca;" horiz-adv-x="575" 
d="M613 712l-18 -90h-329l-43 -218h282l-18 -90h-282l-45 -224h335l-18 -90h-439l143 712h432zM557 776h-77l-62 100l-104 -100h-85l155 162h82z" />
    <glyph glyph-name="Edieresis" unicode="&#xcb;" horiz-adv-x="575" 
d="M613 712l-18 -90h-329l-43 -218h282l-18 -90h-282l-45 -224h335l-18 -90h-439l143 712h432zM565 887l-21 -105h-88l21 105h88zM359 887l-20 -105h-88l21 105h87z" />
    <glyph glyph-name="Igrave" unicode="&#xcc;" horiz-adv-x="279" 
d="M284 712l-143 -712h-103l143 712h103zM292 777h-77l-71 159h97z" />
    <glyph glyph-name="Iacute" unicode="&#xcd;" horiz-adv-x="279" 
d="M284 712l-143 -712h-103l143 712h103zM408 936l-130 -159h-84l114 159h100z" />
    <glyph glyph-name="Icircumflex" unicode="&#xce;" horiz-adv-x="279" 
d="M284 712l-143 -712h-103l143 712h103zM400 776h-77l-62 100l-104 -100h-85l155 162h82z" />
    <glyph glyph-name="Idieresis" unicode="&#xcf;" horiz-adv-x="279" 
d="M284 712l-143 -712h-103l143 712h103zM408 887l-21 -105h-88l21 105h88zM202 887l-20 -105h-88l21 105h87z" />
    <glyph glyph-name="Eth" unicode="&#xd0;" horiz-adv-x="650" 
d="M631 516c0 -26.667 -7.33496 -78 -22.002 -154c-17.333 -88 -33.666 -152 -48.999 -192s-38.333 -74.333 -69 -103c-47.333 -44.667 -110.666 -67 -189.999 -67h-245l64 320h-70l16 79h70l63 313h227c59.333 0 108.333 -15.833 147 -47.5s58 -81.167 58 -148.5z
M527.998 508c0 36.667 -10.168 64.832 -30.501 84.499s-50.166 29.5 -89.499 29.5h-124l-45 -223h131l-15 -79h-132l-46 -230h123c50 0 91.333 15 124 45c18 16.667 33 41.334 45 74.001s24.333 83.667 37 153c14.667 76 22 124.667 22 146z" />
    <glyph glyph-name="Ntilde" unicode="&#xd1;" horiz-adv-x="686" 
d="M691 712l-143 -712h-90l-214 510l-103 -510h-103l143 712h91l214 -510l102 510h103zM608 839c-35.333 -33.333 -69.999 -50 -103.999 -50c-22 0 -46 6.83301 -72 20.5s-43.667 20.5 -53 20.5c-18.667 0 -39.334 -10.667 -62.001 -32l-38 49c35.333 33.333 70 50 104 50
c22 0 46 -6.83301 72 -20.5s43.667 -20.5 53 -20.5c20 0 40.667 10.667 62 32z" />
    <glyph glyph-name="Ograve" unicode="&#xd2;" horiz-adv-x="614" 
d="M592 521c0 -37.333 -7.33301 -92.333 -22 -165c-16.667 -83.333 -31.667 -144 -45 -182s-33.666 -71.333 -60.999 -100c-50.667 -53.333 -116.334 -80 -197.001 -80c-62 0 -111.833 18.333 -149.5 55s-56.5 84 -56.5 142c0 37.333 7.33301 92.333 22 165
c16.667 83.333 31.667 144 45 182s33.666 71.333 60.999 100c50.667 53.333 116 80 196 80c62.667 0 112.834 -18.333 150.501 -55s56.5 -84 56.5 -142zM489 513c0 36 -10.667 64.167 -32 84.5s-47.333 30.5 -78 30.5c-45.333 0 -84 -17 -116 -51
c-16 -16.667 -29.333 -40.5 -40 -71.5s-23 -80.833 -37 -149.5c-14.667 -74 -22 -126.333 -22 -157c0 -36 10.667 -64.167 32 -84.5s47.333 -30.5 78 -30.5c45.333 0 84 17 116 51c16 16.667 29.333 40.5 40 71.5s23 80.833 37 149.5c14.667 74 22 126.333 22 157zM440 777
h-77l-71 159h97z" />
    <glyph glyph-name="Oacute" unicode="&#xd3;" horiz-adv-x="614" 
d="M592 521c0 -37.333 -7.33301 -92.333 -22 -165c-16.667 -83.333 -31.667 -144 -45 -182s-33.666 -71.333 -60.999 -100c-50.667 -53.333 -116.334 -80 -197.001 -80c-62 0 -111.833 18.333 -149.5 55s-56.5 84 -56.5 142c0 37.333 7.33301 92.333 22 165
c16.667 83.333 31.667 144 45 182s33.666 71.333 60.999 100c50.667 53.333 116 80 196 80c62.667 0 112.834 -18.333 150.501 -55s56.5 -84 56.5 -142zM489 513c0 36 -10.667 64.167 -32 84.5s-47.333 30.5 -78 30.5c-45.333 0 -84 -17 -116 -51
c-16 -16.667 -29.333 -40.5 -40 -71.5s-23 -80.833 -37 -149.5c-14.667 -74 -22 -126.333 -22 -157c0 -36 10.667 -64.167 32 -84.5s47.333 -30.5 78 -30.5c45.333 0 84 17 116 51c16 16.667 29.333 40.5 40 71.5s23 80.833 37 149.5c14.667 74 22 126.333 22 157zM565 936
l-130 -159h-84l114 159h100z" />
    <glyph glyph-name="Ocircumflex" unicode="&#xd4;" horiz-adv-x="614" 
d="M592 521c0 -37.333 -7.33301 -92.333 -22 -165c-16.667 -83.333 -31.667 -144 -45 -182s-33.666 -71.333 -60.999 -100c-50.667 -53.333 -116.334 -80 -197.001 -80c-62 0 -111.833 18.333 -149.5 55s-56.5 84 -56.5 142c0 37.333 7.33301 92.333 22 165
c16.667 83.333 31.667 144 45 182s33.666 71.333 60.999 100c50.667 53.333 116 80 196 80c62.667 0 112.834 -18.333 150.501 -55s56.5 -84 56.5 -142zM489 513c0 36 -10.667 64.167 -32 84.5s-47.333 30.5 -78 30.5c-45.333 0 -84 -17 -116 -51
c-16 -16.667 -29.333 -40.5 -40 -71.5s-23 -80.833 -37 -149.5c-14.667 -74 -22 -126.333 -22 -157c0 -36 10.667 -64.167 32 -84.5s47.333 -30.5 78 -30.5c45.333 0 84 17 116 51c16 16.667 29.333 40.5 40 71.5s23 80.833 37 149.5c14.667 74 22 126.333 22 157zM564 776
h-77l-62 100l-104 -100h-85l155 162h82z" />
    <glyph glyph-name="Otilde" unicode="&#xd5;" horiz-adv-x="614" 
d="M592 521c0 -37.333 -7.33301 -92.333 -22 -165c-16.667 -83.333 -31.667 -144 -45 -182s-33.666 -71.333 -60.999 -100c-50.667 -53.333 -116.334 -80 -197.001 -80c-62 0 -111.833 18.333 -149.5 55s-56.5 84 -56.5 142c0 37.333 7.33301 92.333 22 165
c16.667 83.333 31.667 144 45 182s33.666 71.333 60.999 100c50.667 53.333 116 80 196 80c62.667 0 112.834 -18.333 150.501 -55s56.5 -84 56.5 -142zM489 513c0 36 -10.667 64.167 -32 84.5s-47.333 30.5 -78 30.5c-45.333 0 -84 -17 -116 -51
c-16 -16.667 -29.333 -40.5 -40 -71.5s-23 -80.833 -37 -149.5c-14.667 -74 -22 -126.333 -22 -157c0 -36 10.667 -64.167 32 -84.5s47.333 -30.5 78 -30.5c45.333 0 84 17 116 51c16 16.667 29.333 40.5 40 71.5s23 80.833 37 149.5c14.667 74 22 126.333 22 157zM577 839
c-35.333 -33.333 -69.999 -50 -103.999 -50c-22 0 -46 6.83301 -72 20.5s-43.667 20.5 -53 20.5c-18.667 0 -39.334 -10.667 -62.001 -32l-38 49c35.333 33.333 70 50 104 50c22 0 46 -6.83301 72 -20.5s43.667 -20.5 53 -20.5c20 0 40.667 10.667 62 32z" />
    <glyph glyph-name="Odieresis" unicode="&#xd6;" horiz-adv-x="614" 
d="M592 521c0 -37.333 -7.33301 -92.333 -22 -165c-16.667 -83.333 -31.667 -144 -45 -182s-33.666 -71.333 -60.999 -100c-50.667 -53.333 -116.334 -80 -197.001 -80c-62 0 -111.833 18.333 -149.5 55s-56.5 84 -56.5 142c0 37.333 7.33301 92.333 22 165
c16.667 83.333 31.667 144 45 182s33.666 71.333 60.999 100c50.667 53.333 116 80 196 80c62.667 0 112.834 -18.333 150.501 -55s56.5 -84 56.5 -142zM489 513c0 36 -10.667 64.167 -32 84.5s-47.333 30.5 -78 30.5c-45.333 0 -84 -17 -116 -51
c-16 -16.667 -29.333 -40.5 -40 -71.5s-23 -80.833 -37 -149.5c-14.667 -74 -22 -126.333 -22 -157c0 -36 10.667 -64.167 32 -84.5s47.333 -30.5 78 -30.5c45.333 0 84 17 116 51c16 16.667 29.333 40.5 40 71.5s23 80.833 37 149.5c14.667 74 22 126.333 22 157zM572 887
l-21 -105h-88l21 105h88zM366 887l-20 -105h-88l21 105h87z" />
    <glyph glyph-name="multiply" unicode="&#xd7;" 
d="M486 419l-167 -145l111 -146l-70 -61l-110 148l-167 -146l-51 67l166 145l-110 147l70 60l110 -147l167 145z" />
    <glyph glyph-name="Oslash" unicode="&#xd8;" horiz-adv-x="616" 
d="M625 756l-72.999 -113.001c26.667 -35.333 40 -76 40 -122c0 -37.333 -7.33301 -92.333 -22 -165c-16.667 -83.333 -31.667 -144 -45 -182s-33.666 -71.333 -60.999 -100c-50.667 -53.333 -116.334 -80 -197.001 -80c-44 0 -82 9.33301 -114 28l-44 -66h-79l71 110
c-26.667 34.667 -40 76.334 -40 125.001c0 37.333 7.33301 92.333 22 165c16.667 83.333 31.667 144 45 182s33.666 71.333 60.999 100c50.667 53.333 116 80 196 80c44 0 83 -10 117 -30l43 68h80zM489.001 512.999c0 9.33301 -1.33203 20.667 -3.99902 34l-281 -440
c19.333 -15.333 42.666 -23 69.999 -23c45.333 0 84 17 116 51c16 16.667 29.333 40.5 40 71.5s23 80.833 37 149.5c14.667 74 22 126.333 22 157zM450.002 603c-20 16.667 -43.667 25 -71 25c-45.333 0 -84 -17 -116 -51c-16 -16.667 -29.333 -40.5 -40 -71.5
s-23 -80.833 -37 -149.5c-14.667 -74 -22 -126.333 -22 -157c0 -14 1.33301 -26 4 -36z" />
    <glyph glyph-name="Ugrave" unicode="&#xd9;" horiz-adv-x="642" 
d="M656 712l-95 -473c-16 -80 -49.167 -140.833 -99.5 -182.5s-110.833 -62.5 -181.5 -62.5c-57.333 0 -106.333 17.5 -147 52.5s-61 83.5 -61 145.5c0 18 2.33301 38.667 7 62l91 458h103l-93 -466c-3.33301 -20 -5 -36 -5 -48c0 -31.333 9.16699 -58 27.5 -80
s46.5 -33 84.5 -33c42.667 0 79.667 14.333 111 43s52.333 69.667 63 123l92 461h103zM457 777h-77l-71 159h97z" />
    <glyph glyph-name="Uacute" unicode="&#xda;" horiz-adv-x="642" 
d="M656 712l-95 -473c-16 -80 -49.167 -140.833 -99.5 -182.5s-110.833 -62.5 -181.5 -62.5c-57.333 0 -106.333 17.5 -147 52.5s-61 83.5 -61 145.5c0 18 2.33301 38.667 7 62l91 458h103l-93 -466c-3.33301 -20 -5 -36 -5 -48c0 -31.333 9.16699 -58 27.5 -80
s46.5 -33 84.5 -33c42.667 0 79.667 14.333 111 43s52.333 69.667 63 123l92 461h103zM582 936l-130 -159h-84l114 159h100z" />
    <glyph glyph-name="Ucircumflex" unicode="&#xdb;" horiz-adv-x="642" 
d="M656 712l-95 -473c-16 -80 -49.167 -140.833 -99.5 -182.5s-110.833 -62.5 -181.5 -62.5c-57.333 0 -106.333 17.5 -147 52.5s-61 83.5 -61 145.5c0 18 2.33301 38.667 7 62l91 458h103l-93 -466c-3.33301 -20 -5 -36 -5 -48c0 -31.333 9.16699 -58 27.5 -80
s46.5 -33 84.5 -33c42.667 0 79.667 14.333 111 43s52.333 69.667 63 123l92 461h103zM582 776h-77l-62 100l-104 -100h-85l155 162h82z" />
    <glyph glyph-name="Udieresis" unicode="&#xdc;" horiz-adv-x="642" 
d="M656 712l-95 -473c-16 -80 -49.167 -140.833 -99.5 -182.5s-110.833 -62.5 -181.5 -62.5c-57.333 0 -106.333 17.5 -147 52.5s-61 83.5 -61 145.5c0 18 2.33301 38.667 7 62l91 458h103l-93 -466c-3.33301 -20 -5 -36 -5 -48c0 -31.333 9.16699 -58 27.5 -80
s46.5 -33 84.5 -33c42.667 0 79.667 14.333 111 43s52.333 69.667 63 123l92 461h103zM589 887l-21 -105h-88l21 105h88zM383 887l-20 -105h-88l21 105h87z" />
    <glyph glyph-name="Yacute" unicode="&#xdd;" horiz-adv-x="521" 
d="M605 712l-284 -423l-58 -289h-103l59 294l-125 418h109l85 -319l204 319h113zM514 936l-130 -159h-84l114 159h100z" />
    <glyph glyph-name="Thorn" unicode="&#xde;" horiz-adv-x="606" 
d="M587 393c0 -68.667 -23.168 -126.667 -69.501 -174s-109.166 -71 -188.499 -71h-158l-30 -148h-103l143 712h103l-28 -139h144c60.667 0 107 -17 139 -51s48 -77 48 -129zM482.999 385c0 28.667 -7.83203 51.999 -23.499 69.999s-40.5 27 -74.5 27h-147l-49 -244h144
c45.333 0 81.666 14.333 108.999 43s41 63.334 41 104.001z" />
    <glyph glyph-name="germandbls" unicode="&#xdf;" horiz-adv-x="539" 
d="M538 570c0 -28.667 -7.16797 -56.001 -21.501 -82.001s-35.5 -46.333 -63.5 -61c28 -16 42 -41.667 42 -77c0 -6 -1.33301 -17 -4 -33l-32 -166c-18.667 -100.667 -76 -151 -172 -151h-58l16 82h34c19.333 0 37 6 53 18c14.667 10.667 25 30.334 31 59.001l32 160
c1.33301 6 2 13.333 2 22c0 33.333 -18 50 -54 50h-37l15 77h32c26.667 0 48 9.66699 64 29s24 41.333 24 66c0 20 -5.33301 35.667 -16 47c-15.333 16.667 -37.666 25 -66.999 25c-70 0 -113 -39 -129 -117l-104 -518h-98l105 525c26 129.333 104.667 194 236 194
c50.667 0 91.667 -13 123 -39s47 -62.667 47 -110z" />
    <glyph glyph-name="agrave" unicode="&#xe0;" horiz-adv-x="505" 
d="M456 376c0 -13.333 -1.66699 -27.335 -5 -42.002l-67 -334h-94l10 47c-35.333 -35.333 -79.666 -53 -132.999 -53c-43.333 0 -79 11.333 -107 34s-42 54.334 -42 95.001c0 48.667 15.333 88.334 46 119.001c35.333 35.333 84.666 53 147.999 53h134l9 41
c2 9.33301 3 19.333 3 30c0 43.333 -29 65 -87 65c-49.333 0 -90.333 -18 -123 -54l-53 65c45.333 47.333 107.333 71 186 71c47.333 0 88.333 -10.667 123 -32s52 -56.333 52 -105zM333 226.998l-112.001 -0.000976562c-32.667 0 -58.667 -8.66699 -78 -26
s-29 -40.666 -29 -69.999c0 -38 27 -57 81 -57c38 0 69.333 11.667 94 35c16.667 16.667 28.334 41 35.001 73zM347.999 594.997h-77l-71 159h97z" />
    <glyph glyph-name="aacute" unicode="&#xe1;" horiz-adv-x="505" 
d="M456 376c0 -13.333 -1.66699 -27.335 -5 -42.002l-67 -334h-94l10 47c-35.333 -35.333 -79.666 -53 -132.999 -53c-43.333 0 -79 11.333 -107 34s-42 54.334 -42 95.001c0 48.667 15.333 88.334 46 119.001c35.333 35.333 84.666 53 147.999 53h134l9 41
c2 9.33301 3 19.333 3 30c0 43.333 -29 65 -87 65c-49.333 0 -90.333 -18 -123 -54l-53 65c45.333 47.333 107.333 71 186 71c47.333 0 88.333 -10.667 123 -32s52 -56.333 52 -105zM333 226.998l-112.001 -0.000976562c-32.667 0 -58.667 -8.66699 -78 -26
s-29 -40.666 -29 -69.999c0 -38 27 -57 81 -57c38 0 69.333 11.667 94 35c16.667 16.667 28.334 41 35.001 73zM472.999 753.997l-130 -159h-84l114 159h100z" />
    <glyph glyph-name="acircumflex" unicode="&#xe2;" horiz-adv-x="505" 
d="M456 376c0 -13.333 -1.66699 -27.335 -5 -42.002l-67 -334h-94l10 47c-35.333 -35.333 -79.666 -53 -132.999 -53c-43.333 0 -79 11.333 -107 34s-42 54.334 -42 95.001c0 48.667 15.333 88.334 46 119.001c35.333 35.333 84.666 53 147.999 53h134l9 41
c2 9.33301 3 19.333 3 30c0 43.333 -29 65 -87 65c-49.333 0 -90.333 -18 -123 -54l-53 65c45.333 47.333 107.333 71 186 71c47.333 0 88.333 -10.667 123 -32s52 -56.333 52 -105zM333 226.998l-112.001 -0.000976562c-32.667 0 -58.667 -8.66699 -78 -26
s-29 -40.666 -29 -69.999c0 -38 27 -57 81 -57c38 0 69.333 11.667 94 35c16.667 16.667 28.334 41 35.001 73zM471.999 593.997h-77l-62 101l-104 -101h-85l155 162h82z" />
    <glyph glyph-name="atilde" unicode="&#xe3;" horiz-adv-x="505" 
d="M456 376c0 -13.333 -1.66699 -27.335 -5 -42.002l-67 -334h-94l10 47c-35.333 -35.333 -79.666 -53 -132.999 -53c-43.333 0 -79 11.333 -107 34s-42 54.334 -42 95.001c0 48.667 15.333 88.334 46 119.001c35.333 35.333 84.666 53 147.999 53h134l9 41
c2 9.33301 3 19.333 3 30c0 43.333 -29 65 -87 65c-49.333 0 -90.333 -18 -123 -54l-53 65c45.333 47.333 107.333 71 186 71c47.333 0 88.333 -10.667 123 -32s52 -56.333 52 -105zM333 226.998l-112.001 -0.000976562c-32.667 0 -58.667 -8.66699 -78 -26
s-29 -40.666 -29 -69.999c0 -38 27 -57 81 -57c38 0 69.333 11.667 94 35c16.667 16.667 28.334 41 35.001 73zM484.999 653.997c-35.333 -33.333 -69.999 -50 -103.999 -50c-22 0 -46 6.83301 -72 20.5s-43.667 20.5 -53 20.5c-18.667 0 -39.334 -10.667 -62.001 -32
l-38 49c35.333 33.333 70 50 104 50c22 0 46 -6.83301 72 -20.5s43.667 -20.5 53 -20.5c20 0 40.667 10.667 62 32z" />
    <glyph glyph-name="adieresis" unicode="&#xe4;" horiz-adv-x="505" 
d="M456 376c0 -13.333 -1.66699 -27.335 -5 -42.002l-67 -334h-94l10 47c-35.333 -35.333 -79.666 -53 -132.999 -53c-43.333 0 -79 11.333 -107 34s-42 54.334 -42 95.001c0 48.667 15.333 88.334 46 119.001c35.333 35.333 84.666 53 147.999 53h134l9 41
c2 9.33301 3 19.333 3 30c0 43.333 -29 65 -87 65c-49.333 0 -90.333 -18 -123 -54l-53 65c45.333 47.333 107.333 71 186 71c47.333 0 88.333 -10.667 123 -32s52 -56.333 52 -105zM333 226.998l-112.001 -0.000976562c-32.667 0 -58.667 -8.66699 -78 -26
s-29 -40.666 -29 -69.999c0 -38 27 -57 81 -57c38 0 69.333 11.667 94 35c16.667 16.667 28.334 41 35.001 73zM478.999 704.997l-21 -106h-88l21 106h88zM273.999 704.997l-21 -106h-88l21 106h88z" />
    <glyph glyph-name="aring" unicode="&#xe5;" horiz-adv-x="505" 
d="M456 376c0 -13.333 -1.66699 -27.335 -5 -42.002l-67 -334h-94l10 47c-35.333 -35.333 -79.666 -53 -132.999 -53c-43.333 0 -79 11.333 -107 34s-42 54.334 -42 95.001c0 48.667 15.333 88.334 46 119.001c35.333 35.333 84.666 53 147.999 53h134l9 41
c2 9.33301 3 19.333 3 30c0 43.333 -29 65 -87 65c-49.333 0 -90.333 -18 -123 -54l-53 65c45.333 47.333 107.333 71 186 71c47.333 0 88.333 -10.667 123 -32s52 -56.333 52 -105zM333 226.998l-112.001 -0.000976562c-32.667 0 -58.667 -8.66699 -78 -26
s-29 -40.666 -29 -69.999c0 -38 27 -57 81 -57c38 0 69.333 11.667 94 35c16.667 16.667 28.334 41 35.001 73zM450.999 697.997c0 -34 -12 -63.001 -36 -87.001s-53 -36 -87 -36c-33.333 0 -62 11.833 -86 35.5s-36 52.834 -36 87.501c0 34 11.833 62.833 35.5 86.5
s52.5 35.5 86.5 35.5s63 -11.833 87 -35.5s36 -52.5 36 -86.5zM392.999 697.996c0 17.333 -6.5 32.333 -19.5 45s-28.167 19 -45.5 19s-32.333 -6.33301 -45 -19s-19 -27.667 -19 -45s6.33301 -32.333 19 -45s27.667 -19 45 -19s32.5 6.33301 45.5 19s19.5 27.667 19.5 45z
" />
    <glyph glyph-name="ae" unicode="&#xe6;" horiz-adv-x="800" 
d="M755 336c0 -28 -4.66895 -64.668 -14.002 -110.001h-315c-3.33301 -18.667 -5 -35 -5 -49c0 -30.667 8.33301 -55.167 25 -73.5s41 -27.5 73 -27.5c46.667 0 90.334 18.667 131.001 56l53 -64c-52 -49.333 -116.667 -74 -194 -74c-32.667 0 -62.667 6.66699 -90 20
s-48.666 33 -63.999 59c-41.333 -52.667 -99.666 -79 -174.999 -79c-50 0 -89.667 10.833 -119 32.5s-44 53.834 -44 96.501c0 47.333 15 86.666 45 117.999c35.333 35.333 85 53 149 53h135l8 41c2.66699 12 4 22.333 4 31c0 43.333 -29.333 65 -88 65
c-50 0 -91 -18 -123 -54l-52 65c44 47.333 106 71 186 71c71.333 0 120.333 -22.333 147 -67c41.333 44.667 92.666 67 153.999 67c53.333 0 95.5 -16.167 126.5 -48.5s46.5 -75.166 46.5 -128.499zM331.998 225.999h-111.001c-33.333 0 -59.666 -8.5 -78.999 -25.5
s-29 -40.167 -29 -69.5c0 -38 27.333 -57 82 -57c38.667 0 69.667 11.667 93 35c18 18 30 42.333 36 73zM661.997 335.999c0 31.333 -7.83203 55.333 -23.499 72s-35.834 25 -60.501 25c-68 0 -114.333 -46.333 -139 -139h219c2.66699 11.333 4 25.333 4 42z" />
    <glyph glyph-name="ccedilla" unicode="&#xe7;" horiz-adv-x="462" 
d="M457 440l-72.999 -63c-23.333 33.333 -51.666 50 -84.999 50c-34 0 -64.333 -13.667 -91 -41c-29.333 -30 -49.333 -74 -60 -132c-4.66699 -23.333 -7 -47 -7 -71c0 -33.333 8.16699 -58.833 24.5 -76.5s38.166 -26.5 65.499 -26.5c38.667 0 74 17 106 51l55 -70
c-46.667 -44.667 -103 -67 -169 -67c-54 0 -97.333 16.5 -130 49.5s-49 77.167 -49 132.5c0 28 2.33301 54 7 78c16.667 88.667 48 154 94 196s100.667 63 164 63s112.666 -24.333 147.999 -73zM250.001 -61l-77 -145h-94l90 145h81z" />
    <glyph glyph-name="egrave" unicode="&#xe8;" horiz-adv-x="514" 
d="M470 336c0 -30 -5.00098 -66.6641 -15.001 -109.997h-314c-3.33301 -18 -5 -34.333 -5 -49c0 -30.667 8.16699 -55.167 24.5 -73.5s40.5 -27.5 72.5 -27.5c46.667 0 90.334 18.667 131.001 56l54 -64c-52 -49.333 -116.667 -74 -194 -74
c-51.333 0 -94.333 14.667 -129 44s-52 73.666 -52 132.999c0 56.667 8.5 110.167 25.5 160.5s45.333 93.166 85 128.499s87.5 53 143.5 53c53.333 0 95.5 -16.333 126.5 -49s46.5 -75.334 46.5 -128.001zM376.999 336.003c0 31.333 -7.83398 55.333 -23.501 72
s-36.167 25 -61.5 25c-67.333 0 -113.666 -46.667 -138.999 -140h220c2.66699 20 4 34.333 4 43zM362.998 595.003h-77l-71 159h97z" />
    <glyph glyph-name="eacute" unicode="&#xe9;" horiz-adv-x="514" 
d="M470 336c0 -30 -5.00098 -66.6641 -15.001 -109.997h-314c-3.33301 -18 -5 -34.333 -5 -49c0 -30.667 8.16699 -55.167 24.5 -73.5s40.5 -27.5 72.5 -27.5c46.667 0 90.334 18.667 131.001 56l54 -64c-52 -49.333 -116.667 -74 -194 -74
c-51.333 0 -94.333 14.667 -129 44s-52 73.666 -52 132.999c0 56.667 8.5 110.167 25.5 160.5s45.333 93.166 85 128.499s87.5 53 143.5 53c53.333 0 95.5 -16.333 126.5 -49s46.5 -75.334 46.5 -128.001zM376.999 336.003c0 31.333 -7.83398 55.333 -23.501 72
s-36.167 25 -61.5 25c-67.333 0 -113.666 -46.667 -138.999 -140h220c2.66699 20 4 34.333 4 43zM487.998 754.003l-130 -159h-84l114 159h100z" />
    <glyph glyph-name="ecircumflex" unicode="&#xea;" horiz-adv-x="514" 
d="M470 336c0 -30 -5.00098 -66.6641 -15.001 -109.997h-314c-3.33301 -18 -5 -34.333 -5 -49c0 -30.667 8.16699 -55.167 24.5 -73.5s40.5 -27.5 72.5 -27.5c46.667 0 90.334 18.667 131.001 56l54 -64c-52 -49.333 -116.667 -74 -194 -74
c-51.333 0 -94.333 14.667 -129 44s-52 73.666 -52 132.999c0 56.667 8.5 110.167 25.5 160.5s45.333 93.166 85 128.499s87.5 53 143.5 53c53.333 0 95.5 -16.333 126.5 -49s46.5 -75.334 46.5 -128.001zM376.999 336.003c0 31.333 -7.83398 55.333 -23.501 72
s-36.167 25 -61.5 25c-67.333 0 -113.666 -46.667 -138.999 -140h220c2.66699 20 4 34.333 4 43zM486.998 594.003h-77l-62 101l-104 -101h-85l155 162h82z" />
    <glyph glyph-name="edieresis" unicode="&#xeb;" horiz-adv-x="514" 
d="M470 336c0 -30 -5.00098 -66.6641 -15.001 -109.997h-314c-3.33301 -18 -5 -34.333 -5 -49c0 -30.667 8.16699 -55.167 24.5 -73.5s40.5 -27.5 72.5 -27.5c46.667 0 90.334 18.667 131.001 56l54 -64c-52 -49.333 -116.667 -74 -194 -74
c-51.333 0 -94.333 14.667 -129 44s-52 73.666 -52 132.999c0 56.667 8.5 110.167 25.5 160.5s45.333 93.166 85 128.499s87.5 53 143.5 53c53.333 0 95.5 -16.333 126.5 -49s46.5 -75.334 46.5 -128.001zM376.999 336.003c0 31.333 -7.83398 55.333 -23.501 72
s-36.167 25 -61.5 25c-67.333 0 -113.666 -46.667 -138.999 -140h220c2.66699 20 4 34.333 4 43zM493.998 705.003l-21 -106h-88l21 106h88zM288.998 705.003l-21 -106h-88l21 106h88z" />
    <glyph glyph-name="igrave" unicode="&#xec;" horiz-adv-x="251" 
d="M225 507l-101 -507h-97l101 507h97zM227 595h-77l-71 159h97z" />
    <glyph glyph-name="iacute" unicode="&#xed;" horiz-adv-x="251" 
d="M225 507l-101 -507h-97l101 507h97zM358 754l-130 -159h-84l114 159h100z" />
    <glyph glyph-name="icircumflex" unicode="&#xee;" horiz-adv-x="251" 
d="M225 507l-101 -507h-97l101 507h97zM351 594h-77l-62 101l-104 -101h-85l155 162h82z" />
    <glyph glyph-name="idieresis" unicode="&#xef;" horiz-adv-x="251" 
d="M225 507l-101 -507h-97l101 507h97zM150 705l-21 -106h-88l21 106h88zM355 705l-21 -106h-88l21 106h88z" />
    <glyph glyph-name="eth" unicode="&#xf0;" horiz-adv-x="509" 
d="M465 645l-13.001 -69h-50l32 -93c18 -53.333 27 -101.666 27 -144.999c0 -24.667 -3.33301 -54.334 -10 -89.001c-19.333 -96.667 -50.333 -164 -93 -202c-39.333 -35.333 -88 -53 -146 -53c-19.333 0 -38.166 2.83301 -56.499 8.5s-36 14.5 -53 26.5
s-30.667 29.333 -41 52s-15.5 49.334 -15.5 80.001c0 23.333 3.66699 52.666 11 87.999c18 93.333 48 160 90 200c38 34.667 85 52 141 52c16.667 0 32 -2.66699 46 -8l-30 83h-112l14 69h78l-24 72h99l23 -72h83zM363.999 334c0 30 -7.33301 51.501 -22 64.501
s-32.667 19.5 -54 19.5c-29.333 0 -54.666 -10 -75.999 -30c-24.667 -24 -44 -70.333 -58 -139c-7.33301 -38 -11 -66 -11 -84c0 -30 7.5 -51.833 22.5 -65.5s33.167 -20.5 54.5 -20.5c29.333 0 54.666 10.667 75.999 32c24.667 24 44 70 58 138
c6.66699 35.333 10 63.666 10 84.999z" />
    <glyph glyph-name="ntilde" unicode="&#xf1;" horiz-adv-x="540" 
d="M487 371c0 -17.333 -1.66699 -34.999 -5 -52.999l-64 -318h-97l62 311c3.33301 16.667 5 30 5 40c0 24.667 -7.16699 43.5 -21.5 56.5s-32.5 19.5 -54.5 19.5c-10.667 0 -21.5 -1.5 -32.5 -4.5s-23 -8.33301 -36 -16s-24.667 -19.834 -35 -36.501s-17.833 -37 -22.5 -61
l-62 -309h-97l101 507h94l-10 -52c35.333 38.667 82.333 58 141 58c36.667 0 68.167 -12.167 94.5 -36.5s39.5 -59.5 39.5 -105.5zM512 654.001c-35.333 -33.333 -69.999 -50 -103.999 -50c-22 0 -46 6.83301 -72 20.5s-43.667 20.5 -53 20.5
c-18.667 0 -39.334 -10.667 -62.001 -32l-38 49c35.333 33.333 70 50 104 50c22 0 46 -6.83301 72 -20.5s43.667 -20.5 53 -20.5c20 0 40.667 10.667 62 32z" />
    <glyph glyph-name="ograve" unicode="&#xf2;" horiz-adv-x="508" 
d="M464 346c0 -28 -3.00098 -58.666 -9.00098 -91.999c-19.333 -96.667 -50.333 -164.334 -93 -203.001c-41.333 -38 -91.666 -57 -150.999 -57c-46 0 -85.333 14 -118 42s-49 69.667 -49 125c0 28.667 3 59.667 9 93c19.333 96 50.333 163.333 93 202
c40.667 38 91 57 151 57c46 0 85.333 -14 118 -42s49 -69.667 49 -125zM367.999 337.001c0 30 -7.33301 52.5 -22 67.5s-34 22.5 -58 22.5c-30.667 0 -56.667 -10.667 -78 -32c-26 -26 -46 -73 -60 -141c-6.66699 -34 -10 -61.667 -10 -83c0 -30.667 7.5 -53.5 22.5 -68.5
s34.167 -22.5 57.5 -22.5c30.667 0 56.667 10.667 78 32c26.667 26 46.667 73.333 60 142c6.66699 34 10 61.667 10 83zM359.999 595.001h-77l-71 159h97z" />
    <glyph glyph-name="oacute" unicode="&#xf3;" horiz-adv-x="508" 
d="M464 346c0 -28 -3.00098 -58.666 -9.00098 -91.999c-19.333 -96.667 -50.333 -164.334 -93 -203.001c-41.333 -38 -91.666 -57 -150.999 -57c-46 0 -85.333 14 -118 42s-49 69.667 -49 125c0 28.667 3 59.667 9 93c19.333 96 50.333 163.333 93 202
c40.667 38 91 57 151 57c46 0 85.333 -14 118 -42s49 -69.667 49 -125zM367.999 337.001c0 30 -7.33301 52.5 -22 67.5s-34 22.5 -58 22.5c-30.667 0 -56.667 -10.667 -78 -32c-26 -26 -46 -73 -60 -141c-6.66699 -34 -10 -61.667 -10 -83c0 -30.667 7.5 -53.5 22.5 -68.5
s34.167 -22.5 57.5 -22.5c30.667 0 56.667 10.667 78 32c26.667 26 46.667 73.333 60 142c6.66699 34 10 61.667 10 83zM484.999 754.001l-130 -159h-84l114 159h100z" />
    <glyph glyph-name="ocircumflex" unicode="&#xf4;" horiz-adv-x="508" 
d="M464 346c0 -28 -3.00098 -58.666 -9.00098 -91.999c-19.333 -96.667 -50.333 -164.334 -93 -203.001c-41.333 -38 -91.666 -57 -150.999 -57c-46 0 -85.333 14 -118 42s-49 69.667 -49 125c0 28.667 3 59.667 9 93c19.333 96 50.333 163.333 93 202
c40.667 38 91 57 151 57c46 0 85.333 -14 118 -42s49 -69.667 49 -125zM367.999 337.001c0 30 -7.33301 52.5 -22 67.5s-34 22.5 -58 22.5c-30.667 0 -56.667 -10.667 -78 -32c-26 -26 -46 -73 -60 -141c-6.66699 -34 -10 -61.667 -10 -83c0 -30.667 7.5 -53.5 22.5 -68.5
s34.167 -22.5 57.5 -22.5c30.667 0 56.667 10.667 78 32c26.667 26 46.667 73.333 60 142c6.66699 34 10 61.667 10 83zM483.999 594.001h-77l-62 101l-104 -101h-85l155 162h82z" />
    <glyph glyph-name="otilde" unicode="&#xf5;" horiz-adv-x="508" 
d="M464 346c0 -28 -3.00098 -58.666 -9.00098 -91.999c-19.333 -96.667 -50.333 -164.334 -93 -203.001c-41.333 -38 -91.666 -57 -150.999 -57c-46 0 -85.333 14 -118 42s-49 69.667 -49 125c0 28.667 3 59.667 9 93c19.333 96 50.333 163.333 93 202
c40.667 38 91 57 151 57c46 0 85.333 -14 118 -42s49 -69.667 49 -125zM367.999 337.001c0 30 -7.33301 52.5 -22 67.5s-34 22.5 -58 22.5c-30.667 0 -56.667 -10.667 -78 -32c-26 -26 -46 -73 -60 -141c-6.66699 -34 -10 -61.667 -10 -83c0 -30.667 7.5 -53.5 22.5 -68.5
s34.167 -22.5 57.5 -22.5c30.667 0 56.667 10.667 78 32c26.667 26 46.667 73.333 60 142c6.66699 34 10 61.667 10 83zM496.999 654.001c-35.333 -33.333 -69.999 -50 -103.999 -50c-22 0 -46 6.83301 -72 20.5s-43.667 20.5 -53 20.5
c-18.667 0 -39.334 -10.667 -62.001 -32l-38 49c35.333 33.333 70 50 104 50c22 0 46 -6.83301 72 -20.5s43.667 -20.5 53 -20.5c20 0 40.667 10.667 62 32z" />
    <glyph glyph-name="odieresis" unicode="&#xf6;" horiz-adv-x="508" 
d="M464 346c0 -28 -3.00098 -58.666 -9.00098 -91.999c-19.333 -96.667 -50.333 -164.334 -93 -203.001c-41.333 -38 -91.666 -57 -150.999 -57c-46 0 -85.333 14 -118 42s-49 69.667 -49 125c0 28.667 3 59.667 9 93c19.333 96 50.333 163.333 93 202
c40.667 38 91 57 151 57c46 0 85.333 -14 118 -42s49 -69.667 49 -125zM367.999 337.001c0 30 -7.33301 52.5 -22 67.5s-34 22.5 -58 22.5c-30.667 0 -56.667 -10.667 -78 -32c-26 -26 -46 -73 -60 -141c-6.66699 -34 -10 -61.667 -10 -83c0 -30.667 7.5 -53.5 22.5 -68.5
s34.167 -22.5 57.5 -22.5c30.667 0 56.667 10.667 78 32c26.667 26 46.667 73.333 60 142c6.66699 34 10 61.667 10 83zM490.999 705.001l-21 -106h-88l21 106h88zM285.999 705.001l-21 -106h-88l21 106h88z" />
    <glyph glyph-name="divide" unicode="&#xf7;" 
d="M475 323l-18 -90h-414l18 90h414zM355 513l-20 -103h-104l21 103h103zM286 146l-20 -103h-104l21 103h103z" />
    <glyph glyph-name="oslash" unicode="&#xf8;" horiz-adv-x="512" 
d="M464 346c0 -28 -3.00098 -58.666 -9.00098 -91.999c-19.333 -96.667 -50.333 -164.334 -93 -203.001c-41.333 -38 -91.666 -57 -150.999 -57c-38.667 0 -71.667 9 -99 27l-48 -65h-66l75 101c-19.333 28 -29 62.667 -29 104c0 28.667 3 59.667 9 93
c19.333 96 50.333 163.333 93 202c40.667 38 91 57 151 57c38 0 71.333 -9.33301 100 -28l49 66h65l-76 -103c19.333 -26.667 29 -60.667 29 -102zM139.999 171.001c0 -11.333 1 -21.333 3 -30l199 267c-13.333 12.667 -31.333 19 -54 19c-30.667 0 -56.667 -10.667 -78 -32
c-26 -26 -46 -73 -60 -141c-6.66699 -34 -10 -61.667 -10 -83zM367.999 337.001c0 8.66699 -1 17.667 -3 27l-198 -266c14 -12 31.667 -18 53 -18c30.667 0 56.667 10.667 78 32c26.667 26 46.667 73.333 60 142c6.66699 34 10 61.667 10 83z" />
    <glyph glyph-name="ugrave" unicode="&#xf9;" horiz-adv-x="540" 
d="M513 507l-101 -507.001h-94l10 52c-35.333 -38.667 -82.333 -58 -141 -58c-36.667 0 -68.167 12.167 -94.5 36.5s-39.5 59.5 -39.5 105.5c0 17.333 1.66699 35 5 53l64 318h97l-62 -311c-3.33301 -16.667 -5 -30 -5 -40c0 -24.667 7.16699 -43.5 21.5 -56.5
s32.5 -19.5 54.5 -19.5c10.667 0 21.5 1.5 32.5 4.5s23 8.33301 36 16s24.667 19.834 35 36.501s17.833 37 22.5 61l62 309h97zM369 594.999h-77l-71 159h97z" />
    <glyph glyph-name="uacute" unicode="&#xfa;" horiz-adv-x="540" 
d="M513 507l-101 -507.001h-94l10 52c-35.333 -38.667 -82.333 -58 -141 -58c-36.667 0 -68.167 12.167 -94.5 36.5s-39.5 59.5 -39.5 105.5c0 17.333 1.66699 35 5 53l64 318h97l-62 -311c-3.33301 -16.667 -5 -30 -5 -40c0 -24.667 7.16699 -43.5 21.5 -56.5
s32.5 -19.5 54.5 -19.5c10.667 0 21.5 1.5 32.5 4.5s23 8.33301 36 16s24.667 19.834 35 36.501s17.833 37 22.5 61l62 309h97zM494 753.999l-130 -159h-84l114 159h100z" />
    <glyph glyph-name="ucircumflex" unicode="&#xfb;" horiz-adv-x="540" 
d="M513 507l-101 -507.001h-94l10 52c-35.333 -38.667 -82.333 -58 -141 -58c-36.667 0 -68.167 12.167 -94.5 36.5s-39.5 59.5 -39.5 105.5c0 17.333 1.66699 35 5 53l64 318h97l-62 -311c-3.33301 -16.667 -5 -30 -5 -40c0 -24.667 7.16699 -43.5 21.5 -56.5
s32.5 -19.5 54.5 -19.5c10.667 0 21.5 1.5 32.5 4.5s23 8.33301 36 16s24.667 19.834 35 36.501s17.833 37 22.5 61l62 309h97zM493 593.999h-77l-62 101l-104 -101h-85l155 162h82z" />
    <glyph glyph-name="udieresis" unicode="&#xfc;" horiz-adv-x="540" 
d="M513 507l-101 -507.001h-94l10 52c-35.333 -38.667 -82.333 -58 -141 -58c-36.667 0 -68.167 12.167 -94.5 36.5s-39.5 59.5 -39.5 105.5c0 17.333 1.66699 35 5 53l64 318h97l-62 -311c-3.33301 -16.667 -5 -30 -5 -40c0 -24.667 7.16699 -43.5 21.5 -56.5
s32.5 -19.5 54.5 -19.5c10.667 0 21.5 1.5 32.5 4.5s23 8.33301 36 16s24.667 19.834 35 36.501s17.833 37 22.5 61l62 309h97zM500 704.999l-21 -106h-88l21 106h88zM295 704.999l-21 -106h-88l21 106h88z" />
    <glyph glyph-name="yacute" unicode="&#xfd;" horiz-adv-x="444" 
d="M489 507l-327.001 -607.999c-14 -25.333 -28.333 -45.333 -43 -60c-27.333 -26.667 -64.666 -40 -111.999 -40h-40l18 87h25c20 0 35 4.16699 45 12.5s21.333 24.166 34 47.499l42 78l-73 483h97l44 -367l186 367h104zM448.999 754.001l-130 -159h-84l114 159h100z" />
    <glyph glyph-name="thorn" unicode="&#xfe;" horiz-adv-x="526" 
d="M485 364c0 -30.667 -4.33301 -67.332 -13 -109.999c-21.333 -104.667 -49.333 -174.334 -84 -209.001c-34 -34 -77.667 -51 -131 -51c-58.667 0 -99 20.333 -121 61l-53 -260h-97l183 917h97l-50 -254c32 36.667 75 55 129 55c48.667 0 84.167 -14.167 106.5 -42.5
s33.5 -63.833 33.5 -106.5zM386 339.002c0 58.667 -25.332 88.001 -75.999 88.001c-40 0 -69.833 -14.667 -89.5 -44s-34.834 -72.333 -45.501 -129c-7.33301 -41.333 -11 -70 -11 -86c0 -58.667 25 -88 75 -88c40 0 70 15 90 45s35.333 73 46 129
c7.33301 41.333 11 69.666 11 84.999z" />
    <glyph glyph-name="ydieresis" unicode="&#xff;" horiz-adv-x="444" 
d="M489 507l-327.001 -607.999c-14 -25.333 -28.333 -45.333 -43 -60c-27.333 -26.667 -64.666 -40 -111.999 -40h-40l18 87h25c20 0 35 4.16699 45 12.5s21.333 24.166 34 47.499l42 78l-73 483h97l44 -367l186 367h104zM455.999 705.001l-21 -106h-88l21 106h88z
M250.999 705.001l-21 -106h-88l21 106h88z" />
    <glyph glyph-name="Amacron" unicode="&#x100;" horiz-adv-x="594" 
d="M537 0h-105l-18 146h-268l-77 -146h-111l390 712h83zM405 231l-43 327l-173 -327h216zM264 863h294l-14 -68h-294z" />
    <glyph glyph-name="amacron" unicode="&#x101;" horiz-adv-x="505" 
d="M456 376c0 -13.333 -1.66699 -27.335 -5 -42.002l-67 -334h-94l10 47c-35.333 -35.333 -79.666 -53 -132.999 -53c-43.333 0 -79 11.333 -107 34s-42 54.334 -42 95.001c0 48.667 15.333 88.334 46 119.001c35.333 35.333 84.666 53 147.999 53h134l9 41
c2 9.33301 3 19.333 3 30c0 43.333 -29 65 -87 65c-49.333 0 -90.333 -18 -123 -54l-53 65c45.333 47.333 107.333 71 186 71c47.333 0 88.333 -10.667 123 -32s52 -56.333 52 -105zM333 226.998l-112.001 -0.000976562c-32.667 0 -58.667 -8.66699 -78 -26
s-29 -40.666 -29 -69.999c0 -38 27 -57 81 -57c38 0 69.333 11.667 94 35c16.667 16.667 28.334 41 35.001 73zM475.999 683.997l-14 -69h-294l14 69h294z" />
    <glyph glyph-name="Abreve" unicode="&#x102;" horiz-adv-x="594" 
d="M537 0h-105l-18 146h-268l-77 -146h-111l390 712h83zM405 231l-43 327l-173 -327h216zM564 906c-19.333 -89.333 -72.999 -134.001 -160.999 -134.001c-40.667 0 -72.334 9.5 -95.001 28.5s-34 45.167 -34 78.5c0 9.33301 0.666992 18.333 2 27h69
c-0.666992 -6 -1 -11.667 -1 -17c0 -15.333 6 -27.166 18 -35.499s28 -12.5 48 -12.5c46.667 0 74.667 21.667 84 65h70z" />
    <glyph glyph-name="abreve" unicode="&#x103;" horiz-adv-x="505" 
d="M456 376c0 -13.333 -1.66699 -27.335 -5 -42.002l-67 -334h-94l10 47c-35.333 -35.333 -79.666 -53 -132.999 -53c-43.333 0 -79 11.333 -107 34s-42 54.334 -42 95.001c0 48.667 15.333 88.334 46 119.001c35.333 35.333 84.666 53 147.999 53h134l9 41
c2 9.33301 3 19.333 3 30c0 43.333 -29 65 -87 65c-49.333 0 -90.333 -18 -123 -54l-53 65c45.333 47.333 107.333 71 186 71c47.333 0 88.333 -10.667 123 -32s52 -56.333 52 -105zM333 226.998l-112.001 -0.000976562c-32.667 0 -58.667 -8.66699 -78 -26
s-29 -40.666 -29 -69.999c0 -38 27 -57 81 -57c38 0 69.333 11.667 94 35c16.667 16.667 28.334 41 35.001 73zM474.999 719.997c-19.333 -89.333 -72.999 -134.001 -160.999 -134.001c-40.667 0 -72.334 9.5 -95.001 28.5s-34 45.167 -34 78.5
c0 9.33301 0.666992 18.333 2 27h69c-0.666992 -6 -1 -11.667 -1 -17c0 -15.333 6 -27.166 18 -35.499s28 -12.5 48 -12.5c46.667 0 74.667 21.667 84 65h70z" />
    <glyph glyph-name="Aogonek" unicode="&#x104;" horiz-adv-x="594" 
d="M537 0h-105l-18 146h-268l-77 -146h-111l390 712h83zM405 231l-43 327l-173 -327h216zM514 -61l-77 -145h-94l90 145h81z" />
    <glyph glyph-name="aogonek" unicode="&#x105;" horiz-adv-x="505" 
d="M456 376c0 -13.333 -1.66699 -27.335 -5 -42.002l-67 -334h-94l10 47c-35.333 -35.333 -79.666 -53 -132.999 -53c-43.333 0 -79 11.333 -107 34s-42 54.334 -42 95.001c0 48.667 15.333 88.334 46 119.001c35.333 35.333 84.666 53 147.999 53h134l9 41
c2 9.33301 3 19.333 3 30c0 43.333 -29 65 -87 65c-49.333 0 -90.333 -18 -123 -54l-53 65c45.333 47.333 107.333 71 186 71c47.333 0 88.333 -10.667 123 -32s52 -56.333 52 -105zM333 226.998l-112.001 -0.000976562c-32.667 0 -58.667 -8.66699 -78 -26
s-29 -40.666 -29 -69.999c0 -38 27 -57 81 -57c38 0 69.333 11.667 94 35c16.667 16.667 28.334 41 35.001 73zM360.999 -61.0029l-77 -145h-94l90 145h81z" />
    <glyph glyph-name="Cacute" unicode="&#x106;" horiz-adv-x="599" 
d="M594 503l-103 0.000976562c-0.666992 38 -10.5 68.333 -29.5 91s-46.5 34 -82.5 34c-44.667 0 -83 -17 -115 -51c-16.667 -17.333 -30.334 -41 -41.001 -71s-23 -80 -37 -150c-14.667 -74 -22 -127 -22 -159c0 -34.667 11 -62.167 33 -82.5s49.667 -30.5 83 -30.5
c39.333 0 72.5 11.833 99.5 35.5s46.833 53.5 59.5 89.5h106c-22 -69.333 -57.167 -122.5 -105.5 -159.5s-104.166 -55.5 -167.499 -55.5c-62 0 -112.667 18.167 -152 54.5s-59 83.833 -59 142.5c0 37.333 7.33301 92.333 22 165c16.667 84 31.5 144.667 44.5 182
s33.5 70.666 61.5 99.999c50 53.333 115 80 195 80c68 0 120 -19.833 156 -59.5s54 -91.5 54 -155.5zM565 936.001l-130 -159h-84l114 159h100z" />
    <glyph glyph-name="cacute" unicode="&#x107;" horiz-adv-x="462" 
d="M457 440l-72.999 -63c-23.333 33.333 -51.666 50 -84.999 50c-34 0 -64.333 -13.667 -91 -41c-29.333 -30 -49.333 -74 -60 -132c-4.66699 -23.333 -7 -47 -7 -71c0 -33.333 8.16699 -58.833 24.5 -76.5s38.166 -26.5 65.499 -26.5c38.667 0 74 17 106 51l55 -70
c-46.667 -44.667 -103 -67 -169 -67c-54 0 -97.333 16.5 -130 49.5s-49 77.167 -49 132.5c0 28 2.33301 54 7 78c16.667 88.667 48 154 94 196s100.667 63 164 63s112.666 -24.333 147.999 -73zM496.001 754l-130 -159h-84l114 159h100z" />
    <glyph glyph-name="Ccircumflex" unicode="&#x108;" horiz-adv-x="599" 
d="M594 503l-103 0.000976562c-0.666992 38 -10.5 68.333 -29.5 91s-46.5 34 -82.5 34c-44.667 0 -83 -17 -115 -51c-16.667 -17.333 -30.334 -41 -41.001 -71s-23 -80 -37 -150c-14.667 -74 -22 -127 -22 -159c0 -34.667 11 -62.167 33 -82.5s49.667 -30.5 83 -30.5
c39.333 0 72.5 11.833 99.5 35.5s46.833 53.5 59.5 89.5h106c-22 -69.333 -57.167 -122.5 -105.5 -159.5s-104.166 -55.5 -167.499 -55.5c-62 0 -112.667 18.167 -152 54.5s-59 83.833 -59 142.5c0 37.333 7.33301 92.333 22 165c16.667 84 31.5 144.667 44.5 182
s33.5 70.666 61.5 99.999c50 53.333 115 80 195 80c68 0 120 -19.833 156 -59.5s54 -91.5 54 -155.5zM564 776.001h-77l-62 100l-104 -100h-85l155 162h82z" />
    <glyph glyph-name="ccircumflex" unicode="&#x109;" horiz-adv-x="462" 
d="M457 440l-72.999 -63c-23.333 33.333 -51.666 50 -84.999 50c-34 0 -64.333 -13.667 -91 -41c-29.333 -30 -49.333 -74 -60 -132c-4.66699 -23.333 -7 -47 -7 -71c0 -33.333 8.16699 -58.833 24.5 -76.5s38.166 -26.5 65.499 -26.5c38.667 0 74 17 106 51l55 -70
c-46.667 -44.667 -103 -67 -169 -67c-54 0 -97.333 16.5 -130 49.5s-49 77.167 -49 132.5c0 28 2.33301 54 7 78c16.667 88.667 48 154 94 196s100.667 63 164 63s112.666 -24.333 147.999 -73zM495.001 594h-77l-62 101l-104 -101h-85l155 162h82z" />
    <glyph glyph-name="Cdotaccent" unicode="&#x10a;" horiz-adv-x="599" 
d="M594 503l-103 0.000976562c-0.666992 38 -10.5 68.333 -29.5 91s-46.5 34 -82.5 34c-44.667 0 -83 -17 -115 -51c-16.667 -17.333 -30.334 -41 -41.001 -71s-23 -80 -37 -150c-14.667 -74 -22 -127 -22 -159c0 -34.667 11 -62.167 33 -82.5s49.667 -30.5 83 -30.5
c39.333 0 72.5 11.833 99.5 35.5s46.833 53.5 59.5 89.5h106c-22 -69.333 -57.167 -122.5 -105.5 -159.5s-104.166 -55.5 -167.499 -55.5c-62 0 -112.667 18.167 -152 54.5s-59 83.833 -59 142.5c0 37.333 7.33301 92.333 22 165c16.667 84 31.5 144.667 44.5 182
s33.5 70.666 61.5 99.999c50 53.333 115 80 195 80c68 0 120 -19.833 156 -59.5s54 -91.5 54 -155.5zM379 883.001h91l-19 -94h-91z" />
    <glyph glyph-name="cdotaccent" unicode="&#x10b;" horiz-adv-x="462" 
d="M457 440l-72.999 -63c-23.333 33.333 -51.666 50 -84.999 50c-34 0 -64.333 -13.667 -91 -41c-29.333 -30 -49.333 -74 -60 -132c-4.66699 -23.333 -7 -47 -7 -71c0 -33.333 8.16699 -58.833 24.5 -76.5s38.166 -26.5 65.499 -26.5c38.667 0 74 17 106 51l55 -70
c-46.667 -44.667 -103 -67 -169 -67c-54 0 -97.333 16.5 -130 49.5s-49 77.167 -49 132.5c0 28 2.33301 54 7 78c16.667 88.667 48 154 94 196s100.667 63 164 63s112.666 -24.333 147.999 -73zM400.001 701l-18 -94h-91l19 94h90z" />
    <glyph glyph-name="Ccaron" unicode="&#x10c;" horiz-adv-x="599" 
d="M594 503l-103 0.000976562c-0.666992 38 -10.5 68.333 -29.5 91s-46.5 34 -82.5 34c-44.667 0 -83 -17 -115 -51c-16.667 -17.333 -30.334 -41 -41.001 -71s-23 -80 -37 -150c-14.667 -74 -22 -127 -22 -159c0 -34.667 11 -62.167 33 -82.5s49.667 -30.5 83 -30.5
c39.333 0 72.5 11.833 99.5 35.5s46.833 53.5 59.5 89.5h106c-22 -69.333 -57.167 -122.5 -105.5 -159.5s-104.166 -55.5 -167.499 -55.5c-62 0 -112.667 18.167 -152 54.5s-59 83.833 -59 142.5c0 37.333 7.33301 92.333 22 165c16.667 84 31.5 144.667 44.5 182
s33.5 70.666 61.5 99.999c50 53.333 115 80 195 80c68 0 120 -19.833 156 -59.5s54 -91.5 54 -155.5zM600 938.001l-155 -162h-82l-92 162h78l62 -101l104 101h85z" />
    <glyph glyph-name="ccaron" unicode="&#x10d;" horiz-adv-x="462" 
d="M457 440l-72.999 -63c-23.333 33.333 -51.666 50 -84.999 50c-34 0 -64.333 -13.667 -91 -41c-29.333 -30 -49.333 -74 -60 -132c-4.66699 -23.333 -7 -47 -7 -71c0 -33.333 8.16699 -58.833 24.5 -76.5s38.166 -26.5 65.499 -26.5c38.667 0 74 17 106 51l55 -70
c-46.667 -44.667 -103 -67 -169 -67c-54 0 -97.333 16.5 -130 49.5s-49 77.167 -49 132.5c0 28 2.33301 54 7 78c16.667 88.667 48 154 94 196s100.667 63 164 63s112.666 -24.333 147.999 -73zM526.001 756l-155 -162h-82l-91 162h77l62 -100l104 100h85z" />
    <glyph glyph-name="Dcaron" unicode="&#x10e;" horiz-adv-x="632" 
d="M613 516c0 -30 -7.00098 -81.333 -21.001 -154c-17.333 -88 -33.666 -152 -48.999 -192s-38.333 -74.333 -69 -103c-47.333 -44.667 -111 -67 -191 -67h-245l143 712h227c59.333 0 108.333 -15.833 147 -47.5s58 -81.167 58 -148.5zM509.999 508
c0 36.667 -10.168 64.832 -30.501 84.499s-50.166 29.5 -89.499 29.5h-124l-106 -532h122c50 0 91.333 15 124 45c18 16.667 33.167 41.5 45.5 74.5s24.833 83.833 37.5 152.5c14 72.667 21 121.334 21 146.001zM602.998 937.998l-155 -162h-82l-92 162h78l62 -101l104 101
h85z" />
    <glyph glyph-name="dcaron" unicode="&#x10f;" horiz-adv-x="526" 
d="M541 712l-142.001 -712h-94l11 54c-34 -40 -78.333 -60 -133 -60c-50 0 -86 14.167 -108 42.5s-33 64.166 -33 107.499c0 26.667 4.66699 63.334 14 110.001c20.667 104 48.334 173.333 83.001 208c34 34 78.333 51 133 51c56 0 96 -20.667 120 -62l52 261h97z
M363.999 340c0 58 -25.332 87 -75.999 87c-40 0 -69.833 -14.667 -89.5 -44s-34.834 -72.333 -45.501 -129c-7.33301 -41.333 -11 -70.333 -11 -87c0 -58 25 -87 75 -87c40 0 70 15 90 45s35.333 73 46 129c7.33301 41.333 11 70 11 86zM737 730l-86 -159h-75l68 159h93z
" />
    <glyph glyph-name="Dcroat" unicode="&#x110;" horiz-adv-x="650" 
d="M631 516c0 -26.667 -7.33496 -78 -22.002 -154c-17.333 -88 -33.666 -152 -48.999 -192s-38.333 -74.333 -69 -103c-47.333 -44.667 -110.666 -67 -189.999 -67h-245l64 320h-70l16 79h70l63 313h227c59.333 0 108.333 -15.833 147 -47.5s58 -81.167 58 -148.5z
M527.998 508c0 36.667 -10.168 64.832 -30.501 84.499s-50.166 29.5 -89.499 29.5h-124l-45 -223h131l-15 -79h-132l-46 -230h123c50 0 91.333 15 124 45c18 16.667 33 41.334 45 74.001s24.333 83.667 37 153c14.667 76 22 124.667 22 146z" />
    <glyph glyph-name="dcroat" unicode="&#x111;" horiz-adv-x="581" 
d="M581 634l-13.001 -63h-55l-114 -571h-94l11 54c-34 -40 -78.333 -60 -133 -60c-50 0 -86 14.167 -108 42.5s-33 64.166 -33 107.499c0 26.667 4.66699 63.334 14 110.001c20.667 104 48.334 173.333 83.001 208c34 34 78.333 51 133 51c56 0 96 -20.667 120 -62l24 120
h-105l13 63h104l16 78h97l-16 -78h56zM363.999 340c0 58 -25.332 87 -75.999 87c-40 0 -69.833 -14.667 -89.5 -44s-34.834 -72.333 -45.501 -129c-7.33301 -41.333 -11 -70.333 -11 -87c0 -58 25 -87 75 -87c40 0 70 15 90 45s35.333 73 46 129c7.33301 41.333 11 70 11 86
z" />
    <glyph glyph-name="Emacron" unicode="&#x112;" horiz-adv-x="575" 
d="M613 712l-18 -90h-329l-43 -218h282l-18 -90h-282l-45 -224h335l-18 -90h-439l143 712h432zM265 863h294l-14 -68h-294z" />
    <glyph glyph-name="emacron" unicode="&#x113;" horiz-adv-x="514" 
d="M470 336c0 -30 -5.00098 -66.6641 -15.001 -109.997h-314c-3.33301 -18 -5 -34.333 -5 -49c0 -30.667 8.16699 -55.167 24.5 -73.5s40.5 -27.5 72.5 -27.5c46.667 0 90.334 18.667 131.001 56l54 -64c-52 -49.333 -116.667 -74 -194 -74
c-51.333 0 -94.333 14.667 -129 44s-52 73.666 -52 132.999c0 56.667 8.5 110.167 25.5 160.5s45.333 93.166 85 128.499s87.5 53 143.5 53c53.333 0 95.5 -16.333 126.5 -49s46.5 -75.334 46.5 -128.001zM376.999 336.003c0 31.333 -7.83398 55.333 -23.501 72
s-36.167 25 -61.5 25c-67.333 0 -113.666 -46.667 -138.999 -140h220c2.66699 20 4 34.333 4 43zM490.998 684.003l-14 -69h-294l14 69h294z" />
    <glyph glyph-name="Ebreve" unicode="&#x114;" horiz-adv-x="575" 
d="M613 712l-18 -90h-329l-43 -218h282l-18 -90h-282l-45 -224h335l-18 -90h-439l143 712h432zM556 906c-19.333 -89.333 -72.999 -134.001 -160.999 -134.001c-40.667 0 -72.334 9.5 -95.001 28.5s-34 45.167 -34 78.5c0 9.33301 0.666992 18.333 2 27h69
c-0.666992 -6 -1 -11.667 -1 -17c0 -15.333 6 -27.166 18 -35.499s28 -12.5 48 -12.5c46.667 0 74.667 21.667 84 65h70z" />
    <glyph glyph-name="ebreve" unicode="&#x115;" horiz-adv-x="514" 
d="M470 336c0 -30 -5.00098 -66.6641 -15.001 -109.997h-314c-3.33301 -18 -5 -34.333 -5 -49c0 -30.667 8.16699 -55.167 24.5 -73.5s40.5 -27.5 72.5 -27.5c46.667 0 90.334 18.667 131.001 56l54 -64c-52 -49.333 -116.667 -74 -194 -74
c-51.333 0 -94.333 14.667 -129 44s-52 73.666 -52 132.999c0 56.667 8.5 110.167 25.5 160.5s45.333 93.166 85 128.499s87.5 53 143.5 53c53.333 0 95.5 -16.333 126.5 -49s46.5 -75.334 46.5 -128.001zM376.999 336.003c0 31.333 -7.83398 55.333 -23.501 72
s-36.167 25 -61.5 25c-67.333 0 -113.666 -46.667 -138.999 -140h220c2.66699 20 4 34.333 4 43zM439.998 720.003c-19.333 -89.333 -72.999 -134.001 -160.999 -134.001c-40.667 0 -72.334 9.5 -95.001 28.5s-34 45.167 -34 78.5c0 9.33301 0.666992 18.333 2 27h69
c-0.666992 -6 -1 -11.667 -1 -17c0 -15.333 6 -27.166 18 -35.499s28 -12.5 48 -12.5c46.667 0 74.667 21.667 84 65h70z" />
    <glyph glyph-name="Edotaccent" unicode="&#x116;" horiz-adv-x="575" 
d="M613 712l-18 -90h-329l-43 -218h282l-18 -90h-282l-45 -224h335l-18 -90h-439l143 712h432zM372 883h91l-19 -94h-91z" />
    <glyph glyph-name="edotaccent" unicode="&#x117;" horiz-adv-x="514" 
d="M470 336c0 -30 -5.00098 -66.6641 -15.001 -109.997h-314c-3.33301 -18 -5 -34.333 -5 -49c0 -30.667 8.16699 -55.167 24.5 -73.5s40.5 -27.5 72.5 -27.5c46.667 0 90.334 18.667 131.001 56l54 -64c-52 -49.333 -116.667 -74 -194 -74
c-51.333 0 -94.333 14.667 -129 44s-52 73.666 -52 132.999c0 56.667 8.5 110.167 25.5 160.5s45.333 93.166 85 128.499s87.5 53 143.5 53c53.333 0 95.5 -16.333 126.5 -49s46.5 -75.334 46.5 -128.001zM376.999 336.003c0 31.333 -7.83398 55.333 -23.501 72
s-36.167 25 -61.5 25c-67.333 0 -113.666 -46.667 -138.999 -140h220c2.66699 20 4 34.333 4 43zM391.998 701.003l-18 -94h-91l19 94h90z" />
    <glyph glyph-name="Eogonek" unicode="&#x118;" horiz-adv-x="575" 
d="M613 712l-18 -90h-329l-43 -218h282l-18 -90h-282l-45 -224h335l-18 -90h-439l143 712h432zM453 -61l-77 -145h-94l90 145h81z" />
    <glyph glyph-name="eogonek" unicode="&#x119;" horiz-adv-x="514" 
d="M470 336c0 -30 -5.00098 -66.6641 -15.001 -109.997h-314c-3.33301 -18 -5 -34.333 -5 -49c0 -30.667 8.16699 -55.167 24.5 -73.5s40.5 -27.5 72.5 -27.5c46.667 0 90.334 18.667 131.001 56l54 -64c-52 -49.333 -116.667 -74 -194 -74
c-51.333 0 -94.333 14.667 -129 44s-52 73.666 -52 132.999c0 56.667 8.5 110.167 25.5 160.5s45.333 93.166 85 128.499s87.5 53 143.5 53c53.333 0 95.5 -16.333 126.5 -49s46.5 -75.334 46.5 -128.001zM376.999 336.003c0 31.333 -7.83398 55.333 -23.501 72
s-36.167 25 -61.5 25c-67.333 0 -113.666 -46.667 -138.999 -140h220c2.66699 20 4 34.333 4 43zM331.998 -60.9971l-77 -145h-94l90 145h81z" />
    <glyph glyph-name="Ecaron" unicode="&#x11a;" horiz-adv-x="575" 
d="M613 712l-18 -90h-329l-43 -218h282l-18 -90h-282l-45 -224h335l-18 -90h-439l143 712h432zM588 938l-155 -162h-82l-92 162h78l62 -101l104 101h85z" />
    <glyph glyph-name="ecaron" unicode="&#x11b;" horiz-adv-x="514" 
d="M470 336c0 -30 -5.00098 -66.6641 -15.001 -109.997h-314c-3.33301 -18 -5 -34.333 -5 -49c0 -30.667 8.16699 -55.167 24.5 -73.5s40.5 -27.5 72.5 -27.5c46.667 0 90.334 18.667 131.001 56l54 -64c-52 -49.333 -116.667 -74 -194 -74
c-51.333 0 -94.333 14.667 -129 44s-52 73.666 -52 132.999c0 56.667 8.5 110.167 25.5 160.5s45.333 93.166 85 128.499s87.5 53 143.5 53c53.333 0 95.5 -16.333 126.5 -49s46.5 -75.334 46.5 -128.001zM376.999 336.003c0 31.333 -7.83398 55.333 -23.501 72
s-36.167 25 -61.5 25c-67.333 0 -113.666 -46.667 -138.999 -140h220c2.66699 20 4 34.333 4 43zM517.998 756.003l-155 -162h-82l-91 162h77l62 -100l104 100h85z" />
    <glyph glyph-name="Gcircumflex" unicode="&#x11c;" horiz-adv-x="618" 
d="M598 502l-103.002 0.00292969c-1.33301 39.333 -11.833 70.166 -31.5 92.499s-47.167 33.5 -82.5 33.5c-45.333 0 -84 -17 -116 -51c-18 -18 -32.167 -42.167 -42.5 -72.5s-22.5 -79.833 -36.5 -148.5c-14.667 -74 -22 -127 -22 -159
c0 -34.667 11.167 -62.167 33.5 -82.5s49.833 -30.5 82.5 -30.5c38 0 73.5 14.167 106.5 42.5s54.833 70.166 65.5 125.499l8 45h-145l16 86h248l-20 -107c-16.667 -87.333 -48 -155 -94 -203c-51.333 -52.667 -115.333 -79 -192 -79c-64.667 0 -116.167 18.333 -154.5 55
s-57.5 84 -57.5 142c0 40.667 7.33301 95.667 22 165c18 88.667 33.333 150.5 46 185.5s33 67.167 61 96.5c24 25.333 53.333 45 88 59s70.334 21 107.001 21c68 0 120.333 -19.833 157 -59.5s55.334 -91.834 56.001 -156.501zM563.998 776.003h-77l-62 100l-104 -100h-85
l155 162h82z" />
    <glyph glyph-name="gcircumflex" unicode="&#x11d;" horiz-adv-x="522" 
d="M496 507l-100 -503c-15.333 -76 -45 -130.833 -89 -164.5s-94.667 -50.5 -152 -50.5c-68.667 0 -122.667 23 -162 69l68 59c25.333 -30.667 57 -46 95 -46c35.333 0 65.833 11.333 91.5 34s43.167 56 52.5 100l13 64c-31.333 -38 -73.333 -57 -126 -57
c-42.667 0 -77 13 -103 39s-39 62.667 -39 110c0 24.667 4 58.667 12 102c17.333 96 44 162 80 198c34.667 34.667 79 52 133 52c57.333 0 97.333 -21.333 120 -64l12 58h94zM361 342c0 56.667 -25.332 84.998 -75.999 84.998c-38 0 -66.833 -14.167 -86.5 -42.5
s-34.5 -69.166 -44.5 -122.499c-6.66699 -35.333 -10 -61.666 -10 -78.999c0 -56.667 25 -85 75 -85c37.333 0 66.166 14.333 86.499 43s35.5 69.334 45.5 122.001c6.66699 35.333 10 61.666 10 78.999zM482.001 593.998h-77l-62 101l-104 -101h-85l155 162h82z" />
    <glyph glyph-name="Gbreve" unicode="&#x11e;" horiz-adv-x="618" 
d="M598 502l-103.002 0.00292969c-1.33301 39.333 -11.833 70.166 -31.5 92.499s-47.167 33.5 -82.5 33.5c-45.333 0 -84 -17 -116 -51c-18 -18 -32.167 -42.167 -42.5 -72.5s-22.5 -79.833 -36.5 -148.5c-14.667 -74 -22 -127 -22 -159
c0 -34.667 11.167 -62.167 33.5 -82.5s49.833 -30.5 82.5 -30.5c38 0 73.5 14.167 106.5 42.5s54.833 70.166 65.5 125.499l8 45h-145l16 86h248l-20 -107c-16.667 -87.333 -48 -155 -94 -203c-51.333 -52.667 -115.333 -79 -192 -79c-64.667 0 -116.167 18.333 -154.5 55
s-57.5 84 -57.5 142c0 40.667 7.33301 95.667 22 165c18 88.667 33.333 150.5 46 185.5s33 67.167 61 96.5c24 25.333 53.333 45 88 59s70.334 21 107.001 21c68 0 120.333 -19.833 157 -59.5s55.334 -91.834 56.001 -156.501zM571.998 906.003
c-19.333 -89.333 -72.999 -134.001 -160.999 -134.001c-40.667 0 -72.334 9.5 -95.001 28.5s-34 45.167 -34 78.5c0 9.33301 0.666992 18.333 2 27h69c-0.666992 -6 -1 -11.667 -1 -17c0 -15.333 6 -27.166 18 -35.499s28 -12.5 48 -12.5c46.667 0 74.667 21.667 84 65h70z
" />
    <glyph glyph-name="gbreve" unicode="&#x11f;" horiz-adv-x="522" 
d="M496 507l-100 -503c-15.333 -76 -45 -130.833 -89 -164.5s-94.667 -50.5 -152 -50.5c-68.667 0 -122.667 23 -162 69l68 59c25.333 -30.667 57 -46 95 -46c35.333 0 65.833 11.333 91.5 34s43.167 56 52.5 100l13 64c-31.333 -38 -73.333 -57 -126 -57
c-42.667 0 -77 13 -103 39s-39 62.667 -39 110c0 24.667 4 58.667 12 102c17.333 96 44 162 80 198c34.667 34.667 79 52 133 52c57.333 0 97.333 -21.333 120 -64l12 58h94zM361 342c0 56.667 -25.332 84.998 -75.999 84.998c-38 0 -66.833 -14.167 -86.5 -42.5
s-34.5 -69.166 -44.5 -122.499c-6.66699 -35.333 -10 -61.666 -10 -78.999c0 -56.667 25 -85 75 -85c37.333 0 66.166 14.333 86.499 43s35.5 69.334 45.5 122.001c6.66699 35.333 10 61.666 10 78.999zM485.001 719.998
c-19.333 -89.333 -72.999 -134.001 -160.999 -134.001c-40.667 0 -72.334 9.5 -95.001 28.5s-34 45.167 -34 78.5c0 9.33301 0.666992 18.333 2 27h69c-0.666992 -6 -1 -11.667 -1 -17c0 -15.333 6 -27.166 18 -35.499s28 -12.5 48 -12.5c46.667 0 74.667 21.667 84 65h70z
" />
    <glyph glyph-name="Gdotaccent" unicode="&#x120;" horiz-adv-x="618" 
d="M598 502l-103.002 0.00292969c-1.33301 39.333 -11.833 70.166 -31.5 92.499s-47.167 33.5 -82.5 33.5c-45.333 0 -84 -17 -116 -51c-18 -18 -32.167 -42.167 -42.5 -72.5s-22.5 -79.833 -36.5 -148.5c-14.667 -74 -22 -127 -22 -159
c0 -34.667 11.167 -62.167 33.5 -82.5s49.833 -30.5 82.5 -30.5c38 0 73.5 14.167 106.5 42.5s54.833 70.166 65.5 125.499l8 45h-145l16 86h248l-20 -107c-16.667 -87.333 -48 -155 -94 -203c-51.333 -52.667 -115.333 -79 -192 -79c-64.667 0 -116.167 18.333 -154.5 55
s-57.5 84 -57.5 142c0 40.667 7.33301 95.667 22 165c18 88.667 33.333 150.5 46 185.5s33 67.167 61 96.5c24 25.333 53.333 45 88 59s70.334 21 107.001 21c68 0 120.333 -19.833 157 -59.5s55.334 -91.834 56.001 -156.501zM378.998 883.003h91l-19 -94h-91z" />
    <glyph glyph-name="gdotaccent" unicode="&#x121;" horiz-adv-x="522" 
d="M496 507l-100 -503c-15.333 -76 -45 -130.833 -89 -164.5s-94.667 -50.5 -152 -50.5c-68.667 0 -122.667 23 -162 69l68 59c25.333 -30.667 57 -46 95 -46c35.333 0 65.833 11.333 91.5 34s43.167 56 52.5 100l13 64c-31.333 -38 -73.333 -57 -126 -57
c-42.667 0 -77 13 -103 39s-39 62.667 -39 110c0 24.667 4 58.667 12 102c17.333 96 44 162 80 198c34.667 34.667 79 52 133 52c57.333 0 97.333 -21.333 120 -64l12 58h94zM361 342c0 56.667 -25.332 84.998 -75.999 84.998c-38 0 -66.833 -14.167 -86.5 -42.5
s-34.5 -69.166 -44.5 -122.499c-6.66699 -35.333 -10 -61.666 -10 -78.999c0 -56.667 25 -85 75 -85c37.333 0 66.166 14.333 86.499 43s35.5 69.334 45.5 122.001c6.66699 35.333 10 61.666 10 78.999zM387.001 700.998l-18 -94h-91l19 94h90z" />
    <glyph glyph-name="Gcommaaccent" unicode="&#x122;" horiz-adv-x="618" 
d="M598 502l-103.002 0.00292969c-1.33301 39.333 -11.833 70.166 -31.5 92.499s-47.167 33.5 -82.5 33.5c-45.333 0 -84 -17 -116 -51c-18 -18 -32.167 -42.167 -42.5 -72.5s-22.5 -79.833 -36.5 -148.5c-14.667 -74 -22 -127 -22 -159
c0 -34.667 11.167 -62.167 33.5 -82.5s49.833 -30.5 82.5 -30.5c38 0 73.5 14.167 106.5 42.5s54.833 70.166 65.5 125.499l8 45h-145l16 86h248l-20 -107c-16.667 -87.333 -48 -155 -94 -203c-51.333 -52.667 -115.333 -79 -192 -79c-64.667 0 -116.167 18.333 -154.5 55
s-57.5 84 -57.5 142c0 40.667 7.33301 95.667 22 165c18 88.667 33.333 150.5 46 185.5s33 67.167 61 96.5c24 25.333 53.333 45 88 59s70.334 21 107.001 21c68 0 120.333 -19.833 157 -59.5s55.334 -91.834 56.001 -156.501zM305.998 -60.9971l-77 -145h-95l90 145h82z
" />
    <glyph glyph-name="gcommaaccent" unicode="&#x123;" horiz-adv-x="522" 
d="M496 507l-100 -503c-15.333 -76 -45 -130.833 -89 -164.5s-94.667 -50.5 -152 -50.5c-68.667 0 -122.667 23 -162 69l68 59c25.333 -30.667 57 -46 95 -46c35.333 0 65.833 11.333 91.5 34s43.167 56 52.5 100l13 64c-31.333 -38 -73.333 -57 -126 -57
c-42.667 0 -77 13 -103 39s-39 62.667 -39 110c0 24.667 4 58.667 12 102c17.333 96 44 162 80 198c34.667 34.667 79 52 133 52c57.333 0 97.333 -21.333 120 -64l12 58h94zM361 342c0 56.667 -25.332 84.998 -75.999 84.998c-38 0 -66.833 -14.167 -86.5 -42.5
s-34.5 -69.166 -44.5 -122.499c-6.66699 -35.333 -10 -61.666 -10 -78.999c0 -56.667 25 -85 75 -85c37.333 0 66.166 14.333 86.499 43s35.5 69.334 45.5 122.001c6.66699 35.333 10 61.666 10 78.999zM482.001 753.998l-130 -159h-84l114 159h100z" />
    <glyph glyph-name="Hcircumflex" unicode="&#x124;" horiz-adv-x="656" 
d="M661 712l-143 -712h-103l63 315h-273l-64 -315h-103l143 712h103l-61 -307h274l61 307h103zM592 776h-77l-62 100l-104 -100h-85l155 162h82z" />
    <glyph glyph-name="hcircumflex" unicode="&#x125;" horiz-adv-x="540" 
d="M393 779h-77l-62 101l-104 -101h-85l155 162h82zM487 371c0 -17.333 -1.66602 -34.999 -4.99902 -52.999l-64 -318h-97l62 311c3.33301 16.667 5 30 5 40c0 24.667 -7.16699 43.5 -21.5 56.5s-32.5 19.5 -54.5 19.5c-10.667 0 -21.5 -1.5 -32.5 -4.5
s-23 -8.33301 -36 -16s-24.667 -19.834 -35 -36.501s-17.833 -37 -22.5 -61l-62 -309h-97l142 712h97l-51 -252c35.333 35.333 80.666 53 135.999 53c38 0 70.167 -12.167 96.5 -36.5s39.5 -59.5 39.5 -105.5z" />
    <glyph glyph-name="Hbar" unicode="&#x126;" horiz-adv-x="725" 
d="M718 592l-17 -80h-68l-103 -512h-103l63 315h-273l-64 -315h-103l103 512h-70l17 80h69l24 120h103l-24 -120h274l24 120h103l-24 -120h69zM530 512h-274l-21 -107h274z" />
    <glyph glyph-name="hbar" unicode="&#x127;" horiz-adv-x="554" 
d="M500 371c0 -14 -1.99902 -31.666 -5.99902 -52.999l-64 -318h-97l62 311c3.33301 14.667 5 28 5 40c0 24.667 -7.16699 43.5 -21.5 56.5s-32.5 19.5 -54.5 19.5c-10.667 0 -21.5 -1.5 -32.5 -4.5s-23 -8.33301 -36 -16s-24.667 -19.834 -35 -36.501
s-17.833 -37 -22.5 -61l-62 -309h-97l114 571h-55l13 63h54l16 78h97l-16 -78h105l-13 -63h-104l-22 -111c35.333 35.333 80.666 53 135.999 53c37.333 0 69.333 -12.167 96 -36.5s40 -59.5 40 -105.5z" />
    <glyph glyph-name="Itilde" unicode="&#x128;" horiz-adv-x="279" 
d="M284 712l-143 -712h-103l143 712h103zM417 839c-35.333 -33.333 -69.999 -50 -103.999 -50c-22 0 -46 6.83301 -72 20.5s-43.667 20.5 -53 20.5c-18.667 0 -39.334 -10.667 -62.001 -32l-38 49c35.333 33.333 70 50 104 50c22 0 46 -6.83301 72 -20.5
s43.667 -20.5 53 -20.5c20 0 40.667 10.667 62 32z" />
    <glyph glyph-name="itilde" unicode="&#x129;" horiz-adv-x="251" 
d="M225 507l-101 -507h-97l101 507h97zM376 654c-35.333 -33.333 -69.999 -50 -103.999 -50c-22 0 -46 6.83301 -72 20.5s-43.667 20.5 -53 20.5c-18.667 0 -39.334 -10.667 -62.001 -32l-38 49c35.333 33.333 70 50 104 50c22 0 46 -6.83301 72 -20.5
s43.667 -20.5 53 -20.5c20 0 40.667 10.667 62 32z" />
    <glyph glyph-name="Imacron" unicode="&#x12a;" horiz-adv-x="279" 
d="M284 712l-143 -712h-103l143 712h103zM108 863h294l-14 -68h-294z" />
    <glyph glyph-name="imacron" unicode="&#x12b;" horiz-adv-x="251" 
d="M225 507l-101 -507h-97l101 507h97zM357 684l-14 -69h-294l14 69h294z" />
    <glyph glyph-name="Ibreve" unicode="&#x12c;" horiz-adv-x="279" 
d="M284 712l-143 -712h-103l143 712h103zM412 906c-19.333 -89.333 -72.999 -134.001 -160.999 -134.001c-40.667 0 -72.334 9.5 -95.001 28.5s-34 45.167 -34 78.5c0 9.33301 0.666992 18.333 2 27h69c-0.666992 -6 -1 -11.667 -1 -17c0 -15.333 6 -27.166 18 -35.499
s28 -12.5 48 -12.5c46.667 0 74.667 21.667 84 65h70z" />
    <glyph glyph-name="ibreve" unicode="&#x12d;" horiz-adv-x="251" 
d="M225 507l-101 -507h-97l101 507h97zM359 720c-19.333 -89.333 -72.999 -134.001 -160.999 -134.001c-40.667 0 -72.334 9.5 -95.001 28.5s-34 45.167 -34 78.5c0 9.33301 0.666992 18.333 2 27h69c-0.666992 -6 -1 -11.667 -1 -17c0 -15.333 6 -27.166 18 -35.499
s28 -12.5 48 -12.5c46.667 0 74.667 21.667 84 65h70z" />
    <glyph glyph-name="Iogonek" unicode="&#x12e;" horiz-adv-x="279" 
d="M284 712l-143 -712h-103l143 712h103zM114 -61l-77 -145h-94l90 145h81z" />
    <glyph glyph-name="iogonek" unicode="&#x12f;" horiz-adv-x="251" 
d="M226 507l-102 -507h-97l102 507h97zM268 708l-18 -88h-103l17 88h104zM99 -61l-77 -145h-94l90 145h81z" />
    <glyph glyph-name="Idotaccent" unicode="&#x130;" horiz-adv-x="279" 
d="M284 712l-143 -712h-103l143 712h103zM221 883h91l-19 -94h-91z" />
    <glyph glyph-name="dotlessi" unicode="&#x131;" horiz-adv-x="251" 
d="M225 507l-101 -507h-97l101 507h97z" />
    <glyph glyph-name="IJ" unicode="&#x132;" horiz-adv-x="760" 
d="M284 712l-143 -712h-103l143 712h103zM773 712l-98.001 -493c-16 -78 -47.167 -135 -93.5 -171s-98.833 -54 -157.5 -54c-72.667 0 -128 23.667 -166 71l74 64c24.667 -30 56.334 -45 95.001 -45c34 0 64.5 12 91.5 36s45.5 60.333 55.5 109l96 483h103z" />
    <glyph glyph-name="ij" unicode="&#x133;" horiz-adv-x="502" 
d="M226 507l-102 -507h-97l102 507h97zM268 708l-18 -88h-103l17 88h104zM477 507l-115.999 -577c-18.667 -92 -70.334 -138 -155.001 -138h-64l16 83h39c38 0 61 21.333 69 64l114 568h97zM519.001 708l-18 -88h-103l17 88h104z" />
    <glyph glyph-name="Jcircumflex" unicode="&#x134;" horiz-adv-x="481" 
d="M494 712l-98.001 -493c-16 -78 -47.167 -135 -93.5 -171s-98.833 -54 -157.5 -54c-72.667 0 -128 23.667 -166 71l74 64c24.667 -30 56.334 -45 95.001 -45c34 0 64.5 12 91.5 36s45.5 60.333 55.5 109l96 483h103zM611.999 776h-77l-62 100l-104 -100h-85l155 162h82z
" />
    <glyph glyph-name="jcircumflex" unicode="&#x135;" horiz-adv-x="251" 
d="M226 507l-115.999 -577c-18.667 -92 -70.334 -138 -155.001 -138h-64l16 83h39c38 0 61 21.333 69 64l114 568h97zM351.001 594h-77l-62 101l-104 -101h-85l155 162h82z" />
    <glyph glyph-name="Kcommaaccent" unicode="&#x136;" horiz-adv-x="629" 
d="M685 712l-275 -288l164 -424h-113l-133 355l-146 -145l-42 -210h-102l143 712h102l-71 -357l345 357h128zM318 -61l-77 -145h-95l90 145h82z" />
    <glyph glyph-name="kcommaaccent" unicode="&#x137;" horiz-adv-x="523" 
d="M530 507l-208 -204l135 -303h-111l-98 242l-93 -88l-31 -154h-97l142 712h97l-86 -437l232 232h118zM271 -61l-77 -145h-95l90 145h82z" />
    <glyph glyph-name="kgreenlandic" unicode="&#x138;" horiz-adv-x="523" 
d="M529 507l-207 -204l135 -303h-111l-98 242l-93 -88l-31 -154h-97l101 507h97l-45 -232l231 232h118z" />
    <glyph glyph-name="Lacute" unicode="&#x139;" horiz-adv-x="548" 
d="M488 90l-18 -90h-432l143 712h103l-124 -622h328zM401 936l-130 -159h-84l114 159h100z" />
    <glyph glyph-name="lacute" unicode="&#x13a;" horiz-adv-x="298" 
d="M263 712l-113 -567c-2.66699 -16 -4 -25 -4 -27c0 -24 15.667 -36 47 -36h46l-17 -82h-60c-32 0 -58.833 8.66699 -80.5 26s-32.5 43 -32.5 77c0 15.333 1.33301 29.333 4 42l113 567h97zM392 939l-130 -159h-84l114 159h100z" />
    <glyph glyph-name="Lcommaaccent" unicode="&#x13b;" horiz-adv-x="548" 
d="M488 90l-18 -90h-432l143 712h103l-124 -622h328zM293 -61l-77 -145h-95l90 145h82z" />
    <glyph glyph-name="lcommaaccent" unicode="&#x13c;" horiz-adv-x="298" 
d="M263 712l-113 -567c-2.66699 -16 -4 -25 -4 -27c0 -24 15.667 -36 47 -36h46l-17 -82h-60c-32 0 -58.833 8.66699 -80.5 26s-32.5 43 -32.5 77c0 15.333 1.33301 29.333 4 42l113 567h97zM152 -61l-77 -145h-95l90 145h82z" />
    <glyph glyph-name="Lcaron" unicode="&#x13d;" horiz-adv-x="548" 
d="M488 90l-18 -90h-432l143 712h103l-124 -622h328zM503 712l-86 -159h-75l68 159h93z" />
    <glyph glyph-name="lcaron" unicode="&#x13e;" horiz-adv-x="298" 
d="M263 712l-113 -567c-2.66699 -16 -4 -25 -4 -27c0 -24 15.667 -36 47 -36h46l-17 -82h-60c-32 0 -58.833 8.66699 -80.5 26s-32.5 43 -32.5 77c0 15.333 1.33301 29.333 4 42l113 567h97zM460 730l-86 -159h-75l68 159h93z" />
    <glyph glyph-name="Ldot" unicode="&#x13f;" horiz-adv-x="548" 
d="M488 90l-18 -90h-432l143 712h103l-124 -622h328zM402 406h91l-19 -94h-91z" />
    <glyph glyph-name="ldot" unicode="&#x140;" horiz-adv-x="356" 
d="M263 712l-113 -567c-2.66699 -16 -4 -25 -4 -27c0 -24 15.667 -36 47 -36h46l-17 -82h-60c-32 0 -58.833 8.66699 -80.5 26s-32.5 43 -32.5 77c0 15.333 1.33301 29.333 4 42l113 567h97zM365 325l-18 -94h-91l19 94h90z" />
    <glyph glyph-name="Lslash" unicode="&#x141;" horiz-adv-x="561" 
d="M501 90l-17 -90h-432l53 267l-73 -43l18 92l74 43l70 353h103l-57 -287l152 89l-19 -92l-152 -89l-48 -243h328z" />
    <glyph glyph-name="lslash" unicode="&#x142;" horiz-adv-x="312" 
d="M303 511l-18 -88l-75 -43l-47 -235c-2 -12 -3 -21 -3 -27c0 -24 15.333 -36 46 -36h46l-17 -82h-59c-32 0 -59 8.66699 -81 26s-33 43 -33 77c0 15.333 1.33301 29.333 4 42l36 177l-63 -36l17 88l63 35l61 303h96l-49 -245z" />
    <glyph glyph-name="Nacute" unicode="&#x143;" horiz-adv-x="686" 
d="M691 712l-143 -712h-90l-214 510l-103 -510h-103l143 712h91l214 -510l102 510h103zM596 936l-130 -159h-84l114 159h100z" />
    <glyph glyph-name="nacute" unicode="&#x144;" horiz-adv-x="540" 
d="M487 371c0 -17.333 -1.66699 -34.999 -5 -52.999l-64 -318h-97l62 311c3.33301 16.667 5 30 5 40c0 24.667 -7.16699 43.5 -21.5 56.5s-32.5 19.5 -54.5 19.5c-10.667 0 -21.5 -1.5 -32.5 -4.5s-23 -8.33301 -36 -16s-24.667 -19.834 -35 -36.501s-17.833 -37 -22.5 -61
l-62 -309h-97l101 507h94l-10 -52c35.333 38.667 82.333 58 141 58c36.667 0 68.167 -12.167 94.5 -36.5s39.5 -59.5 39.5 -105.5zM500 754.001l-130 -159h-84l114 159h100z" />
    <glyph glyph-name="Ncommaaccent" unicode="&#x145;" horiz-adv-x="686" 
d="M691 712l-143 -712h-90l-214 510l-103 -510h-103l143 712h91l214 -510l102 510h103zM346 -61l-77 -145h-95l90 145h82z" />
    <glyph glyph-name="ncommaaccent" unicode="&#x146;" horiz-adv-x="540" 
d="M487 371c0 -17.333 -1.66699 -34.999 -5 -52.999l-64 -318h-97l62 311c3.33301 16.667 5 30 5 40c0 24.667 -7.16699 43.5 -21.5 56.5s-32.5 19.5 -54.5 19.5c-10.667 0 -21.5 -1.5 -32.5 -4.5s-23 -8.33301 -36 -16s-24.667 -19.834 -35 -36.501s-17.833 -37 -22.5 -61
l-62 -309h-97l101 507h94l-10 -52c35.333 38.667 82.333 58 141 58c36.667 0 68.167 -12.167 94.5 -36.5s39.5 -59.5 39.5 -105.5zM276 -60.999l-77 -145h-95l90 145h82z" />
    <glyph glyph-name="Ncaron" unicode="&#x147;" horiz-adv-x="686" 
d="M691 712l-143 -712h-90l-214 510l-103 -510h-103l143 712h91l214 -510l102 510h103zM626 938l-155 -162h-82l-92 162h78l62 -101l104 101h85z" />
    <glyph glyph-name="ncaron" unicode="&#x148;" horiz-adv-x="540" 
d="M487 371c0 -17.333 -1.66699 -34.999 -5 -52.999l-64 -318h-97l62 311c3.33301 16.667 5 30 5 40c0 24.667 -7.16699 43.5 -21.5 56.5s-32.5 19.5 -54.5 19.5c-10.667 0 -21.5 -1.5 -32.5 -4.5s-23 -8.33301 -36 -16s-24.667 -19.834 -35 -36.501s-17.833 -37 -22.5 -61
l-62 -309h-97l101 507h94l-10 -52c35.333 38.667 82.333 58 141 58c36.667 0 68.167 -12.167 94.5 -36.5s39.5 -59.5 39.5 -105.5zM530 756.001l-155 -162h-82l-91 162h77l62 -100l104 100h85z" />
    <glyph glyph-name="napostrophe" unicode="&#x149;" horiz-adv-x="540" 
d="M487 371c0 -17.333 -1.66699 -34.999 -5 -52.999l-64 -318h-97l62 311c3.33301 16.667 5 30 5 40c0 24.667 -7.16699 43.5 -21.5 56.5s-32.5 19.5 -54.5 19.5c-10.667 0 -21.5 -1.5 -32.5 -4.5s-23 -8.33301 -36 -16s-24.667 -19.834 -35 -36.501s-17.833 -37 -22.5 -61
l-62 -309h-97l101 507h94l-10 -52c35.333 38.667 82.333 58 141 58c36.667 0 68.167 -12.167 94.5 -36.5s39.5 -59.5 39.5 -105.5zM173 730.001l-25 -123l-104 -75l40 198h89z" />
    <glyph glyph-name="Eng" unicode="&#x14a;" horiz-adv-x="686" 
d="M691 712l-155.999 -780c-18.667 -92 -70.334 -138 -155.001 -138h-64l16 83h45c38 0 61 21.333 69 64l12 59l-214 510l-103 -510h-103l143 712h91l214 -510l102 510h103z" />
    <glyph glyph-name="eng" unicode="&#x14b;" horiz-adv-x="540" 
d="M487 371c0 -17.333 -1.66602 -34.999 -4.99902 -52.999l-78 -386c-18.667 -92 -70.334 -138 -155.001 -138h-64l16 83h39c38 0 61 21.333 69 64l74 370c3.33301 16.667 5 30 5 40c0 24.667 -7.16699 43.5 -21.5 56.5s-32.5 19.5 -54.5 19.5
c-10.667 0 -21.5 -1.5 -32.5 -4.5s-23 -8.33301 -36 -16s-24.667 -19.834 -35 -36.501s-17.833 -37 -22.5 -61l-62 -309h-97l101 507h94l-10 -52c35.333 38.667 82.333 58 141 58c36.667 0 68.167 -12.167 94.5 -36.5s39.5 -59.5 39.5 -105.5z" />
    <glyph glyph-name="Omacron" unicode="&#x14c;" horiz-adv-x="614" 
d="M592 521c0 -37.333 -7.33301 -92.333 -22 -165c-16.667 -83.333 -31.667 -144 -45 -182s-33.666 -71.333 -60.999 -100c-50.667 -53.333 -116.334 -80 -197.001 -80c-62 0 -111.833 18.333 -149.5 55s-56.5 84 -56.5 142c0 37.333 7.33301 92.333 22 165
c16.667 83.333 31.667 144 45 182s33.666 71.333 60.999 100c50.667 53.333 116 80 196 80c62.667 0 112.834 -18.333 150.501 -55s56.5 -84 56.5 -142zM489 513c0 36 -10.667 64.167 -32 84.5s-47.333 30.5 -78 30.5c-45.333 0 -84 -17 -116 -51
c-16 -16.667 -29.333 -40.5 -40 -71.5s-23 -80.833 -37 -149.5c-14.667 -74 -22 -126.333 -22 -157c0 -36 10.667 -64.167 32 -84.5s47.333 -30.5 78 -30.5c45.333 0 84 17 116 51c16 16.667 29.333 40.5 40 71.5s23 80.833 37 149.5c14.667 74 22 126.333 22 157zM272 863
h294l-14 -68h-294z" />
    <glyph glyph-name="omacron" unicode="&#x14d;" horiz-adv-x="508" 
d="M464 346c0 -28 -3.00098 -58.666 -9.00098 -91.999c-19.333 -96.667 -50.333 -164.334 -93 -203.001c-41.333 -38 -91.666 -57 -150.999 -57c-46 0 -85.333 14 -118 42s-49 69.667 -49 125c0 28.667 3 59.667 9 93c19.333 96 50.333 163.333 93 202
c40.667 38 91 57 151 57c46 0 85.333 -14 118 -42s49 -69.667 49 -125zM367.999 337.001c0 30 -7.33301 52.5 -22 67.5s-34 22.5 -58 22.5c-30.667 0 -56.667 -10.667 -78 -32c-26 -26 -46 -73 -60 -141c-6.66699 -34 -10 -61.667 -10 -83c0 -30.667 7.5 -53.5 22.5 -68.5
s34.167 -22.5 57.5 -22.5c30.667 0 56.667 10.667 78 32c26.667 26 46.667 73.333 60 142c6.66699 34 10 61.667 10 83zM487.999 684.001l-14 -69h-294l14 69h294z" />
    <glyph glyph-name="Obreve" unicode="&#x14e;" horiz-adv-x="614" 
d="M592 521c0 -37.333 -7.33301 -92.333 -22 -165c-16.667 -83.333 -31.667 -144 -45 -182s-33.666 -71.333 -60.999 -100c-50.667 -53.333 -116.334 -80 -197.001 -80c-62 0 -111.833 18.333 -149.5 55s-56.5 84 -56.5 142c0 37.333 7.33301 92.333 22 165
c16.667 83.333 31.667 144 45 182s33.666 71.333 60.999 100c50.667 53.333 116 80 196 80c62.667 0 112.834 -18.333 150.501 -55s56.5 -84 56.5 -142zM489 513c0 36 -10.667 64.167 -32 84.5s-47.333 30.5 -78 30.5c-45.333 0 -84 -17 -116 -51
c-16 -16.667 -29.333 -40.5 -40 -71.5s-23 -80.833 -37 -149.5c-14.667 -74 -22 -126.333 -22 -157c0 -36 10.667 -64.167 32 -84.5s47.333 -30.5 78 -30.5c45.333 0 84 17 116 51c16 16.667 29.333 40.5 40 71.5s23 80.833 37 149.5c14.667 74 22 126.333 22 157zM562 906
c-19.333 -89.333 -72.999 -134.001 -160.999 -134.001c-40.667 0 -72.334 9.5 -95.001 28.5s-34 45.167 -34 78.5c0 9.33301 0.666992 18.333 2 27h69c-0.666992 -6 -1 -11.667 -1 -17c0 -15.333 6 -27.166 18 -35.499s28 -12.5 48 -12.5c46.667 0 74.667 21.667 84 65h70z
" />
    <glyph glyph-name="obreve" unicode="&#x14f;" horiz-adv-x="508" 
d="M464 346c0 -28 -3.00098 -58.666 -9.00098 -91.999c-19.333 -96.667 -50.333 -164.334 -93 -203.001c-41.333 -38 -91.666 -57 -150.999 -57c-46 0 -85.333 14 -118 42s-49 69.667 -49 125c0 28.667 3 59.667 9 93c19.333 96 50.333 163.333 93 202
c40.667 38 91 57 151 57c46 0 85.333 -14 118 -42s49 -69.667 49 -125zM367.999 337.001c0 30 -7.33301 52.5 -22 67.5s-34 22.5 -58 22.5c-30.667 0 -56.667 -10.667 -78 -32c-26 -26 -46 -73 -60 -141c-6.66699 -34 -10 -61.667 -10 -83c0 -30.667 7.5 -53.5 22.5 -68.5
s34.167 -22.5 57.5 -22.5c30.667 0 56.667 10.667 78 32c26.667 26 46.667 73.333 60 142c6.66699 34 10 61.667 10 83zM477.999 720.001c-19.333 -89.333 -72.999 -134.001 -160.999 -134.001c-40.667 0 -72.334 9.5 -95.001 28.5s-34 45.167 -34 78.5
c0 9.33301 0.666992 18.333 2 27h69c-0.666992 -6 -1 -11.667 -1 -17c0 -15.333 6 -27.166 18 -35.499s28 -12.5 48 -12.5c46.667 0 74.667 21.667 84 65h70z" />
    <glyph glyph-name="Ohungarumlaut" unicode="&#x150;" horiz-adv-x="614" 
d="M592 521c0 -37.333 -7.33301 -92.333 -22 -165c-16.667 -83.333 -31.667 -144 -45 -182s-33.666 -71.333 -60.999 -100c-50.667 -53.333 -116.334 -80 -197.001 -80c-62 0 -111.833 18.333 -149.5 55s-56.5 84 -56.5 142c0 37.333 7.33301 92.333 22 165
c16.667 83.333 31.667 144 45 182s33.666 71.333 60.999 100c50.667 53.333 116 80 196 80c62.667 0 112.834 -18.333 150.501 -55s56.5 -84 56.5 -142zM489 513c0 36 -10.667 64.167 -32 84.5s-47.333 30.5 -78 30.5c-45.333 0 -84 -17 -116 -51
c-16 -16.667 -29.333 -40.5 -40 -71.5s-23 -80.833 -37 -149.5c-14.667 -74 -22 -126.333 -22 -157c0 -36 10.667 -64.167 32 -84.5s47.333 -30.5 78 -30.5c45.333 0 84 17 116 51c16 16.667 29.333 40.5 40 71.5s23 80.833 37 149.5c14.667 74 22 126.333 22 157zM482 936
l-130 -159h-84l114 159h100zM658 936l-129 -159h-84l113 159h100z" />
    <glyph glyph-name="ohungarumlaut" unicode="&#x151;" horiz-adv-x="508" 
d="M464 346c0 -28 -3.00098 -58.666 -9.00098 -91.999c-19.333 -96.667 -50.333 -164.334 -93 -203.001c-41.333 -38 -91.666 -57 -150.999 -57c-46 0 -85.333 14 -118 42s-49 69.667 -49 125c0 28.667 3 59.667 9 93c19.333 96 50.333 163.333 93 202
c40.667 38 91 57 151 57c46 0 85.333 -14 118 -42s49 -69.667 49 -125zM367.999 337.001c0 30 -7.33301 52.5 -22 67.5s-34 22.5 -58 22.5c-30.667 0 -56.667 -10.667 -78 -32c-26 -26 -46 -73 -60 -141c-6.66699 -34 -10 -61.667 -10 -83c0 -30.667 7.5 -53.5 22.5 -68.5
s34.167 -22.5 57.5 -22.5c30.667 0 56.667 10.667 78 32c26.667 26 46.667 73.333 60 142c6.66699 34 10 61.667 10 83zM401.999 754.001l-130 -159h-84l114 159h100zM577.999 754.001l-129 -159h-84l113 159h100z" />
    <glyph glyph-name="OE" unicode="&#x152;" horiz-adv-x="927" 
d="M965 712l-17.999 -91h-326l-43 -216h279l-18 -91h-279l-45 -223h332l-18 -91h-425l10 57c-36.667 -42 -87 -63 -151 -63c-60.667 0 -109.5 18.5 -146.5 55.5s-55.5 84.167 -55.5 141.5c0 37.333 7.33301 92.333 22 165c16.667 83.333 31.667 144 45 182
s33.666 71.333 60.999 100c50.667 53.333 116 80 196 80c68.667 0 116.667 -24.333 144 -73l13 67h423zM489.001 513c0 36 -10.667 64.167 -32 84.5s-47.333 30.5 -78 30.5c-45.333 0 -84 -17 -116 -51c-16 -16.667 -29.333 -40.5 -40 -71.5s-23 -80.833 -37 -149.5
c-14.667 -74 -22 -126.333 -22 -157c0 -36 10.667 -64.167 32 -84.5s47.333 -30.5 78 -30.5c45.333 0 84 17 116 51c16 16.667 29.333 40.5 40 71.5s23 80.833 37 149.5c14.667 74 22 126.333 22 157z" />
    <glyph glyph-name="oe" unicode="&#x153;" horiz-adv-x="821" 
d="M776 336c0 -28 -4.66797 -64.666 -14.001 -109.999h-315c-3.33301 -20 -5 -36.333 -5 -49c0 -30.667 8.33301 -55.167 25 -73.5s41 -27.5 73 -27.5c46.667 0 90.334 18.667 131.001 56l53 -64c-52 -49.333 -116.333 -74 -193 -74c-72.667 0 -123 28 -151 84
c-40.667 -56 -97 -84 -169 -84c-46 0 -85.5 14 -118.5 42s-49.5 69.667 -49.5 125c0 23.333 3.33301 54.333 10 93c18.667 94 49.667 161.333 93 202c40 38 90 57 150 57c30.667 0 58.5 -7 83.5 -21s44.167 -34.667 57.5 -62c40.667 55.333 96 83 166 83
c53.333 0 95.5 -16.333 126.5 -49s46.5 -75.334 46.5 -128.001zM367.999 337.001c0 30 -7.33301 52.5 -22 67.5s-34 22.5 -58 22.5c-30.667 0 -56.667 -10.667 -78 -32c-26 -26 -46 -73 -60 -141c-6.66699 -34 -10 -61.667 -10 -83c0 -30.667 7.5 -53.5 22.5 -68.5
s34.167 -22.5 57.5 -22.5c30.667 0 56.667 10.667 78 32c26.667 26 46.667 73.333 60 142c6.66699 34 10 61.667 10 83zM682.999 336.001c0 31.333 -7.83398 55.333 -23.501 72s-36.167 25 -61.5 25c-67.333 0 -113.666 -46.667 -138.999 -140h220c2.66699 20 4 34.333 4 43
z" />
    <glyph glyph-name="Racute" unicode="&#x154;" horiz-adv-x="626" 
d="M615 534c0 -50 -15.501 -95.5 -46.501 -136.5s-74.5 -68.833 -130.5 -83.5l101 -314h-113l-91 304h-132l-62 -304h-103l143 712h248c64.667 0 111.834 -16.833 141.501 -50.5s44.5 -76.167 44.5 -127.5zM510.999 529c0 29.333 -8.16699 52 -24.5 68s-40.5 24 -72.5 24
h-148l-47 -231h149c46 0 81.333 14.167 106 42.5s37 60.5 37 96.5zM566.999 936l-130 -159h-84l114 159h100z" />
    <glyph glyph-name="racute" unicode="&#x155;" horiz-adv-x="415" 
d="M455 465l-81.001 -72c-17.333 22 -38.666 33 -63.999 33c-30 0 -56.333 -11 -79 -33s-37.667 -50.333 -45 -85l-62 -308h-97l101 507h95l-12 -56c32.667 41.333 78 62 136 62c44.667 0 80.667 -16 108 -48zM410.999 754l-130 -159h-84l114 159h100z" />
    <glyph glyph-name="Rcommaaccent" unicode="&#x156;" horiz-adv-x="626" 
d="M615 534c0 -50 -15.501 -95.5 -46.501 -136.5s-74.5 -68.833 -130.5 -83.5l101 -314h-113l-91 304h-132l-62 -304h-103l143 712h248c64.667 0 111.834 -16.833 141.501 -50.5s44.5 -76.167 44.5 -127.5zM510.999 529c0 29.333 -8.16699 52 -24.5 68s-40.5 24 -72.5 24
h-148l-47 -231h149c46 0 81.333 14.167 106 42.5s37 60.5 37 96.5zM310.999 -61l-77 -145h-95l90 145h82z" />
    <glyph glyph-name="rcommaaccent" unicode="&#x157;" horiz-adv-x="415" 
d="M455 465l-81.001 -72c-17.333 22 -38.666 33 -63.999 33c-30 0 -56.333 -11 -79 -33s-37.667 -50.333 -45 -85l-62 -308h-97l101 507h95l-12 -56c32.667 41.333 78 62 136 62c44.667 0 80.667 -16 108 -48zM104.999 -61l-77 -145h-95l90 145h82z" />
    <glyph glyph-name="Rcaron" unicode="&#x158;" horiz-adv-x="626" 
d="M615 534c0 -50 -15.501 -95.5 -46.501 -136.5s-74.5 -68.833 -130.5 -83.5l101 -314h-113l-91 304h-132l-62 -304h-103l143 712h248c64.667 0 111.834 -16.833 141.501 -50.5s44.5 -76.167 44.5 -127.5zM510.999 529c0 29.333 -8.16699 52 -24.5 68s-40.5 24 -72.5 24
h-148l-47 -231h149c46 0 81.333 14.167 106 42.5s37 60.5 37 96.5zM596.999 938l-155 -162h-82l-92 162h78l62 -101l104 101h85z" />
    <glyph glyph-name="rcaron" unicode="&#x159;" horiz-adv-x="415" 
d="M455 465l-81.001 -72c-17.333 22 -38.666 33 -63.999 33c-30 0 -56.333 -11 -79 -33s-37.667 -50.333 -45 -85l-62 -308h-97l101 507h95l-12 -56c32.667 41.333 78 62 136 62c44.667 0 80.667 -16 108 -48zM437.999 756l-155 -162h-82l-91 162h77l62 -100l104 100h85z
" />
    <glyph glyph-name="Sacute" unicode="&#x15a;" horiz-adv-x="561" 
d="M564 634l-72 -63.002c-32.667 38.667 -77.667 58 -135 58c-46 0 -83 -13.333 -111 -40s-42 -57.667 -42 -93c0 -41.333 29.667 -69.333 89 -84l62 -15c56.667 -13.333 97.167 -34 121.5 -62s36.5 -67 36.5 -117c0 -71.333 -26.333 -126.5 -79 -165.5
s-118.334 -58.5 -197.001 -58.5c-53.333 0 -97.833 7.66699 -133.5 23s-68.167 40.333 -97.5 75l76 66c38.667 -48.667 93.334 -73 164.001 -73c46.667 0 85.667 12 117 36s47 54 47 90c0 28.667 -7.5 49.834 -22.5 63.501s-36.833 23.834 -65.5 30.501l-63 15
c-48.667 11.333 -87.167 31 -115.5 59s-42.5 63.333 -42.5 106c0 63.333 23.667 118 71 164s113 69 197 69c84.667 0 149.667 -28 195 -84zM547 935.998l-130 -159h-84l114 159h100z" />
    <glyph glyph-name="sacute" unicode="&#x15b;" horiz-adv-x="473" 
d="M446 454l-66.998 -60.001c-26.667 26 -62.334 39 -107.001 39c-34 0 -60.333 -8 -79 -24s-28 -35 -28 -57c0 -26 20 -42 60 -48l67 -10c44 -6.66699 75.5 -20.334 94.5 -41.001s28.5 -49.667 28.5 -87c0 -43.333 -17.333 -82 -52 -116c-38 -37.333 -96.667 -56 -176 -56
c-83.333 0 -147 24.667 -191 74l70 62c30 -35.333 73 -53 129 -53c39.333 0 69.666 8.33301 90.999 25s32 35.667 32 57c0 16.667 -4.83301 28.834 -14.5 36.501s-24.5 13.167 -44.5 16.5l-67 10c-82.667 12.667 -124 50 -124 112c0 48.667 16.333 89.334 49 122.001
c38 38 93 57 165 57c68 0 122.667 -19.667 164 -59zM474.002 753.999l-130 -159h-84l114 159h100z" />
    <glyph glyph-name="Scircumflex" unicode="&#x15c;" horiz-adv-x="561" 
d="M564 634l-72 -63.002c-32.667 38.667 -77.667 58 -135 58c-46 0 -83 -13.333 -111 -40s-42 -57.667 -42 -93c0 -41.333 29.667 -69.333 89 -84l62 -15c56.667 -13.333 97.167 -34 121.5 -62s36.5 -67 36.5 -117c0 -71.333 -26.333 -126.5 -79 -165.5
s-118.334 -58.5 -197.001 -58.5c-53.333 0 -97.833 7.66699 -133.5 23s-68.167 40.333 -97.5 75l76 66c38.667 -48.667 93.334 -73 164.001 -73c46.667 0 85.667 12 117 36s47 54 47 90c0 28.667 -7.5 49.834 -22.5 63.501s-36.833 23.834 -65.5 30.501l-63 15
c-48.667 11.333 -87.167 31 -115.5 59s-42.5 63.333 -42.5 106c0 63.333 23.667 118 71 164s113 69 197 69c84.667 0 149.667 -28 195 -84zM546 775.998h-77l-62 100l-104 -100h-85l155 162h82z" />
    <glyph glyph-name="scircumflex" unicode="&#x15d;" horiz-adv-x="473" 
d="M446 454l-66.998 -60.001c-26.667 26 -62.334 39 -107.001 39c-34 0 -60.333 -8 -79 -24s-28 -35 -28 -57c0 -26 20 -42 60 -48l67 -10c44 -6.66699 75.5 -20.334 94.5 -41.001s28.5 -49.667 28.5 -87c0 -43.333 -17.333 -82 -52 -116c-38 -37.333 -96.667 -56 -176 -56
c-83.333 0 -147 24.667 -191 74l70 62c30 -35.333 73 -53 129 -53c39.333 0 69.666 8.33301 90.999 25s32 35.667 32 57c0 16.667 -4.83301 28.834 -14.5 36.501s-24.5 13.167 -44.5 16.5l-67 10c-82.667 12.667 -124 50 -124 112c0 48.667 16.333 89.334 49 122.001
c38 38 93 57 165 57c68 0 122.667 -19.667 164 -59zM473.002 593.999h-77l-62 101l-104 -101h-85l155 162h82z" />
    <glyph glyph-name="Scedilla" unicode="&#x15e;" horiz-adv-x="561" 
d="M564 634l-72 -63.002c-32.667 38.667 -77.667 58 -135 58c-46 0 -83 -13.333 -111 -40s-42 -57.667 -42 -93c0 -41.333 29.667 -69.333 89 -84l62 -15c56.667 -13.333 97.167 -34 121.5 -62s36.5 -67 36.5 -117c0 -71.333 -26.333 -126.5 -79 -165.5
s-118.334 -58.5 -197.001 -58.5c-53.333 0 -97.833 7.66699 -133.5 23s-68.167 40.333 -97.5 75l76 66c38.667 -48.667 93.334 -73 164.001 -73c46.667 0 85.667 12 117 36s47 54 47 90c0 28.667 -7.5 49.834 -22.5 63.501s-36.833 23.834 -65.5 30.501l-63 15
c-48.667 11.333 -87.167 31 -115.5 59s-42.5 63.333 -42.5 106c0 63.333 23.667 118 71 164s113 69 197 69c84.667 0 149.667 -28 195 -84zM275 -61.002l-77 -145h-94l90 145h81z" />
    <glyph glyph-name="scedilla" unicode="&#x15f;" horiz-adv-x="473" 
d="M446 454l-66.998 -60.001c-26.667 26 -62.334 39 -107.001 39c-34 0 -60.333 -8 -79 -24s-28 -35 -28 -57c0 -26 20 -42 60 -48l67 -10c44 -6.66699 75.5 -20.334 94.5 -41.001s28.5 -49.667 28.5 -87c0 -43.333 -17.333 -82 -52 -116c-38 -37.333 -96.667 -56 -176 -56
c-83.333 0 -147 24.667 -191 74l70 62c30 -35.333 73 -53 129 -53c39.333 0 69.666 8.33301 90.999 25s32 35.667 32 57c0 16.667 -4.83301 28.834 -14.5 36.501s-24.5 13.167 -44.5 16.5l-67 10c-82.667 12.667 -124 50 -124 112c0 48.667 16.333 89.334 49 122.001
c38 38 93 57 165 57c68 0 122.667 -19.667 164 -59zM226.002 -61.001l-77 -145h-94l90 145h81z" />
    <glyph glyph-name="Scaron" unicode="&#x160;" horiz-adv-x="561" 
d="M564 634l-72 -63.002c-32.667 38.667 -77.667 58 -135 58c-46 0 -83 -13.333 -111 -40s-42 -57.667 -42 -93c0 -41.333 29.667 -69.333 89 -84l62 -15c56.667 -13.333 97.167 -34 121.5 -62s36.5 -67 36.5 -117c0 -71.333 -26.333 -126.5 -79 -165.5
s-118.334 -58.5 -197.001 -58.5c-53.333 0 -97.833 7.66699 -133.5 23s-68.167 40.333 -97.5 75l76 66c38.667 -48.667 93.334 -73 164.001 -73c46.667 0 85.667 12 117 36s47 54 47 90c0 28.667 -7.5 49.834 -22.5 63.501s-36.833 23.834 -65.5 30.501l-63 15
c-48.667 11.333 -87.167 31 -115.5 59s-42.5 63.333 -42.5 106c0 63.333 23.667 118 71 164s113 69 197 69c84.667 0 149.667 -28 195 -84zM577 937.998l-155 -162h-82l-92 162h78l62 -101l104 101h85z" />
    <glyph glyph-name="scaron" unicode="&#x161;" horiz-adv-x="473" 
d="M446 454l-66.998 -60.001c-26.667 26 -62.334 39 -107.001 39c-34 0 -60.333 -8 -79 -24s-28 -35 -28 -57c0 -26 20 -42 60 -48l67 -10c44 -6.66699 75.5 -20.334 94.5 -41.001s28.5 -49.667 28.5 -87c0 -43.333 -17.333 -82 -52 -116c-38 -37.333 -96.667 -56 -176 -56
c-83.333 0 -147 24.667 -191 74l70 62c30 -35.333 73 -53 129 -53c39.333 0 69.666 8.33301 90.999 25s32 35.667 32 57c0 16.667 -4.83301 28.834 -14.5 36.501s-24.5 13.167 -44.5 16.5l-67 10c-82.667 12.667 -124 50 -124 112c0 48.667 16.333 89.334 49 122.001
c38 38 93 57 165 57c68 0 122.667 -19.667 164 -59zM504.002 755.999l-155 -162h-82l-91 162h77l62 -100l104 100h85z" />
    <glyph glyph-name="Tcommaaccent" unicode="&#x162;" horiz-adv-x="532" 
d="M595 712l-18 -91h-184l-125 -621h-103l125 621h-188l19 91h474zM244 -61l-77 -145h-94l90 145h81z" />
    <glyph glyph-name="tcommaaccent" unicode="&#x163;" horiz-adv-x="328" 
d="M329 507l-14 -74h-92l-57 -289c-2.66699 -14.667 -4 -23 -4 -25c0 -24.667 16 -37 48 -37h42l-16 -82h-58c-32 0 -58.833 8.66699 -80.5 26s-32.5 43 -32.5 77c0 13.333 1.33301 27.333 4 42l57 288h-57l15 74h57l29 145h97l-29 -145h91zM164 -61l-77 -145h-95l90 145h82
z" />
    <glyph glyph-name="Tcaron" unicode="&#x164;" horiz-adv-x="532" 
d="M595 712l-18 -91h-184l-125 -621h-103l125 621h-188l19 91h474zM566 938l-155 -162h-82l-92 162h78l62 -101l104 101h85z" />
    <glyph glyph-name="tcaron" unicode="&#x165;" horiz-adv-x="328" 
d="M329 507l-14 -74h-92l-57 -289c-2.66699 -14.667 -4 -23 -4 -25c0 -24.667 16 -37 48 -37h42l-16 -82h-58c-32 0 -58.833 8.66699 -80.5 26s-32.5 43 -32.5 77c0 13.333 1.33301 27.333 4 42l57 288h-57l15 74h57l29 145h97l-29 -145h91zM475 730l-86 -159h-75l68 159h93
z" />
    <glyph glyph-name="Tbar" unicode="&#x166;" horiz-adv-x="532" 
d="M595 712l-18 -91h-184l-45 -222h101l-15 -79h-102l-64 -320h-103l64 320h-100l16 79h100l45 222h-188l19 91h474z" />
    <glyph glyph-name="tbar" unicode="&#x167;" horiz-adv-x="328" 
d="M329 507l-14 -74h-92l-24 -118h92l-14 -74h-92l-19 -97c-2.66699 -12 -4 -20.333 -4 -25c0 -24.667 16 -37 48 -37h42l-16 -82h-58c-32 0 -58.833 8.66699 -80.5 26s-32.5 43 -32.5 77c0 13.333 1.33301 27.333 4 42l19 96h-57l15 74h56l24 118h-57l15 74h57l29 145h97
l-29 -145h91z" />
    <glyph glyph-name="Utilde" unicode="&#x168;" horiz-adv-x="642" 
d="M656 712l-95 -473c-16 -80 -49.167 -140.833 -99.5 -182.5s-110.833 -62.5 -181.5 -62.5c-57.333 0 -106.333 17.5 -147 52.5s-61 83.5 -61 145.5c0 18 2.33301 38.667 7 62l91 458h103l-93 -466c-3.33301 -20 -5 -36 -5 -48c0 -31.333 9.16699 -58 27.5 -80
s46.5 -33 84.5 -33c42.667 0 79.667 14.333 111 43s52.333 69.667 63 123l92 461h103zM597 839c-35.333 -33.333 -69.999 -50 -103.999 -50c-22 0 -46 6.83301 -72 20.5s-43.667 20.5 -53 20.5c-18.667 0 -39.334 -10.667 -62.001 -32l-38 49c35.333 33.333 70 50 104 50
c22 0 46 -6.83301 72 -20.5s43.667 -20.5 53 -20.5c20 0 40.667 10.667 62 32z" />
    <glyph glyph-name="utilde" unicode="&#x169;" horiz-adv-x="540" 
d="M513 507l-101 -507.001h-94l10 52c-35.333 -38.667 -82.333 -58 -141 -58c-36.667 0 -68.167 12.167 -94.5 36.5s-39.5 59.5 -39.5 105.5c0 17.333 1.66699 35 5 53l64 318h97l-62 -311c-3.33301 -16.667 -5 -30 -5 -40c0 -24.667 7.16699 -43.5 21.5 -56.5
s32.5 -19.5 54.5 -19.5c10.667 0 21.5 1.5 32.5 4.5s23 8.33301 36 16s24.667 19.834 35 36.501s17.833 37 22.5 61l62 309h97zM508 653.999c-35.333 -33.333 -69.999 -50 -103.999 -50c-22 0 -46 6.83301 -72 20.5s-43.667 20.5 -53 20.5
c-18.667 0 -39.334 -10.667 -62.001 -32l-38 49c35.333 33.333 70 50 104 50c22 0 46 -6.83301 72 -20.5s43.667 -20.5 53 -20.5c20 0 40.667 10.667 62 32z" />
    <glyph glyph-name="Umacron" unicode="&#x16a;" horiz-adv-x="642" 
d="M656 712l-95 -473c-16 -80 -49.167 -140.833 -99.5 -182.5s-110.833 -62.5 -181.5 -62.5c-57.333 0 -106.333 17.5 -147 52.5s-61 83.5 -61 145.5c0 18 2.33301 38.667 7 62l91 458h103l-93 -466c-3.33301 -20 -5 -36 -5 -48c0 -31.333 9.16699 -58 27.5 -80
s46.5 -33 84.5 -33c42.667 0 79.667 14.333 111 43s52.333 69.667 63 123l92 461h103zM289 863h294l-14 -68h-294z" />
    <glyph glyph-name="umacron" unicode="&#x16b;" horiz-adv-x="540" 
d="M513 507l-101 -507.001h-94l10 52c-35.333 -38.667 -82.333 -58 -141 -58c-36.667 0 -68.167 12.167 -94.5 36.5s-39.5 59.5 -39.5 105.5c0 17.333 1.66699 35 5 53l64 318h97l-62 -311c-3.33301 -16.667 -5 -30 -5 -40c0 -24.667 7.16699 -43.5 21.5 -56.5
s32.5 -19.5 54.5 -19.5c10.667 0 21.5 1.5 32.5 4.5s23 8.33301 36 16s24.667 19.834 35 36.501s17.833 37 22.5 61l62 309h97zM497 683.999l-14 -69h-294l14 69h294z" />
    <glyph glyph-name="Ubreve" unicode="&#x16c;" horiz-adv-x="642" 
d="M656 712l-95 -473c-16 -80 -49.167 -140.833 -99.5 -182.5s-110.833 -62.5 -181.5 -62.5c-57.333 0 -106.333 17.5 -147 52.5s-61 83.5 -61 145.5c0 18 2.33301 38.667 7 62l91 458h103l-93 -466c-3.33301 -20 -5 -36 -5 -48c0 -31.333 9.16699 -58 27.5 -80
s46.5 -33 84.5 -33c42.667 0 79.667 14.333 111 43s52.333 69.667 63 123l92 461h103zM589 906c-19.333 -89.333 -72.999 -134.001 -160.999 -134.001c-40.667 0 -72.334 9.5 -95.001 28.5s-34 45.167 -34 78.5c0 9.33301 0.666992 18.333 2 27h69
c-0.666992 -6 -1 -11.667 -1 -17c0 -15.333 6 -27.166 18 -35.499s28 -12.5 48 -12.5c46.667 0 74.667 21.667 84 65h70z" />
    <glyph glyph-name="ubreve" unicode="&#x16d;" horiz-adv-x="540" 
d="M513 507l-101 -507.001h-94l10 52c-35.333 -38.667 -82.333 -58 -141 -58c-36.667 0 -68.167 12.167 -94.5 36.5s-39.5 59.5 -39.5 105.5c0 17.333 1.66699 35 5 53l64 318h97l-62 -311c-3.33301 -16.667 -5 -30 -5 -40c0 -24.667 7.16699 -43.5 21.5 -56.5
s32.5 -19.5 54.5 -19.5c10.667 0 21.5 1.5 32.5 4.5s23 8.33301 36 16s24.667 19.834 35 36.501s17.833 37 22.5 61l62 309h97zM496 719.999c-19.333 -89.333 -72.999 -134.001 -160.999 -134.001c-40.667 0 -72.334 9.5 -95.001 28.5s-34 45.167 -34 78.5
c0 9.33301 0.666992 18.333 2 27h69c-0.666992 -6 -1 -11.667 -1 -17c0 -15.333 6 -27.166 18 -35.499s28 -12.5 48 -12.5c46.667 0 74.667 21.667 84 65h70z" />
    <glyph glyph-name="Uring" unicode="&#x16e;" horiz-adv-x="642" 
d="M656 712l-95 -473c-16 -80 -49.167 -140.833 -99.5 -182.5s-110.833 -62.5 -181.5 -62.5c-57.333 0 -106.333 17.5 -147 52.5s-61 83.5 -61 145.5c0 18 2.33301 38.667 7 62l91 458h103l-93 -466c-3.33301 -20 -5 -36 -5 -48c0 -31.333 9.16699 -58 27.5 -80
s46.5 -33 84.5 -33c42.667 0 79.667 14.333 111 43s52.333 69.667 63 123l92 461h103zM553 870c0 -34.667 -11.833 -63.834 -35.5 -87.501s-52.5 -35.5 -86.5 -35.5s-62.833 11.833 -86.5 35.5s-35.5 52.834 -35.5 87.501c0 34 11.833 62.833 35.5 86.5s52.5 35.5 86.5 35.5
s62.833 -11.833 86.5 -35.5s35.5 -52.5 35.5 -86.5zM496 870c0 17.333 -6.5 32.333 -19.5 45s-28.167 19 -45.5 19s-32.333 -6.33301 -45 -19s-19 -27.667 -19 -45s6.33301 -32.333 19 -45s27.667 -19 45 -19s32.5 6.33301 45.5 19s19.5 27.667 19.5 45z" />
    <glyph glyph-name="uring" unicode="&#x16f;" horiz-adv-x="540" 
d="M513 507l-101 -507.001h-94l10 52c-35.333 -38.667 -82.333 -58 -141 -58c-36.667 0 -68.167 12.167 -94.5 36.5s-39.5 59.5 -39.5 105.5c0 17.333 1.66699 35 5 53l64 318h97l-62 -311c-3.33301 -16.667 -5 -30 -5 -40c0 -24.667 7.16699 -43.5 21.5 -56.5
s32.5 -19.5 54.5 -19.5c10.667 0 21.5 1.5 32.5 4.5s23 8.33301 36 16s24.667 19.834 35 36.501s17.833 37 22.5 61l62 309h97zM468 697.999c0 -34 -12 -63.001 -36 -87.001s-53 -36 -87 -36s-62.833 11.833 -86.5 35.5s-35.5 52.834 -35.5 87.501
c0 34 11.833 62.833 35.5 86.5s52.5 35.5 86.5 35.5s63 -11.833 87 -35.5s36 -52.5 36 -86.5zM410 697.998c0 17.333 -6.5 32.333 -19.5 45s-28.167 19 -45.5 19s-32.333 -6.33301 -45 -19s-19 -27.667 -19 -45s6.5 -32.333 19.5 -45s27.833 -19 44.5 -19
c17.333 0 32.5 6.33301 45.5 19s19.5 27.667 19.5 45z" />
    <glyph glyph-name="Uhungarumlaut" unicode="&#x170;" horiz-adv-x="642" 
d="M656 712l-95 -473c-16 -80 -49.167 -140.833 -99.5 -182.5s-110.833 -62.5 -181.5 -62.5c-57.333 0 -106.333 17.5 -147 52.5s-61 83.5 -61 145.5c0 18 2.33301 38.667 7 62l91 458h103l-93 -466c-3.33301 -20 -5 -36 -5 -48c0 -31.333 9.16699 -58 27.5 -80
s46.5 -33 84.5 -33c42.667 0 79.667 14.333 111 43s52.333 69.667 63 123l92 461h103zM499 936l-130 -159h-84l114 159h100zM675 936l-129 -159h-84l113 159h100z" />
    <glyph glyph-name="uhungarumlaut" unicode="&#x171;" horiz-adv-x="540" 
d="M513 507l-101 -507.001h-94l10 52c-35.333 -38.667 -82.333 -58 -141 -58c-36.667 0 -68.167 12.167 -94.5 36.5s-39.5 59.5 -39.5 105.5c0 17.333 1.66699 35 5 53l64 318h97l-62 -311c-3.33301 -16.667 -5 -30 -5 -40c0 -24.667 7.16699 -43.5 21.5 -56.5
s32.5 -19.5 54.5 -19.5c10.667 0 21.5 1.5 32.5 4.5s23 8.33301 36 16s24.667 19.834 35 36.501s17.833 37 22.5 61l62 309h97zM411 753.999l-130 -159h-84l114 159h100zM587 753.999l-129 -159h-84l113 159h100z" />
    <glyph glyph-name="Uogonek" unicode="&#x172;" horiz-adv-x="642" 
d="M656 712l-95 -473c-16 -80 -49.167 -140.833 -99.5 -182.5s-110.833 -62.5 -181.5 -62.5c-57.333 0 -106.333 17.5 -147 52.5s-61 83.5 -61 145.5c0 18 2.33301 38.667 7 62l91 458h103l-93 -466c-3.33301 -20 -5 -36 -5 -48c0 -31.333 9.16699 -58 27.5 -80
s46.5 -33 84.5 -33c42.667 0 79.667 14.333 111 43s52.333 69.667 63 123l92 461h103zM413 -61l-77 -145h-94l90 145h81z" />
    <glyph glyph-name="uogonek" unicode="&#x173;" horiz-adv-x="540" 
d="M513 507l-101 -507.001h-94l10 52c-35.333 -38.667 -82.333 -58 -141 -58c-36.667 0 -68.167 12.167 -94.5 36.5s-39.5 59.5 -39.5 105.5c0 17.333 1.66699 35 5 53l64 318h97l-62 -311c-3.33301 -16.667 -5 -30 -5 -40c0 -24.667 7.16699 -43.5 21.5 -56.5
s32.5 -19.5 54.5 -19.5c10.667 0 21.5 1.5 32.5 4.5s23 8.33301 36 16s24.667 19.834 35 36.501s17.833 37 22.5 61l62 309h97zM384 -61.001l-77 -145h-94l90 145h81z" />
    <glyph glyph-name="Wcircumflex" unicode="&#x174;" horiz-adv-x="831" 
d="M910 712l-314 -712h-89l-38 504l-241 -504h-89l-37 712h106l17 -515l240 515h82l36 -515l217 515h110zM680 776h-77l-62 100l-104 -100h-85l155 162h82z" />
    <glyph glyph-name="wcircumflex" unicode="&#x175;" horiz-adv-x="704" 
d="M745 507l-245 -507h-80l-45 356l-184 -356h-82l-50 507h98l24 -360l182 360h74l42 -360l163 360h103zM583 594h-77l-62 101l-104 -101h-85l155 162h82z" />
    <glyph glyph-name="Ycircumflex" unicode="&#x176;" horiz-adv-x="521" 
d="M605 712l-284 -423l-58 -289h-103l59 294l-125 418h109l85 -319l204 319h113zM509 776h-77l-62 100l-104 -100h-85l155 162h82z" />
    <glyph glyph-name="ycircumflex" unicode="&#x177;" horiz-adv-x="444" 
d="M489 507l-327.001 -607.999c-14 -25.333 -28.333 -45.333 -43 -60c-27.333 -26.667 -64.666 -40 -111.999 -40h-40l18 87h25c20 0 35 4.16699 45 12.5s21.333 24.166 34 47.499l42 78l-73 483h97l44 -367l186 367h104zM444.999 594.001h-77l-62 101l-104 -101h-85
l155 162h82z" />
    <glyph glyph-name="Ydieresis" unicode="&#x178;" horiz-adv-x="521" 
d="M605 712l-284 -423l-58 -289h-103l59 294l-125 418h109l85 -319l204 319h113zM315 887l-20 -105h-88l21 105h87zM520 887l-20 -105h-88l21 105h87z" />
    <glyph glyph-name="Zacute" unicode="&#x179;" horiz-adv-x="529" 
d="M570 712l-17 -82l-416 -539h315l-18 -91h-437l17 87l413 534h-299l18 91h424zM530 936l-130 -159h-84l114 159h100z" />
    <glyph glyph-name="zacute" unicode="&#x17a;" horiz-adv-x="450" 
d="M454 507l-15 -77l-305 -344h243l-17 -86h-367l16 77l303 344h-228l18 86h352zM458 754l-130 -159h-84l114 159h100z" />
    <glyph glyph-name="Zdotaccent" unicode="&#x17b;" horiz-adv-x="529" 
d="M570 712l-17 -82l-416 -539h315l-18 -91h-437l17 87l413 534h-299l18 91h424zM344 883h91l-19 -94h-91z" />
    <glyph glyph-name="zdotaccent" unicode="&#x17c;" horiz-adv-x="450" 
d="M454 507l-15 -77l-305 -344h243l-17 -86h-367l16 77l303 344h-228l18 86h352zM362 701l-18 -94h-91l19 94h90z" />
    <glyph glyph-name="Zcaron" unicode="&#x17d;" horiz-adv-x="529" 
d="M570 712l-17 -82l-416 -539h315l-18 -91h-437l17 87l413 534h-299l18 91h424zM560 938l-155 -162h-82l-92 162h78l62 -101l104 101h85z" />
    <glyph glyph-name="zcaron" unicode="&#x17e;" horiz-adv-x="450" 
d="M454 507l-15 -77l-305 -344h243l-17 -86h-367l16 77l303 344h-228l18 86h352zM488 756l-155 -162h-82l-91 162h77l62 -100l104 100h85z" />
    <glyph glyph-name="longs" unicode="&#x17f;" horiz-adv-x="251" 
d="M363 717l-17 -82h-40c-36.667 0 -59 -20.333 -67 -61l-115 -574h-97l117 583c18 89.333 70 134 156 134h63z" />
    <glyph glyph-name="uni018F" unicode="&#x18f;" horiz-adv-x="617" 
d="M597 521c0 -34 -7.66504 -89 -22.998 -165c-16.667 -83.333 -31.5 -144 -44.5 -182s-33.167 -71.333 -60.5 -100c-51.333 -53.333 -117 -80 -197 -80c-62.667 0 -113.5 18.5 -152.5 55.5s-58.5 84.167 -58.5 141.5c0 38.667 5.66699 86.334 17 143.001l10 49h388
c11.333 60 17 103.333 17 130c0 36 -10.667 64.167 -32 84.5s-47.333 30.5 -78 30.5c-48 0 -88 -17 -120 -51c-16.667 -18.667 -30.334 -43.667 -41.001 -75h-106c17.333 57.333 41.666 102.666 72.999 135.999c50.667 53.333 117.667 80 201 80c62 0 112 -18.333 150 -55
s57 -84 57 -142zM458.002 297h-282c-8 -40 -12 -72.667 -12 -98c0 -36 11.333 -64.167 34 -84.5s49.667 -30.5 81 -30.5c44.667 0 83 17 115 51c24.667 25.333 46 79.333 64 162z" />
    <glyph glyph-name="florin" unicode="&#x192;" horiz-adv-x="394" 
d="M459 716l-16.9971 -81h-53c-36.667 0 -62.334 -20 -77.001 -60l-67 -184h97l-16 -73h-108l-192 -523h-97l192 523h-78l14 73h91l68 185c17.333 48.667 40.166 84.167 68.499 106.5s67.166 33.5 116.499 33.5h58z" />
    <glyph glyph-name="uni01B5" unicode="&#x1b5;" horiz-adv-x="529" 
d="M570 712l-17 -82l-178 -231h69l-15 -79h-115l-177 -229h315l-18 -91h-437l17 87l180 233h-70l16 79h115l172 222h-299l18 91h424z" />
    <glyph glyph-name="uni01B6" unicode="&#x1b6;" horiz-adv-x="450" 
d="M454 507l-15 -77l-129 -145h49l-13 -63h-92l-120 -136h243l-17 -86h-367l16 77l127 145h-47l13 63h90l120 136h-228l18 86h352z" />
    <glyph glyph-name="uni01C4" unicode="&#x1c4;" horiz-adv-x="1161" 
d="M613 516c0 -30 -7.00098 -81.333 -21.001 -154c-17.333 -88 -33.666 -152 -48.999 -192s-38.333 -74.333 -69 -103c-47.333 -44.667 -111 -67 -191 -67h-245l143 712h227c59.333 0 108.333 -15.833 147 -47.5s58 -81.167 58 -148.5zM509.999 508
c0 36.667 -10.168 64.832 -30.501 84.499s-50.166 29.5 -89.499 29.5h-124l-106 -532h122c50 0 91.333 15 124 45c18 16.667 33.167 41.5 45.5 74.5s24.833 83.833 37.5 152.5c14 72.667 21 121.334 21 146.001zM1202 711.998l-17 -82l-416 -539h315l-18 -91h-437l17 87
l413 534h-299l18 91h424zM1192 937.998l-155 -162h-82l-92 162h78l62 -101l104 101h85z" />
    <glyph glyph-name="uni01C5" unicode="&#x1c5;" horiz-adv-x="1082" 
d="M613 516c0 -30 -7.00098 -81.333 -21.001 -154c-17.333 -88 -33.666 -152 -48.999 -192s-38.333 -74.333 -69 -103c-47.333 -44.667 -111 -67 -191 -67h-245l143 712h227c59.333 0 108.333 -15.833 147 -47.5s58 -81.167 58 -148.5zM509.999 508
c0 36.667 -10.168 64.832 -30.501 84.499s-50.166 29.5 -89.499 29.5h-124l-106 -532h122c50 0 91.333 15 124 45c18 16.667 33.167 41.5 45.5 74.5s24.833 83.833 37.5 152.5c14 72.667 21 121.334 21 146.001zM1086 506.998l-15 -77l-305 -344h243l-17 -86h-367l16 77
l303 344h-228l18 86h352zM1120 755.998l-155 -162h-82l-91 162h77l62 -100l104 100h85z" />
    <glyph glyph-name="uni01C6" unicode="&#x1c6;" horiz-adv-x="976" 
d="M541 712l-142.001 -712h-94l11 54c-34 -40 -78.333 -60 -133 -60c-50 0 -86 14.167 -108 42.5s-33 64.166 -33 107.499c0 26.667 4.66699 63.334 14 110.001c20.667 104 48.334 173.333 83.001 208c34 34 78.333 51 133 51c56 0 96 -20.667 120 -62l52 261h97z
M363.999 340c0 58 -25.332 87 -75.999 87c-40 0 -69.833 -14.667 -89.5 -44s-34.834 -72.333 -45.501 -129c-7.33301 -41.333 -11 -70.333 -11 -87c0 -58 25 -87 75 -87c40 0 70 15 90 45s35.333 73 46 129c7.33301 41.333 11 70 11 86zM981 507l-15 -77l-305 -344h243
l-17 -86h-367l16 77l303 344h-228l18 86h352zM1015 756l-155 -162h-82l-91 162h77l62 -100l104 100h85z" />
    <glyph glyph-name="uni01C7" unicode="&#x1c7;" horiz-adv-x="1029" 
d="M488 90l-18 -90h-432l143 712h103l-124 -622h328zM1042 712l-98.001 -493c-16 -78 -47.167 -135 -93.5 -171s-98.833 -54 -157.5 -54c-72.667 0 -128 23.667 -166 71l74 64c24.667 -30 56.334 -45 95.001 -45c34 0 64.5 12 91.5 36s45.5 60.333 55.5 109l96 483h103z" />
    <glyph glyph-name="uni01C8" unicode="&#x1c8;" horiz-adv-x="799" 
d="M488 90l-18 -90h-432l143 712h103l-124 -622h328zM774 507l-115.999 -577c-18.667 -92 -70.334 -138 -155.001 -138h-64l16 83h39c38 0 61 21.333 69 64l114 568h97zM816.001 708l-18 -88h-103l17 88h104z" />
    <glyph glyph-name="uni01C9" unicode="&#x1c9;" horiz-adv-x="549" 
d="M263 712l-113 -567c-2.66699 -16 -4 -25 -4 -27c0 -24 15.667 -36 47 -36h46l-17 -82h-60c-32 0 -58.833 8.66699 -80.5 26s-32.5 43 -32.5 77c0 15.333 1.33301 29.333 4 42l113 567h97zM524 507l-115.999 -577c-18.667 -92 -70.334 -138 -155.001 -138h-64l16 83h39
c38 0 61 21.333 69 64l114 568h97zM566.001 708l-18 -88h-103l17 88h104z" />
    <glyph glyph-name="uni01CA" unicode="&#x1ca;" horiz-adv-x="1167" 
d="M691 712l-143 -712h-90l-214 510l-103 -510h-103l143 712h91l214 -510l102 510h103zM1180 712l-98.001 -493c-16 -78 -47.167 -135 -93.5 -171s-98.833 -54 -157.5 -54c-72.667 0 -128 23.667 -166 71l74 64c24.667 -30 56.334 -45 95.001 -45c34 0 64.5 12 91.5 36
s45.5 60.333 55.5 109l96 483h103z" />
    <glyph glyph-name="uni01CB" unicode="&#x1cb;" horiz-adv-x="937" 
d="M691 712l-143 -712h-90l-214 510l-103 -510h-103l143 712h91l214 -510l102 510h103zM912 507l-115.999 -577c-18.667 -92 -70.334 -138 -155.001 -138h-64l16 83h39c38 0 61 21.333 69 64l114 568h97zM954.001 708l-18 -88h-103l17 88h104z" />
    <glyph glyph-name="uni01CC" unicode="&#x1cc;" horiz-adv-x="791" 
d="M487 371c0 -17.333 -1.66699 -34.999 -5 -52.999l-64 -318h-97l62 311c3.33301 16.667 5 30 5 40c0 24.667 -7.16699 43.5 -21.5 56.5s-32.5 19.5 -54.5 19.5c-10.667 0 -21.5 -1.5 -32.5 -4.5s-23 -8.33301 -36 -16s-24.667 -19.834 -35 -36.501s-17.833 -37 -22.5 -61
l-62 -309h-97l101 507h94l-10 -52c35.333 38.667 82.333 58 141 58c36.667 0 68.167 -12.167 94.5 -36.5s39.5 -59.5 39.5 -105.5zM766 507.001l-115.999 -577c-18.667 -92 -70.334 -138 -155.001 -138h-64l16 83h39c38 0 61 21.333 69 64l114 568h97zM808.001 708.001
l-18 -88h-103l17 88h104z" />
    <glyph glyph-name="uni01F1" unicode="&#x1f1;" horiz-adv-x="1161" 
d="M613 516c0 -30 -7.00098 -81.333 -21.001 -154c-17.333 -88 -33.666 -152 -48.999 -192s-38.333 -74.333 -69 -103c-47.333 -44.667 -111 -67 -191 -67h-245l143 712h227c59.333 0 108.333 -15.833 147 -47.5s58 -81.167 58 -148.5zM509.999 508
c0 36.667 -10.168 64.832 -30.501 84.499s-50.166 29.5 -89.499 29.5h-124l-106 -532h122c50 0 91.333 15 124 45c18 16.667 33.167 41.5 45.5 74.5s24.833 83.833 37.5 152.5c14 72.667 21 121.334 21 146.001zM1202 711.998l-17 -82l-416 -539h315l-18 -91h-437l17 87
l413 534h-299l18 91h424z" />
    <glyph glyph-name="uni01F2" unicode="&#x1f2;" horiz-adv-x="1082" 
d="M613 516c0 -30 -7.00098 -81.333 -21.001 -154c-17.333 -88 -33.666 -152 -48.999 -192s-38.333 -74.333 -69 -103c-47.333 -44.667 -111 -67 -191 -67h-245l143 712h227c59.333 0 108.333 -15.833 147 -47.5s58 -81.167 58 -148.5zM509.999 508
c0 36.667 -10.168 64.832 -30.501 84.499s-50.166 29.5 -89.499 29.5h-124l-106 -532h122c50 0 91.333 15 124 45c18 16.667 33.167 41.5 45.5 74.5s24.833 83.833 37.5 152.5c14 72.667 21 121.334 21 146.001zM1086 506.998l-15 -77l-305 -344h243l-17 -86h-367l16 77
l303 344h-228l18 86h352z" />
    <glyph glyph-name="uni01F3" unicode="&#x1f3;" horiz-adv-x="976" 
d="M541 712l-142.001 -712h-94l11 54c-34 -40 -78.333 -60 -133 -60c-50 0 -86 14.167 -108 42.5s-33 64.166 -33 107.499c0 26.667 4.66699 63.334 14 110.001c20.667 104 48.334 173.333 83.001 208c34 34 78.333 51 133 51c56 0 96 -20.667 120 -62l52 261h97z
M363.999 340c0 58 -25.332 87 -75.999 87c-40 0 -69.833 -14.667 -89.5 -44s-34.834 -72.333 -45.501 -129c-7.33301 -41.333 -11 -70.333 -11 -87c0 -58 25 -87 75 -87c40 0 70 15 90 45s35.333 73 46 129c7.33301 41.333 11 70 11 86zM980 507l-15 -77l-305 -344h243
l-17 -86h-367l16 77l303 344h-228l18 86h352z" />
    <glyph glyph-name="Aringacute" unicode="&#x1fa;" horiz-adv-x="594" 
d="M537 0h-105l-18 146h-268l-77 -146h-111l390 712h83zM405 231l-43 327l-173 -327h216zM518 870c0 -34.667 -12 -63.834 -36 -87.501s-52.667 -35.5 -86 -35.5s-62 11.833 -86 35.5s-36 52.834 -36 87.501c0 34 11.833 62.833 35.5 86.5s52.5 35.5 86.5 35.5
s62.833 -11.833 86.5 -35.5s35.5 -52.5 35.5 -86.5zM461 870c0 17.333 -6.5 32.333 -19.5 45s-28.167 19 -45.5 19s-32.333 -6.33301 -45 -19s-19 -27.667 -19 -45s6.33301 -32.333 19 -45s27.667 -19 45 -19s32.5 6.33301 45.5 19s19.5 27.667 19.5 45zM603 1161l-130 -159
h-84l114 159h100z" />
    <glyph glyph-name="aringacute" unicode="&#x1fb;" horiz-adv-x="505" 
d="M456 376c0 -13.333 -1.66699 -27.335 -5 -42.002l-67 -334h-94l10 47c-35.333 -35.333 -79.666 -53 -132.999 -53c-43.333 0 -79 11.333 -107 34s-42 54.334 -42 95.001c0 48.667 15.333 88.334 46 119.001c35.333 35.333 84.666 53 147.999 53h134l9 41
c2 9.33301 3 19.333 3 30c0 43.333 -29 65 -87 65c-49.333 0 -90.333 -18 -123 -54l-53 65c45.333 47.333 107.333 71 186 71c47.333 0 88.333 -10.667 123 -32s52 -56.333 52 -105zM333 226.998l-112.001 -0.000976562c-32.667 0 -58.667 -8.66699 -78 -26
s-29 -40.666 -29 -69.999c0 -38 27 -57 81 -57c38 0 69.333 11.667 94 35c16.667 16.667 28.334 41 35.001 73zM450.999 697.997c0 -34 -12 -63.001 -36 -87.001s-53 -36 -87 -36c-33.333 0 -62 11.833 -86 35.5s-36 52.834 -36 87.501c0 34 11.833 62.833 35.5 86.5
s52.5 35.5 86.5 35.5s63 -11.833 87 -35.5s36 -52.5 36 -86.5zM392.999 697.996c0 17.333 -6.5 32.333 -19.5 45s-28.167 19 -45.5 19s-32.333 -6.33301 -45 -19s-19 -27.667 -19 -45s6.33301 -32.333 19 -45s27.667 -19 45 -19s32.5 6.33301 45.5 19s19.5 27.667 19.5 45z
M521.999 988.996l-130 -159h-84l114 159h100z" />
    <glyph glyph-name="AEacute" unicode="&#x1fc;" horiz-adv-x="911" 
d="M949 712l-18 -90h-329l-44 -219h282l-18 -90h-282l-45 -223h334l-18 -90h-436l33 167h-222l-116 -167h-115l497 712h497zM499 622l-255 -368h182zM737 936l-130 -159h-84l114 159h100z" />
    <glyph glyph-name="aeacute" unicode="&#x1fd;" horiz-adv-x="800" 
d="M755 336c0 -28 -4.66895 -64.668 -14.002 -110.001h-315c-3.33301 -18.667 -5 -35 -5 -49c0 -30.667 8.33301 -55.167 25 -73.5s41 -27.5 73 -27.5c46.667 0 90.334 18.667 131.001 56l53 -64c-52 -49.333 -116.667 -74 -194 -74c-32.667 0 -62.667 6.66699 -90 20
s-48.666 33 -63.999 59c-41.333 -52.667 -99.666 -79 -174.999 -79c-50 0 -89.667 10.833 -119 32.5s-44 53.834 -44 96.501c0 47.333 15 86.666 45 117.999c35.333 35.333 85 53 149 53h135l8 41c2.66699 12 4 22.333 4 31c0 43.333 -29.333 65 -88 65
c-50 0 -91 -18 -123 -54l-52 65c44 47.333 106 71 186 71c71.333 0 120.333 -22.333 147 -67c41.333 44.667 92.666 67 153.999 67c53.333 0 95.5 -16.167 126.5 -48.5s46.5 -75.166 46.5 -128.499zM331.998 225.999h-111.001c-33.333 0 -59.666 -8.5 -78.999 -25.5
s-29 -40.167 -29 -69.5c0 -38 27.333 -57 82 -57c38.667 0 69.667 11.667 93 35c18 18 30 42.333 36 73zM661.997 335.999c0 31.333 -7.83203 55.333 -23.499 72s-35.834 25 -60.501 25c-68 0 -114.333 -46.333 -139 -139h219c2.66699 11.333 4 25.333 4 42z
M616.998 753.999l-130 -159h-84l114 159h100z" />
    <glyph glyph-name="Oslashacute" unicode="&#x1fe;" horiz-adv-x="616" 
d="M625 756l-72.999 -113.001c26.667 -35.333 40 -76 40 -122c0 -37.333 -7.33301 -92.333 -22 -165c-16.667 -83.333 -31.667 -144 -45 -182s-33.666 -71.333 -60.999 -100c-50.667 -53.333 -116.334 -80 -197.001 -80c-44 0 -82 9.33301 -114 28l-44 -66h-79l71 110
c-26.667 34.667 -40 76.334 -40 125.001c0 37.333 7.33301 92.333 22 165c16.667 83.333 31.667 144 45 182s33.666 71.333 60.999 100c50.667 53.333 116 80 196 80c44 0 83 -10 117 -30l43 68h80zM489.001 512.999c0 9.33301 -1.33203 20.667 -3.99902 34l-281 -440
c19.333 -15.333 42.666 -23 69.999 -23c45.333 0 84 17 116 51c16 16.667 29.333 40.5 40 71.5s23 80.833 37 149.5c14.667 74 22 126.333 22 157zM450.002 603c-20 16.667 -43.667 25 -71 25c-45.333 0 -84 -17 -116 -51c-16 -16.667 -29.333 -40.5 -40 -71.5
s-23 -80.833 -37 -149.5c-14.667 -74 -22 -126.333 -22 -157c0 -14 1.33301 -26 4 -36zM565.002 936l-130 -159h-84l114 159h100z" />
    <glyph glyph-name="oslashacute" unicode="&#x1ff;" horiz-adv-x="512" 
d="M464 346c0 -28 -3.00098 -58.666 -9.00098 -91.999c-19.333 -96.667 -50.333 -164.334 -93 -203.001c-41.333 -38 -91.666 -57 -150.999 -57c-38.667 0 -71.667 9 -99 27l-48 -65h-66l75 101c-19.333 28 -29 62.667 -29 104c0 28.667 3 59.667 9 93
c19.333 96 50.333 163.333 93 202c40.667 38 91 57 151 57c38 0 71.333 -9.33301 100 -28l49 66h65l-76 -103c19.333 -26.667 29 -60.667 29 -102zM139.999 171.001c0 -11.333 1 -21.333 3 -30l199 267c-13.333 12.667 -31.333 19 -54 19c-30.667 0 -56.667 -10.667 -78 -32
c-26 -26 -46 -73 -60 -141c-6.66699 -34 -10 -61.667 -10 -83zM367.999 337.001c0 8.66699 -1 17.667 -3 27l-198 -266c14 -12 31.667 -18 53 -18c30.667 0 56.667 10.667 78 32c26.667 26 46.667 73.333 60 142c6.66699 34 10 61.667 10 83zM484.999 754.001l-130 -159h-84
l114 159h100z" />
    <glyph glyph-name="Scommaaccent" unicode="&#x218;" horiz-adv-x="561" 
d="M564 634l-72 -63.002c-32.667 38.667 -77.667 58 -135 58c-46 0 -83 -13.333 -111 -40s-42 -57.667 -42 -93c0 -41.333 29.667 -69.333 89 -84l62 -15c56.667 -13.333 97.167 -34 121.5 -62s36.5 -67 36.5 -117c0 -71.333 -26.333 -126.5 -79 -165.5
s-118.334 -58.5 -197.001 -58.5c-53.333 0 -97.833 7.66699 -133.5 23s-68.167 40.333 -97.5 75l76 66c38.667 -48.667 93.334 -73 164.001 -73c46.667 0 85.667 12 117 36s47 54 47 90c0 28.667 -7.5 49.834 -22.5 63.501s-36.833 23.834 -65.5 30.501l-63 15
c-48.667 11.333 -87.167 31 -115.5 59s-42.5 63.333 -42.5 106c0 63.333 23.667 118 71 164s113 69 197 69c84.667 0 149.667 -28 195 -84zM275 -61.002l-77 -145h-95l90 145h82z" />
    <glyph glyph-name="scommaaccent" unicode="&#x219;" horiz-adv-x="473" 
d="M446 454l-66.998 -60.001c-26.667 26 -62.334 39 -107.001 39c-34 0 -60.333 -8 -79 -24s-28 -35 -28 -57c0 -26 20 -42 60 -48l67 -10c44 -6.66699 75.5 -20.334 94.5 -41.001s28.5 -49.667 28.5 -87c0 -43.333 -17.333 -82 -52 -116c-38 -37.333 -96.667 -56 -176 -56
c-83.333 0 -147 24.667 -191 74l70 62c30 -35.333 73 -53 129 -53c39.333 0 69.666 8.33301 90.999 25s32 35.667 32 57c0 16.667 -4.83301 28.834 -14.5 36.501s-24.5 13.167 -44.5 16.5l-67 10c-82.667 12.667 -124 50 -124 112c0 48.667 16.333 89.334 49 122.001
c38 38 93 57 165 57c68 0 122.667 -19.667 164 -59zM226.002 -61.001l-77 -145h-95l90 145h82z" />
    <glyph glyph-name="uni021A" unicode="&#x21a;" horiz-adv-x="532" 
d="M595 712l-18 -91h-184l-125 -621h-103l125 621h-188l19 91h474zM245 -61l-77 -145h-95l90 145h82z" />
    <glyph glyph-name="uni021B" unicode="&#x21b;" horiz-adv-x="328" 
d="M329 507l-14 -74h-92l-57 -289c-2.66699 -14.667 -4 -23 -4 -25c0 -24.667 16 -37 48 -37h42l-16 -82h-58c-32 0 -58.833 8.66699 -80.5 26s-32.5 43 -32.5 77c0 13.333 1.33301 27.333 4 42l57 288h-57l15 74h57l29 145h97l-29 -145h91zM164 -61l-77 -145h-95l90 145h82
z" />
    <glyph glyph-name="uni0237" unicode="&#x237;" horiz-adv-x="251" 
d="M226 507l-115.999 -577c-18.667 -92 -70.334 -138 -155.001 -138h-64l16 83h39c38 0 61 21.333 69 64l114 568h97z" />
    <glyph glyph-name="uni0259" unicode="&#x259;" horiz-adv-x="514" 
d="M44 171c0 30 5.00098 66.6641 15.001 109.997h314c3.33301 18 5 34.333 5 49c0 30.667 -8.16699 55.167 -24.5 73.5s-40.5 27.5 -72.5 27.5c-46.667 0 -90.334 -18.667 -131.001 -56l-54 64c52 49.333 116.667 74 194 74c51.333 0 94.333 -14.667 129 -44
s52 -73.666 52 -132.999c0 -56.667 -8.5 -110.167 -25.5 -160.5s-45.333 -93.166 -85 -128.499s-87.5 -53 -143.5 -53c-53.333 0 -95.5 16.333 -126.5 49s-46.5 75.334 -46.5 128.001zM137.001 170.997c0 -31.333 7.83398 -55.333 23.501 -72s36.167 -25 61.5 -25
c67.333 0 113.666 46.667 138.999 140h-220c-2.66699 -16 -4 -30.333 -4 -43z" />
    <glyph glyph-name="uni02BB" unicode="&#x2bb;" horiz-adv-x="254" 
d="M291 804l-39 -196h-106l21 104z" />
    <glyph glyph-name="afii57929" unicode="&#x2bc;" horiz-adv-x="254" 
d="M273 712l-21 -105l-125 -91l40 196h106z" />
    <glyph glyph-name="circumflex" unicode="&#x2c6;" horiz-adv-x="508" 
d="M484 594h-77l-62 101l-104 -101h-85l155 162h82z" />
    <glyph glyph-name="caron" unicode="&#x2c7;" horiz-adv-x="508" 
d="M515 756l-155 -162h-82l-91 162h77l62 -100l104 100h85z" />
    <glyph glyph-name="breve" unicode="&#x2d8;" horiz-adv-x="508" 
d="M488 721c-10 -47.333 -28.332 -81.665 -54.999 -102.998s-62 -32 -106 -32c-40.667 0 -72.334 9.66699 -95.001 29s-34 45.666 -34 78.999c0 3.33301 0.666992 12.333 2 27h69c-0.666992 -6.66699 -1 -12.334 -1 -17.001c0 -32.667 22 -49 66 -49
c46.667 0 74.667 22 84 66h70z" />
    <glyph glyph-name="dotaccent" unicode="&#x2d9;" horiz-adv-x="508" 
d="M389 701l-18 -94h-91l19 94h90z" />
    <glyph glyph-name="ring" unicode="&#x2da;" horiz-adv-x="508" 
d="M459 698c0 -34 -12 -63.001 -36 -87.001s-53 -36 -87 -36c-33.333 0 -62 11.833 -86 35.5s-36 52.834 -36 87.501c0 34 11.833 62.833 35.5 86.5s52.5 35.5 86.5 35.5s63 -11.833 87 -35.5s36 -52.5 36 -86.5zM401 697.999c0 17.333 -6.5 32.333 -19.5 45
s-28.167 19 -45.5 19s-32.333 -6.33301 -45 -19s-19 -27.667 -19 -45s6.33301 -32.333 19 -45s27.667 -19 45 -19s32.5 6.33301 45.5 19s19.5 27.667 19.5 45z" />
    <glyph glyph-name="ogonek" unicode="&#x2db;" horiz-adv-x="508" 
d="M248 -61l-77 -145h-94l90 145h81z" />
    <glyph glyph-name="tilde" unicode="&#x2dc;" horiz-adv-x="508" 
d="M496 654c-35.333 -33.333 -69.999 -50 -103.999 -50c-22 0 -46 6.83301 -72 20.5s-43.667 20.5 -53 20.5c-18.667 0 -39.334 -10.667 -62.001 -32l-38 49c35.333 33.333 70 50 104 50c22 0 46 -6.83301 72 -20.5s43.667 -20.5 53 -20.5c20 0 40.667 10.667 62 32z" />
    <glyph glyph-name="hungarumlaut" unicode="&#x2dd;" horiz-adv-x="508" 
d="M402 754l-130 -159h-84l114 159h100zM578 754l-129 -159h-84l113 159h100z" />
    <glyph glyph-name="uni0394" unicode="&#x394;" horiz-adv-x="588" 
d="M534 0h-579l390 712h83zM424 86l-62 474l-253 -474h315z" />
    <glyph glyph-name="uni03A9" unicode="&#x3a9;" horiz-adv-x="614" 
d="M593 521c0 -30 -7.66602 -85.002 -22.999 -165.002c-12.667 -66.667 -24.334 -115.167 -35.001 -145.5s-25.667 -57.166 -45 -80.499c-16 -19.333 -28.667 -32.333 -38 -39h72l-19 -91h-200l16 82c26.667 9.33301 49.667 24.666 69 45.999c16 17.333 29.333 41.5 40 72.5
s22.667 81.5 36 151.5c15.333 80 23 133.667 23 161c0 36.667 -10.5 64.834 -31.5 84.501s-45.833 29.5 -74.5 29.5c-46.667 0 -86.667 -17 -120 -51c-16 -16.667 -29.333 -40.5 -40 -71.5s-23 -81.833 -37 -152.5c-16 -83.333 -24 -138 -24 -164c0 -52.667 22 -88 66 -106
l-16 -82h-193l18 91h71c-28.667 30 -43 70.333 -43 121c0 29.333 6.33301 77.333 19 144c15.333 82 29.833 142.333 43.5 181s34.834 72.334 63.501 101.001c53.333 53.333 118.666 80 195.999 80c61.333 0 111 -18.667 149 -56s57 -84.333 57 -141z" />
    <glyph glyph-name="uni03BC" unicode="&#x3bc;" horiz-adv-x="542" 
d="M515 507l-101 -507.001h-94l10 53c-35.333 -39.333 -82.333 -59 -141 -59c-28 0 -49.667 9.33301 -65 28l-46 -227h-96l142 712h97l-62 -311c-3.33301 -14.667 -5 -28 -5 -40c0 -24.667 7.16699 -43.5 21.5 -56.5s32.5 -19.5 54.5 -19.5c10.667 0 21.5 1.5 32.5 4.5
s23 8.33301 36 16s24.667 19.834 35 36.501s17.833 37 22.5 61l62 309h97z" />
    <glyph glyph-name="pi" unicode="&#x3c0;" horiz-adv-x="573" 
d="M520 507l-102 -507h-97l86 428h-197l-86 -428h-97l102 507h391z" />
    <glyph glyph-name="uni0400" unicode="&#x400;" horiz-adv-x="575" 
d="M613 712l-18 -90h-329l-43 -218h282l-18 -90h-282l-45 -224h335l-18 -90h-439l143 712h432zM433 777h-77l-71 159h97z" />
    <glyph glyph-name="afii10023" unicode="&#x401;" horiz-adv-x="575" 
d="M613 712l-18 -90h-329l-43 -218h282l-18 -90h-282l-45 -224h335l-18 -90h-439l143 712h432zM565 887l-21 -105h-88l21 105h88zM359 887l-20 -105h-88l21 105h87z" />
    <glyph glyph-name="afii10051" unicode="&#x402;" horiz-adv-x="678" 
d="M630 252c0 -70.667 -23.168 -130.333 -69.501 -179s-109.166 -73 -188.499 -73h-40l18 91h25c45.333 0 82 15 110 45s42 66 42 108c0 68 -35 102 -105 102h-116l-69 -346h-103l124 621h-156l18 91h474l-19 -91h-214l-37 -185h115c62 0 109.333 -16.667 142 -50
s49 -78 49 -134z" />
    <glyph glyph-name="afii10052" unicode="&#x403;" horiz-adv-x="530" 
d="M600 712l-18 -90h-316l-125 -622h-103l143 712h419zM537 936l-130 -159h-84l114 159h100z" />
    <glyph glyph-name="afii10053" unicode="&#x404;" horiz-adv-x="599" 
d="M594 503h-103c-0.666992 38 -10.5 68.333 -29.5 91s-46.5 34 -82.5 34c-46 0 -84.333 -17 -115 -51c-26.667 -29.333 -49.334 -86.666 -68.001 -171.999h228l-17 -87h-228c-10 -52.667 -15 -93 -15 -121c0 -34.667 11 -62.167 33 -82.5s49.667 -30.5 83 -30.5
c39.333 0 72.5 11.833 99.5 35.5s46.833 53.5 59.5 89.5h106c-22 -69.333 -57.167 -122.5 -105.5 -159.5s-104.166 -55.5 -167.499 -55.5c-62 0 -112.667 18.167 -152 54.5s-59 83.833 -59 142.5c0 37.333 7.33301 92.333 22 165c16.667 84 31.5 144.667 44.5 182
s33.5 70.666 61.5 99.999c50 53.333 115 80 195 80c68 0 120 -19.833 156 -59.5s54 -91.5 54 -155.5z" />
    <glyph glyph-name="afii10054" unicode="&#x405;" horiz-adv-x="561" 
d="M564 634l-72 -63.002c-32.667 38.667 -77.667 58 -135 58c-46 0 -83 -13.333 -111 -40s-42 -57.667 -42 -93c0 -41.333 29.667 -69.333 89 -84l62 -15c56.667 -13.333 97.167 -34 121.5 -62s36.5 -67 36.5 -117c0 -71.333 -26.333 -126.5 -79 -165.5
s-118.334 -58.5 -197.001 -58.5c-53.333 0 -97.833 7.66699 -133.5 23s-68.167 40.333 -97.5 75l76 66c38.667 -48.667 93.334 -73 164.001 -73c46.667 0 85.667 12 117 36s47 54 47 90c0 28.667 -7.5 49.834 -22.5 63.501s-36.833 23.834 -65.5 30.501l-63 15
c-48.667 11.333 -87.167 31 -115.5 59s-42.5 63.333 -42.5 106c0 63.333 23.667 118 71 164s113 69 197 69c84.667 0 149.667 -28 195 -84z" />
    <glyph glyph-name="afii10055" unicode="&#x406;" horiz-adv-x="279" 
d="M284 712l-143 -712h-103l143 712h103z" />
    <glyph glyph-name="afii10056" unicode="&#x407;" horiz-adv-x="279" 
d="M284 712l-143 -712h-103l143 712h103zM408 887l-21 -105h-88l21 105h88zM202 887l-20 -105h-88l21 105h87z" />
    <glyph glyph-name="afii10057" unicode="&#x408;" horiz-adv-x="481" 
d="M494 712l-98.001 -493c-16 -78 -47.167 -135 -93.5 -171s-98.833 -54 -157.5 -54c-72.667 0 -128 23.667 -166 71l74 64c24.667 -30 56.334 -45 95.001 -45c34 0 64.5 12 91.5 36s45.5 60.333 55.5 109l96 483h103z" />
    <glyph glyph-name="afii10058" unicode="&#x409;" horiz-adv-x="968" 
d="M927 245c0 -68.667 -23.167 -126.666 -69.5 -173.999s-109.166 -71 -188.499 -71h-259l125 621h-199l-46 -228c-20.667 -102 -44.5 -182 -71.5 -240s-57.333 -98 -91 -120s-75.167 -33 -124.5 -33h-46l18 90h19c29.333 0 54.666 7.66699 75.999 23s42.5 46.5 63.5 93.5
s39.833 111.833 56.5 194.5l63 311h403l-57 -287h141c60.667 0 107 -16.833 139 -50.5s48 -76.834 48 -129.501zM823 238.001c0 28 -8 51.166 -24 69.499s-41 27.5 -75 27.5h-144l-48 -244h141c46 0 82.5 14.333 109.5 43s40.5 63.334 40.5 104.001z" />
    <glyph glyph-name="afii10059" unicode="&#x40a;" horiz-adv-x="972" 
d="M931 245c0 -68.667 -23.168 -126.666 -69.501 -173.999s-109.166 -71 -188.499 -71h-259l68 335h-274l-67 -335h-103l143 712h103l-57 -287h273l57 287h103l-57 -287h141c60.667 0 107 -16.833 139 -50.5s48 -76.834 48 -129.501zM826.999 238.001
c0 28 -8 51.166 -24 69.499s-41 27.5 -75 27.5h-144l-48 -244h141c46 0 82.5 14.333 109.5 43s40.5 63.334 40.5 104.001z" />
    <glyph glyph-name="afii10060" unicode="&#x40b;" horiz-adv-x="699" 
d="M630 259c0 -16.667 -2.33203 -36 -6.99902 -58l-41 -201h-103l43 210c3.33301 14.667 5 28.334 5 41.001c0 28 -8 50.833 -24 68.5s-41.333 26.5 -76 26.5h-121l-69 -346h-103l124 621h-156l18 91h474l-19 -91h-214l-37 -185h117c61.333 0 108.166 -15.833 140.499 -47.5
s48.5 -74.834 48.5 -129.501z" />
    <glyph glyph-name="afii10061" unicode="&#x40c;" horiz-adv-x="589" 
d="M650 712l-322 -340l202 -372h-126l-188 372l306 340h128zM284 712l-143 -712h-103l143 712h103zM570 936l-130 -159h-84l114 159h100z" />
    <glyph glyph-name="uni040D" unicode="&#x40d;" horiz-adv-x="686" 
d="M690 712l-143 -712h-103l102 501l-418 -501h-90l143 712h103l-101 -502l417 502h90zM488 777h-77l-71 159h97z" />
    <glyph glyph-name="afii10062" unicode="&#x40e;" horiz-adv-x="566" 
d="M653 712l-376.001 -592c-28 -44 -55.667 -75 -83 -93s-61.666 -27 -102.999 -27h-60l17 90h42c42 0 77 22.333 105 67l38 59l-137 496h109l96 -397l238 397h114zM546.999 893c-18 -88 -72.999 -132 -164.999 -132c-42.667 0 -75.334 9.66699 -98.001 29s-34 45 -34 77
c0 10 0.333008 18.667 1 26h76c-0.666992 -6 -1 -12 -1 -18c0 -16 5.5 -28.667 16.5 -38s26.167 -14 45.5 -14c43.333 0 70.333 23.333 81 70h78z" />
    <glyph glyph-name="afii10145" unicode="&#x40f;" horiz-adv-x="645" 
d="M649 712l-143 -712h-184l-30 -158h-100l30 158h-184l143 712h103l-125 -621h263l124 621h103z" />
    <glyph glyph-name="afii10017" unicode="&#x410;" horiz-adv-x="594" 
d="M537 0h-105l-18 146h-268l-77 -146h-111l390 712h83zM405 231l-43 327l-173 -327h216z" />
    <glyph glyph-name="afii10018" unicode="&#x411;" horiz-adv-x="612" 
d="M604 712l-18 -89.999h-320l-40 -197h145c60 0 106 -16.833 138 -50.5s48 -76.834 48 -129.501c0 -68.667 -23 -126.667 -69 -174s-109 -71 -189 -71h-261l143 712h423zM454 238.001c0 28 -7.99902 51.166 -23.999 69.499s-41 27.5 -75 27.5h-147l-49 -244h145
c45.333 0 81.666 14.333 108.999 43s41 63.334 41 104.001z" />
    <glyph glyph-name="afii10019" unicode="&#x412;" horiz-adv-x="630" 
d="M612 549c0 -37.333 -9.5 -73.001 -28.5 -107.001s-50.833 -60.667 -95.5 -80c50 -27.333 75 -70.666 75 -129.999c0 -68.667 -22.167 -124.5 -66.5 -167.5s-100.5 -64.5 -168.5 -64.5h-290l143 712h249c64.667 0 111.167 -16.167 139.5 -48.5s42.5 -70.5 42.5 -114.5z
M459 227.999c0 28 -8 49.833 -24 65.5s-39 23.5 -69 23.5h-161l-45 -226h165c40 0 72.333 12.833 97 38.5s37 58.5 37 98.5zM508 535.999c0 56.667 -31.333 85 -94 85h-148l-43 -213h152c41.333 0 73.833 12.833 97.5 38.5s35.5 55.5 35.5 89.5z" />
    <glyph glyph-name="afii10020" unicode="&#x413;" horiz-adv-x="530" 
d="M600 712l-18 -90h-316l-125 -622h-103l143 712h419z" />
    <glyph glyph-name="afii10021" unicode="&#x414;" horiz-adv-x="665" 
d="M651 712l-125 -620.998h81l-50 -249h-99l31 158h-423l-30 -158h-100l47 249h66c40.667 59.333 74.5 124.666 101.5 195.999s50.833 159.666 71.5 264.999l32 160h397zM530 622.002h-195l-32 -159c-29.333 -148 -78.333 -272 -147 -372h268z" />
    <glyph glyph-name="afii10022" unicode="&#x415;" horiz-adv-x="575" 
d="M613 712l-18 -90h-329l-43 -218h282l-18 -90h-282l-45 -224h335l-18 -90h-439l143 712h432z" />
    <glyph glyph-name="afii10024" unicode="&#x416;" horiz-adv-x="880" 
d="M411 372l-329 -372h-134l352 376l-179 336h122zM515 371l300 341h127l-314 -340l194 -372h-126zM583 712l-143 -712h-103l143 712h103z" />
    <glyph glyph-name="afii10025" unicode="&#x417;" horiz-adv-x="577" 
d="M557 542c0 -83.333 -42 -143.333 -126 -180c53.333 -28 80 -71.667 80 -131c0 -71.333 -23 -128.666 -69 -171.999s-107 -65 -183 -65c-74 0 -130 19.667 -168 59s-57.333 91.333 -58 156h103c0 -38 10.833 -68.333 32.5 -91s52.5 -34 92.5 -34
c44.667 0 80 13.167 106 39.5s39 61.166 39 104.499c0 30 -9.33301 52.833 -28 68.5s-44 23.5 -76 23.5h-87l17 88h84c42.667 0 76.167 11.833 100.5 35.5s36.5 53.167 36.5 88.5c0 26 -8.5 48.5 -25.5 67.5s-44.167 28.5 -81.5 28.5c-40.667 0 -74 -11.833 -100 -35.5
s-44.667 -53.5 -56 -89.5h-103c44 143.333 134.333 215 271 215c65.333 0 114.833 -16.667 148.5 -50s50.5 -75.333 50.5 -126z" />
    <glyph glyph-name="afii10026" unicode="&#x418;" horiz-adv-x="686" 
d="M690 712l-143 -712h-103l102 501l-418 -501h-90l143 712h103l-101 -502l417 502h90z" />
    <glyph glyph-name="afii10027" unicode="&#x419;" horiz-adv-x="686" 
d="M690 712l-143 -712h-103l102 501l-418 -501h-90l143 712h103l-101 -502l417 502h90zM614 893c-18 -88 -72.999 -132 -164.999 -132c-42.667 0 -75.334 9.66699 -98.001 29s-34 45 -34 77c0 10 0.333008 18.667 1 26h76c-0.666992 -6 -1 -12 -1 -18
c0 -16 5.5 -28.667 16.5 -38s26.167 -14 45.5 -14c43.333 0 70.333 23.333 81 70h78z" />
    <glyph glyph-name="afii10028" unicode="&#x41a;" horiz-adv-x="589" 
d="M650 712l-322 -340l202 -372h-126l-188 372l306 340h128zM284 712l-143 -712h-103l143 712h103z" />
    <glyph glyph-name="afii10029" unicode="&#x41b;" horiz-adv-x="652" 
d="M656 712l-142.999 -712h-103l125 621h-199l-46 -228c-20.667 -102 -44.5 -182 -71.5 -240s-57.333 -98 -91 -120s-75.167 -33 -124.5 -33h-46l18 90h19c29.333 0 54.666 7.66699 75.999 23s42.5 46.5 63.5 93.5s39.833 111.833 56.5 194.5l63 311h403z" />
    <glyph glyph-name="afii10030" unicode="&#x41c;" horiz-adv-x="773" 
d="M778 712l-143 -712h-103l97 480l-223 -336h-76l-91 340l-97 -484h-104l143 712h98l110 -436l288 436h101z" />
    <glyph glyph-name="afii10031" unicode="&#x41d;" horiz-adv-x="656" 
d="M661 712l-143 -712h-103l63 315h-273l-64 -315h-103l143 712h103l-61 -307h274l61 307h103z" />
    <glyph glyph-name="afii10032" unicode="&#x41e;" horiz-adv-x="614" 
d="M592 521c0 -37.333 -7.33301 -92.333 -22 -165c-16.667 -83.333 -31.667 -144 -45 -182s-33.666 -71.333 -60.999 -100c-50.667 -53.333 -116.334 -80 -197.001 -80c-62 0 -111.833 18.333 -149.5 55s-56.5 84 -56.5 142c0 37.333 7.33301 92.333 22 165
c16.667 83.333 31.667 144 45 182s33.666 71.333 60.999 100c50.667 53.333 116 80 196 80c62.667 0 112.834 -18.333 150.501 -55s56.5 -84 56.5 -142zM489 513c0 36 -10.667 64.167 -32 84.5s-47.333 30.5 -78 30.5c-45.333 0 -84 -17 -116 -51
c-16 -16.667 -29.333 -40.5 -40 -71.5s-23 -80.833 -37 -149.5c-14.667 -74 -22 -126.333 -22 -157c0 -36 10.667 -64.167 32 -84.5s47.333 -30.5 78 -30.5c45.333 0 84 17 116 51c16 16.667 29.333 40.5 40 71.5s23 80.833 37 149.5c14.667 74 22 126.333 22 157z" />
    <glyph glyph-name="afii10033" unicode="&#x41f;" horiz-adv-x="645" 
d="M649 712l-143 -712h-103l125 621h-263l-124 -621h-103l143 712h468z" />
    <glyph glyph-name="afii10034" unicode="&#x420;" horiz-adv-x="598" 
d="M615 532c0 -68.667 -23.168 -126.667 -69.501 -174s-109.166 -71 -188.499 -71h-158l-58 -287h-103l143 712h247c60.667 0 107 -17 139 -51s48 -77 48 -129zM511.999 524c0 28.667 -8 51.999 -24 69.999s-41 27 -75 27h-147l-49 -244h144c46 0 82.667 14.333 110 43
s41 63.334 41 104.001z" />
    <glyph glyph-name="afii10035" unicode="&#x421;" horiz-adv-x="599" 
d="M594 503l-103 0.000976562c-0.666992 38 -10.5 68.333 -29.5 91s-46.5 34 -82.5 34c-44.667 0 -83 -17 -115 -51c-16.667 -17.333 -30.334 -41 -41.001 -71s-23 -80 -37 -150c-14.667 -74 -22 -127 -22 -159c0 -34.667 11 -62.167 33 -82.5s49.667 -30.5 83 -30.5
c39.333 0 72.5 11.833 99.5 35.5s46.833 53.5 59.5 89.5h106c-22 -69.333 -57.167 -122.5 -105.5 -159.5s-104.166 -55.5 -167.499 -55.5c-62 0 -112.667 18.167 -152 54.5s-59 83.833 -59 142.5c0 37.333 7.33301 92.333 22 165c16.667 84 31.5 144.667 44.5 182
s33.5 70.666 61.5 99.999c50 53.333 115 80 195 80c68 0 120 -19.833 156 -59.5s54 -91.5 54 -155.5z" />
    <glyph glyph-name="afii10036" unicode="&#x422;" horiz-adv-x="532" 
d="M595 712l-18 -91h-184l-125 -621h-103l125 621h-188l19 91h474z" />
    <glyph glyph-name="afii10037" unicode="&#x423;" horiz-adv-x="566" 
d="M653 712l-376.001 -592c-28 -44 -55.667 -75 -83 -93s-61.666 -27 -102.999 -27h-60l17 90h42c42 0 77 22.333 105 67l38 59l-137 496h109l96 -397l238 397h114z" />
    <glyph glyph-name="afii10038" unicode="&#x424;" horiz-adv-x="782" 
d="M760 467c0 -31.333 -3.00098 -63 -9.00098 -95c-11.333 -59.333 -25.166 -104.666 -41.499 -135.999s-40.166 -59.666 -71.499 -84.999c-51.333 -43.333 -128 -65 -230 -65l-18 -90h-103l18 90c-71.333 2 -128.166 20.5 -170.499 55.5s-63.5 84.833 -63.5 149.5
c0 31.333 3 63 9 95c11.333 59.333 25.166 104.666 41.499 135.999s40.166 59.666 71.499 84.999c52.667 43.333 129.334 65 230.001 65l13 69h103l-13 -69c71.333 -2 128.166 -20.5 170.499 -55.5s63.5 -84.833 63.5 -149.5zM655.999 452
c0 41.333 -13.333 73.168 -40 95.501s-63.667 33.5 -111 33.5l-82 -404c62 0 109.333 12.333 142 37c22 15.333 39.167 34.666 51.5 57.999s22.833 57.333 31.5 102c5.33301 26 8 52 8 78zM407.999 581.002c-61.333 0 -108.667 -12.333 -142 -37
c-22 -16 -39.167 -35.5 -51.5 -58.5s-22.833 -56.833 -31.5 -101.5c-5.33301 -26 -8 -52.333 -8 -79c0 -40.667 13.333 -72.167 40 -94.5s63.667 -33.5 111 -33.5z" />
    <glyph glyph-name="afii10039" unicode="&#x425;" horiz-adv-x="553" 
d="M617 712l-262 -351l142 -361h-115l-100 277l-202 -277h-120l280 371l-131 341h115l89 -258l184 258h120z" />
    <glyph glyph-name="afii10040" unicode="&#x426;" horiz-adv-x="663" 
d="M649 712l-124 -621h78l-49 -249h-100l31 158h-447l143 712h103l-124 -621h262l124 621h103z" />
    <glyph glyph-name="afii10041" unicode="&#x427;" horiz-adv-x="618" 
d="M623 712l-143.001 -712h-103l55 278c-56.667 -14.667 -111.667 -22 -165 -22c-50 0 -90.167 12.167 -120.5 36.5s-45.5 58.833 -45.5 103.5c0 17.333 1.66699 34.333 5 51l52 265h103l-49 -246c-2.66699 -13.333 -4 -27 -4 -41c0 -52 32 -78 96 -78
c46.667 0 95.334 6.33301 146.001 19l70 346h103z" />
    <glyph glyph-name="afii10042" unicode="&#x428;" horiz-adv-x="924" 
d="M928 712l-143 -712h-747l143 712h103l-125 -621h219l125 621h103l-125 -621h220l124 621h103z" />
    <glyph glyph-name="afii10043" unicode="&#x429;" horiz-adv-x="942" 
d="M928 712l-124 -621h78l-49 -249h-100l31 158h-726l143 712h103l-124 -621h219l124 621h103l-124 -621h219l124 621h103z" />
    <glyph glyph-name="afii10044" unicode="&#x42a;" horiz-adv-x="691" 
d="M650 245c0 -68.667 -23.168 -126.666 -69.501 -173.999s-109.166 -71 -188.499 -71h-258l124 621h-156l18 91h260l-58 -287h141c60.667 0 107 -16.833 139 -50.5s48 -76.834 48 -129.501zM546.999 238.001c0 28 -8 51.166 -24 69.499s-41 27.5 -75 27.5h-144l-49 -244
h141c46 0 82.667 14.333 110 43s41 63.334 41 104.001z" />
    <glyph glyph-name="afii10045" unicode="&#x42b;" horiz-adv-x="839" 
d="M554 245c0 -68.667 -23.168 -126.666 -69.501 -173.999s-109.166 -71 -188.499 -71h-258l143 712h103l-58 -287h141c60.667 0 107 -16.833 139 -50.5s48 -76.834 48 -129.501zM450.999 238.001c0 28 -8 51.166 -24 69.499s-41 27.5 -75 27.5h-144l-49 -244h141
c46 0 82.667 14.333 110 43s41 63.334 41 104.001zM842.999 712l-143 -712h-103l143 712h103z" />
    <glyph glyph-name="afii10046" unicode="&#x42c;" horiz-adv-x="595" 
d="M554 245c0 -68.667 -23.168 -126.666 -69.501 -173.999s-109.166 -71 -188.499 -71h-258l143 712h103l-58 -287h141c60.667 0 107 -16.833 139 -50.5s48 -76.834 48 -129.501zM450.999 238.001c0 28 -8 51.166 -24 69.499s-41 27.5 -75 27.5h-144l-49 -244h141
c46 0 82.667 14.333 110 43s41 63.334 41 104.001z" />
    <glyph glyph-name="afii10047" unicode="&#x42d;" horiz-adv-x="599" 
d="M578 521c0 -37.333 -7.33203 -92.333 -21.999 -165c-18 -85.333 -33.167 -146.333 -45.5 -183s-32.5 -69.667 -60.5 -99c-50 -53.333 -115 -80 -195 -80c-68 0 -120.167 19.167 -156.5 57.5s-54.833 90.833 -55.5 157.5h105c0.666992 -38 10.5 -68.333 29.5 -91
s46.5 -34 82.5 -34c44.667 0 83 17 115 51c15.333 16 27.833 37 37.5 63s20.167 66 31.5 120h-228l18 87h227c8.66699 49.333 13 86 13 110c0 34.667 -10.833 62.167 -32.5 82.5s-49.167 30.5 -82.5 30.5c-38.667 0 -71.334 -11.833 -98.001 -35.5s-45.667 -53.5 -57 -89.5
h-106c20 67.333 53.667 120 101 158s103.333 57 168 57c62 0 112.667 -18.167 152 -54.5s59 -83.833 59 -142.5z" />
    <glyph glyph-name="afii10048" unicode="&#x42e;" horiz-adv-x="864" 
d="M843 521c0 -34 -7.66699 -89 -23 -165c-16.667 -83.333 -31.667 -144 -45 -182s-33.666 -71.333 -60.999 -100c-50.667 -53.333 -116 -80 -196 -80c-62.667 0 -112.834 18.333 -150.501 55s-56.5 84 -56.5 142c0 31.333 5 72.333 15 123h-123l-62 -314h-103l143 712h103
l-62 -308h121c13.333 62.667 26.666 111 39.999 145s32 63.667 56 89c50.667 53.333 116.334 80 197.001 80c62 0 112 -18.333 150 -55s57 -84 57 -142zM739 513c0 36 -10.666 64.168 -31.999 84.501s-47.333 30.5 -78 30.5c-45.333 0 -84 -17 -116 -51
c-15.333 -16.667 -28.333 -40.334 -39 -71.001s-23 -80.667 -37 -150c-15.333 -72.667 -23 -125 -23 -157c0 -36 10.667 -64.167 32 -84.5s47.666 -30.5 78.999 -30.5c44.667 0 83 17 115 51c16 16.667 29.333 40.5 40 71.5s23 80.833 37 149.5c14.667 74 22 126.333 22 157
z" />
    <glyph glyph-name="afii10049" unicode="&#x42f;" horiz-adv-x="622" 
d="M626 712l-143 -711.999h-103l60 301h-132l-206 -301h-118l224 323c-62.667 24 -94 74.667 -94 152c0 28.667 5 56.5 15 83.5s24.833 52.167 44.5 75.5s46.5 42.166 80.5 56.499s72.333 21.5 115 21.5h257zM505 621.001h-146c-46.667 0 -82 -14.5 -106 -43.5
s-36 -60.5 -36 -94.5c0 -28 7.83301 -50.167 23.5 -66.5s39.5 -24.5 71.5 -24.5h146z" />
    <glyph glyph-name="afii10065" unicode="&#x430;" horiz-adv-x="505" 
d="M456 376c0 -13.333 -1.66699 -27.335 -5 -42.002l-67 -334h-94l10 47c-35.333 -35.333 -79.666 -53 -132.999 -53c-43.333 0 -79 11.333 -107 34s-42 54.334 -42 95.001c0 48.667 15.333 88.334 46 119.001c35.333 35.333 84.666 53 147.999 53h134l9 41
c2 9.33301 3 19.333 3 30c0 43.333 -29 65 -87 65c-49.333 0 -90.333 -18 -123 -54l-53 65c45.333 47.333 107.333 71 186 71c47.333 0 88.333 -10.667 123 -32s52 -56.333 52 -105zM333 226.998l-112.001 -0.000976562c-32.667 0 -58.667 -8.66699 -78 -26
s-29 -40.666 -29 -69.999c0 -38 27 -57 81 -57c38 0 69.333 11.667 94 35c16.667 16.667 28.334 41 35.001 73z" />
    <glyph glyph-name="afii10066" unicode="&#x431;" horiz-adv-x="502" 
d="M506 717l-17.9971 -85.999c-100 -0.666992 -171 -13.334 -213 -38.001c-24 -14.667 -43.167 -34 -57.5 -58s-26.833 -57 -37.5 -99c32 42.667 77 64 135 64c40.667 0 74.667 -12.667 102 -38s41 -66.333 41 -123c0 -28.667 -3 -58.667 -9 -90
c-10.667 -52 -23.167 -93.333 -37.5 -124s-32.833 -56.667 -55.5 -78c-38.667 -35.333 -87.667 -53 -147 -53c-43.333 0 -81.5 13.167 -114.5 39.5s-49.5 68.5 -49.5 126.5c0 29.333 7 78.333 21 147c21.333 108 41.666 185.833 60.999 233.5s44 83.5 74 107.5
c29.333 23.333 67.166 40.333 113.499 51s110.166 16.667 191.499 18zM361.003 332.001c0 28.667 -7.16602 49.834 -21.499 63.501s-32.833 20.5 -55.5 20.5c-29.333 0 -54.333 -10.333 -75 -31c-26 -26 -45.333 -71.333 -58 -136c-6 -31.333 -9 -59 -9 -83
c0 -28.667 7.33301 -49.834 22 -63.501s33 -20.5 55 -20.5c29.333 0 54.666 10.667 75.999 32c26 26 45 71 57 135c6 31.333 9 59 9 83z" />
    <glyph glyph-name="afii10067" unicode="&#x432;" horiz-adv-x="522" 
d="M483 387c0 -61.333 -29.334 -104.667 -88.001 -130c36 -20 54 -51.667 54 -95c0 -50.667 -17 -90.334 -51 -119.001s-79 -43 -135 -43h-236l101 507h211c44.667 0 79.834 -10.167 105.501 -30.5s38.5 -50.166 38.5 -89.499zM349.999 156.999c0 42 -24.333 63 -73 63h-109
l-29 -145h110c34.667 0 60.167 7.5 76.5 22.5s24.5 34.833 24.5 59.5zM384.999 373.999c0 38.667 -24 58 -72 58h-103l-27 -137h110c32.667 0 56.167 7.83301 70.5 23.5s21.5 34.167 21.5 55.5z" />
    <glyph glyph-name="afii10068" unicode="&#x433;" horiz-adv-x="400" 
d="M439 507l-17 -86h-214l-84 -421h-97l101 507h311z" />
    <glyph glyph-name="afii10069" unicode="&#x434;" horiz-adv-x="547" 
d="M503 507l-84 -421h66l-42 -214h-92l25 128h-317l-26 -128h-92l43 214h54c28 42.667 51 87 69 133s35 111 51 195l18 93h327zM389 421h-137l-16 -79c-22 -106 -55.333 -191.333 -100 -256h186z" />
    <glyph glyph-name="afii10070" unicode="&#x435;" horiz-adv-x="514" 
d="M470 336c0 -30 -5.00098 -66.6641 -15.001 -109.997h-314c-3.33301 -18 -5 -34.333 -5 -49c0 -30.667 8.16699 -55.167 24.5 -73.5s40.5 -27.5 72.5 -27.5c46.667 0 90.334 18.667 131.001 56l54 -64c-52 -49.333 -116.667 -74 -194 -74
c-51.333 0 -94.333 14.667 -129 44s-52 73.666 -52 132.999c0 56.667 8.5 110.167 25.5 160.5s45.333 93.166 85 128.499s87.5 53 143.5 53c53.333 0 95.5 -16.333 126.5 -49s46.5 -75.334 46.5 -128.001zM376.999 336.003c0 31.333 -7.83398 55.333 -23.501 72
s-36.167 25 -61.5 25c-67.333 0 -113.666 -46.667 -138.999 -140h220c2.66699 20 4 34.333 4 43z" />
    <glyph glyph-name="afii10072" unicode="&#x436;" horiz-adv-x="699" 
d="M300 262l-230 -262h-121l253 272l-135 235h105zM398 263l217 244h116l-234 -243l146 -264h-115zM446 507l-101 -507h-97l101 507h97z" />
    <glyph glyph-name="afii10073" unicode="&#x437;" horiz-adv-x="481" 
d="M440 381c0 -59.333 -30.666 -99.667 -91.999 -121c40 -20.667 60 -54 60 -100c0 -52 -18.833 -92.667 -56.5 -122s-91.834 -44 -162.501 -44c-80 0 -142 26 -186 78l65 61c31.333 -38 73.333 -57 126 -57c38 0 66.667 7.5 86 22.5s29 34.833 29 59.5
c0 42.667 -27 64 -81 64h-64l14 73h70c32.667 0 57 6.83301 73 20.5s24 31.167 24 52.5c0 19.333 -7.66699 34.833 -23 46.5s-38 17.5 -68 17.5c-47.333 0 -91 -19 -131 -57l-48 59c29.333 26.667 58.833 46.5 88.5 59.5s64.167 19.5 103.5 19.5c55.333 0 98 -12 128 -36
s45 -56 45 -96z" />
    <glyph glyph-name="afii10074" unicode="&#x438;" horiz-adv-x="547" 
d="M521 507l-101 -507h-97l67 337l-266 -337h-97l101 507h97l-67 -337l266 337h97z" />
    <glyph glyph-name="afii10075" unicode="&#x439;" horiz-adv-x="547" 
d="M521 507l-101 -507h-97l67 337l-266 -337h-97l101 507h97l-67 -337l266 337h97zM504 709c-18 -88 -72.999 -132 -164.999 -132c-42.667 0 -75.334 9.66699 -98.001 29s-34 45 -34 77c0 10 0.333008 18.667 1 26h76c-0.666992 -6 -1 -12 -1 -18
c0 -16 5.5 -28.667 16.5 -38s26.167 -14 45.5 -14c43.333 0 70.333 23.333 81 70h78z" />
    <glyph glyph-name="afii10076" unicode="&#x43a;" horiz-adv-x="484" 
d="M177 263l225 244h115l-240 -243l150 -264h-113zM225 507l-101 -507h-97l101 507h97z" />
    <glyph glyph-name="afii10077" unicode="&#x43b;" horiz-adv-x="526" 
d="M500 507l-101 -507h-97l83 421h-138l-30 -151c-20.667 -102.667 -47.834 -173.334 -81.501 -212.001s-76.5 -58 -128.5 -58h-44l16 81h16c12.667 0 23.334 1.66699 32.001 5s19.334 10.833 32.001 22.5s24.667 32.334 36 62.001s21.666 67.5 30.999 113.5l45 223h329z
" />
    <glyph glyph-name="afii10078" unicode="&#x43c;" horiz-adv-x="632" 
d="M605 507l-99 -507h-97l65 329l-156 -230h-62l-67 232l-65 -331h-97l99 507h95l85 -301l202 301h97z" />
    <glyph glyph-name="afii10079" unicode="&#x43d;" horiz-adv-x="536" 
d="M510 507l-101 -507h-97l43 216h-189l-43 -216h-97l100 507h97l-40 -204h189l41 204h97z" />
    <glyph glyph-name="afii10080" unicode="&#x43e;" horiz-adv-x="508" 
d="M464 346c0 -28 -3.00098 -58.666 -9.00098 -91.999c-19.333 -96.667 -50.333 -164.334 -93 -203.001c-41.333 -38 -91.666 -57 -150.999 -57c-46 0 -85.333 14 -118 42s-49 69.667 -49 125c0 28.667 3 59.667 9 93c19.333 96 50.333 163.333 93 202
c40.667 38 91 57 151 57c46 0 85.333 -14 118 -42s49 -69.667 49 -125zM367.999 337.001c0 30 -7.33301 52.5 -22 67.5s-34 22.5 -58 22.5c-30.667 0 -56.667 -10.667 -78 -32c-26 -26 -46 -73 -60 -141c-6.66699 -34 -10 -61.667 -10 -83c0 -30.667 7.5 -53.5 22.5 -68.5
s34.167 -22.5 57.5 -22.5c30.667 0 56.667 10.667 78 32c26.667 26 46.667 73.333 60 142c6.66699 34 10 61.667 10 83z" />
    <glyph glyph-name="afii10081" unicode="&#x43f;" horiz-adv-x="564" 
d="M511 507l-101 -507h-97l84 421h-190l-83 -421h-97l101 507h383z" />
    <glyph glyph-name="afii10082" unicode="&#x440;" horiz-adv-x="526" 
d="M485 364c0 -30 -4.33301 -66.668 -13 -110.001c-20.667 -103.333 -48.667 -172.666 -84 -207.999c-34.667 -34.667 -78.667 -52 -132 -52c-56 0 -96 20.667 -120 62l-53 -261h-97l142 712h95l-12 -54c34 40 78.333 60 133 60c50 0 86 -14.167 108 -42.5
s33 -63.833 33 -106.5zM386 339.999c0 58 -25.332 87 -75.999 87c-40 0 -69.833 -14.667 -89.5 -44s-34.834 -72.333 -45.501 -129c-7.33301 -41.333 -11 -70.333 -11 -87c0 -58 25 -87 75 -87c40 0 70 15 90 45s35.333 73 46 129c7.33301 41.333 11 70 11 86z" />
    <glyph glyph-name="afii10083" unicode="&#x441;" horiz-adv-x="462" 
d="M457 440l-72.999 -63c-23.333 33.333 -51.666 50 -84.999 50c-34 0 -64.333 -13.667 -91 -41c-29.333 -30 -49.333 -74 -60 -132c-4.66699 -23.333 -7 -47 -7 -71c0 -33.333 8.16699 -58.833 24.5 -76.5s38.166 -26.5 65.499 -26.5c38.667 0 74 17 106 51l55 -70
c-46.667 -44.667 -103 -67 -169 -67c-54 0 -97.333 16.5 -130 49.5s-49 77.167 -49 132.5c0 28 2.33301 54 7 78c16.667 88.667 48 154 94 196s100.667 63 164 63s112.666 -24.333 147.999 -73z" />
    <glyph glyph-name="afii10084" unicode="&#x442;" horiz-adv-x="417" 
d="M457 507l-17 -86h-150l-85 -421h-97l85 421h-150l16 86h398z" />
    <glyph glyph-name="afii10085" unicode="&#x443;" horiz-adv-x="444" 
d="M489 507l-327.001 -607.999c-14 -25.333 -28.333 -45.333 -43 -60c-27.333 -26.667 -64.666 -40 -111.999 -40h-40l18 87h25c20 0 35 4.16699 45 12.5s21.333 24.166 34 47.499l42 78l-73 483h97l44 -367l186 367h104z" />
    <glyph glyph-name="afii10086" unicode="&#x444;" horiz-adv-x="667" 
d="M321 427c-44 -1.33301 -79.333 -12 -106 -32c-34 -26 -57.333 -71.333 -70 -136c-4.66699 -23.333 -7 -45.333 -7 -66c0 -70.667 37.667 -108 113 -112zM626 324c0 -28.667 -2.66797 -55.667 -8.00098 -81c-9.33301 -49.333 -22.166 -87.833 -38.499 -115.5
s-38.5 -53.167 -66.5 -76.5c-44.667 -36 -105.667 -54.667 -183 -56l-40 -200h-97l40 201c-55.333 4 -101.166 22.333 -137.499 55s-54.5 76.667 -54.5 132c0 28.667 2.66699 55.667 8 81c9.33301 49.333 22.166 88 38.499 116s38.5 53.333 66.5 76
c44 36 104.667 54.667 182 56l40 200h97l-40 -201c55.333 -4 101.333 -22.333 138 -55s55 -76.667 55 -132zM528.999 314c0 70.667 -37.667 108 -113 112l-70 -346c44.667 1.33301 80 12.333 106 33c34 26 57.333 71 70 135c4.66699 23.333 7 45.333 7 66z" />
    <glyph glyph-name="afii10087" unicode="&#x445;" horiz-adv-x="480" 
d="M499 507l-203 -252l118 -255h-112l-74 179l-136 -179h-120l214 262l-113 245h112l69 -170l127 170h118z" />
    <glyph glyph-name="afii10088" unicode="&#x446;" horiz-adv-x="555" 
d="M511 507l-84 -421h67l-43 -214h-92l26 128h-358l101 507h97l-84 -421h189l84 421h97z" />
    <glyph glyph-name="afii10089" unicode="&#x447;" horiz-adv-x="513" 
d="M487 507l-100.998 -507.001h-97l37 189c-44.667 -12 -87.334 -18 -128.001 -18c-38.667 0 -69.334 9.83301 -92.001 29.5s-34 47.167 -34 82.5c0 12.667 1.66699 27.334 5 44.001l36 180h97l-32 -159c-2.66699 -12.667 -4 -24.667 -4 -36c0 -36 22.333 -54 67 -54
c33.333 0 67 4.66699 101 14l48 235h97z" />
    <glyph glyph-name="afii10090" unicode="&#x448;" horiz-adv-x="775" 
d="M749 507l-101 -507h-621l101 507h97l-84 -421h165l84 421h97l-84 -421h165l84 421h97z" />
    <glyph glyph-name="afii10091" unicode="&#x449;" horiz-adv-x="793" 
d="M749 507l-84 -421h67l-43 -214h-92l26 128h-596l101 507h97l-84 -421h165l84 421h97l-84 -421h165l84 421h97z" />
    <glyph glyph-name="afii10092" unicode="&#x44a;" horiz-adv-x="534" 
d="M483 181c0 -51.333 -17.499 -94.333 -52.499 -129s-82.833 -52 -143.5 -52h-212l84 421h-116l17 86h213l-38 -192h107c45.333 0 80.166 -12.667 104.499 -38s36.5 -57.333 36.5 -96zM387.001 172c0 42.667 -23 64.001 -69 64.001h-99l-32 -157h99
c36 0 61.833 10.167 77.5 30.5s23.5 41.166 23.5 62.499z" />
    <glyph glyph-name="afii10093" unicode="&#x44b;" horiz-adv-x="690" 
d="M434 181c0 -52 -17.3311 -95.167 -51.998 -129.5s-82.334 -51.5 -143.001 -51.5h-212l101 507h97l-39 -192h107c45.333 0 80.166 -12.5 104.499 -37.5s36.5 -57.167 36.5 -96.5zM339.002 172c0 42.667 -23 64.001 -69 64.001h-99l-32 -157h98c36 0 62 10.167 78 30.5
s24 41.166 24 62.499zM664.002 507.001l-102 -507h-97l102 507h97z" />
    <glyph glyph-name="afii10094" unicode="&#x44c;" horiz-adv-x="486" 
d="M434 181c0 -52 -17.3311 -95.167 -51.998 -129.5s-82.334 -51.5 -143.001 -51.5h-212l101 507h97l-39 -192h107c45.333 0 80.166 -12.5 104.499 -37.5s36.5 -57.167 36.5 -96.5zM339.002 172c0 42.667 -23 64.001 -69 64.001h-99l-32 -157h98c36 0 62 10.167 78 30.5
s24 41.166 24 62.499z" />
    <glyph glyph-name="afii10095" unicode="&#x44d;" horiz-adv-x="462" 
d="M418 330c0 -26.667 -2.00098 -53.333 -6.00098 -80c-28.667 -170.667 -112 -256 -250 -256c-71.333 0 -125 23.333 -161 70l68 66c26 -34 59 -51 99 -51c38.667 0 70.334 13.333 95.001 40c24 26.667 40 62 48 106h-175l14 68h173c1.33301 11.333 2 23.666 2 36.999
c0 30.667 -9 54.834 -27 72.501s-40 26.5 -66 26.5c-36 0 -70.333 -17 -103 -51l-52 62c46.667 48.667 100.667 73 162 73c54.667 0 98.167 -17 130.5 -51s48.5 -78 48.5 -132z" />
    <glyph glyph-name="afii10096" unicode="&#x44e;" horiz-adv-x="715" 
d="M671 346c0 -28 -3 -58.666 -9 -91.999c-19.333 -96.667 -50.333 -164.334 -93 -203.001c-40.667 -38 -91 -57 -151 -57c-46 0 -85.333 14 -118 42s-49 69.667 -49 125c0 18 1 36.667 3 56h-87l-43 -217h-97l101 507h97l-41 -206h86c19.333 71.333 47 123 83 155
c40.667 38 91 57 151 57c46 0 85.333 -14 118 -42s49 -69.667 49 -125zM575 337.001c0 30 -7.33301 52.5 -22 67.5s-34 22.5 -58 22.5c-30.667 0 -56.667 -10.667 -78 -32c-26 -26 -46 -73 -60 -141c-6.66699 -34 -10 -61.667 -10 -83c0 -30.667 7.5 -53.5 22.5 -68.5
s34.167 -22.5 57.5 -22.5c30.667 0 56.667 10.667 78 32c26 26 46 73.333 60 142c6.66699 34 10 61.667 10 83z" />
    <glyph glyph-name="afii10097" unicode="&#x44f;" horiz-adv-x="504" 
d="M478 507l-101 -507h-97l38 191h-95l-124 -191h-106l145 208c-46 21.333 -69 60.333 -69 117c0 52 17.5 95.333 52.5 130s82.833 52 143.5 52h213zM365 428l-98 -0.000976562c-36 0 -62.167 -10.167 -78.5 -30.5s-24.5 -41.166 -24.5 -62.499c0 -43.333 23.667 -65 71 -65
h99z" />
    <glyph glyph-name="uni0450" unicode="&#x450;" horiz-adv-x="514" 
d="M363 595h-77l-71 159h97zM470 336c0 -30 -5.00098 -66.6641 -15.001 -109.997h-314c-3.33301 -18 -5 -34.333 -5 -49c0 -30.667 8.16699 -55.167 24.5 -73.5s40.5 -27.5 72.5 -27.5c46.667 0 90.334 18.667 131.001 56l54 -64c-52 -49.333 -116.667 -74 -194 -74
c-51.333 0 -94.333 14.667 -129 44s-52 73.666 -52 132.999c0 56.667 8.5 110.167 25.5 160.5s45.333 93.166 85 128.499s87.5 53 143.5 53c53.333 0 95.5 -16.333 126.5 -49s46.5 -75.334 46.5 -128.001zM376.999 336.003c0 31.333 -7.83398 55.333 -23.501 72
s-36.167 25 -61.5 25c-67.333 0 -113.666 -46.667 -138.999 -140h220c2.66699 20 4 34.333 4 43z" />
    <glyph glyph-name="afii10071" unicode="&#x451;" horiz-adv-x="514" 
d="M494 705l-21 -106h-88l21 106h88zM289 705l-21 -106h-88l21 106h88zM470 336c0 -30 -5.00098 -66.6641 -15.001 -109.997h-314c-3.33301 -18 -5 -34.333 -5 -49c0 -30.667 8.16699 -55.167 24.5 -73.5s40.5 -27.5 72.5 -27.5c46.667 0 90.334 18.667 131.001 56l54 -64
c-52 -49.333 -116.667 -74 -194 -74c-51.333 0 -94.333 14.667 -129 44s-52 73.666 -52 132.999c0 56.667 8.5 110.167 25.5 160.5s45.333 93.166 85 128.499s87.5 53 143.5 53c53.333 0 95.5 -16.333 126.5 -49s46.5 -75.334 46.5 -128.001zM376.999 336.003
c0 31.333 -7.83398 55.333 -23.501 72s-36.167 25 -61.5 25c-67.333 0 -113.666 -46.667 -138.999 -140h220c2.66699 20 4 34.333 4 43z" />
    <glyph glyph-name="afii10099" unicode="&#x452;" horiz-adv-x="539" 
d="M486 367c0 -17.333 -1.66797 -34.999 -5.00098 -52.999l-69 -344c-20.667 -100 -76.667 -150 -168 -150h-64l16 82h39c44.667 0 72 25.667 82 77l65 328c3.33301 16.667 5 30 5 40c0 24.667 -7 43.5 -21 56.5s-32 19.5 -54 19.5c-10.667 0 -21.5 -1.5 -32.5 -4.5
s-23.167 -8.33301 -36.5 -16s-25.166 -19.834 -35.499 -36.501s-17.833 -37 -22.5 -61l-61 -305h-97l112 566h-54l13 64h54l17 82h97l-17 -82h206l-13 -64h-206l-21 -110c35.333 35.333 80.333 53 135 53c38 0 70.167 -12.167 96.5 -36.5s39.5 -59.5 39.5 -105.5z" />
    <glyph glyph-name="afii10100" unicode="&#x453;" horiz-adv-x="400" 
d="M445 754l-130 -159h-84l114 159h100zM439 507l-17 -86h-214l-84 -421h-97l101 507h311z" />
    <glyph glyph-name="afii10101" unicode="&#x454;" horiz-adv-x="462" 
d="M456 440l-71.999 -62c-22.667 34 -51.334 51 -86.001 51c-36 0 -67 -14 -93 -42c-22.667 -24.667 -39 -56 -49 -94h175l-14 -68h-175c-2.66699 -16 -4 -31 -4 -45c0 -32.667 8.5 -57.667 25.5 -75s39.167 -26 66.5 -26c38 0 73.667 17 107 51l54 -69
c-46.667 -44.667 -102.667 -67 -168 -67c-54 0 -97.5 16.5 -130.5 49.5s-49.5 77.167 -49.5 132.5c0 24 2.66699 50 8 78c16 88.667 47.167 154 93.5 196s100.833 63 163.5 63s112 -24.333 148 -73z" />
    <glyph glyph-name="afii10102" unicode="&#x455;" horiz-adv-x="473" 
d="M446 454l-66.998 -60.001c-26.667 26 -62.334 39 -107.001 39c-34 0 -60.333 -8 -79 -24s-28 -35 -28 -57c0 -26 20 -42 60 -48l67 -10c44 -6.66699 75.5 -20.334 94.5 -41.001s28.5 -49.667 28.5 -87c0 -43.333 -17.333 -82 -52 -116c-38 -37.333 -96.667 -56 -176 -56
c-83.333 0 -147 24.667 -191 74l70 62c30 -35.333 73 -53 129 -53c39.333 0 69.666 8.33301 90.999 25s32 35.667 32 57c0 16.667 -4.83301 28.834 -14.5 36.501s-24.5 13.167 -44.5 16.5l-67 10c-82.667 12.667 -124 50 -124 112c0 48.667 16.333 89.334 49 122.001
c38 38 93 57 165 57c68 0 122.667 -19.667 164 -59z" />
    <glyph glyph-name="afii10103" unicode="&#x456;" horiz-adv-x="251" 
d="M226 507l-102 -507h-97l102 507h97zM268 708l-18 -88h-103l17 88h104z" />
    <glyph glyph-name="afii10104" unicode="&#x457;" horiz-adv-x="251" 
d="M225 507l-101 -507h-97l101 507h97zM150 705l-21 -106h-88l21 106h88zM355 705l-21 -106h-88l21 106h88z" />
    <glyph glyph-name="afii10105" unicode="&#x458;" horiz-adv-x="251" 
d="M226 507l-115.999 -577c-18.667 -92 -70.334 -138 -155.001 -138h-64l16 83h39c38 0 61 21.333 69 64l114 568h97zM268.001 708l-18 -88h-103l17 88h104z" />
    <glyph glyph-name="afii10106" unicode="&#x459;" horiz-adv-x="767" 
d="M715 181c0 -51.333 -17.332 -94.333 -51.999 -129s-82.334 -52 -143.001 -52h-213l84 421h-144l-30 -151c-20 -102.667 -47 -173.334 -81 -212.001s-77 -58 -129 -58h-44l16 81h16c12.667 0 23.834 1.83301 33.501 5.5s20.667 11.834 33 24.501s24 34 35 64
s21.167 68 30.5 114l44 218h334l-38 -192h107c45.333 0 80.166 -12.667 104.499 -38s36.5 -57.333 36.5 -96zM619.001 172c0 42.667 -23 64.001 -69 64.001h-99l-31 -157h98c36 0 61.833 10.167 77.5 30.5s23.5 41.166 23.5 62.499z" />
    <glyph glyph-name="afii10107" unicode="&#x45a;" horiz-adv-x="772" 
d="M721 181c0 -51.333 -17.499 -94.333 -52.499 -129s-82.833 -52 -143.5 -52h-212l45 229h-189l-45 -229h-97l101 507h97l-39 -192h189l39 192h97l-39 -192h108c45.333 0 80.166 -12.667 104.499 -38s36.5 -57.333 36.5 -96zM625.001 172c0 42.667 -23 64.001 -69 64.001
h-99l-32 -157h99c36 0 61.833 10.167 77.5 30.5s23.5 41.166 23.5 62.499z" />
    <glyph glyph-name="afii10108" unicode="&#x45b;" horiz-adv-x="539" 
d="M486 367c0 -17.333 -1.66797 -34.999 -5.00098 -52.999l-63 -314h-97l61 307c3.33301 16.667 5 30 5 40c0 24.667 -7 43.5 -21 56.5s-32 19.5 -54 19.5c-10.667 0 -21.5 -1.5 -32.5 -4.5s-23.167 -8.33301 -36.5 -16s-25.166 -19.834 -35.499 -36.501
s-17.833 -37 -22.5 -61l-61 -305h-97l112 566h-54l13 64h54l17 82h97l-17 -82h206l-13 -64h-206l-21 -110c35.333 35.333 80.333 53 135 53c38 0 70.167 -12.167 96.5 -36.5s39.5 -59.5 39.5 -105.5z" />
    <glyph glyph-name="afii10109" unicode="&#x45c;" horiz-adv-x="484" 
d="M177 263l225 244h115l-240 -243l150 -264h-113zM225 507l-101 -507h-97l101 507h97zM492 754l-130 -159h-84l114 159h100z" />
    <glyph glyph-name="uni045D" unicode="&#x45d;" horiz-adv-x="547" 
d="M521 507l-101 -507h-97l67 337l-266 -337h-97l101 507h97l-67 -337l266 337h97zM383 595h-77l-71 159h97z" />
    <glyph glyph-name="afii10110" unicode="&#x45e;" horiz-adv-x="444" 
d="M489 507l-327.001 -607.999c-14 -25.333 -28.333 -45.333 -43 -60c-27.333 -26.667 -64.666 -40 -111.999 -40h-40l18 87h25c20 0 35 4.16699 45 12.5s21.333 24.166 34 47.499l42 78l-73 483h97l44 -367l186 367h104zM446.999 709.001
c-18 -88 -72.999 -132 -164.999 -132c-42.667 0 -75.334 9.66699 -98.001 29s-34 45 -34 77c0 10 0.333008 18.667 1 26h76c-0.666992 -6 -1 -12 -1 -18c0 -16 5.5 -28.667 16.5 -38s26.167 -14 45.5 -14c43.333 0 70.333 23.333 81 70h78z" />
    <glyph glyph-name="afii10193" unicode="&#x45f;" horiz-adv-x="537" 
d="M511 507l-102 -507h-145l-26 -128h-92l26 128h-145l101 507h97l-84 -421h189l84 421h97z" />
    <glyph glyph-name="afii10146" unicode="&#x462;" horiz-adv-x="607" 
d="M565 245c0 -68.667 -23.168 -126.666 -69.501 -173.999s-109.166 -71 -188.499 -71h-258l109 542h-70l16 79h70l18 91h103l-19 -91h132l-15 -79h-133l-23 -117h141c60.667 0 107 -16.833 139 -50.5s48 -76.834 48 -129.501zM461.999 238.001c0 28 -8 51.166 -24 69.499
s-41 27.5 -75 27.5h-144l-49 -244h141c46 0 82.667 14.333 110 43s41 63.334 41 104.001z" />
    <glyph glyph-name="afii10194" unicode="&#x463;" horiz-adv-x="498" 
d="M446 181c0 -52 -17.3311 -95.167 -51.998 -129.5s-82.334 -51.5 -143.001 -51.5h-212l80 404h-55l13 63h55l8 40h97l-8 -40h105l-13 -63h-105l-18 -89h107c45.333 0 80.166 -12.5 104.499 -37.5s36.5 -57.167 36.5 -96.5zM351.002 172c0 42.667 -23 64.001 -69 64.001
h-99l-32 -157h98c36 0 62 10.167 78 30.5s24 41.166 24 62.499z" />
    <glyph glyph-name="afii10147" unicode="&#x472;" horiz-adv-x="614" 
d="M592 521c0 -37.333 -7.33301 -92.333 -22 -165c-16.667 -83.333 -31.667 -144 -45 -182s-33.666 -71.333 -60.999 -100c-50.667 -53.333 -116.334 -80 -197.001 -80c-62 0 -111.833 18.333 -149.5 55s-56.5 84 -56.5 142c0 37.333 7.33301 92.333 22 165
c16.667 83.333 31.667 144 45 182s33.666 71.333 60.999 100c50.667 53.333 116 80 196 80c62.667 0 112.834 -18.333 150.501 -55s56.5 -84 56.5 -142zM390 135c26 28 48.667 87.666 68 178.999h-280c-9.33301 -49.333 -14 -87.666 -14 -114.999
c0 -36 10.667 -64.167 32 -84.5s47.333 -30.5 78 -30.5c45.333 0 84 17 116 51zM489 512.999c0 36 -10.667 64.168 -32 84.501s-47.333 30.5 -78 30.5c-45.333 0 -84 -17 -116 -51c-26 -28 -48.333 -85.667 -67 -173h280c8.66699 47.333 13 83.666 13 108.999z" />
    <glyph glyph-name="afii10195" unicode="&#x473;" horiz-adv-x="508" 
d="M464 346c0 -28 -3.00098 -58.666 -9.00098 -91.999c-19.333 -96.667 -50.333 -164.334 -93 -203.001c-41.333 -38 -91.666 -57 -150.999 -57c-46 0 -85.333 14 -118 42s-49 69.667 -49 125c0 28.667 3 59.667 9 93c19.333 96 50.333 163.333 93 202
c40.667 38 91 57 151 57c46 0 85.333 -14 118 -42s49 -69.667 49 -125zM297.999 112.001c23.333 23.333 41.333 61.332 54 113.999h-207c-3.33301 -21.333 -5 -39.666 -5 -54.999c0 -30.667 7.5 -53.5 22.5 -68.5s34.167 -22.5 57.5 -22.5c30.667 0 56.667 10.667 78 32z
M367.999 337c0 30 -7.33301 52.499 -22 67.499s-34 22.5 -58 22.5c-30.667 0 -56.667 -10.667 -78 -32c-22 -22 -39 -56 -51 -102h205c2.66699 16.667 4 31.334 4 44.001z" />
    <glyph glyph-name="afii10148" unicode="&#x474;" horiz-adv-x="536" 
d="M543 555l-282 -555h-82l-82 712h102l56 -526l199 407c39.333 79.333 101.333 119 186 119h60l-17 -90h-35c-48 0 -83 -22.333 -105 -67z" />
    <glyph glyph-name="afii10196" unicode="&#x475;" horiz-adv-x="447" 
d="M410 360l-195.999 -360.001h-80l-76 507h97l44 -367l136 268c10.667 21.333 25 41 43 59c27.333 26.667 64.666 40 111.999 40h40l-18 -87h-23c-20 0 -35 -4.16699 -45 -12.5s-21.333 -24.166 -34 -47.499z" />
    <glyph glyph-name="afii10050" unicode="&#x490;" horiz-adv-x="530" 
d="M631 865l-49 -243h-316l-125 -622h-103l143 712h319l31 153h100z" />
    <glyph glyph-name="afii10098" unicode="&#x491;" horiz-adv-x="401" 
d="M466 641l-44 -220h-214l-84 -421h-97l102 507h218l27 134h92z" />
    <glyph glyph-name="uni0492" unicode="&#x492;" horiz-adv-x="547" 
d="M617 712l-18 -90h-316l-45 -223h132l-15 -79h-133l-64 -320h-103l64 320h-69l16 79h69l63 313h419z" />
    <glyph glyph-name="uni0493" unicode="&#x493;" horiz-adv-x="418" 
d="M296 247h-105l-49 -247h-97l49 247h-55l13 63h55l40 197h310l-17 -86h-214l-22 -111h105z" />
    <glyph glyph-name="uni0496" unicode="&#x496;" horiz-adv-x="880" 
d="M515 371l300 341h127l-314 -340l146 -281h66l-49 -249h-100l31 158h-26zM411 372l-329 -372h-134l352 376l-179 336h122zM583 712l-143 -712h-103l143 712h103z" />
    <glyph glyph-name="uni0497" unicode="&#x497;" horiz-adv-x="699" 
d="M398 263l217 244h116l-234 -243l98 -178h65l-43 -214h-92l26 128h-23zM300 262l-230 -262h-121l253 272l-135 235h105zM446 507l-101 -507h-97l101 507h97z" />
    <glyph glyph-name="uni049A" unicode="&#x49a;" horiz-adv-x="588" 
d="M650 712l-322 -340l152 -281h68l-49 -249h-100l31 158h-26l-188 372l306 340h128zM284 712l-143 -712h-103l143 712h103z" />
    <glyph glyph-name="uni049B" unicode="&#x49b;" horiz-adv-x="483" 
d="M177 263l225 244h115l-240 -243l101 -178h66l-43 -214h-92l26 128h-21zM225 507l-101 -507h-97l101 507h97z" />
    <glyph glyph-name="uni049C" unicode="&#x49c;" horiz-adv-x="663" 
d="M605 0h-127l-138 329h-28l-29 -140h-71l29 140h-35l-65 -329h-103l143 712h103l-60 -297h34l29 140h72l-29 -140h27l240 297h127l-287 -340z" />
    <glyph glyph-name="uni049D" unicode="&#x49d;" horiz-adv-x="555" 
d="M498 0h-113l-89 223h-27l-24 -120h-66l23 120h-33l-45 -223h-97l101 507h97l-41 -206h33l24 120h67l-24 -120h26l163 206h115l-206 -243z" />
    <glyph glyph-name="uni04A2" unicode="&#x4a2;" horiz-adv-x="656" 
d="M661 712l-125 -621h48l-49 -249h-100l31 158h-51l63 315h-273l-64 -315h-103l143 712h103l-61 -307h274l61 307h103z" />
    <glyph glyph-name="uni04A3" unicode="&#x4a3;" horiz-adv-x="537" 
d="M511 507l-84 -421h43l-43 -214h-92l26 128h-48l43 216h-189l-43 -216h-97l100 507h97l-40 -204h189l41 204h97z" />
    <glyph glyph-name="uni04AE" unicode="&#x4ae;" horiz-adv-x="521" 
d="M605 712l-284 -423l-58 -289h-103l59 294l-125 418h109l85 -319l204 319h113z" />
    <glyph glyph-name="uni04AF" unicode="&#x4af;" horiz-adv-x="444" 
d="M230 26l-46 -232h-97l44 224l-73 489h97l44 -367l186 367h104z" />
    <glyph glyph-name="uni04B0" unicode="&#x4b0;" horiz-adv-x="521" 
d="M605 712l-281 -418h99l-15 -79h-102l-43 -215h-103l43 215h-100l16 79h100l-125 418h109l85 -319l204 319h113z" />
    <glyph glyph-name="uni04B1" unicode="&#x4b1;" horiz-adv-x="471" 
d="M230 26h80l-13 -63h-80l-33 -169h-97l33 169h-80l13 63h77l-72 481h97l44 -367l186 367h104z" />
    <glyph glyph-name="uni04B2" unicode="&#x4b2;" horiz-adv-x="553" 
d="M617 712l-262 -351l106 -270h54l-49 -249h-100l31 158h-15l-100 277l-202 -277h-120l280 371l-131 341h115l89 -258l184 258h120z" />
    <glyph glyph-name="uni04B3" unicode="&#x4b3;" horiz-adv-x="480" 
d="M499 507l-203 -252l78 -169h57l-43 -214h-92l26 128h-20l-74 179l-136 -179h-120l214 262l-113 245h112l69 -170l127 170h118z" />
    <glyph glyph-name="uni04B6" unicode="&#x4b6;" horiz-adv-x="619" 
d="M623 712l-125.001 -621h48l-49 -249h-100l31 158h-51l55 278c-56.667 -14.667 -111.667 -22 -165 -22c-50 0 -90.167 12.167 -120.5 36.5s-45.5 58.833 -45.5 103.5c0 17.333 1.66699 34.333 5 51l52 265h103l-49 -246c-2.66699 -13.333 -4 -27 -4 -41
c0 -52 32 -78 96 -78c46.667 0 95.334 6.33301 146.001 19l70 346h103z" />
    <glyph glyph-name="uni04B7" unicode="&#x4b7;" horiz-adv-x="513" 
d="M487 507l-83.998 -421.001h43l-43 -214h-92l26 128h-48l37 189c-44.667 -12 -87.334 -18 -128.001 -18c-38.667 0 -69.334 9.83301 -92.001 29.5s-34 47.167 -34 82.5c0 12.667 1.66699 27.334 5 44.001l36 180h97l-32 -159c-2.66699 -12.667 -4 -24.667 -4 -36
c0 -36 22.333 -54 67 -54c33.333 0 67 4.66699 101 14l48 235h97z" />
    <glyph glyph-name="uni04B8" unicode="&#x4b8;" horiz-adv-x="624" 
d="M628 712l-143 -711.998h-103l56 278c-34.667 -10 -66.667 -16 -96 -18l-28 -142h-81l28 138c-49.333 1.33301 -88.333 14.166 -117 38.499s-43 58.166 -43 101.499c0 17.333 1.66699 34.333 5 51l52 265h103l-49 -246c-2.66699 -17.333 -4 -31 -4 -41
c0 -44 24 -68.333 72 -73l29 132h81l-29 -135c33.333 3.33301 65 9 95 17l69 346h103z" />
    <glyph glyph-name="uni04B9" unicode="&#x4b9;" horiz-adv-x="527" 
d="M501 507l-101 -507.001h-97l38 189c-20 -6.66699 -42.333 -11 -67 -13l-23 -121h-68l23 116c-42 0.666992 -74.833 10.5 -98.5 29.5s-35.5 46.5 -35.5 82.5c0 12.667 1.66699 27.334 5 44.001l36 180h97l-32 -159c-2.66699 -12.667 -4 -24.667 -4 -36
c0 -30 16.667 -46.667 50 -50l22 111h68l-22 -113c19.333 2 41 6 65 12l47 235h97z" />
    <glyph glyph-name="uni04BA" unicode="&#x4ba;" horiz-adv-x="619" 
d="M38 0l143.001 712h103l-55 -278c56.667 14.667 111.667 22 165 22c50 0 90.167 -12.167 120.5 -36.5s45.5 -58.833 45.5 -103.5c0 -17.333 -1.66699 -34.333 -5 -51l-52 -265h-103l49 246c2.66699 13.333 4 27 4 41c0 52 -32 78 -96 78
c-46.667 0 -95.334 -6.33301 -146.001 -19l-70 -346h-103z" />
    <glyph glyph-name="uni04BB" unicode="&#x4bb;" horiz-adv-x="513" 
d="M26 0l100.998 507.001h97l-37 -189c44.667 12 87.334 18 128.001 18c38.667 0 69.334 -9.83301 92.001 -29.5s34 -47.167 34 -82.5c0 -12.667 -1.66699 -27.334 -5 -44.001l-36 -180h-97l32 159c2.66699 12.667 4 24.667 4 36c0 36 -22.333 54 -67 54
c-33.333 0 -67 -4.66699 -101 -14l-48 -235h-97z" />
    <glyph glyph-name="uni04C0" unicode="&#x4c0;" horiz-adv-x="279" 
d="M284 712l-143 -712h-103l143 712h103z" />
    <glyph glyph-name="uni04CF" unicode="&#x4cf;" horiz-adv-x="252" 
d="M267 712l-143 -712h-97l143 712h97z" />
    <glyph glyph-name="uni04D8" unicode="&#x4d8;" horiz-adv-x="617" 
d="M597 521c0 -34 -7.66504 -89 -22.998 -165c-16.667 -83.333 -31.5 -144 -44.5 -182s-33.167 -71.333 -60.5 -100c-51.333 -53.333 -117 -80 -197 -80c-62.667 0 -113.5 18.5 -152.5 55.5s-58.5 84.167 -58.5 141.5c0 38.667 5.66699 86.334 17 143.001l10 49h388
c11.333 60 17 103.333 17 130c0 36 -10.667 64.167 -32 84.5s-47.333 30.5 -78 30.5c-48 0 -88 -17 -120 -51c-16.667 -18.667 -30.334 -43.667 -41.001 -75h-106c17.333 57.333 41.666 102.666 72.999 135.999c50.667 53.333 117.667 80 201 80c62 0 112 -18.333 150 -55
s57 -84 57 -142zM458.002 297h-282c-8 -40 -12 -72.667 -12 -98c0 -36 11.333 -64.167 34 -84.5s49.667 -30.5 81 -30.5c44.667 0 83 17 115 51c24.667 25.333 46 79.333 64 162z" />
    </font>
</defs>
</svg>
