<?xml version="1.0" standalone="no"?>
<!DOCTYPE svg PUBLIC "-//W3C//DTD SVG 1.1//EN" "http://www.w3.org/Graphics/SVG/1.1/DTD/svg11.dtd" >
<svg>
<metadata>
Created by FontForge 20090914 at Wed Nov 27 22:42:29 2019
 By www-data
2005 Albert-Jan Pool published by FSI FontShop International GmbH
</metadata>
<defs>
<font id="DINPro-CondensedRegular" horiz-adv-x="277" >
  <font-face 
    font-family="DIN Pro Cond"
    font-weight="400"
    font-stretch="condensed"
    units-per-em="1000"
    panose-1="2 11 5 6 2 1 1 1 1 2"
    ascent="800"
    descent="-200"
    x-height="509"
    cap-height="712"
    bbox="-70 -220 945 1073"
    underline-thickness="44"
    underline-position="-156"
    unicode-range="U+000D-U+FEFF"
  />
<missing-glyph horiz-adv-x="373" 
d="M62 0v712h249v-712h-249zM106 44h161v624h-161v-624z" />
    <glyph glyph-name=".notdef" horiz-adv-x="373" 
d="M62 0v712h249v-712h-249zM106 44h161v624h-161v-624z" />
    <glyph glyph-name=".null" horiz-adv-x="0" 
 />
    <glyph glyph-name=".null" horiz-adv-x="0" 
 />
    <glyph glyph-name="CR" unicode="&#xd;" horiz-adv-x="194" 
 />
    <glyph glyph-name="space" unicode=" " horiz-adv-x="194" 
 />
    <glyph glyph-name="exclam" unicode="!" horiz-adv-x="227" 
d="M156 187h-56v525h56v-525zM165 0h-75v75h75v-75z" />
    <glyph glyph-name="quotedbl" unicode="&#x22;" horiz-adv-x="352" 
d="M127 529h-65v183h65v-183zM290 529h-64v183h64v-183z" />
    <glyph glyph-name="numbersign" unicode="#" horiz-adv-x="500" 
d="M444 444h-79l-20 -163h73v-51h-81l-29 -230h-54l29 230h-102l-29 -230h-54l29 230h-72v51h79l21 163h-73v50h80l28 218h54l-28 -218h102l28 218h54l-28 -218h72v-50zM311 444h-102l-21 -163h102z" />
    <glyph glyph-name="dollar" unicode="$" horiz-adv-x="404" 
d="M351 186c0 -73.333 -14.666 -124.669 -43.999 -154.002c-20 -20 -47 -32 -81 -36v-110h-53v109c-38 3.33301 -67.667 15.666 -89 36.999c-16 16.667 -27 35.334 -33 56.001s-9 50.667 -9 90h59c0 -52 9.33301 -87.333 28 -106c12 -12 26.667 -19.333 44 -22v298l-32 13
c-36.667 14.667 -61.5 34.5 -74.5 59.5s-19.5 64.5 -19.5 118.5c0 63.333 16.333 110.333 49 141c21.333 20 47 32 77 36v90h53v-90c33.333 -4 60.333 -16.333 81 -37c16.667 -16.667 28 -35.5 34 -56.5s9 -48.167 9 -81.5h-59c0 44.667 -9 77.334 -27 98.001
c-10.667 11.333 -23.334 19 -38.001 23v-273l33 -13c36.667 -14.667 61.167 -36.167 73.5 -64.5s18.5 -70.166 18.5 -125.499zM292.001 183.997c0 43.333 -4.50098 74.833 -13.501 94.5s-26.5 35.5 -52.5 47.5v-275c16.667 4 29.334 11 38.001 21
c18.667 20 28 57.333 28 112zM173 410.997v251c-14.667 -4 -26.667 -10.667 -36 -20c-20.667 -20.667 -31 -54.667 -31 -102c0 -40 4.33301 -68.5 13 -85.5s26.667 -31.5 54 -43.5z" />
    <glyph glyph-name="percent" unicode="%" horiz-adv-x="617" 
d="M252 446c0 -30 -9.33301 -54.167 -28 -72.5s-42.334 -27.5 -71.001 -27.5s-52.167 9.16699 -70.5 27.5s-27.5 42.5 -27.5 72.5v175c0 30 9.16699 54 27.5 72s41.833 27 70.5 27s52.334 -9 71.001 -27s28 -42 28 -72v-175zM562 92c0 -30 -9.16699 -54.167 -27.5 -72.5
s-41.833 -27.5 -70.5 -27.5s-52.167 9.16699 -70.5 27.5s-27.5 42.5 -27.5 72.5v174c0 30 9.16699 54.167 27.5 72.5s41.833 27.5 70.5 27.5s52.167 -9.16699 70.5 -27.5s27.5 -42.5 27.5 -72.5v-174zM456 712l-248 -712h-47l248 712h47zM514 92v174
c0 18 -4.33301 32 -13 42s-21 15 -37 15s-28.333 -5 -37 -15s-13 -24 -13 -42v-174c0 -18 4.33301 -32 13 -42s21 -15 37 -15s28.333 5 37 15s13 24 13 42zM203 446v174c0 18 -4.33301 32 -13 42s-21 15 -37 15c-32.667 0 -49 -19 -49 -57v-174c0 -38 16.333 -57 49 -57
c16 0 28.333 5 37 15s13 24 13 42z" />
    <glyph glyph-name="ampersand" unicode="&#x26;" horiz-adv-x="486" 
d="M481 0h-63.998l-55 84c-24.667 -30.667 -49.334 -53.667 -74.001 -69s-55.334 -23 -92.001 -23c-45.333 0 -83 15.5 -113 46.5s-45 72.833 -45 125.5c0 42 9.66699 79.667 29 113s51 70.333 95 111c-36.667 52 -60.834 89.5 -72.501 112.5s-17.5 47.833 -17.5 74.5
c0 40 11.667 73.833 35 101.5s56 41.5 98 41.5c42.667 0 75.667 -12.333 99 -37s35 -57 35 -97s-8 -74.167 -24 -102.5s-44.333 -61.833 -85 -100.5l132 -199c26.667 43.333 42.334 99.333 47.001 168h54c-6.66699 -86 -29.667 -158.667 -69 -218zM332.002 130l-140.999 214
c-34 -33.333 -58.667 -63.5 -74 -90.5s-23 -55.167 -23 -84.5c0 -35.333 9.66699 -65 29 -89s45.666 -36 78.999 -36c42 0 85.333 28.667 130 86zM285.003 582c0 24.667 -7.33301 45 -22 61s-33.667 24 -57 24c-26 0 -45.667 -9 -59 -27s-20 -39 -20 -63
c0 -20 4.83301 -39.833 14.5 -59.5s29.5 -50.5 59.5 -92.5c30 29.333 51.5 54.833 64.5 76.5s19.5 48.5 19.5 80.5z" />
    <glyph glyph-name="quotesingle" unicode="'" horiz-adv-x="189" 
d="M127 529h-65v183h65v-183z" />
    <glyph glyph-name="parenleft" unicode="(" horiz-adv-x="222" 
d="M181 -56l-38 -38.002c-32.667 32.667 -54.334 59.334 -65.001 80.001c-13.333 25.333 -20 57.666 -20 96.999v546c0 39.333 6.66699 71.666 20 96.999c10.667 20.667 32.334 47.334 65.001 80.001l38 -38c-28 -28 -45.333 -49 -52 -63
c-10 -19.333 -15 -46.666 -15 -81.999v-534c0 -35.333 5 -62.666 15 -81.999c6.66699 -14 24 -35 52 -63z" />
    <glyph glyph-name="parenright" unicode=")" horiz-adv-x="222" 
d="M164 83c0 -39.333 -6.66699 -71.666 -20 -96.999c-10 -19.333 -32 -46 -66 -80l-38 38c29.333 29.333 47 50.333 53 63c10 19.333 15 46.666 15 81.999v534c0 35.333 -5 62.666 -15 81.999c-6 12.667 -23.667 33.667 -53 63l38 38c34 -34 56 -60.667 66 -80
c13.333 -25.333 20 -57.666 20 -96.999v-546z" />
    <glyph glyph-name="asterisk" unicode="*" horiz-adv-x="369" 
d="M318 505l-22 -40l-91 55l2 -127h-45l3 127l-92 -55l-22 40l93 50l-93 50l22 40l92 -55l-3 127h45l-2 -127l91 55l22 -40l-93 -50z" />
    <glyph glyph-name="plus" unicode="+" horiz-adv-x="431" 
d="M383 251h-141v-141h-53v141h-140v53h140v140h53v-140h141v-53z" />
    <glyph glyph-name="comma" unicode="," horiz-adv-x="184" 
d="M127 -48l-69 -51v176h69v-125z" />
    <glyph glyph-name="hyphen" unicode="-" horiz-adv-x="301" 
d="M246 251h-191v53h191v-53z" />
    <glyph glyph-name="period" unicode="." horiz-adv-x="199" 
d="M137 0h-75v75h75v-75z" />
    <glyph glyph-name="slash" unicode="/" horiz-adv-x="246" 
d="M244 786l-185 -860h-57l185 860h57z" />
    <glyph glyph-name="zero" unicode="0" horiz-adv-x="361" 
d="M307 128c0 -43.333 -12 -77 -36 -101c-23.333 -23.333 -53.666 -35 -90.999 -35c-36.667 0 -66.667 11.667 -90 35c-24 24 -36 57.667 -36 101v456c0 43.333 12 77 36 101c23.333 23.333 53.333 35 90 35c37.333 0 67.666 -11.667 90.999 -35c24 -24 36 -57.667 36 -101
v-456zM251 125v462c0 26.667 -6.66699 47.167 -20 61.5s-30.333 21.5 -51 21.5s-37.5 -7.16699 -50.5 -21.5s-19.5 -34.833 -19.5 -61.5v-462c0 -26.667 6.5 -47.167 19.5 -61.5s29.833 -21.5 50.5 -21.5s37.667 7.16699 51 21.5s20 34.833 20 61.5z" />
    <glyph glyph-name="one" unicode="1" horiz-adv-x="361" 
d="M221 0h-56v646l-102 -88v67l102 87h56v-712z" />
    <glyph glyph-name="two" unicode="2" horiz-adv-x="361" 
d="M311 0h-260v47l170 390c22.667 52 34 102 34 150c0 26.667 -6.5 47.167 -19.5 61.5s-29.833 21.5 -50.5 21.5s-37.667 -7.16699 -51 -21.5s-20 -34.833 -20 -61.5v-51h-56v50c0 42 12 75 36 99c23.333 23.333 53.666 35 90.999 35c36.667 0 66.334 -11.333 89.001 -34
c24.667 -24.667 37 -58.667 37 -102c0 -46 -13.667 -101 -41 -165l-159 -369h200v-50z" />
    <glyph glyph-name="three" unicode="3" horiz-adv-x="361" 
d="M307 196c0 -50 -2.66504 -86.501 -7.99805 -109.501s-16 -42.833 -32 -59.5c-23.333 -23.333 -53.666 -35 -90.999 -35s-67.333 11.333 -90 34c-24.667 24.667 -37 58.334 -37 101.001v49h56v-50c0 -26.667 6.66699 -47.334 20 -62.001s30.333 -22 51 -22
c21.333 0 37.666 7 48.999 21c9.33301 11.333 16 26 20 44s6 47.667 6 89c0 48 -1.66699 80.5 -5 97.5s-10 31.167 -20 42.5c-13.333 14 -30 21 -50 21h-41v49h41c20.667 0 35.667 5.66699 45 17c16 16.667 24 55 24 115c0 58 -7.33301 95.667 -22 113
c-10.667 12.667 -26.334 19 -47.001 19c-20 0 -36 -7.16699 -48 -21.5s-18 -34.833 -18 -61.5v-51h-56v49c0 45.333 11.667 79 35 101c22.667 22.667 51.667 34 87 34c36.667 0 66 -11 88 -33c13.333 -13.333 22.833 -30.833 28.5 -52.5s8.5 -53.167 8.5 -94.5
c0 -58.667 -6.66699 -99 -20 -121c-8.66699 -16 -22 -28.667 -40 -38c17.333 -9.33301 30.666 -20.666 39.999 -33.999c10.667 -15.333 17.667 -32.333 21 -51s5 -52 5 -100z" />
    <glyph glyph-name="four" unicode="4" horiz-adv-x="361" 
d="M328 124h-50v-124h-56v124h-188v50l180 538h55l-179 -538h132v199h56v-199h50v-50z" />
    <glyph glyph-name="five" unicode="5" horiz-adv-x="361" 
d="M311 224c0 -56.667 -2.66602 -98.333 -7.99902 -125s-16 -49 -32 -67c-22.667 -26.667 -53 -40 -91 -40s-68 11 -90 33c-25.333 25.333 -38 59.333 -38 102v47h56v-45c0 -28.667 6.66699 -50.334 20 -65.001s31 -22 53 -22c20.667 0 37 8.33301 49 25
c9.33301 12.667 15.833 29.5 19.5 50.5s5.5 56.5 5.5 106.5c0 48.667 -1.83301 83.834 -5.5 105.501s-10.167 39.167 -19.5 52.5c-11.333 17.333 -28 26 -50 26c-20.667 0 -37.834 -7.66699 -51.501 -23s-20.5 -35.333 -20.5 -60v-33h-52v420h245v-50h-194v-252
c7.33301 12.667 18.333 23.667 33 33c16 9.33301 34 14 54 14c33.333 0 60.333 -13 81 -39c14 -16.667 23.5 -38.167 28.5 -64.5s7.5 -69.5 7.5 -129.5z" />
    <glyph glyph-name="six" unicode="6" horiz-adv-x="361" 
d="M310 210c0 -54 -2.33203 -92.833 -6.99902 -116.5s-14.334 -44.5 -29.001 -62.5c-21.333 -26 -52.666 -39 -93.999 -39s-72.333 13 -93 39c-14.667 18 -24.5 39 -29.5 63s-7.5 62.667 -7.5 116c0 75.333 9.66699 139 29 191l115 311h56l-114 -306
c17.333 14 36.666 21 57.999 21c33.333 0 60.333 -12 81 -36c14 -15.333 23.333 -34.5 28 -57.5s7 -64.167 7 -123.5zM254.001 211c0 44.667 -1.66895 77.667 -5.00195 99s-9.66602 37.333 -18.999 48c-12 14 -28.667 21 -50 21s-38 -7 -50 -21
c-9.33301 -10.667 -15.666 -26.667 -18.999 -48s-5 -54.333 -5 -99c0 -80 8 -129.333 24 -148c12 -14 28.667 -21 50 -21s38 7 50 21c16 18.667 24 68 24 148z" />
    <glyph glyph-name="seven" unicode="7" horiz-adv-x="361" 
d="M314 667l-190 -667h-59l191 662h-154v-116h-55v166h267v-45z" />
    <glyph glyph-name="eight" unicode="8" horiz-adv-x="361" 
d="M310 196c0 -50 -2.50195 -86.498 -7.50195 -109.498s-15.5 -42.833 -31.5 -59.5c-23.333 -23.333 -53.666 -35 -90.999 -35c-36.667 0 -66.667 11.667 -90 35c-16 16.667 -26.667 36.667 -32 60s-8 59.666 -8 108.999c0 46.667 1.83301 79.5 5.5 98.5
s10.5 35.833 20.5 50.5c8.66699 14 22 25.667 40 35c-16.667 8.66699 -30 21.334 -40 38.001c-14 25.333 -21 65.666 -21 120.999c0 41.333 2.83301 72.833 8.5 94.5s15.5 39.5 29.5 53.5c23.333 22 52.333 33 87 33c36 0 65 -11 87 -33c14 -14 23.833 -31.833 29.5 -53.5
s8.5 -53.167 8.5 -94.5c0 -56.667 -6.66699 -97 -20 -121c-9.33301 -15.333 -22.666 -28 -39.999 -38c18 -9.33301 31.333 -21 40 -35c10 -14.667 16.667 -31.334 20 -50.001s5 -51.667 5 -99zM253.998 197.002c0 46 -1.66699 77.667 -5 95s-10 31.666 -20 42.999
c-12 14 -28.333 21 -49 21s-37 -7 -49 -21c-10 -11.333 -16.667 -25.666 -20 -42.999s-5 -49 -5 -95c0 -41.333 1.83301 -71.166 5.5 -89.499s10.167 -33.166 19.5 -44.499c12 -14 28.333 -21 49 -21s37 7 49 21c9.33301 11.333 15.833 26.166 19.5 44.499
s5.5 48.166 5.5 89.499zM248.998 537.002c0 60.667 -7.66797 98.999 -23.001 114.999c-12 12 -27.333 18 -46 18c-18 0 -33 -6 -45 -18c-16 -16.667 -24 -55 -24 -115c0 -59.333 8.33301 -97.666 25 -114.999c10.667 -11.333 25.334 -17 44.001 -17
c19.333 0 34.333 5.66699 45 17c16 16.667 24 55 24 115z" />
    <glyph glyph-name="nine" unicode="9" horiz-adv-x="361" 
d="M310 502c0 -75.333 -9.66895 -138.999 -29.002 -190.999l-114 -311h-57l115 306c-17.333 -14 -36.666 -21 -57.999 -21c-33.333 0 -60.333 12 -81 36c-14 15.333 -23.5 34.666 -28.5 57.999s-7.5 64.333 -7.5 123c0 54 2.5 93 7.5 117s14.833 44.667 29.5 62
c22 26 53.333 39 94 39c40 0 71 -13 93 -39c14.667 -18 24.334 -38.833 29.001 -62.5s7 -62.5 7 -116.5zM253.998 501.001c0 45.333 -1.66699 78.666 -5 99.999s-9.66602 37.333 -18.999 48c-13.333 14 -30 21 -50 21s-36.667 -7 -50 -21
c-9.33301 -10.667 -15.666 -26.667 -18.999 -48s-5 -54.666 -5 -99.999s1.66699 -78.5 5 -99.5s9.66602 -36.833 18.999 -47.5c13.333 -14 30 -21 50 -21s36.667 7 50 21c9.33301 10.667 15.666 26.5 18.999 47.5s5 54.167 5 99.5z" />
    <glyph glyph-name="colon" unicode=":" horiz-adv-x="227" 
d="M165 339h-75v76h75v-76zM165 0h-75v75h75v-75z" />
    <glyph glyph-name="semicolon" unicode=";" horiz-adv-x="227" 
d="M162 -48l-69 -51v176h69v-125zM165 339h-75v76h75v-76z" />
    <glyph glyph-name="less" unicode="&#x3c;" horiz-adv-x="361" 
d="M327 90l-293 169v49l293 170v-63l-229 -131l229 -131v-63z" />
    <glyph glyph-name="equal" unicode="=" horiz-adv-x="431" 
d="M383 314h-334v53h334v-53zM383 171h-334v53h334v-53z" />
    <glyph glyph-name="greater" unicode="&#x3e;" horiz-adv-x="361" 
d="M327 259l-293 -169v63l229 131l-229 131v63l293 -170v-49z" />
    <glyph glyph-name="question" unicode="?" horiz-adv-x="375" 
d="M332 547c0 -46 -9.66797 -84.3311 -29.001 -114.998l-58 -93c-14.667 -22.667 -22 -47.334 -22 -74.001v-78h-56v85c0 28 8.33301 55.333 25 82l58 93c17.333 27.333 26 61 26 101c0 45.333 -9.33301 78 -28 98c-13.333 14.667 -31.666 22 -54.999 22
c-22 0 -40 -7 -54 -21c-17.333 -17.333 -26 -46 -26 -86h-56c0 54.667 13 94.667 39 120c24.667 24.667 57 37 97 37c41.333 0 74 -12.333 98 -37c14.667 -14.667 25.167 -31.834 31.5 -51.501s9.5 -47.167 9.5 -82.5zM232.999 0.00195312h-75v75h75v-75z" />
    <glyph glyph-name="at" unicode="@" horiz-adv-x="515" 
d="M454 0l-55.002 0.00195312v41c-7.33301 -12.667 -16.666 -23 -27.999 -31c-17.333 -12 -37 -18 -59 -18c-32 0 -58.667 11.333 -80 34c-20.667 22 -31 55.667 -31 101v223c0 44.667 10.333 78 31 100c21.333 22.667 48 34 80 34c22.667 0 42.667 -5.33301 60 -16
c11.333 -6.66699 20 -16.334 26 -29.001v128c0 31.333 -8 55.333 -24 72s-38 25 -66 25h-107c-27.333 0 -49.166 -8.33301 -65.499 -25s-24.5 -40.667 -24.5 -72v-466c0 -31.333 9 -55.333 27 -72l-39 -38c-29.333 25.333 -44 62.666 -44 111.999v466c0 44.667 13 80 39 106
c24.667 24.667 57.667 37 99 37h123c41.333 0 74.333 -12.333 99 -37c26 -26 39 -61.333 39 -106v-569zM397.998 125.002v226c0 26.667 -6.5 47.167 -19.5 61.5s-29.833 21.5 -50.5 21.5s-37.667 -7.16699 -51 -21.5s-20 -34.833 -20 -61.5v-226
c0 -26.667 6.66699 -47.167 20 -61.5s30.333 -21.5 51 -21.5s37.5 7.16699 50.5 21.5s19.5 34.833 19.5 61.5z" />
    <glyph glyph-name="A" unicode="A" horiz-adv-x="379" 
d="M374 0h-63l-39 195h-166l-38 -195h-64l159 712h55zM261 248l-72 358l-71 -358h143z" />
    <glyph glyph-name="B" unicode="B" horiz-adv-x="416" 
d="M363 196c0 -42.667 -3.33301 -75.001 -10 -97.001s-18 -41.333 -34 -58c-26.667 -27.333 -67.667 -41 -123 -41h-127v712h128c54.667 0 94.667 -13.667 120 -41c15.333 -16 25.833 -34.333 31.5 -55s8.5 -49.667 8.5 -87c0 -58 -14.333 -101.667 -43 -131
c-14.667 -14.667 -29.667 -24 -45 -28c20 -5.33301 36.667 -14.666 50 -27.999c29.333 -29.333 44 -78 44 -146zM304 197.999c0 96.667 -35.333 145 -106 145h-70v-290h70c36 0 62.667 10.5 80 31.5s26 58.833 26 113.5zM298 526.999c0 49.333 -8.16699 83.667 -24.5 103
s-41.5 29 -75.5 29h-70v-264h70c66.667 0 100 44 100 132z" />
    <glyph glyph-name="C" unicode="C" horiz-adv-x="399" 
d="M358 163c-1.33301 -62 -17.998 -107.666 -49.998 -136.999c-24.667 -22.667 -57.334 -34 -98.001 -34c-44.667 0 -80 14 -106 42c-21.333 22.667 -35 53.5 -41 92.5s-9 115.5 -9 229.5s3 190.5 9 229.5s19.667 69.833 41 92.5c26 28 61.333 42 106 42
c42.667 0 76.667 -12.667 102 -38c29.333 -29.333 44.666 -73.666 45.999 -132.999h-59c0 43.333 -9.33301 74.666 -28 93.999c-14.667 16 -35 24 -61 24c-26.667 0 -47.667 -8.66699 -63 -26c-14.667 -16.667 -24 -42.167 -28 -76.5s-6 -103.833 -6 -208.5
s2 -174.167 6 -208.5s13.333 -59.833 28 -76.5c15.333 -17.333 36.333 -26 63 -26c26 0 46.333 8 61 24c18.667 19.333 28 50.666 28 93.999h59z" />
    <glyph glyph-name="D" unicode="D" horiz-adv-x="424" 
d="M371 356c0 -111.333 -3 -186 -9 -224s-19.667 -68.333 -41 -91c-26 -27.333 -61.333 -41 -106 -41h-146v712h146c44.667 0 80 -13.667 106 -41c21.333 -22.667 35 -53 41 -91s9 -112.667 9 -224zM312 356c0 103.333 -2 171.5 -6 204.5s-13.667 57.5 -29 73.5
c-14.667 16.667 -36.334 25 -65.001 25h-84v-606h84c28.667 0 50.334 8.33301 65.001 25c15.333 16 25 40.5 29 73.5s6 101.167 6 204.5z" />
    <glyph glyph-name="E" unicode="E" horiz-adv-x="364" 
d="M317 0h-248v712h248v-53h-189v-276h163v-53h-163v-277h189v-53z" />
    <glyph glyph-name="F" unicode="F" horiz-adv-x="359" 
d="M317 659h-189v-276h163v-53h-163v-330h-59v712h248v-53z" />
    <glyph glyph-name="G" unicode="G" horiz-adv-x="412" 
d="M358 152c0 -51.333 -14.167 -90.833 -42.5 -118.5s-63.5 -41.5 -105.5 -41.5c-44.667 0 -80 14 -106 42c-21.333 22.667 -35 53.5 -41 92.5s-9 115.5 -9 229.5s3 190.5 9 229.5s19.667 69.833 41 92.5c26 28 61.333 42 106 42c43.333 0 78 -13 104 -39
c28 -30 42.667 -74 44 -132h-59c0 78.667 -29.667 118 -89 118c-26.667 0 -47.667 -8.66699 -63 -26c-14.667 -16.667 -24 -42.167 -28 -76.5s-6 -103.833 -6 -208.5s2 -174.167 6 -208.5s13.333 -59.833 28 -76.5c15.333 -17.333 36.333 -26 63 -26s48.167 9.5 64.5 28.5
s24.5 45.167 24.5 78.5v175h-89v50h148v-225z" />
    <glyph glyph-name="H" unicode="H" horiz-adv-x="432" 
d="M363 0h-59v336h-176v-336h-59v712h59v-323h176v323h59v-712z" />
    <glyph glyph-name="I" unicode="I" horiz-adv-x="197" 
d="M128 0h-59v712h59v-712z" />
    <glyph glyph-name="J" unicode="J" horiz-adv-x="332" 
d="M271 153c0 -52 -13.999 -92 -41.999 -120c-27.333 -27.333 -63.333 -41 -108 -41c-47.333 0 -85 16.667 -113 50l43 39c17.333 -24 40.666 -36 69.999 -36c26.667 0 48.5 9.5 65.5 28.5s25.5 45.5 25.5 79.5v559h59v-559z" />
    <glyph glyph-name="K" unicode="K" horiz-adv-x="409" 
d="M399 0h-64l-138 352l-69 -136v-216h-59v712h59v-387l189 387h63l-146 -294z" />
    <glyph glyph-name="L" unicode="L" horiz-adv-x="339" 
d="M317 0h-248v712h59v-659h189v-53z" />
    <glyph glyph-name="M" unicode="M" horiz-adv-x="557" 
d="M488 0h-59v573l-130 -376h-43l-128 364v-561h-59v712h59l150 -419l151 419h59v-712z" />
    <glyph glyph-name="N" unicode="N" horiz-adv-x="454" 
d="M385 0h-58l-199 555v-555h-59v712h59l198 -555v555h59v-712z" />
    <glyph glyph-name="O" unicode="O" horiz-adv-x="421" 
d="M367 356c0 -114 -3 -190.5 -9 -229.5s-19.667 -69.833 -41 -92.5c-26 -28 -61.667 -42 -107 -42c-44.667 0 -80 14 -106 42c-21.333 22.667 -35 53.5 -41 92.5s-9 115.5 -9 229.5s3 190.5 9 229.5s19.667 69.833 41 92.5c26 28 61.333 42 106 42c45.333 0 81 -14 107 -42
c21.333 -22.667 35 -53.5 41 -92.5s9 -115.5 9 -229.5zM308 356c0 104.667 -2 174.167 -6 208.5s-13.333 59.833 -28 76.5c-15.333 17.333 -36.666 26 -63.999 26c-26.667 0 -47.667 -8.66699 -63 -26c-14.667 -16.667 -24 -42.167 -28 -76.5s-6 -103.833 -6 -208.5
s2 -174.167 6 -208.5s13.333 -59.833 28 -76.5c15.333 -17.333 36.333 -26 63 -26c27.333 0 48.666 8.66699 63.999 26c14.667 16.667 24 42.167 28 76.5s6 103.833 6 208.5z" />
    <glyph glyph-name="P" unicode="P" horiz-adv-x="410" 
d="M363 513c0 -76.667 -13.5 -128.833 -40.5 -156.5s-64.833 -41.5 -113.5 -41.5h-81v-315h-59v712h140c48.667 0 86.5 -14 113.5 -42s40.5 -80.333 40.5 -157zM304 513.001c0 56 -8.33301 94.333 -25 115s-41 31 -73 31h-78v-291h78c32 0 56.333 10.167 73 30.5
s25 58.5 25 114.5z" />
    <glyph glyph-name="Q" unicode="Q" horiz-adv-x="421" 
d="M390 10l-30 -35l-56 46c-26 -19.333 -57.333 -29 -94 -29c-44.667 0 -80 14 -106 42c-21.333 22.667 -35 53.5 -41 92.5s-9 115.5 -9 229.5s3 190.5 9 229.5s19.667 69.833 41 92.5c26 28 61.333 42 106 42c45.333 0 81 -14 107 -42c21.333 -22.667 35 -53.5 41 -92.5
s9 -115.5 9 -229.5c0 -100.667 -2 -170.5 -6 -209.5s-12.667 -68.833 -26 -89.5zM308 356c0 106 -2.00098 175.833 -6.00098 209.5s-13.333 59.167 -28 76.5c-14.667 16.667 -36 25 -64 25c-27.333 0 -48.333 -8.33301 -63 -25c-14.667 -17.333 -24 -42.833 -28 -76.5
s-6 -103.5 -6 -209.5s2 -175.833 6 -209.5s13.333 -59.167 28 -76.5c14.667 -16.667 35.667 -25 63 -25c20.667 0 37.334 4.33301 50.001 13l-56 48l30 35l54 -45c8.66699 16.667 14.167 41.667 16.5 75s3.5 95 3.5 185z" />
    <glyph glyph-name="R" unicode="R" horiz-adv-x="432" 
d="M386 0h-63l-103 319h-92v-319h-59v712h140c49.333 0 87.333 -13.667 114 -41s40 -79.333 40 -156c0 -101.333 -29.333 -163 -88 -185zM304 515c0 48.667 -6.83301 84.833 -20.5 108.5s-37.834 35.5 -72.501 35.5h-83v-287h83c34.667 0 58.834 11.667 72.501 35
s20.5 59.333 20.5 108z" />
    <glyph glyph-name="S" unicode="S" horiz-adv-x="396" 
d="M350 186c0 -73.333 -14.6699 -124.669 -44.0029 -154.002c-25.333 -25.333 -62.333 -38 -111 -38c-49.333 0 -86.666 12.667 -111.999 38c-16 16.667 -27 35.334 -33 56.001s-9 50.667 -9 90h59c0 -52.667 9.33301 -88.334 28 -107.001c16 -16 38.333 -24 67 -24
c30.667 0 53.334 8 68.001 24c18.667 20 28 57.667 28 113c0 45.333 -5 78 -15 98s-30 36 -60 48l-76 31c-36.667 14.667 -61.5 34.5 -74.5 59.5s-19.5 64.5 -19.5 118.5c0 63.333 16.333 110.333 49 141c26.667 25.333 61.334 38 104.001 38c45.333 0 81 -13 107 -39
c16.667 -16.667 28 -35.5 34 -56.5s9 -48.167 9 -81.5h-59c0 44.667 -9 77.334 -27 98.001c-15.333 17.333 -37 26 -65 26c-26 0 -46.667 -7.66699 -62 -23c-20.667 -20.667 -31 -54.667 -31 -102c0 -41.333 4.83301 -70.5 14.5 -87.5s30.5 -32.167 62.5 -45.5l76 -31
c36.667 -14.667 61.167 -36.167 73.5 -64.5s18.5 -70.166 18.5 -125.499z" />
    <glyph glyph-name="T" unicode="T" horiz-adv-x="341" 
d="M319 659h-119v-659h-59v659h-119v53h297v-53z" />
    <glyph glyph-name="U" unicode="U" horiz-adv-x="417" 
d="M356 148c0 -48.667 -14 -87 -42 -115c-28.667 -27.333 -63.667 -41 -105 -41s-76.333 13.667 -105 41c-28.667 28.667 -43 67 -43 115v564h59v-569c0 -30 8.5 -53.833 25.5 -71.5s38.167 -26.5 63.5 -26.5s46.333 8.83301 63 26.5s25 41.5 25 71.5v569h59v-564z" />
    <glyph glyph-name="V" unicode="V" horiz-adv-x="370" 
d="M366 712l-152 -712h-58l-152 712h65l116 -606l116 606h65z" />
    <glyph glyph-name="W" unicode="W" horiz-adv-x="587" 
d="M583 712l-108 -712h-62l-119 607l-118 -607h-62l-110 712h65l76 -606l115 606h67l117 -606l75 606h64z" />
    <glyph glyph-name="X" unicode="X" horiz-adv-x="372" 
d="M353 0h-64l-103 308l-102 -308h-65l132 371l-121 341h65l91 -282l92 282h64l-124 -341z" />
    <glyph glyph-name="Y" unicode="Y" horiz-adv-x="315" 
d="M312 712l-125 -414v-298h-59v298l-125 414h65l89 -326l90 326h65z" />
    <glyph glyph-name="Z" unicode="Z" horiz-adv-x="324" 
d="M294 0h-264v46l203 613h-189v53h250v-46l-202 -613h202v-53z" />
    <glyph glyph-name="bracketleft" unicode="[" horiz-adv-x="236" 
d="M206 -74h-144v860h144v-48h-88v-764h88v-48z" />
    <glyph glyph-name="backslash" unicode="\" horiz-adv-x="246" 
d="M244 -74h-57l-185 860h57z" />
    <glyph glyph-name="bracketright" unicode="]" horiz-adv-x="236" 
d="M174 -74h-144v48h88v764h-88v48h144v-860z" />
    <glyph glyph-name="asciicircum" unicode="^" horiz-adv-x="448" 
d="M378 439h-57l-97 221l-97 -221h-58l129 279h52z" />
    <glyph glyph-name="underscore" unicode="_" horiz-adv-x="431" 
d="M431 -134h-431v44h431v-44z" />
    <glyph glyph-name="grave" unicode="`" horiz-adv-x="354" 
d="M204 586h-49l-74 130h58z" />
    <glyph glyph-name="a" unicode="a" horiz-adv-x="352" 
d="M294 0h-54v46c-6.66699 -13.333 -16 -24.666 -28 -33.999c-18 -13.333 -38.333 -20 -61 -20c-32 0 -59 11.333 -81 34c-22 23.333 -33 61.666 -33 114.999c0 50.667 14.333 89 43 115c24.667 22.667 58 34 100 34h58v91c0 58 -23.333 87 -70 87
c-18 0 -33.333 -6.33301 -46 -19c-15.333 -16 -23 -39.667 -23 -71h-56c0 45.333 12.333 80.333 37 105c22.667 22.667 52 34 88 34c40.667 0 71 -10.667 91 -32c23.333 -24.667 35 -60 35 -106v-379zM238 134v112h-56c-26 0 -46.667 -7.33301 -62 -22
c-18 -18 -27 -45.333 -27 -82c0 -66.667 23.667 -100 71 -100c22 0 39.833 8.66699 53.5 26s20.5 39.333 20.5 66z" />
    <glyph glyph-name="b" unicode="b" horiz-adv-x="365" 
d="M321 254c0 -68 -2.5 -118.332 -7.5 -150.999s-15.167 -57.667 -30.5 -75c-21.333 -24 -48 -36 -80 -36c-22.667 0 -41.667 5.66699 -57 17c-13.333 9.33301 -23 19.666 -29 30.999v-40h-55v712h56v-242c8 12.667 17.333 22.667 28 30c15.333 11.333 34.333 17 57 17
c32 0 58.667 -12 80 -36c15.333 -17.333 25.5 -42.5 30.5 -75.5s7.5 -83.5 7.5 -151.5zM265 254.001c0 61.333 -1.66699 105.167 -5 131.5s-10.333 45.833 -21 58.5c-12.667 15.333 -29 23 -49 23c-19.333 0 -35.333 -6.33301 -48 -19c-16 -14.667 -24 -38 -24 -70v-247
c0 -31.333 8 -54.666 24 -69.999c12.667 -12.667 28.667 -19 48 -19c20 0 36.333 7.33301 49 22c10.667 12.667 17.667 32.167 21 58.5s5 70.166 5 131.499z" />
    <glyph glyph-name="c" unicode="c" horiz-adv-x="340" 
d="M303 134c-1.33301 -50 -13.332 -86.334 -35.999 -109.001c-22 -22 -52 -33 -90 -33c-40 0 -71.333 13.333 -94 40c-14.667 17.333 -24.667 42.833 -30 76.5s-8 82.167 -8 145.5s2.66699 111.833 8 145.5s15.333 59.167 30 76.5c22 27.333 53.333 41 94 41
c38.667 0 68.667 -10.667 90 -32c22.667 -22 34.667 -59 36 -111h-55c0 34 -6.66699 58 -20 72c-12 14 -28.667 21 -50 21c-22.667 0 -40 -7.66699 -52 -23c-10.667 -13.333 -17.5 -33.666 -20.5 -60.999s-4.5 -70.333 -4.5 -129s1.5 -101.5 4.5 -128.5
s9.83301 -47.167 20.5 -60.5c12 -15.333 29.333 -23 52 -23c19.333 0 35.666 6.66699 48.999 20c14 14.667 21 38.667 21 72h55z" />
    <glyph glyph-name="d" unicode="d" horiz-adv-x="365" 
d="M303 0l-55.001 -0.00195312v41c-5.33301 -12 -14.666 -22.333 -27.999 -31c-17.333 -12 -36.666 -18 -57.999 -18c-32 0 -58.333 12 -79 36c-14.667 16.667 -24.667 41.834 -30 75.501s-8 83.834 -8 150.501s2.66699 116.667 8 150s15.333 59 30 77
c19.333 24 45.666 36 78.999 36c24 0 43.333 -5.33301 58 -16c10.667 -8 19.667 -18 27 -30v241h56v-712zM246.999 130.998v247c0 31.333 -7.66699 54.666 -23 69.999c-14 12.667 -30.333 19 -49 19c-19.333 0 -35.333 -7.66699 -48 -23
c-10.667 -12.667 -17.667 -32.167 -21 -58.5s-5 -70.166 -5 -131.499s1.66699 -105.166 5 -131.499s10.333 -45.833 21 -58.5c12.667 -14.667 28.667 -22 48 -22c18.667 0 35 6.33301 49 19c15.333 15.333 23 38.666 23 69.999z" />
    <glyph glyph-name="e" unicode="e" horiz-adv-x="349" 
d="M309 246l-207.999 0.00195312c0 -56.667 1.66699 -98 5 -124s10.333 -45 21 -57c12.667 -15.333 29.667 -23 51 -23c22 0 39.333 6.66699 52 20c14.667 15.333 22 39.333 22 72h55c0 -46 -12.333 -81.667 -37 -107c-22.667 -23.333 -53.334 -35 -92.001 -35
c-38 0 -68.667 12.333 -92 37c-16 17.333 -26.833 43.166 -32.5 77.499s-8.5 83.5 -8.5 147.5c0 65.333 2.83301 115 8.5 149s16.5 59.667 32.5 77c22.667 24.667 53 37 91 37s68.333 -12.333 91 -37c16 -18 26.833 -44.333 32.5 -79s8.5 -86.334 8.5 -155.001z
M253.001 291.002c-0.666992 83.333 -9.33203 134.333 -25.999 153c-12.667 15.333 -29.334 23 -50.001 23c-21.333 0 -38.333 -7.66699 -51 -23c-16 -18 -24.333 -69 -25 -153h152z" />
    <glyph glyph-name="f" unicode="f" horiz-adv-x="237" 
d="M221 465l-87 0.000976562v-465h-56v465h-62v44h62v69c0 45.333 12.667 79.666 38 102.999c24.667 22 59.667 33 105 33v-51c-58 0 -87 -28.333 -87 -85v-69h87v-44z" />
    <glyph glyph-name="g" unicode="g" horiz-adv-x="365" 
d="M303 509v-523.997c0 -42.667 -2.66699 -74.834 -8 -96.501s-15.333 -40.5 -30 -56.5c-23.333 -24.667 -53.666 -37 -90.999 -37c-38.667 0 -69.334 11.333 -92.001 34c-23.333 24 -35 59.667 -35 107h55c0 -34 7.33301 -58.333 22 -73c12 -12.667 28.333 -19 49 -19
s37.334 7.33301 50.001 22c16 16.667 24 56 24 118v65c-6 -10.667 -15 -20.334 -27 -29.001c-16.667 -11.333 -35.667 -17 -57 -17c-32 0 -58.333 11.667 -79 35c-15.333 17.333 -25.666 42.166 -30.999 74.499s-8 81.5 -8 147.5c0 66.667 2.66699 116 8 148
s15.666 56.333 30.999 73c21.333 24 47.666 36 78.999 36c22 0 41.333 -5.66699 58 -17c11.333 -8 20.333 -18 27 -30v39h55zM247 141.003l0.000976562 237.001c0 31.333 -7.66699 54.666 -23 69.999c-14 12.667 -30.333 19 -49 19c-19.333 0 -35.333 -7.66699 -48 -23
c-10.667 -12.667 -17.667 -31.667 -21 -57s-5 -68 -5 -128s1.66699 -102.667 5 -128s10.333 -44.333 21 -57c12.667 -14.667 28.667 -22 48 -22c21.333 0 37.666 6 48.999 18c15.333 17.333 23 41 23 71z" />
    <glyph glyph-name="h" unicode="h" horiz-adv-x="373" 
d="M315 0h-55.999v383c0 26.667 -6.5 47.167 -19.5 61.5s-29.833 21.5 -50.5 21.5s-37.667 -7.16699 -51 -21.5s-20 -34.833 -20 -61.5v-383h-56v712h56v-243c4 9.33301 13.333 19.333 28 30c17.333 12 36.666 18 57.999 18c31.333 0 58 -11.667 80 -35
c20.667 -22 31 -55.333 31 -100v-382z" />
    <glyph glyph-name="i" unicode="i" horiz-adv-x="181" 
d="M118 0h-56v509h56v-509zM126 626h-72v72h72v-72z" />
    <glyph glyph-name="j" unicode="j" horiz-adv-x="181" 
d="M118 -68c0 -45.333 -12.666 -79.667 -37.999 -103c-22.667 -21.333 -56.334 -32 -101.001 -32v50c55.333 0 83 28.667 83 86v576h56v-577zM126.001 625.999h-72v72h72v-72z" />
    <glyph glyph-name="k" unicode="k" horiz-adv-x="373" 
d="M357 0h-62l-110 265l-67 -106v-159h-56v712h56v-470l161 267h61l-120 -195z" />
    <glyph glyph-name="l" unicode="l" horiz-adv-x="212" 
d="M196 0c-44.667 0 -78.333 10.667 -101 32c-25.333 23.333 -38 58 -38 104v576h56v-576c0 -57.333 27.667 -86 83 -86v-50z" />
    <glyph glyph-name="m" unicode="m" horiz-adv-x="570" 
d="M512 0h-56v383c0 26.667 -6.5 47.167 -19.5 61.5s-29.833 21.5 -50.5 21.5s-37.667 -7.16699 -51 -21.5s-20 -34.833 -20 -61.5v-383h-56v383c0 26.667 -6.5 47.167 -19.5 61.5s-29.833 21.5 -50.5 21.5s-37.667 -7.16699 -51 -21.5s-20 -34.833 -20 -61.5v-383h-56v509
h55v-41c6.66699 12 16.334 22.333 29.001 31c17.333 12 36.666 18 57.999 18c18.667 0 36.667 -5 54 -15s31 -23 41 -39c11.333 16.667 23 28.667 35 36c18.667 12 39 18 61 18c35.333 0 64 -11.667 86 -35c20.667 -22 31 -55.333 31 -100v-382z" />
    <glyph glyph-name="n" unicode="n" horiz-adv-x="373" 
d="M315 0h-56v383c0 26.667 -6.5 47.167 -19.5 61.5s-29.833 21.5 -50.5 21.5s-37.667 -7.16699 -51 -21.5s-20 -34.833 -20 -61.5v-383h-56v509h55v-41c6.66699 12 16.334 22.333 29.001 31c17.333 12 36.666 18 57.999 18c31.333 0 58 -11.667 80 -35
c20.667 -22 31 -55.333 31 -100v-382z" />
    <glyph glyph-name="o" unicode="o" horiz-adv-x="353" 
d="M309 254c0 -63.333 -2.66699 -111.666 -8 -144.999s-15.333 -59 -30 -77c-22 -26.667 -53.333 -40 -94 -40s-72 13.333 -94 40c-14.667 18 -24.667 43.667 -30 77s-8 81.666 -8 144.999s2.66699 111.666 8 144.999s15.333 59 30 77c22 27.333 53.333 41 94 41
s72 -13.667 94 -41c14.667 -18 24.667 -43.667 30 -77s8 -81.666 8 -144.999zM253 254c0 59.333 -1.66699 102.499 -5 129.499s-10.333 47.167 -21 60.5c-12.667 15.333 -29.334 23 -50.001 23c-21.333 0 -38.333 -7.66699 -51 -23c-10.667 -13.333 -17.5 -33.333 -20.5 -60
s-4.5 -70 -4.5 -130s1.5 -103.167 4.5 -129.5s9.83301 -46.166 20.5 -59.499c12.667 -15.333 29.667 -23 51 -23c20.667 0 37.334 7.66699 50.001 23c10.667 13.333 17.667 33.333 21 60s5 69.667 5 129z" />
    <glyph glyph-name="p" unicode="p" horiz-adv-x="366" 
d="M321 254c0 -66.667 -2.66699 -116.666 -8 -149.999s-15.333 -58.666 -30 -75.999c-21.333 -24 -47.666 -36 -78.999 -36c-23.333 0 -42.666 5.33301 -57.999 16c-10 6.66699 -19.333 16.667 -28 30v-241h-56v712h55v-41c5.33301 11.333 15 21.666 29 30.999
c17.333 12 36.666 18 57.999 18c31.333 0 57.666 -12 78.999 -36c14.667 -17.333 24.667 -42.833 30 -76.5s8 -83.834 8 -150.501zM265 254.001c0 61.333 -1.66699 105.167 -5 131.5s-10.333 45.833 -21 58.5c-12.667 15.333 -29 23 -49 23
c-19.333 0 -35.333 -6.33301 -48 -19c-16 -14.667 -24 -38 -24 -70v-247c0 -31.333 8 -54.666 24 -69.999c12.667 -12.667 28.667 -19 48 -19c20 0 36.333 7.33301 49 22c10.667 12.667 17.667 32.167 21 58.5s5 70.166 5 131.499z" />
    <glyph glyph-name="q" unicode="q" horiz-adv-x="365" 
d="M303 -203l-55.998 0.00195312v241c-8.66699 -14 -17.667 -24 -27 -30c-16.667 -10.667 -36 -16 -58 -16c-30.667 0 -57 12 -79 36c-15.333 17.333 -25.5 42.5 -30.5 75.5s-7.5 83.167 -7.5 150.5s2.5 117.666 7.5 150.999s15.167 58.666 30.5 75.999
c20.667 24 47 36 79 36c21.333 0 40.666 -6 57.999 -18c13.333 -8.66699 22.666 -19 27.999 -31v41h55v-712zM247.002 131.002v247c0 31.333 -7.66699 54.666 -23 69.999c-14 12.667 -30.333 19 -49 19c-19.333 0 -35.333 -7.66699 -48 -23
c-10.667 -12.667 -17.667 -32.167 -21 -58.5s-5 -70.166 -5 -131.499s1.66699 -105.166 5 -131.499s10.333 -45.833 21 -58.5c12.667 -14.667 28.667 -22 48 -22c18.667 0 35 6.33301 49 19c15.333 15.333 23 38.666 23 69.999z" />
    <glyph glyph-name="r" unicode="r" horiz-adv-x="245" 
d="M229 464l-11.999 0.000976562c-30 0 -54 -8.83301 -72 -26.5s-27 -41.834 -27 -72.501v-365h-56v509h55v-54c5.33301 11.333 13.666 22 24.999 32c22 20 51 30 87 30v-53z" />
    <glyph glyph-name="s" unicode="s" horiz-adv-x="336" 
d="M303 130c0 -39.333 -13.3291 -72.332 -39.9961 -98.999c-26 -26 -58.333 -39 -97 -39c-38 0 -69 12 -93 36c-26.667 27.333 -40 64 -40 110h56c0 -32.667 8.66699 -57.667 26 -75c14 -14 31 -21 51 -21c23.333 0 42.666 7.66699 57.999 23s23 36.333 23 63
c0 22 -4.66699 40.333 -14 55c-10.667 16.667 -27.667 31.334 -51 44.001l-64 35c-30.667 17.333 -52.667 37.333 -66 60c-9.33301 18 -14 39.333 -14 64c0 37.333 13.333 69.333 40 96c23.333 23.333 53.666 35 90.999 35c38 0 68.333 -11.333 91 -34
c24.667 -24.667 37 -61.334 37 -110.001h-56c0 34 -7.33301 58.667 -22 74c-12.667 13.333 -29.334 20 -50.001 20c-22.667 0 -40.334 -6.33301 -53.001 -19c-14.667 -14 -22 -34 -22 -60c0 -18 3.33301 -32.667 10 -44c6 -10.667 21.667 -23.334 47 -38.001l63 -36
c32.667 -18 55.667 -38 69 -60s20 -48.667 20 -80z" />
    <glyph glyph-name="t" unicode="t" horiz-adv-x="245" 
d="M225 0c-50 0 -86.333 10.667 -109 32c-25.333 23.333 -38 58 -38 104v329h-62v44h62v149h56v-149h87v-44h-87v-329c0 -57.333 30.333 -86 91 -86v-50z" />
    <glyph glyph-name="u" unicode="u" horiz-adv-x="373" 
d="M311 0h-55v41c-6.66699 -12 -16.334 -22.333 -29.001 -31c-17.333 -12 -36.666 -18 -57.999 -18c-32 0 -58.667 11.333 -80 34c-20.667 22 -31 55.667 -31 101v382h56v-383c0 -26.667 6.5 -47.167 19.5 -61.5s29.833 -21.5 50.5 -21.5s37.667 7.16699 51 21.5
s20 34.833 20 61.5v383h56v-509z" />
    <glyph glyph-name="v" unicode="v" horiz-adv-x="305" 
d="M301 509l-119 -509h-59l-119 509h62l87 -421l87 421h61z" />
    <glyph glyph-name="w" unicode="w" horiz-adv-x="474" 
d="M470 509l-99 -509h-60l-77 416l-73 -416h-60l-97 509h65l63 -421l74 421h56l78 -421l65 421h65z" />
    <glyph glyph-name="x" unicode="x" horiz-adv-x="321" 
d="M304 0h-62l-81 210l-82 -210h-62l112 259l-106 250h62l76 -202l75 202h62l-108 -250z" />
    <glyph glyph-name="y" unicode="y" horiz-adv-x="308" 
d="M301 509l-144.001 -608c-9.33301 -38 -26.166 -64.833 -50.499 -80.5s-56.833 -23.5 -97.5 -23.5v50c50.667 0 81.667 21.667 93 65l23 90l-121 507h62l87 -420l87 420h61z" />
    <glyph glyph-name="z" unicode="z" horiz-adv-x="276" 
d="M255 0h-233v44l172 415h-162v50h223v-44l-172 -415h172v-50z" />
    <glyph glyph-name="braceleft" unicode="{" horiz-adv-x="287" 
d="M258 -74l-24 -0.000976562c-34.667 0 -63 11 -85 33c-22.667 22.667 -34 55 -34 97v194c0 26 -6.33301 46 -19 60s-29 21 -49 21h-17v50h17c20 0 36.333 7 49 21s19 34 19 60v194c0 42 11.333 74.333 34 97c22 22 50.333 33 85 33h24v-50h-18
c-20 0 -36.5 -7.16699 -49.5 -21.5s-19.5 -34.166 -19.5 -59.499v-191c0 -40.667 -10 -71 -30 -91c-6.66699 -6.66699 -15.667 -12.334 -27 -17.001c9.33301 -2.66699 18.333 -8.33398 27 -17.001c20 -21.333 30 -51.666 30 -90.999v-191
c0 -25.333 6.5 -45.166 19.5 -59.499s29.5 -21.5 49.5 -21.5h18v-50z" />
    <glyph glyph-name="bar" unicode="|" horiz-adv-x="251" 
d="M153 -74h-56v860h56v-860z" />
    <glyph glyph-name="braceright" unicode="}" horiz-adv-x="287" 
d="M258 331l-18 0.00195312c-20 0 -36.333 -7 -49 -21s-19 -34 -19 -60v-194c0 -42 -11.333 -74.333 -34 -97c-22 -22 -50.333 -33 -85 -33h-23v50h17c20 0 36.5 7.16699 49.5 21.5s19.5 34.166 19.5 59.499v191c0 40 10.333 70.333 31 91c7.33301 7.33301 16 13 26 17
c-10 3.33301 -18.667 9 -26 17c-20.667 20.667 -31 51 -31 91v191c0 25.333 -6.5 45.166 -19.5 59.499s-29.5 21.5 -49.5 21.5h-17v50h23c34.667 0 63 -11 85 -33c22.667 -22.667 34 -55 34 -97v-194c0 -26 6.33301 -46 19 -60s29 -21 49 -21h18v-50z" />
    <glyph glyph-name="asciitilde" unicode="~" horiz-adv-x="431" 
d="M385 283c-20.667 -20.667 -37.998 -34.666 -51.998 -41.999s-29.667 -11 -47 -11s-44.333 8 -81 24c-27.333 12.667 -47.333 19 -60 19c-11.333 0 -21.333 -2.33301 -30 -7s-20 -14 -34 -28l-34 34c21.333 21.333 38.666 35.666 51.999 42.999s28.666 11 45.999 11
c15.333 0 42.333 -8.33301 81 -25c25.333 -12 45.333 -18 60 -18c12 0 22.333 2.16699 31 6.5s20 13.5 34 27.5z" />
    <glyph glyph-name="uni00A0" unicode="&#xa0;" horiz-adv-x="194" 
 />
    <glyph glyph-name="exclamdown" unicode="&#xa1;" horiz-adv-x="227" 
d="M127 -203h-56v525h56v-525zM137 434h-75v75h75v-75z" />
    <glyph glyph-name="cent" unicode="&#xa2;" horiz-adv-x="342" 
d="M304 242c-1.33301 -47.333 -12.999 -81.999 -34.999 -103.999c-17.333 -16.667 -40 -27 -68 -31v-107h-45v108c-29.333 4 -53.333 16.333 -72 37c-14.667 16.667 -24.667 41 -30 73s-8 78.333 -8 139s2.66699 107 8 139s15.333 56.333 30 73
c18.667 20.667 42.667 33 72 37v106h45v-105c27.333 -3.33301 49.666 -13 66.999 -29c22.667 -22 34.667 -57.333 36 -106h-55c0 32 -6.33301 54.667 -19 68c-7.33301 8 -17 13.667 -29 17v-400c10.667 3.33301 19.667 8.66602 27 15.999c14 14 21 37 21 69h55z
M156.001 158.001v398.004c-11.333 -4 -20.666 -10 -27.999 -18c-10.667 -12.667 -17.667 -31.834 -21 -57.501s-5 -66.834 -5 -123.501s1.66699 -97.834 5 -123.501s10.333 -44.834 21 -57.501c7.33301 -8 16.666 -14 27.999 -18z" />
    <glyph glyph-name="sterling" unicode="&#xa3;" horiz-adv-x="393" 
d="M362 0l-262.999 0.000976562v351h-64v44h64v167c0 49.333 14.5 88 43.5 116s64.5 42 106.5 42c47.333 0 85 -16.667 113 -50l-42 -38c-16.667 23.333 -40.334 35 -71.001 35c-26 0 -47.667 -9.33301 -65 -28s-26 -43.334 -26 -74.001v-170h91v-44h-91v-298h204v-53z" />
    <glyph glyph-name="currency" unicode="&#xa4;" horiz-adv-x="478" 
d="M432 113l-35 -35l-57 57c-30 -22.667 -63.667 -34 -101 -34s-71 11.333 -101 34l-56 -57l-36 35l57 57c-22.667 30 -34 63.667 -34 101c0 38 11.333 71.667 34 101l-57 56l36 35l56 -56c29.333 22 63 33 101 33s71.667 -11 101 -33l57 56l35 -35l-57 -56
c22.667 -29.333 34 -63 34 -101c0 -37.333 -11.333 -71 -34 -101zM358 271c0 32.667 -11.5 60.5 -34.5 83.5s-51.167 34.5 -84.5 34.5c-32.667 0 -60.5 -11.5 -83.5 -34.5s-34.5 -50.833 -34.5 -83.5c0 -33.333 11.5 -61.5 34.5 -84.5s50.833 -34.5 83.5 -34.5
s60.667 11.667 84 35s35 51.333 35 84z" />
    <glyph glyph-name="yen" unicode="&#xa5;" horiz-adv-x="315" 
d="M310 712l-92 -309h51v-44h-64l-19 -61v-40h83v-44h-83v-214h-58v214h-83v44h83v40l-17 61h-66v44h52l-92 309h63l89 -326l90 326h63z" />
    <glyph glyph-name="brokenbar" unicode="&#xa6;" horiz-adv-x="251" 
d="M153 437h-56v348h56v-348zM153 -73h-56v348h56v-348z" />
    <glyph glyph-name="section" unicode="&#xa7;" horiz-adv-x="389" 
d="M330 271c0 -45.333 -2.83887 -78.8311 -8.50586 -100.498s-16.167 -39.834 -31.5 -54.501c-15.333 -14 -33.666 -23 -54.999 -27c12.667 -7.33301 21.834 -13 27.501 -17s12.334 -9.66699 20.001 -17s14.167 -15.333 19.5 -24c12.667 -21.333 19 -47 19 -77
c0 -40 -12 -72.333 -36 -97s-55.333 -37 -94 -37c-36 0 -66 12 -90 36c-24.667 24 -37 56.333 -37 97h56c0 -24.667 7.66699 -45.667 23 -63c11.333 -13.333 27.333 -20 48 -20c22.667 0 40.334 7 53.001 21c13.333 13.333 20 33.666 20 60.999c0 24 -4.33301 42.333 -13 55
c-9.33301 14.667 -25.666 28.334 -48.999 41.001l-66 37c-16 8.66699 -28.333 17.334 -37 26.001c-16.667 16.667 -27.5 36.167 -32.5 58.5s-7.5 56.166 -7.5 101.499c0 44.667 3 78 9 100s16.667 40.333 32 55c14 14 32 23 54 27c-33.333 18.667 -56.333 39 -69 61
c-10.667 19.333 -16 43 -16 71c0 38 12.667 69 38 93c22.667 22.667 52.667 34 90 34c34.667 0 63.334 -10.333 86.001 -31c24.667 -24 37.667 -57.333 39 -100h-56c0 24.667 -7.33301 45.334 -22 62.001c-12.667 12.667 -28.334 19 -47.001 19c-20.667 0 -37 -6 -49 -18
c-14.667 -14 -22 -32.667 -22 -56c0 -22.667 3.66699 -39.667 11 -51c8 -14.667 22.667 -28 44 -40l66 -36c20 -10.667 34.667 -20.667 44 -30c16.667 -16.667 27.334 -35.334 32.001 -56.001s7 -55.334 7 -104.001zM273.994 271.002c0 39.333 -1.66699 67.501 -5 84.501
s-10.333 30.833 -21 41.5c-14 14.667 -32 22 -54 22c-20.667 0 -38 -7 -52 -21c-10 -10 -17 -23.667 -21 -41s-6 -46 -6 -86c0 -38 2 -66 6 -84s11 -32 21 -42c14 -14 31.333 -21 52 -21c22 0 40 7 54 21c10 11.333 16.833 25.666 20.5 42.999s5.5 45 5.5 83z" />
    <glyph glyph-name="dieresis" unicode="&#xa8;" horiz-adv-x="354" 
d="M278 606h-64v63h64v-63zM140 606h-63v63h63v-63z" />
    <glyph glyph-name="copyright" unicode="&#xa9;" horiz-adv-x="862" 
d="M793 356c0 -100 -35.333 -185.333 -106 -256s-156 -106 -256 -106s-185.333 35.333 -256 106s-106 156 -106 256s35.333 185.333 106 256s156 106 256 106s185.333 -35.333 256 -106s106 -156 106 -256zM747 356c0 88.667 -30.833 164.334 -92.5 227.001
s-136.167 94 -223.5 94s-162 -31.333 -224 -94s-93 -138.334 -93 -227.001s31 -164.334 93 -227.001s136.667 -94 224 -94s161.833 31.333 223.5 94s92.5 138.334 92.5 227.001zM525 262c0 -38.667 -9 -66.9971 -27 -84.9971c-16.667 -17.333 -39 -26 -67 -26s-51 10 -69 30
c-11.333 13.333 -19 32.666 -23 57.999s-6 64.333 -6 117s2 91.667 6 117s11.667 44.666 23 57.999c18 20 41 30 69 30s50.333 -8.66699 67 -26c18 -18.667 27 -47.334 27 -86.001h-42c0 28 -5.33301 47.333 -16 58c-10 10 -22 15 -36 15c-14.667 0 -27 -5.66699 -37 -17
c-12.667 -15.333 -19 -65 -19 -149c0 -48 1.16699 -82.5 3.5 -103.5s7.5 -36.167 15.5 -45.5c10 -11.333 22.333 -17 37 -17c14 0 26 5 36 15c10.667 10.667 16 29.667 16 57h42z" />
    <glyph glyph-name="ordfeminine" unicode="&#xaa;" horiz-adv-x="297" 
d="M246 320h-45.001v33c-4.66699 -8 -12.334 -16.333 -23.001 -25c-14 -9.33301 -30.667 -14 -50 -14c-26 0 -48.333 9.33301 -67 28c-18.667 20 -28 49 -28 87c0 36.667 13 66.334 39 89.001c18.667 16.667 45.334 25 80.001 25h46v66
c0 19.333 -4.83301 35.166 -14.5 47.499s-23.5 18.5 -41.5 18.5c-15.333 0 -28.333 -5.33301 -39 -16c-11.333 -12 -17 -30.667 -17 -56h-47c0 37.333 10 66 30 86c18 18 42.333 27 73 27s55.334 -9.33301 74.001 -28c20 -20 30 -47.333 30 -82v-286zM197.999 431v75h-45
c-20.667 0 -36.667 -5 -48 -15c-16 -16 -24 -36.333 -24 -61c0 -50 19.333 -75 58 -75c17.333 0 31.5 7.16699 42.5 21.5s16.5 32.5 16.5 54.5z" />
    <glyph glyph-name="guillemotleft" unicode="&#xab;" horiz-adv-x="371" 
d="M316 58l-136 210l136 210v-96l-76 -114l76 -115v-95zM164 58l-135 210l135 210v-96l-75 -114l75 -115v-95z" />
    <glyph glyph-name="logicalnot" unicode="&#xac;" horiz-adv-x="431" 
d="M381 151h-53v104h-278v53h331v-157z" />
    <glyph glyph-name="uni00AD" unicode="&#xad;" horiz-adv-x="301" 
d="M246 251h-191v53h191v-53z" />
    <glyph glyph-name="registered" unicode="&#xae;" horiz-adv-x="862" 
d="M793 356c0 -100 -35.333 -185.333 -106 -256s-156 -106 -256 -106s-185.333 35.333 -256 106s-106 156 -106 256s35.333 185.333 106 256s156 106 256 106s185.333 -35.333 256 -106s106 -156 106 -256zM747 356c0 88.667 -30.833 164.334 -92.5 227.001
s-136.167 94 -223.5 94s-162 -31.333 -224 -94s-93 -138.334 -93 -227.001s31 -164.334 93 -227.001s136.667 -94 224 -94s161.833 31.333 223.5 94s92.5 138.334 92.5 227.001zM543 157l-45 0.000976562l-54 174h-58v-174h-43v399h98c26 0 47.333 -7.66699 64 -23
c17.333 -17.333 26 -47.333 26 -90c0 -24.667 -1.83301 -43.167 -5.5 -55.5s-10.5 -23.5 -20.5 -33.5c-4.66699 -4.66699 -11.667 -9.33398 -21 -14.001zM489 443.001c0 29.333 -5 49.333 -15 60c-8.66699 8.66699 -19.334 13 -32.001 13h-56v-146h56
c12.667 0 23.334 4.33301 32.001 13c10 10.667 15 30.667 15 60z" />
    <glyph glyph-name="macron" unicode="&#xaf;" horiz-adv-x="354" 
d="M283 611h-212v45h212v-45z" />
    <glyph glyph-name="degree" unicode="&#xb0;" horiz-adv-x="382" 
d="M327 585c0 -37.333 -13.333 -69.333 -40 -96s-58.667 -40 -96 -40s-69.166 13.333 -95.499 40s-39.5 58.667 -39.5 96s13.167 69.166 39.5 95.499s58.166 39.5 95.499 39.5s69.333 -13.167 96 -39.5s40 -58.166 40 -95.499zM277 585
c0 24.667 -8.16699 45.334 -24.5 62.001s-36.833 25 -61.5 25s-45.167 -8.33301 -61.5 -25s-24.5 -37.334 -24.5 -62.001c0 -25.333 8.16699 -46.333 24.5 -63s36.833 -25 61.5 -25s45.167 8.33301 61.5 25s24.5 37.667 24.5 63z" />
    <glyph glyph-name="plusminus" unicode="&#xb1;" horiz-adv-x="431" 
d="M383 286h-141v-141h-53v141h-140v53h140v141h53v-141h141v-53zM383 36h-334v53h334v-53z" />
    <glyph glyph-name="twosuperior" unicode="&#xb2;" 
d="M242 285l-204 0.000976562v37l137 218c16 26 24 52.333 24 79c0 18 -5.5 32.5 -16.5 43.5s-25.5 16.5 -43.5 16.5c-39.333 0 -59 -23 -59 -69v-18h-43v17c0 36.667 9 63.667 27 81c19.333 18 44.333 27 75 27c28.667 0 53 -8 73 -24s30 -40.667 30 -74
c0 -32.667 -10 -65.334 -30 -98.001l-124 -198h154v-38z" />
    <glyph glyph-name="threesuperior" unicode="&#xb3;" 
d="M245 399c0 -24.667 -2.16797 -43.668 -6.50098 -57.001s-12.166 -25.333 -23.499 -36c-17.333 -17.333 -42.333 -26 -75 -26c-32 0 -57.667 9 -77 27c-16.667 18 -25 46.333 -25 85v13h43v-13c0 -29.333 6 -49 18 -59c10 -10 23.667 -15 41 -15c18 0 32 5 42 15
c13.333 13.333 20 35.666 20 66.999c0 32 -5.66699 54.667 -17 68c-10.667 12.667 -25.667 19 -45 19h-29v38h29c15.333 0 28.666 4.66699 39.999 14c12.667 12 19 34.667 19 68c0 28 -6.33301 47.333 -19 58c-8.66699 9.33301 -22 14 -40 14s-32 -5 -42 -15
c-10.667 -10.667 -16 -28.667 -16 -54v-13h-43v12c0 38 8.33301 65 25 81c20 18 45.333 27 76 27s55.334 -8.66699 74.001 -26c18.667 -18 28 -46 28 -84c0 -32 -6 -56 -18 -72c-10.667 -13.333 -23.667 -23 -39 -29c18 -5.33301 32 -15.666 42 -30.999
c12 -17.333 18 -42.666 18 -75.999z" />
    <glyph glyph-name="acute" unicode="&#xb4;" horiz-adv-x="354" 
d="M273 716l-75 -130h-49l66 130h58z" />
    <glyph glyph-name="mu" unicode="&#xb5;" horiz-adv-x="378" 
d="M315 0h-55v41c-6.66699 -12 -16.334 -22.333 -29.001 -31c-17.333 -12 -36.666 -18 -57.999 -18c-27.333 0 -46 7 -56 21v-217h-55v713h56v-384c0 -26.667 6.5 -47.167 19.5 -61.5s29.833 -21.5 50.5 -21.5s37.667 7.16699 51 21.5s20 34.833 20 61.5v384h56v-509z" />
    <glyph glyph-name="paragraph" unicode="&#xb6;" horiz-adv-x="538" 
d="M475 -204h-56v864h-120v-864h-56v511h-56c-94 0 -141 67.333 -141 202c0 135.333 47 203 141 203h288v-916z" />
    <glyph glyph-name="periodcentered" unicode="&#xb7;" horiz-adv-x="259" 
d="M191 245h-123v123h123v-123z" />
    <glyph glyph-name="cedilla" unicode="&#xb8;" horiz-adv-x="354" 
d="M209 -37l-46 -134h-53l53 134h46z" />
    <glyph glyph-name="onesuperior" unicode="&#xb9;" 
d="M174 285h-43v379l-69 -47v47l69 48h43v-427z" />
    <glyph glyph-name="ordmasculine" unicode="&#xba;" horiz-adv-x="296" 
d="M254 515c0 -91.333 -10.333 -148 -31 -170c-18.667 -20.667 -43.667 -31 -75 -31c-32 0 -57.333 10.333 -76 31c-12 12.667 -20 32 -24 58s-6 63.333 -6 112s2 86 6 112s12 45.333 24 58c18 20 43.333 30 76 30c32 0 57 -10 75 -30c20.667 -22 31 -78.667 31 -170z
M207 515c0 77.333 -7 124.667 -21 142c-8.66699 10.667 -21.334 16 -38.001 16c-17.333 0 -30.333 -5.33301 -39 -16c-13.333 -16.667 -20 -64 -20 -142c0 -79.333 6.66699 -127 20 -143c8.66699 -10.667 21.667 -16 39 -16c16.667 0 29.334 5.33301 38.001 16
c14 17.333 21 65 21 143z" />
    <glyph glyph-name="guillemotright" unicode="&#xbb;" horiz-adv-x="371" 
d="M342 268l-136 -210v95l76 115l-76 114v96zM191 268l-136 -210v95l76 115l-76 114v96z" />
    <glyph glyph-name="onequarter" unicode="&#xbc;" horiz-adv-x="708" 
d="M174 285h-43v379l-69 -47v47l69 48h43v-427zM501 712l-247 -712h-47l247 712h47zM682 64h-32v-64h-43v64h-148v38l125 325h43l-124 -325h104v103h43v-103h32v-38z" />
    <glyph glyph-name="onehalf" unicode="&#xbd;" horiz-adv-x="708" 
d="M174 285h-43v379l-69 -47v47l69 48h43v-427zM501 712l-247 -712h-47l247 712h47zM673 0l-204 0.000976562v37l137 218c16 26 24 52.333 24 79c0 18 -5.5 32.5 -16.5 43.5s-25.5 16.5 -43.5 16.5c-39.333 0 -59 -23 -59 -69v-18h-43v17c0 36.667 9 63.667 27 81
c19.333 18 44.333 27 75 27c28.667 0 53 -8 73 -24s30 -40.667 30 -74c0 -32.667 -10 -65.334 -30 -98.001l-124 -198h154v-38z" />
    <glyph glyph-name="threequarters" unicode="&#xbe;" horiz-adv-x="708" 
d="M245 399c0 -24.667 -2.16797 -43.668 -6.50098 -57.001s-12.166 -25.333 -23.499 -36c-17.333 -17.333 -42.333 -26 -75 -26c-32 0 -57.667 9 -77 27c-16.667 18 -25 46.333 -25 85v13h43v-13c0 -29.333 6 -49 18 -59c10 -10 23.667 -15 41 -15c18 0 32 5 42 15
c13.333 13.333 20 35.666 20 66.999c0 32 -5.66699 54.667 -17 68c-10.667 12.667 -25.667 19 -45 19h-29v38h29c15.333 0 28.666 4.66699 39.999 14c12.667 12 19 34.667 19 68c0 28 -6.33301 47.333 -19 58c-8.66699 9.33301 -22 14 -40 14s-32 -5 -42 -15
c-10.667 -10.667 -16 -28.667 -16 -54v-13h-43v12c0 38 8.33301 65 25 81c20 18 45.333 27 76 27s55.334 -8.66699 74.001 -26c18.667 -18 28 -46 28 -84c0 -32 -6 -56 -18 -72c-10.667 -13.333 -23.667 -23 -39 -29c18 -5.33301 32 -15.666 42 -30.999
c12 -17.333 18 -42.666 18 -75.999zM500.999 711.999l-247 -712h-47l247 712h47zM681.999 63.999h-32v-64h-43v64h-148v38l125 325h43l-124 -325h104v103h43v-103h32v-38z" />
    <glyph glyph-name="questiondown" unicode="&#xbf;" horiz-adv-x="375" 
d="M317 -53c0 -54 -12.999 -93.666 -38.999 -118.999c-24.667 -24.667 -56.667 -37 -96 -37c-42 0 -75 12.333 -99 37c-26.667 27.333 -40 72 -40 134c0 46 9.66699 84.333 29 115l58 93c14 21.333 21 46 21 74v78h56v-85c0 -30 -8 -57.667 -24 -83l-58 -92
c-17.333 -27.333 -26 -61 -26 -101c0 -45.333 9.33301 -78 28 -98c13.333 -14.667 31.666 -22 54.999 -22c21.333 0 39 7 53 21c17.333 17.333 26 45.666 26 84.999h56zM217.001 434.001h-75v75h75v-75z" />
    <glyph glyph-name="Agrave" unicode="&#xc0;" horiz-adv-x="379" 
d="M374 0h-63l-39 195h-166l-38 -195h-64l159 712h55zM261 248l-72 358l-71 -358h143zM219 764h-49l-75 130h59z" />
    <glyph glyph-name="Aacute" unicode="&#xc1;" horiz-adv-x="379" 
d="M374 0h-63l-39 195h-166l-38 -195h-64l159 712h55zM261 248l-72 358l-71 -358h143zM288 894l-75 -130h-49l65 130h59z" />
    <glyph glyph-name="Acircumflex" unicode="&#xc2;" horiz-adv-x="379" 
d="M374 0h-63l-39 195h-166l-38 -195h-64l159 712h55zM261 248l-72 358l-71 -358h143zM303 764h-52l-59 92l-60 -92h-52l87 130h50z" />
    <glyph glyph-name="Atilde" unicode="&#xc3;" horiz-adv-x="379" 
d="M374 0h-63l-39 195h-166l-38 -195h-64l159 712h55zM261 248l-72 358l-71 -358h143zM311 813c-26 -25.333 -49.666 -38 -70.999 -38c-15.333 0 -33.333 5.66699 -54 17c-16.667 10.667 -30.667 16 -42 16c-12.667 0 -27 -8 -43 -24l-28 29
c25.333 25.333 48.666 38 69.999 38c17.333 0 35.333 -5.66699 54 -17c18 -10.667 32 -16 42 -16c12.667 0 27 8 43 24z" />
    <glyph glyph-name="Adieresis" unicode="&#xc4;" horiz-adv-x="379" 
d="M374 0h-63l-39 195h-166l-38 -195h-64l159 712h55zM261 248l-72 358l-71 -358h143zM292 784h-63v63h63v-63zM154 784h-63v63h63v-63z" />
    <glyph glyph-name="Aring" unicode="&#xc5;" horiz-adv-x="379" 
d="M374 0h-63l-39 195h-166l-38 -195h-64l159 712h55zM261 248l-72 358l-71 -358h143zM283 842c0 -24.667 -9 -46 -27 -64s-39.333 -27 -64 -27c-25.333 0 -46.833 8.83301 -64.5 26.5s-26.5 39.167 -26.5 64.5s8.83301 46.833 26.5 64.5s39.167 26.5 64.5 26.5
c24.667 0 46 -9 64 -27s27 -39.333 27 -64zM244 842c0 14.667 -5.16699 27 -15.5 37s-22.5 15 -36.5 15c-14.667 0 -27.167 -5 -37.5 -15s-15.5 -22.333 -15.5 -37s5.16699 -27.167 15.5 -37.5s22.833 -15.5 37.5 -15.5c14 0 26.167 5.16699 36.5 15.5
s15.5 22.833 15.5 37.5z" />
    <glyph glyph-name="AE" unicode="&#xc6;" horiz-adv-x="604" 
d="M558 0h-249v197h-168l-72 -197h-64l265 712h288v-53h-190v-276h164v-53h-164v-277h190v-53zM309 250v410l-149 -410h149z" />
    <glyph glyph-name="Ccedilla" unicode="&#xc7;" horiz-adv-x="399" 
d="M358 163c-1.33301 -62 -17.998 -107.666 -49.998 -136.999c-24.667 -22.667 -57.334 -34 -98.001 -34c-44.667 0 -80 14 -106 42c-21.333 22.667 -35 53.5 -41 92.5s-9 115.5 -9 229.5s3 190.5 9 229.5s19.667 69.833 41 92.5c26 28 61.333 42 106 42
c42.667 0 76.667 -12.667 102 -38c29.333 -29.333 44.666 -73.666 45.999 -132.999h-59c0 43.333 -9.33301 74.666 -28 93.999c-14.667 16 -35 24 -61 24c-26.667 0 -47.667 -8.66699 -63 -26c-14.667 -16.667 -24 -42.167 -28 -76.5s-6 -103.833 -6 -208.5
s2 -174.167 6 -208.5s13.333 -59.833 28 -76.5c15.333 -17.333 36.333 -26 63 -26c26 0 46.333 8 61 24c18.667 19.333 28 50.666 28 93.999h59zM236.002 -36.999l-46 -134h-53l53 134h46z" />
    <glyph glyph-name="Egrave" unicode="&#xc8;" horiz-adv-x="364" 
d="M317 0h-248v712h248v-53h-189v-276h163v-53h-163v-277h189v-53zM225 764h-49l-75 130h59z" />
    <glyph glyph-name="Eacute" unicode="&#xc9;" horiz-adv-x="364" 
d="M317 0h-248v712h248v-53h-189v-276h163v-53h-163v-277h189v-53zM294 894l-75 -130h-49l65 130h59z" />
    <glyph glyph-name="Ecircumflex" unicode="&#xca;" horiz-adv-x="364" 
d="M317 0h-248v712h248v-53h-189v-276h163v-53h-163v-277h189v-53zM309 764h-52l-59 92l-60 -92h-52l87 130h50z" />
    <glyph glyph-name="Edieresis" unicode="&#xcb;" horiz-adv-x="364" 
d="M317 0h-248v712h248v-53h-189v-276h163v-53h-163v-277h189v-53zM298 784h-63v63h63v-63zM160 784h-63v63h63v-63z" />
    <glyph glyph-name="Igrave" unicode="&#xcc;" horiz-adv-x="197" 
d="M128 0h-59v712h59v-712zM126 764h-49l-75 130h59z" />
    <glyph glyph-name="Iacute" unicode="&#xcd;" horiz-adv-x="197" 
d="M128 0h-59v712h59v-712zM195 894l-75 -130h-49l65 130h59z" />
    <glyph glyph-name="Icircumflex" unicode="&#xce;" horiz-adv-x="197" 
d="M128 0h-59v712h59v-712zM210 764h-52l-59 92l-60 -92h-52l87 130h50z" />
    <glyph glyph-name="Idieresis" unicode="&#xcf;" horiz-adv-x="197" 
d="M128 0h-59v712h59v-712zM199 784h-63v63h63v-63zM61 784h-63v63h63v-63z" />
    <glyph glyph-name="Eth" unicode="&#xd0;" horiz-adv-x="429" 
d="M375 356c0 -110.667 -2.83301 -185.167 -8.5 -223.5s-19.5 -68.833 -41.5 -91.5c-26 -27.333 -61 -41 -105 -41h-147v332h-53v49h53v331h147c44 0 79 -13.667 105 -41c22 -22.667 35.833 -53.167 41.5 -91.5s8.5 -112.833 8.5 -223.5zM316 356
c0 103.333 -2 171.331 -6 203.998s-13.667 57.334 -29 74.001s-36.666 25 -63.999 25h-85v-278h91v-49h-91v-279h85c27.333 0 48.666 8.33301 63.999 25s25 41.334 29 74.001s6 100.667 6 204z" />
    <glyph glyph-name="Ntilde" unicode="&#xd1;" horiz-adv-x="454" 
d="M385 0h-58l-199 555v-555h-59v712h59l198 -555v555h59v-712zM346 813c-26 -25.333 -49.666 -38 -70.999 -38c-15.333 0 -33.333 5.66699 -54 17c-16.667 10.667 -30.667 16 -42 16c-12.667 0 -27 -8 -43 -24l-28 29c25.333 25.333 48.666 38 69.999 38
c17.333 0 35.333 -5.66699 54 -17c18 -10.667 32 -16 42 -16c12.667 0 27 8 43 24z" />
    <glyph glyph-name="Ograve" unicode="&#xd2;" horiz-adv-x="421" 
d="M367 356c0 -114 -3 -190.5 -9 -229.5s-19.667 -69.833 -41 -92.5c-26 -28 -61.667 -42 -107 -42c-44.667 0 -80 14 -106 42c-21.333 22.667 -35 53.5 -41 92.5s-9 115.5 -9 229.5s3 190.5 9 229.5s19.667 69.833 41 92.5c26 28 61.333 42 106 42c45.333 0 81 -14 107 -42
c21.333 -22.667 35 -53.5 41 -92.5s9 -115.5 9 -229.5zM308 356c0 104.667 -2 174.167 -6 208.5s-13.333 59.833 -28 76.5c-15.333 17.333 -36.666 26 -63.999 26c-26.667 0 -47.667 -8.66699 -63 -26c-14.667 -16.667 -24 -42.167 -28 -76.5s-6 -103.833 -6 -208.5
s2 -174.167 6 -208.5s13.333 -59.833 28 -76.5c15.333 -17.333 36.333 -26 63 -26c27.333 0 48.666 8.66699 63.999 26c14.667 16.667 24 42.167 28 76.5s6 103.833 6 208.5zM238 764h-49l-75 130h59z" />
    <glyph glyph-name="Oacute" unicode="&#xd3;" horiz-adv-x="421" 
d="M367 356c0 -114 -3 -190.5 -9 -229.5s-19.667 -69.833 -41 -92.5c-26 -28 -61.667 -42 -107 -42c-44.667 0 -80 14 -106 42c-21.333 22.667 -35 53.5 -41 92.5s-9 115.5 -9 229.5s3 190.5 9 229.5s19.667 69.833 41 92.5c26 28 61.333 42 106 42c45.333 0 81 -14 107 -42
c21.333 -22.667 35 -53.5 41 -92.5s9 -115.5 9 -229.5zM308 356c0 104.667 -2 174.167 -6 208.5s-13.333 59.833 -28 76.5c-15.333 17.333 -36.666 26 -63.999 26c-26.667 0 -47.667 -8.66699 -63 -26c-14.667 -16.667 -24 -42.167 -28 -76.5s-6 -103.833 -6 -208.5
s2 -174.167 6 -208.5s13.333 -59.833 28 -76.5c15.333 -17.333 36.333 -26 63 -26c27.333 0 48.666 8.66699 63.999 26c14.667 16.667 24 42.167 28 76.5s6 103.833 6 208.5zM307 894l-75 -130h-49l65 130h59z" />
    <glyph glyph-name="Ocircumflex" unicode="&#xd4;" horiz-adv-x="421" 
d="M367 356c0 -114 -3 -190.5 -9 -229.5s-19.667 -69.833 -41 -92.5c-26 -28 -61.667 -42 -107 -42c-44.667 0 -80 14 -106 42c-21.333 22.667 -35 53.5 -41 92.5s-9 115.5 -9 229.5s3 190.5 9 229.5s19.667 69.833 41 92.5c26 28 61.333 42 106 42c45.333 0 81 -14 107 -42
c21.333 -22.667 35 -53.5 41 -92.5s9 -115.5 9 -229.5zM308 356c0 104.667 -2 174.167 -6 208.5s-13.333 59.833 -28 76.5c-15.333 17.333 -36.666 26 -63.999 26c-26.667 0 -47.667 -8.66699 -63 -26c-14.667 -16.667 -24 -42.167 -28 -76.5s-6 -103.833 -6 -208.5
s2 -174.167 6 -208.5s13.333 -59.833 28 -76.5c15.333 -17.333 36.333 -26 63 -26c27.333 0 48.666 8.66699 63.999 26c14.667 16.667 24 42.167 28 76.5s6 103.833 6 208.5zM322 764h-52l-59 92l-60 -92h-52l87 130h50z" />
    <glyph glyph-name="Otilde" unicode="&#xd5;" horiz-adv-x="421" 
d="M367 356c0 -114 -3 -190.5 -9 -229.5s-19.667 -69.833 -41 -92.5c-26 -28 -61.667 -42 -107 -42c-44.667 0 -80 14 -106 42c-21.333 22.667 -35 53.5 -41 92.5s-9 115.5 -9 229.5s3 190.5 9 229.5s19.667 69.833 41 92.5c26 28 61.333 42 106 42c45.333 0 81 -14 107 -42
c21.333 -22.667 35 -53.5 41 -92.5s9 -115.5 9 -229.5zM308 356c0 104.667 -2 174.167 -6 208.5s-13.333 59.833 -28 76.5c-15.333 17.333 -36.666 26 -63.999 26c-26.667 0 -47.667 -8.66699 -63 -26c-14.667 -16.667 -24 -42.167 -28 -76.5s-6 -103.833 -6 -208.5
s2 -174.167 6 -208.5s13.333 -59.833 28 -76.5c15.333 -17.333 36.333 -26 63 -26c27.333 0 48.666 8.66699 63.999 26c14.667 16.667 24 42.167 28 76.5s6 103.833 6 208.5zM330 813c-26 -25.333 -49.666 -38 -70.999 -38c-15.333 0 -33.333 5.66699 -54 17
c-16.667 10.667 -30.667 16 -42 16c-12.667 0 -27 -8 -43 -24l-28 29c25.333 25.333 48.666 38 69.999 38c17.333 0 35.333 -5.66699 54 -17c18 -10.667 32 -16 42 -16c12.667 0 27 8 43 24z" />
    <glyph glyph-name="Odieresis" unicode="&#xd6;" horiz-adv-x="421" 
d="M367 356c0 -114 -3 -190.5 -9 -229.5s-19.667 -69.833 -41 -92.5c-26 -28 -61.667 -42 -107 -42c-44.667 0 -80 14 -106 42c-21.333 22.667 -35 53.5 -41 92.5s-9 115.5 -9 229.5s3 190.5 9 229.5s19.667 69.833 41 92.5c26 28 61.333 42 106 42c45.333 0 81 -14 107 -42
c21.333 -22.667 35 -53.5 41 -92.5s9 -115.5 9 -229.5zM308 356c0 104.667 -2 174.167 -6 208.5s-13.333 59.833 -28 76.5c-15.333 17.333 -36.666 26 -63.999 26c-26.667 0 -47.667 -8.66699 -63 -26c-14.667 -16.667 -24 -42.167 -28 -76.5s-6 -103.833 -6 -208.5
s2 -174.167 6 -208.5s13.333 -59.833 28 -76.5c15.333 -17.333 36.333 -26 63 -26c27.333 0 48.666 8.66699 63.999 26c14.667 16.667 24 42.167 28 76.5s6 103.833 6 208.5zM311 784h-63v63h63v-63zM173 784h-63v63h63v-63z" />
    <glyph glyph-name="multiply" unicode="&#xd7;" horiz-adv-x="431" 
d="M370 152l-37 -37l-117 118l-118 -118l-36 37l117 117l-117 118l36 36l118 -117l117 117l37 -36l-118 -118z" />
    <glyph glyph-name="Oslash" unicode="&#xd8;" horiz-adv-x="405" 
d="M367 356c0 -114 -2.99902 -190.5 -8.99902 -229.5s-19.667 -69.833 -41 -92.5c-26 -28 -61.667 -42 -107 -42c-30 0 -56.333 6.66699 -79 20l-17 -56h-50l29 90c-16.667 21.333 -27.334 52.166 -32.001 92.499s-7 112.833 -7 217.5c0 114 3 190.5 9 229.5
s19.667 69.833 41 92.5c26 28 61.333 42 106 42c31.333 0 58 -7 80 -21l17 57h50l-28 -91c16 -21.333 26.333 -52.166 31 -92.499s7 -112.5 7 -216.5zM272.001 644c-14 15.333 -34.667 23 -62 23c-26.667 0 -47.667 -8.66699 -63 -26c-14.667 -16.667 -24 -42.167 -28 -76.5
s-6 -103.833 -6 -208.5c0 -122.667 3.66699 -198 11 -226zM308.001 356c0 120.667 -3.33105 195.667 -9.99805 225l-149 -513c13.333 -15.333 33.666 -23 60.999 -23s48.666 8.66699 63.999 26c14.667 16.667 24 42.167 28 76.5s6 103.833 6 208.5z" />
    <glyph glyph-name="Ugrave" unicode="&#xd9;" horiz-adv-x="417" 
d="M356 148c0 -48.667 -14 -87 -42 -115c-28.667 -27.333 -63.667 -41 -105 -41s-76.333 13.667 -105 41c-28.667 28.667 -43 67 -43 115v564h59v-569c0 -30 8.5 -53.833 25.5 -71.5s38.167 -26.5 63.5 -26.5s46.333 8.83301 63 26.5s25 41.5 25 71.5v569h59v-564zM237 764
h-49l-75 130h59z" />
    <glyph glyph-name="Uacute" unicode="&#xda;" horiz-adv-x="417" 
d="M356 148c0 -48.667 -14 -87 -42 -115c-28.667 -27.333 -63.667 -41 -105 -41s-76.333 13.667 -105 41c-28.667 28.667 -43 67 -43 115v564h59v-569c0 -30 8.5 -53.833 25.5 -71.5s38.167 -26.5 63.5 -26.5s46.333 8.83301 63 26.5s25 41.5 25 71.5v569h59v-564zM306 894
l-75 -130h-49l65 130h59z" />
    <glyph glyph-name="Ucircumflex" unicode="&#xdb;" horiz-adv-x="417" 
d="M356 148c0 -48.667 -14 -87 -42 -115c-28.667 -27.333 -63.667 -41 -105 -41s-76.333 13.667 -105 41c-28.667 28.667 -43 67 -43 115v564h59v-569c0 -30 8.5 -53.833 25.5 -71.5s38.167 -26.5 63.5 -26.5s46.333 8.83301 63 26.5s25 41.5 25 71.5v569h59v-564zM321 764
h-52l-59 92l-60 -92h-52l87 130h50z" />
    <glyph glyph-name="Udieresis" unicode="&#xdc;" horiz-adv-x="417" 
d="M356 148c0 -48.667 -14 -87 -42 -115c-28.667 -27.333 -63.667 -41 -105 -41s-76.333 13.667 -105 41c-28.667 28.667 -43 67 -43 115v564h59v-569c0 -30 8.5 -53.833 25.5 -71.5s38.167 -26.5 63.5 -26.5s46.333 8.83301 63 26.5s25 41.5 25 71.5v569h59v-564zM310 784
h-63v63h63v-63zM172 784h-63v63h63v-63z" />
    <glyph glyph-name="Yacute" unicode="&#xdd;" horiz-adv-x="315" 
d="M312 712l-125 -414v-298h-59v298l-125 414h65l89 -326l90 326h65zM257 894l-75 -130h-49l65 130h59z" />
    <glyph glyph-name="Thorn" unicode="&#xde;" horiz-adv-x="409" 
d="M363 360c0 -76.667 -13.5 -128.999 -40.5 -156.999s-64.833 -42 -113.5 -42h-81v-161h-59v712h59v-154h81c48.667 0 86.5 -13.833 113.5 -41.5s40.5 -79.834 40.5 -156.501zM304 359.001c0 56 -8.16699 94.333 -24.5 115s-40.5 31 -72.5 31h-79v-291h79
c32 0 56.167 10.167 72.5 30.5s24.5 58.5 24.5 114.5z" />
    <glyph glyph-name="germandbls" unicode="&#xdf;" horiz-adv-x="373" 
d="M328 224c0 -55.333 -2.33203 -96.499 -6.99902 -123.499s-15.667 -49.167 -33 -66.5c-22.667 -22.667 -55.667 -34 -99 -34v50c25.333 0 45 7 59 21c16 16 24 68 24 156c0 84 -8 135 -24 153c-12 14.667 -28.667 22 -50 22h-9v48h7c17.333 0 31.333 6.33301 42 19
c16 18 24 49 24 93c0 40.667 -7.33301 69.667 -22 87c-13.333 14 -30.333 21 -51 21s-37.667 -7.33301 -51 -22s-20 -35.334 -20 -62.001v-586h-56v584c0 43.333 12 77 36 101c24.667 23.333 55 35 91 35c38 0 68.333 -11.333 91 -34
c14.667 -15.333 24.667 -31.833 30 -49.5s8 -41.834 8 -72.501c0 -43.333 -6.33301 -76.333 -19 -99c-8.66699 -14.667 -20 -26.667 -34 -36c11.333 -5.33301 21.333 -13.666 30 -24.999c13.333 -14.667 22.166 -34 26.499 -58s6.5 -64.667 6.5 -122z" />
    <glyph glyph-name="agrave" unicode="&#xe0;" horiz-adv-x="352" 
d="M294 0h-54v46c-6.66699 -13.333 -16 -24.666 -28 -33.999c-18 -13.333 -38.333 -20 -61 -20c-32 0 -59 11.333 -81 34c-22 23.333 -33 61.666 -33 114.999c0 50.667 14.333 89 43 115c24.667 22.667 58 34 100 34h58v91c0 58 -23.333 87 -70 87
c-18 0 -33.333 -6.33301 -46 -19c-15.333 -16 -23 -39.667 -23 -71h-56c0 45.333 12.333 80.333 37 105c22.667 22.667 52 34 88 34c40.667 0 71 -10.667 91 -32c23.333 -24.667 35 -60 35 -106v-379zM238 134v112h-56c-26 0 -46.667 -7.33301 -62 -22
c-18 -18 -27 -45.333 -27 -82c0 -66.667 23.667 -100 71 -100c22 0 39.833 8.66699 53.5 26s20.5 39.333 20.5 66zM202 586h-49l-75 130h58z" />
    <glyph glyph-name="aacute" unicode="&#xe1;" horiz-adv-x="352" 
d="M294 0h-54v46c-6.66699 -13.333 -16 -24.666 -28 -33.999c-18 -13.333 -38.333 -20 -61 -20c-32 0 -59 11.333 -81 34c-22 23.333 -33 61.666 -33 114.999c0 50.667 14.333 89 43 115c24.667 22.667 58 34 100 34h58v91c0 58 -23.333 87 -70 87
c-18 0 -33.333 -6.33301 -46 -19c-15.333 -16 -23 -39.667 -23 -71h-56c0 45.333 12.333 80.333 37 105c22.667 22.667 52 34 88 34c40.667 0 71 -10.667 91 -32c23.333 -24.667 35 -60 35 -106v-379zM238 134v112h-56c-26 0 -46.667 -7.33301 -62 -22
c-18 -18 -27 -45.333 -27 -82c0 -66.667 23.667 -100 71 -100c22 0 39.833 8.66699 53.5 26s20.5 39.333 20.5 66zM268 716l-74 -130h-49l65 130h58z" />
    <glyph glyph-name="acircumflex" unicode="&#xe2;" horiz-adv-x="352" 
d="M294 0h-54v46c-6.66699 -13.333 -16 -24.666 -28 -33.999c-18 -13.333 -38.333 -20 -61 -20c-32 0 -59 11.333 -81 34c-22 23.333 -33 61.666 -33 114.999c0 50.667 14.333 89 43 115c24.667 22.667 58 34 100 34h58v91c0 58 -23.333 87 -70 87
c-18 0 -33.333 -6.33301 -46 -19c-15.333 -16 -23 -39.667 -23 -71h-56c0 45.333 12.333 80.333 37 105c22.667 22.667 52 34 88 34c40.667 0 71 -10.667 91 -32c23.333 -24.667 35 -60 35 -106v-379zM238 134v112h-56c-26 0 -46.667 -7.33301 -62 -22
c-18 -18 -27 -45.333 -27 -82c0 -66.667 23.667 -100 71 -100c22 0 39.833 8.66699 53.5 26s20.5 39.333 20.5 66zM283 586h-51l-60 92l-60 -92h-52l87 130h50z" />
    <glyph glyph-name="atilde" unicode="&#xe3;" horiz-adv-x="352" 
d="M294 0h-54v46c-6.66699 -13.333 -16 -24.666 -28 -33.999c-18 -13.333 -38.333 -20 -61 -20c-32 0 -59 11.333 -81 34c-22 23.333 -33 61.666 -33 114.999c0 50.667 14.333 89 43 115c24.667 22.667 58 34 100 34h58v91c0 58 -23.333 87 -70 87
c-18 0 -33.333 -6.33301 -46 -19c-15.333 -16 -23 -39.667 -23 -71h-56c0 45.333 12.333 80.333 37 105c22.667 22.667 52 34 88 34c40.667 0 71 -10.667 91 -32c23.333 -24.667 35 -60 35 -106v-379zM238 134v112h-56c-26 0 -46.667 -7.33301 -62 -22
c-18 -18 -27 -45.333 -27 -82c0 -66.667 23.667 -100 71 -100c22 0 39.833 8.66699 53.5 26s20.5 39.333 20.5 66zM292 635c-26 -25.333 -49.666 -38 -70.999 -38c-15.333 0 -33.333 5.66699 -54 17c-16.667 10.667 -30.667 16 -42 16c-12.667 0 -27 -8 -43 -24l-28 29
c25.333 25.333 48.666 38 69.999 38c17.333 0 35.333 -5.66699 54 -17c18 -10.667 32 -16 42 -16c12.667 0 27 8 43 24z" />
    <glyph glyph-name="adieresis" unicode="&#xe4;" horiz-adv-x="352" 
d="M294 0h-54v46c-6.66699 -13.333 -16 -24.666 -28 -33.999c-18 -13.333 -38.333 -20 -61 -20c-32 0 -59 11.333 -81 34c-22 23.333 -33 61.666 -33 114.999c0 50.667 14.333 89 43 115c24.667 22.667 58 34 100 34h58v91c0 58 -23.333 87 -70 87
c-18 0 -33.333 -6.33301 -46 -19c-15.333 -16 -23 -39.667 -23 -71h-56c0 45.333 12.333 80.333 37 105c22.667 22.667 52 34 88 34c40.667 0 71 -10.667 91 -32c23.333 -24.667 35 -60 35 -106v-379zM238 134v112h-56c-26 0 -46.667 -7.33301 -62 -22
c-18 -18 -27 -45.333 -27 -82c0 -66.667 23.667 -100 71 -100c22 0 39.833 8.66699 53.5 26s20.5 39.333 20.5 66zM272 606h-63v63h63v-63zM135 606h-64v63h64v-63z" />
    <glyph glyph-name="aring" unicode="&#xe5;" horiz-adv-x="352" 
d="M294 0h-54v46c-6.66699 -13.333 -16 -24.666 -28 -33.999c-18 -13.333 -38.333 -20 -61 -20c-32 0 -59 11.333 -81 34c-22 23.333 -33 61.666 -33 114.999c0 50.667 14.333 89 43 115c24.667 22.667 58 34 100 34h58v91c0 58 -23.333 87 -70 87
c-18 0 -33.333 -6.33301 -46 -19c-15.333 -16 -23 -39.667 -23 -71h-56c0 45.333 12.333 80.333 37 105c22.667 22.667 52 34 88 34c40.667 0 71 -10.667 91 -32c23.333 -24.667 35 -60 35 -106v-379zM238 134v112h-56c-26 0 -46.667 -7.33301 -62 -22
c-18 -18 -27 -45.333 -27 -82c0 -66.667 23.667 -100 71 -100c22 0 39.833 8.66699 53.5 26s20.5 39.333 20.5 66zM263 672c0 -25.333 -8.83301 -46.833 -26.5 -64.5s-39.167 -26.5 -64.5 -26.5s-46.833 8.83301 -64.5 26.5s-26.5 39.167 -26.5 64.5
s8.83301 46.833 26.5 64.5s39.167 26.5 64.5 26.5s46.833 -8.83301 64.5 -26.5s26.5 -39.167 26.5 -64.5zM224 672c0 14.667 -5.16699 27.167 -15.5 37.5s-22.5 15.5 -36.5 15.5c-14.667 0 -27.167 -5.16699 -37.5 -15.5s-15.5 -22.833 -15.5 -37.5
c0 -14 5.16699 -26.167 15.5 -36.5s22.833 -15.5 37.5 -15.5c14 0 26.167 5.16699 36.5 15.5s15.5 22.5 15.5 36.5z" />
    <glyph glyph-name="ae" unicode="&#xe6;" horiz-adv-x="544" 
d="M502 246l-208.001 0.000976562c0 -55.333 1.66699 -96.166 5 -122.499s10.333 -45.833 21 -58.5c12.667 -15.333 30 -23 52 -23c20.667 0 37.667 6.66699 51 20c14.667 14.667 22 38.667 22 72h55c0 -46 -12.333 -81.667 -37 -107c-22.667 -23.333 -53 -35 -91 -35
c-34 0 -61.667 10 -83 30c-13.333 13.333 -23.666 28.333 -30.999 45c-9.33301 -24 -21.333 -41.333 -36 -52c-20 -15.333 -43.667 -23 -71 -23c-32 0 -59 11.333 -81 34c-22 23.333 -33 61.666 -33 114.999c0 50.667 14.333 89 43 115c24.667 22.667 58 34 100 34h58v91
c0 58 -23.333 87 -70 87c-19.333 0 -34.666 -6.33301 -45.999 -19c-15.333 -15.333 -23 -39 -23 -71h-56c0 45.333 12.333 80.333 37 105c22.667 22.667 52 34 88 34s64 -9.33301 84 -28c7.33301 -7.33301 13.333 -15.666 18 -24.999
c4.66699 7.33301 9.66699 13.666 15 18.999c21.333 22.667 49.666 34 84.999 34c38 0 68.333 -12.333 91 -37c16 -18 26.833 -44.333 32.5 -79s8.5 -86.334 8.5 -155.001zM237.999 134.001l0.000976562 112h-56c-26.667 0 -47.334 -7.33301 -62.001 -22
c-18 -16.667 -27 -44 -27 -82c0 -66.667 23.667 -100 71 -100c22 0 39.833 8.66699 53.5 26s20.5 39.333 20.5 66zM446 291.001c-0.666992 46.667 -2.66602 81.167 -5.99902 103.5s-10 38.833 -20 49.5c-12.667 15.333 -29.334 23 -50.001 23
c-21.333 0 -38.333 -7.66699 -51 -23c-16 -18 -24.333 -69 -25 -153h152z" />
    <glyph glyph-name="ccedilla" unicode="&#xe7;" horiz-adv-x="340" 
d="M303 134c-1.33301 -50 -13.332 -86.334 -35.999 -109.001c-22 -22 -52 -33 -90 -33c-40 0 -71.333 13.333 -94 40c-14.667 17.333 -24.667 42.833 -30 76.5s-8 82.167 -8 145.5s2.66699 111.833 8 145.5s15.333 59.167 30 76.5c22 27.333 53.333 41 94 41
c38.667 0 68.667 -10.667 90 -32c22.667 -22 34.667 -59 36 -111h-55c0 34 -6.66699 58 -20 72c-12 14 -28.667 21 -50 21c-22.667 0 -40 -7.66699 -52 -23c-10.667 -13.333 -17.5 -33.666 -20.5 -60.999s-4.5 -70.333 -4.5 -129s1.5 -101.5 4.5 -128.5
s9.83301 -47.167 20.5 -60.5c12 -15.333 29.333 -23 52 -23c19.333 0 35.666 6.66699 48.999 20c14 14.667 21 38.667 21 72h55zM209.001 -37.001l-46 -134h-53l53 134h46z" />
    <glyph glyph-name="egrave" unicode="&#xe8;" horiz-adv-x="349" 
d="M309 246l-207.999 0.00195312c0 -56.667 1.66699 -98 5 -124s10.333 -45 21 -57c12.667 -15.333 29.667 -23 51 -23c22 0 39.333 6.66699 52 20c14.667 15.333 22 39.333 22 72h55c0 -46 -12.333 -81.667 -37 -107c-22.667 -23.333 -53.334 -35 -92.001 -35
c-38 0 -68.667 12.333 -92 37c-16 17.333 -26.833 43.166 -32.5 77.499s-8.5 83.5 -8.5 147.5c0 65.333 2.83301 115 8.5 149s16.5 59.667 32.5 77c22.667 24.667 53 37 91 37s68.333 -12.333 91 -37c16 -18 26.833 -44.333 32.5 -79s8.5 -86.334 8.5 -155.001z
M253.001 291.002c-0.666992 83.333 -9.33203 134.333 -25.999 153c-12.667 15.333 -29.334 23 -50.001 23c-21.333 0 -38.333 -7.66699 -51 -23c-16 -18 -24.333 -69 -25 -153h152zM207.003 586.002h-49l-75 130h58z" />
    <glyph glyph-name="eacute" unicode="&#xe9;" horiz-adv-x="349" 
d="M309 246l-207.999 0.00195312c0 -56.667 1.66699 -98 5 -124s10.333 -45 21 -57c12.667 -15.333 29.667 -23 51 -23c22 0 39.333 6.66699 52 20c14.667 15.333 22 39.333 22 72h55c0 -46 -12.333 -81.667 -37 -107c-22.667 -23.333 -53.334 -35 -92.001 -35
c-38 0 -68.667 12.333 -92 37c-16 17.333 -26.833 43.166 -32.5 77.499s-8.5 83.5 -8.5 147.5c0 65.333 2.83301 115 8.5 149s16.5 59.667 32.5 77c22.667 24.667 53 37 91 37s68.333 -12.333 91 -37c16 -18 26.833 -44.333 32.5 -79s8.5 -86.334 8.5 -155.001z
M253.001 291.002c-0.666992 83.333 -9.33203 134.333 -25.999 153c-12.667 15.333 -29.334 23 -50.001 23c-21.333 0 -38.333 -7.66699 -51 -23c-16 -18 -24.333 -69 -25 -153h152zM273.003 716.002l-74 -130h-49l65 130h58z" />
    <glyph glyph-name="ecircumflex" unicode="&#xea;" horiz-adv-x="349" 
d="M309 246l-207.999 0.00195312c0 -56.667 1.66699 -98 5 -124s10.333 -45 21 -57c12.667 -15.333 29.667 -23 51 -23c22 0 39.333 6.66699 52 20c14.667 15.333 22 39.333 22 72h55c0 -46 -12.333 -81.667 -37 -107c-22.667 -23.333 -53.334 -35 -92.001 -35
c-38 0 -68.667 12.333 -92 37c-16 17.333 -26.833 43.166 -32.5 77.499s-8.5 83.5 -8.5 147.5c0 65.333 2.83301 115 8.5 149s16.5 59.667 32.5 77c22.667 24.667 53 37 91 37s68.333 -12.333 91 -37c16 -18 26.833 -44.333 32.5 -79s8.5 -86.334 8.5 -155.001z
M253.001 291.002c-0.666992 83.333 -9.33203 134.333 -25.999 153c-12.667 15.333 -29.334 23 -50.001 23c-21.333 0 -38.333 -7.66699 -51 -23c-16 -18 -24.333 -69 -25 -153h152zM288.003 586.002h-51l-60 92l-60 -92h-52l87 130h50z" />
    <glyph glyph-name="edieresis" unicode="&#xeb;" horiz-adv-x="349" 
d="M309 246l-207.999 0.00195312c0 -56.667 1.66699 -98 5 -124s10.333 -45 21 -57c12.667 -15.333 29.667 -23 51 -23c22 0 39.333 6.66699 52 20c14.667 15.333 22 39.333 22 72h55c0 -46 -12.333 -81.667 -37 -107c-22.667 -23.333 -53.334 -35 -92.001 -35
c-38 0 -68.667 12.333 -92 37c-16 17.333 -26.833 43.166 -32.5 77.499s-8.5 83.5 -8.5 147.5c0 65.333 2.83301 115 8.5 149s16.5 59.667 32.5 77c22.667 24.667 53 37 91 37s68.333 -12.333 91 -37c16 -18 26.833 -44.333 32.5 -79s8.5 -86.334 8.5 -155.001z
M253.001 291.002c-0.666992 83.333 -9.33203 134.333 -25.999 153c-12.667 15.333 -29.334 23 -50.001 23c-21.333 0 -38.333 -7.66699 -51 -23c-16 -18 -24.333 -69 -25 -153h152zM277.003 606.002h-63v63h63v-63zM140.003 606.002h-64v63h64v-63z" />
    <glyph glyph-name="igrave" unicode="&#xec;" horiz-adv-x="181" 
d="M119 0h-56v509h56v-509zM119 586h-49l-75 130h58z" />
    <glyph glyph-name="iacute" unicode="&#xed;" horiz-adv-x="181" 
d="M119 0h-56v509h56v-509zM187 716l-74 -130h-49l65 130h58z" />
    <glyph glyph-name="icircumflex" unicode="&#xee;" horiz-adv-x="181" 
d="M119 0h-56v509h56v-509zM202 586h-51l-60 92l-60 -92h-52l87 130h50z" />
    <glyph glyph-name="idieresis" unicode="&#xef;" horiz-adv-x="181" 
d="M119 0h-56v509h56v-509zM191 606h-63v63h63v-63zM54 606h-64v63h64v-63z" />
    <glyph glyph-name="eth" unicode="&#xf0;" horiz-adv-x="355" 
d="M309 249c0 -62.667 -2.66602 -110.334 -7.99902 -143.001s-15.333 -57.667 -30 -75c-22 -26 -53.333 -39 -94 -39s-72 13 -94 39c-14.667 17.333 -24.667 42.333 -30 75s-8 80.334 -8 143.001c0 65.333 2.66699 114.333 8 147s15.333 57.334 30 74.001
c21.333 23.333 49.666 35 84.999 35c22 0 40.333 -4.66699 55 -14l-32 91h-82v44h67l-33 86h57l32 -86h72v-44h-57l39 -115c15.333 -46.667 23 -119.334 23 -218.001zM253.001 250c0 59.333 -1.5 101.833 -4.5 127.5s-9.83301 44.834 -20.5 57.501
c-12.667 14.667 -29.667 22 -51 22c-20.667 0 -37.334 -7.33301 -50.001 -22c-10.667 -12.667 -17.667 -32.167 -21 -58.5s-5 -68.5 -5 -126.5s1.66699 -100.333 5 -127s10.333 -46.334 21 -59.001c12.667 -14.667 29.334 -22 50.001 -22c21.333 0 38.333 7.33301 51 22
c10.667 12.667 17.5 32 20.5 58s4.5 68.667 4.5 128z" />
    <glyph glyph-name="ntilde" unicode="&#xf1;" horiz-adv-x="373" 
d="M315 0h-56v383c0 26.667 -6.5 47.167 -19.5 61.5s-29.833 21.5 -50.5 21.5s-37.667 -7.16699 -51 -21.5s-20 -34.833 -20 -61.5v-383h-56v509h55v-41c6.66699 12 16.334 22.333 29.001 31c17.333 12 36.666 18 57.999 18c31.333 0 58 -11.667 80 -35
c20.667 -22 31 -55.333 31 -100v-382zM310 635c-26 -25.333 -49.666 -38 -70.999 -38c-15.333 0 -33.333 5.66699 -54 17c-16.667 10.667 -30.667 16 -42 16c-12.667 0 -27 -8 -43 -24l-28 29c25.333 25.333 48.666 38 69.999 38c17.333 0 35.333 -5.66699 54 -17
c18 -10.667 32 -16 42 -16c12.667 0 27 8 43 24z" />
    <glyph glyph-name="ograve" unicode="&#xf2;" horiz-adv-x="353" 
d="M309 254c0 -63.333 -2.66699 -111.666 -8 -144.999s-15.333 -59 -30 -77c-22 -26.667 -53.333 -40 -94 -40s-72 13.333 -94 40c-14.667 18 -24.667 43.667 -30 77s-8 81.666 -8 144.999s2.66699 111.666 8 144.999s15.333 59 30 77c22 27.333 53.333 41 94 41
s72 -13.667 94 -41c14.667 -18 24.667 -43.667 30 -77s8 -81.666 8 -144.999zM253 254c0 59.333 -1.66699 102.499 -5 129.499s-10.333 47.167 -21 60.5c-12.667 15.333 -29.334 23 -50.001 23c-21.333 0 -38.333 -7.66699 -51 -23c-10.667 -13.333 -17.5 -33.333 -20.5 -60
s-4.5 -70 -4.5 -130s1.5 -103.167 4.5 -129.5s9.83301 -46.166 20.5 -59.499c12.667 -15.333 29.667 -23 51 -23c20.667 0 37.334 7.66699 50.001 23c10.667 13.333 17.667 33.333 21 60s5 69.667 5 129zM207 585.999h-49l-75 130h58z" />
    <glyph glyph-name="oacute" unicode="&#xf3;" horiz-adv-x="353" 
d="M309 254c0 -63.333 -2.66699 -111.666 -8 -144.999s-15.333 -59 -30 -77c-22 -26.667 -53.333 -40 -94 -40s-72 13.333 -94 40c-14.667 18 -24.667 43.667 -30 77s-8 81.666 -8 144.999s2.66699 111.666 8 144.999s15.333 59 30 77c22 27.333 53.333 41 94 41
s72 -13.667 94 -41c14.667 -18 24.667 -43.667 30 -77s8 -81.666 8 -144.999zM253 254c0 59.333 -1.66699 102.499 -5 129.499s-10.333 47.167 -21 60.5c-12.667 15.333 -29.334 23 -50.001 23c-21.333 0 -38.333 -7.66699 -51 -23c-10.667 -13.333 -17.5 -33.333 -20.5 -60
s-4.5 -70 -4.5 -130s1.5 -103.167 4.5 -129.5s9.83301 -46.166 20.5 -59.499c12.667 -15.333 29.667 -23 51 -23c20.667 0 37.334 7.66699 50.001 23c10.667 13.333 17.667 33.333 21 60s5 69.667 5 129zM273 715.999l-74 -130h-49l65 130h58z" />
    <glyph glyph-name="ocircumflex" unicode="&#xf4;" horiz-adv-x="353" 
d="M309 254c0 -63.333 -2.66699 -111.666 -8 -144.999s-15.333 -59 -30 -77c-22 -26.667 -53.333 -40 -94 -40s-72 13.333 -94 40c-14.667 18 -24.667 43.667 -30 77s-8 81.666 -8 144.999s2.66699 111.666 8 144.999s15.333 59 30 77c22 27.333 53.333 41 94 41
s72 -13.667 94 -41c14.667 -18 24.667 -43.667 30 -77s8 -81.666 8 -144.999zM253 254c0 59.333 -1.66699 102.499 -5 129.499s-10.333 47.167 -21 60.5c-12.667 15.333 -29.334 23 -50.001 23c-21.333 0 -38.333 -7.66699 -51 -23c-10.667 -13.333 -17.5 -33.333 -20.5 -60
s-4.5 -70 -4.5 -130s1.5 -103.167 4.5 -129.5s9.83301 -46.166 20.5 -59.499c12.667 -15.333 29.667 -23 51 -23c20.667 0 37.334 7.66699 50.001 23c10.667 13.333 17.667 33.333 21 60s5 69.667 5 129zM288 585.999h-51l-60 92l-60 -92h-52l87 130h50z" />
    <glyph glyph-name="otilde" unicode="&#xf5;" horiz-adv-x="353" 
d="M309 254c0 -63.333 -2.66699 -111.666 -8 -144.999s-15.333 -59 -30 -77c-22 -26.667 -53.333 -40 -94 -40s-72 13.333 -94 40c-14.667 18 -24.667 43.667 -30 77s-8 81.666 -8 144.999s2.66699 111.666 8 144.999s15.333 59 30 77c22 27.333 53.333 41 94 41
s72 -13.667 94 -41c14.667 -18 24.667 -43.667 30 -77s8 -81.666 8 -144.999zM253 254c0 59.333 -1.66699 102.499 -5 129.499s-10.333 47.167 -21 60.5c-12.667 15.333 -29.334 23 -50.001 23c-21.333 0 -38.333 -7.66699 -51 -23c-10.667 -13.333 -17.5 -33.333 -20.5 -60
s-4.5 -70 -4.5 -130s1.5 -103.167 4.5 -129.5s9.83301 -46.166 20.5 -59.499c12.667 -15.333 29.667 -23 51 -23c20.667 0 37.334 7.66699 50.001 23c10.667 13.333 17.667 33.333 21 60s5 69.667 5 129zM297 634.999c-26 -25.333 -49.666 -38 -70.999 -38
c-15.333 0 -33.333 5.66699 -54 17c-16.667 10.667 -30.667 16 -42 16c-12.667 0 -27 -8 -43 -24l-28 29c25.333 25.333 48.666 38 69.999 38c17.333 0 35.333 -5.66699 54 -17c18 -10.667 32 -16 42 -16c12.667 0 27 8 43 24z" />
    <glyph glyph-name="odieresis" unicode="&#xf6;" horiz-adv-x="353" 
d="M309 254c0 -63.333 -2.66699 -111.666 -8 -144.999s-15.333 -59 -30 -77c-22 -26.667 -53.333 -40 -94 -40s-72 13.333 -94 40c-14.667 18 -24.667 43.667 -30 77s-8 81.666 -8 144.999s2.66699 111.666 8 144.999s15.333 59 30 77c22 27.333 53.333 41 94 41
s72 -13.667 94 -41c14.667 -18 24.667 -43.667 30 -77s8 -81.666 8 -144.999zM253 254c0 59.333 -1.66699 102.499 -5 129.499s-10.333 47.167 -21 60.5c-12.667 15.333 -29.334 23 -50.001 23c-21.333 0 -38.333 -7.66699 -51 -23c-10.667 -13.333 -17.5 -33.333 -20.5 -60
s-4.5 -70 -4.5 -130s1.5 -103.167 4.5 -129.5s9.83301 -46.166 20.5 -59.499c12.667 -15.333 29.667 -23 51 -23c20.667 0 37.334 7.66699 50.001 23c10.667 13.333 17.667 33.333 21 60s5 69.667 5 129zM277 605.999h-63v63h63v-63zM140 605.999h-64v63h64v-63z" />
    <glyph glyph-name="divide" unicode="&#xf7;" horiz-adv-x="431" 
d="M383 248h-334v53h334v-53zM254 89h-75v76h75v-76zM254 384h-75v75h75v-75z" />
    <glyph glyph-name="oslash" unicode="&#xf8;" horiz-adv-x="347" 
d="M311 553l-32 -87c20 -32 30 -102.667 30 -212c0 -63.333 -2.66699 -111.666 -8 -144.999s-15.333 -59 -30 -77c-22 -26.667 -53.333 -40 -94 -40c-28 0 -51 6 -69 18l-20 -54h-46l33 87c-20 32 -30 102.333 -30 211c0 63.333 2.66699 111.666 8 144.999s15.333 59 30 77
c22 27.333 53.333 41 94 41c26 0 48.667 -6.33301 68 -19l20 55h46zM226 447c-12.667 14 -29 21.001 -49 21.001c-22 0 -39 -7.66699 -51 -23c-10.667 -13.333 -17.5 -33.333 -20.5 -60s-4.5 -70.334 -4.5 -131.001c0 -69.333 2.66699 -114.333 8 -135zM253 254.001
c0 70 -2.66699 115.333 -8 136l-117 -329c12 -13.333 28.333 -20 49 -20c21.333 0 38 7.66699 50 23c10.667 13.333 17.667 33.5 21 60.5s5 70.167 5 129.5z" />
    <glyph glyph-name="ugrave" unicode="&#xf9;" horiz-adv-x="373" 
d="M311 0h-55v41c-6.66699 -12 -16.334 -22.333 -29.001 -31c-17.333 -12 -36.666 -18 -57.999 -18c-32 0 -58.667 11.333 -80 34c-20.667 22 -31 55.667 -31 101v382h56v-383c0 -26.667 6.5 -47.167 19.5 -61.5s29.833 -21.5 50.5 -21.5s37.667 7.16699 51 21.5
s20 34.833 20 61.5v383h56v-509zM214 586h-49l-75 130h58z" />
    <glyph glyph-name="uacute" unicode="&#xfa;" horiz-adv-x="373" 
d="M311 0h-55v41c-6.66699 -12 -16.334 -22.333 -29.001 -31c-17.333 -12 -36.666 -18 -57.999 -18c-32 0 -58.667 11.333 -80 34c-20.667 22 -31 55.667 -31 101v382h56v-383c0 -26.667 6.5 -47.167 19.5 -61.5s29.833 -21.5 50.5 -21.5s37.667 7.16699 51 21.5
s20 34.833 20 61.5v383h56v-509zM280 716l-74 -130h-49l65 130h58z" />
    <glyph glyph-name="ucircumflex" unicode="&#xfb;" horiz-adv-x="373" 
d="M311 0h-55v41c-6.66699 -12 -16.334 -22.333 -29.001 -31c-17.333 -12 -36.666 -18 -57.999 -18c-32 0 -58.667 11.333 -80 34c-20.667 22 -31 55.667 -31 101v382h56v-383c0 -26.667 6.5 -47.167 19.5 -61.5s29.833 -21.5 50.5 -21.5s37.667 7.16699 51 21.5
s20 34.833 20 61.5v383h56v-509zM295 586h-51l-60 92l-60 -92h-52l87 130h50z" />
    <glyph glyph-name="udieresis" unicode="&#xfc;" horiz-adv-x="373" 
d="M311 0h-55v41c-6.66699 -12 -16.334 -22.333 -29.001 -31c-17.333 -12 -36.666 -18 -57.999 -18c-32 0 -58.667 11.333 -80 34c-20.667 22 -31 55.667 -31 101v382h56v-383c0 -26.667 6.5 -47.167 19.5 -61.5s29.833 -21.5 50.5 -21.5s37.667 7.16699 51 21.5
s20 34.833 20 61.5v383h56v-509zM284 606h-63v63h63v-63zM147 606h-64v63h64v-63z" />
    <glyph glyph-name="yacute" unicode="&#xfd;" horiz-adv-x="308" 
d="M301 509l-144.001 -608c-9.33301 -38 -26.166 -64.833 -50.499 -80.5s-56.833 -23.5 -97.5 -23.5v50c50.667 0 81.667 21.667 93 65l23 90l-121 507h62l87 -420l87 420h61zM253.999 716l-74 -130h-49l65 130h58z" />
    <glyph glyph-name="thorn" unicode="&#xfe;" horiz-adv-x="366" 
d="M321 254c0 -66 -2.66406 -115.999 -7.99707 -149.999s-15.333 -59.333 -30 -76c-20.667 -24 -47 -36 -79 -36c-22 0 -41.333 5.33301 -58 16c-10.667 6 -19.667 16 -27 30v-241h-56v915h55v-244c5.33301 12 14.666 22.333 27.999 31c17.333 12 36.666 18 57.999 18
c31.333 0 57.666 -12 78.999 -36c14.667 -17.333 24.667 -42.833 30 -76.5s8 -83.834 8 -150.501zM265.003 254.001c0 61.333 -1.66699 105.166 -5 131.499s-10.333 45.833 -21 58.5c-12.667 15.333 -28.667 23 -48 23c-18.667 0 -35 -6.33301 -49 -19
c-15.333 -15.333 -23 -38.666 -23 -69.999v-247c0 -31.333 7.66699 -54.666 23 -69.999c14 -12.667 30.333 -19 49 -19c19.333 0 35.333 7.33301 48 22c10.667 12.667 17.667 32.167 21 58.5s5 70.166 5 131.499z" />
    <glyph glyph-name="ydieresis" unicode="&#xff;" horiz-adv-x="308" 
d="M301 509l-144.001 -608c-9.33301 -38 -26.166 -64.833 -50.499 -80.5s-56.833 -23.5 -97.5 -23.5v50c50.667 0 81.667 21.667 93 65l23 90l-121 507h62l87 -420l87 420h61zM257.999 606h-63v63h63v-63zM120.999 606h-64v63h64v-63z" />
    <glyph glyph-name="Amacron" unicode="&#x100;" horiz-adv-x="379" 
d="M374 0h-63l-39 195h-166l-38 -195h-64l159 712h55zM261 248l-72 358l-71 -358h143zM298 785h-212v45h212v-45z" />
    <glyph glyph-name="amacron" unicode="&#x101;" horiz-adv-x="352" 
d="M294 0h-54v46c-6.66699 -13.333 -16 -24.666 -28 -33.999c-18 -13.333 -38.333 -20 -61 -20c-32 0 -59 11.333 -81 34c-22 23.333 -33 61.666 -33 114.999c0 50.667 14.333 89 43 115c24.667 22.667 58 34 100 34h58v91c0 58 -23.333 87 -70 87
c-18 0 -33.333 -6.33301 -46 -19c-15.333 -16 -23 -39.667 -23 -71h-56c0 45.333 12.333 80.333 37 105c22.667 22.667 52 34 88 34c40.667 0 71 -10.667 91 -32c23.333 -24.667 35 -60 35 -106v-379zM238 134v112h-56c-26 0 -46.667 -7.33301 -62 -22
c-18 -18 -27 -45.333 -27 -82c0 -66.667 23.667 -100 71 -100c22 0 39.833 8.66699 53.5 26s20.5 39.333 20.5 66zM278 611h-212v45h212v-45z" />
    <glyph glyph-name="Abreve" unicode="&#x102;" horiz-adv-x="379" 
d="M374 0h-63l-39 195h-166l-38 -195h-64l159 712h55zM261 248l-72 358l-71 -358h143zM302 858c-6 -69.333 -42.667 -104 -110 -104c-68 0 -105 34.667 -111 104h46c4.66699 -40 26.334 -60 65.001 -60c37.333 0 58.666 20 63.999 60h46z" />
    <glyph glyph-name="abreve" unicode="&#x103;" horiz-adv-x="352" 
d="M294 0h-54v46c-6.66699 -13.333 -16 -24.666 -28 -33.999c-18 -13.333 -38.333 -20 -61 -20c-32 0 -59 11.333 -81 34c-22 23.333 -33 61.666 -33 114.999c0 50.667 14.333 89 43 115c24.667 22.667 58 34 100 34h58v91c0 58 -23.333 87 -70 87
c-18 0 -33.333 -6.33301 -46 -19c-15.333 -16 -23 -39.667 -23 -71h-56c0 45.333 12.333 80.333 37 105c22.667 22.667 52 34 88 34c40.667 0 71 -10.667 91 -32c23.333 -24.667 35 -60 35 -106v-379zM238 134v112h-56c-26 0 -46.667 -7.33301 -62 -22
c-18 -18 -27 -45.333 -27 -82c0 -66.667 23.667 -100 71 -100c22 0 39.833 8.66699 53.5 26s20.5 39.333 20.5 66zM282 684c-6 -69.333 -42.668 -104 -110.001 -104s-104.333 34.667 -111 104h46c4.66699 -40 26.334 -60 65.001 -60c37.333 0 59 20 65 60h45z" />
    <glyph glyph-name="Aogonek" unicode="&#x104;" horiz-adv-x="379" 
d="M374 0h-63l-39 195h-166l-38 -195h-64l159 712h55zM261 248l-72 358l-71 -358h143zM365 -37l-46 -134h-53l53 134h46z" />
    <glyph glyph-name="aogonek" unicode="&#x105;" horiz-adv-x="352" 
d="M294 0h-54v46c-6.66699 -13.333 -16 -24.666 -28 -33.999c-18 -13.333 -38.333 -20 -61 -20c-32 0 -59 11.333 -81 34c-22 23.333 -33 61.666 -33 114.999c0 50.667 14.333 89 43 115c24.667 22.667 58 34 100 34h58v91c0 58 -23.333 87 -70 87
c-18 0 -33.333 -6.33301 -46 -19c-15.333 -16 -23 -39.667 -23 -71h-56c0 45.333 12.333 80.333 37 105c22.667 22.667 52 34 88 34c40.667 0 71 -10.667 91 -32c23.333 -24.667 35 -60 35 -106v-379zM238 134v112h-56c-26 0 -46.667 -7.33301 -62 -22
c-18 -18 -27 -45.333 -27 -82c0 -66.667 23.667 -100 71 -100c22 0 39.833 8.66699 53.5 26s20.5 39.333 20.5 66zM291 -37l-46 -134h-53l53 134h46z" />
    <glyph glyph-name="Cacute" unicode="&#x106;" horiz-adv-x="399" 
d="M358 163c-1.33301 -62 -17.998 -107.666 -49.998 -136.999c-24.667 -22.667 -57.334 -34 -98.001 -34c-44.667 0 -80 14 -106 42c-21.333 22.667 -35 53.5 -41 92.5s-9 115.5 -9 229.5s3 190.5 9 229.5s19.667 69.833 41 92.5c26 28 61.333 42 106 42
c42.667 0 76.667 -12.667 102 -38c29.333 -29.333 44.666 -73.666 45.999 -132.999h-59c0 43.333 -9.33301 74.666 -28 93.999c-14.667 16 -35 24 -61 24c-26.667 0 -47.667 -8.66699 -63 -26c-14.667 -16.667 -24 -42.167 -28 -76.5s-6 -103.833 -6 -208.5
s2 -174.167 6 -208.5s13.333 -59.833 28 -76.5c15.333 -17.333 36.333 -26 63 -26c26 0 46.333 8 61 24c18.667 19.333 28 50.666 28 93.999h59zM307.002 894.001l-75 -130h-49l65 130h59z" />
    <glyph glyph-name="cacute" unicode="&#x107;" horiz-adv-x="340" 
d="M303 134c-1.33301 -50 -13.332 -86.334 -35.999 -109.001c-22 -22 -52 -33 -90 -33c-40 0 -71.333 13.333 -94 40c-14.667 17.333 -24.667 42.833 -30 76.5s-8 82.167 -8 145.5s2.66699 111.833 8 145.5s15.333 59.167 30 76.5c22 27.333 53.333 41 94 41
c38.667 0 68.667 -10.667 90 -32c22.667 -22 34.667 -59 36 -111h-55c0 34 -6.66699 58 -20 72c-12 14 -28.667 21 -50 21c-22.667 0 -40 -7.66699 -52 -23c-10.667 -13.333 -17.5 -33.666 -20.5 -60.999s-4.5 -70.333 -4.5 -129s1.5 -101.5 4.5 -128.5
s9.83301 -47.167 20.5 -60.5c12 -15.333 29.333 -23 52 -23c19.333 0 35.666 6.66699 48.999 20c14 14.667 21 38.667 21 72h55zM273.001 715.999l-74 -130h-49l65 130h58z" />
    <glyph glyph-name="Ccircumflex" unicode="&#x108;" horiz-adv-x="399" 
d="M358 163c-1.33301 -62 -17.998 -107.666 -49.998 -136.999c-24.667 -22.667 -57.334 -34 -98.001 -34c-44.667 0 -80 14 -106 42c-21.333 22.667 -35 53.5 -41 92.5s-9 115.5 -9 229.5s3 190.5 9 229.5s19.667 69.833 41 92.5c26 28 61.333 42 106 42
c42.667 0 76.667 -12.667 102 -38c29.333 -29.333 44.666 -73.666 45.999 -132.999h-59c0 43.333 -9.33301 74.666 -28 93.999c-14.667 16 -35 24 -61 24c-26.667 0 -47.667 -8.66699 -63 -26c-14.667 -16.667 -24 -42.167 -28 -76.5s-6 -103.833 -6 -208.5
s2 -174.167 6 -208.5s13.333 -59.833 28 -76.5c15.333 -17.333 36.333 -26 63 -26c26 0 46.333 8 61 24c18.667 19.333 28 50.666 28 93.999h59zM322.002 764.001h-52l-59 92l-60 -92h-52l87 130h50z" />
    <glyph glyph-name="ccircumflex" unicode="&#x109;" horiz-adv-x="340" 
d="M303 134c-1.33301 -50 -13.332 -86.334 -35.999 -109.001c-22 -22 -52 -33 -90 -33c-40 0 -71.333 13.333 -94 40c-14.667 17.333 -24.667 42.833 -30 76.5s-8 82.167 -8 145.5s2.66699 111.833 8 145.5s15.333 59.167 30 76.5c22 27.333 53.333 41 94 41
c38.667 0 68.667 -10.667 90 -32c22.667 -22 34.667 -59 36 -111h-55c0 34 -6.66699 58 -20 72c-12 14 -28.667 21 -50 21c-22.667 0 -40 -7.66699 -52 -23c-10.667 -13.333 -17.5 -33.666 -20.5 -60.999s-4.5 -70.333 -4.5 -129s1.5 -101.5 4.5 -128.5
s9.83301 -47.167 20.5 -60.5c12 -15.333 29.333 -23 52 -23c19.333 0 35.666 6.66699 48.999 20c14 14.667 21 38.667 21 72h55zM288.001 585.999h-51l-60 92l-60 -92h-52l87 130h50z" />
    <glyph glyph-name="Cdotaccent" unicode="&#x10a;" horiz-adv-x="399" 
d="M358 163c-1.33301 -62 -17.998 -107.666 -49.998 -136.999c-24.667 -22.667 -57.334 -34 -98.001 -34c-44.667 0 -80 14 -106 42c-21.333 22.667 -35 53.5 -41 92.5s-9 115.5 -9 229.5s3 190.5 9 229.5s19.667 69.833 41 92.5c26 28 61.333 42 106 42
c42.667 0 76.667 -12.667 102 -38c29.333 -29.333 44.666 -73.666 45.999 -132.999h-59c0 43.333 -9.33301 74.666 -28 93.999c-14.667 16 -35 24 -61 24c-26.667 0 -47.667 -8.66699 -63 -26c-14.667 -16.667 -24 -42.167 -28 -76.5s-6 -103.833 -6 -208.5
s2 -174.167 6 -208.5s13.333 -59.833 28 -76.5c15.333 -17.333 36.333 -26 63 -26c26 0 46.333 8 61 24c18.667 19.333 28 50.666 28 93.999h59zM242.002 784.001h-63v63h63v-63z" />
    <glyph glyph-name="cdotaccent" unicode="&#x10b;" horiz-adv-x="340" 
d="M303 134c-1.33301 -50 -13.332 -86.334 -35.999 -109.001c-22 -22 -52 -33 -90 -33c-40 0 -71.333 13.333 -94 40c-14.667 17.333 -24.667 42.833 -30 76.5s-8 82.167 -8 145.5s2.66699 111.833 8 145.5s15.333 59.167 30 76.5c22 27.333 53.333 41 94 41
c38.667 0 68.667 -10.667 90 -32c22.667 -22 34.667 -59 36 -111h-55c0 34 -6.66699 58 -20 72c-12 14 -28.667 21 -50 21c-22.667 0 -40 -7.66699 -52 -23c-10.667 -13.333 -17.5 -33.666 -20.5 -60.999s-4.5 -70.333 -4.5 -129s1.5 -101.5 4.5 -128.5
s9.83301 -47.167 20.5 -60.5c12 -15.333 29.333 -23 52 -23c19.333 0 35.666 6.66699 48.999 20c14 14.667 21 38.667 21 72h55zM208.001 609.999h-63v63h63v-63z" />
    <glyph glyph-name="Ccaron" unicode="&#x10c;" horiz-adv-x="399" 
d="M358 163c-1.33301 -62 -17.998 -107.666 -49.998 -136.999c-24.667 -22.667 -57.334 -34 -98.001 -34c-44.667 0 -80 14 -106 42c-21.333 22.667 -35 53.5 -41 92.5s-9 115.5 -9 229.5s3 190.5 9 229.5s19.667 69.833 41 92.5c26 28 61.333 42 106 42
c42.667 0 76.667 -12.667 102 -38c29.333 -29.333 44.666 -73.666 45.999 -132.999h-59c0 43.333 -9.33301 74.666 -28 93.999c-14.667 16 -35 24 -61 24c-26.667 0 -47.667 -8.66699 -63 -26c-14.667 -16.667 -24 -42.167 -28 -76.5s-6 -103.833 -6 -208.5
s2 -174.167 6 -208.5s13.333 -59.833 28 -76.5c15.333 -17.333 36.333 -26 63 -26c26 0 46.333 8 61 24c18.667 19.333 28 50.666 28 93.999h59zM322.002 887.001l-86 -129h-50l-87 129h52l60 -91l59 91h52z" />
    <glyph glyph-name="ccaron" unicode="&#x10d;" horiz-adv-x="340" 
d="M303 134c-1.33301 -50 -13.332 -86.334 -35.999 -109.001c-22 -22 -52 -33 -90 -33c-40 0 -71.333 13.333 -94 40c-14.667 17.333 -24.667 42.833 -30 76.5s-8 82.167 -8 145.5s2.66699 111.833 8 145.5s15.333 59.167 30 76.5c22 27.333 53.333 41 94 41
c38.667 0 68.667 -10.667 90 -32c22.667 -22 34.667 -59 36 -111h-55c0 34 -6.66699 58 -20 72c-12 14 -28.667 21 -50 21c-22.667 0 -40 -7.66699 -52 -23c-10.667 -13.333 -17.5 -33.666 -20.5 -60.999s-4.5 -70.333 -4.5 -129s1.5 -101.5 4.5 -128.5
s9.83301 -47.167 20.5 -60.5c12 -15.333 29.333 -23 52 -23c19.333 0 35.666 6.66699 48.999 20c14 14.667 21 38.667 21 72h55zM288.001 708.999l-86 -129h-50l-87 129h52l60 -91l60 91h51z" />
    <glyph glyph-name="Dcaron" unicode="&#x10e;" horiz-adv-x="424" 
d="M371 356c0 -111.333 -3 -186 -9 -224s-19.667 -68.333 -41 -91c-26 -27.333 -61.333 -41 -106 -41h-146v712h146c44.667 0 80 -13.667 106 -41c21.333 -22.667 35 -53 41 -91s9 -112.667 9 -224zM312 356c0 103.333 -2 171.5 -6 204.5s-13.667 57.5 -29 73.5
c-14.667 16.667 -36.334 25 -65.001 25h-84v-606h84c28.667 0 50.334 8.33301 65.001 25c15.333 16 25 40.5 29 73.5s6 101.167 6 204.5zM321 887l-86 -129h-50l-87 129h52l60 -91l59 91h52z" />
    <glyph glyph-name="dcaron" unicode="&#x10f;" horiz-adv-x="365" 
d="M303 0l-55.001 -0.00195312v41c-5.33301 -12 -14.666 -22.333 -27.999 -31c-17.333 -12 -36.666 -18 -57.999 -18c-32 0 -58.333 12 -79 36c-14.667 16.667 -24.667 41.834 -30 75.501s-8 83.834 -8 150.501s2.66699 116.667 8 150s15.333 59 30 77
c19.333 24 45.666 36 78.999 36c24 0 43.333 -5.33301 58 -16c10.667 -8 19.667 -18 27 -30v241h56v-712zM246.999 130.998v247c0 31.333 -7.66699 54.666 -23 69.999c-14 12.667 -30.333 19 -49 19c-19.333 0 -35.333 -7.66699 -48 -23
c-10.667 -12.667 -17.667 -32.167 -21 -58.5s-5 -70.166 -5 -131.499s1.66699 -105.166 5 -131.499s10.333 -45.833 21 -58.5c12.667 -14.667 28.667 -22 48 -22c18.667 0 35 6.33301 49 19c15.333 15.333 23 38.666 23 69.999zM422.999 718.998l-30 -134h-44l21 134h53z
" />
    <glyph glyph-name="Dcroat" unicode="&#x110;" horiz-adv-x="429" 
d="M375 356c0 -110.667 -2.83301 -185.167 -8.5 -223.5s-19.5 -68.833 -41.5 -91.5c-26 -27.333 -61 -41 -105 -41h-147v332h-53v49h53v331h147c44 0 79 -13.667 105 -41c22 -22.667 35.833 -53.167 41.5 -91.5s8.5 -112.833 8.5 -223.5zM316 356
c0 103.333 -2 171.331 -6 203.998s-13.667 57.334 -29 74.001s-36.666 25 -63.999 25h-85v-278h91v-49h-91v-279h85c27.333 0 48.666 8.33301 63.999 25s25 41.334 29 74.001s6 100.667 6 204z" />
    <glyph glyph-name="dcroat" unicode="&#x111;" horiz-adv-x="377" 
d="M303 0l-55.001 -0.00195312v41c-5.33301 -12 -14.666 -22.333 -27.999 -31c-17.333 -12 -36.666 -18 -57.999 -18c-32 0 -58.333 12 -79 36c-14.667 16.667 -24.667 41.834 -30 75.501s-8 83.834 -8 150.501s2.66699 116.667 8 150s15.333 59 30 77
c19.333 24 45.666 36 78.999 36c24 0 43.333 -5.33301 58 -16c10.667 -8 19.667 -18 27 -30v113h-90v42h90v86h56v-86h58v-42h-58v-584zM246.999 130.998v247c0 31.333 -7.66699 54.666 -23 69.999c-14 12.667 -30.333 19 -49 19c-19.333 0 -35.333 -7.66699 -48 -23
c-10.667 -12.667 -17.667 -32.167 -21 -58.5s-5 -70.166 -5 -131.499s1.66699 -105.166 5 -131.499s10.333 -45.833 21 -58.5c12.667 -14.667 28.667 -22 48 -22c18.667 0 35 6.33301 49 19c15.333 15.333 23 38.666 23 69.999z" />
    <glyph glyph-name="Emacron" unicode="&#x112;" horiz-adv-x="364" 
d="M317 0h-248v712h248v-53h-189v-276h163v-53h-163v-277h189v-53zM304 785h-212v45h212v-45z" />
    <glyph glyph-name="emacron" unicode="&#x113;" horiz-adv-x="349" 
d="M309 246l-207.999 0.00195312c0 -56.667 1.66699 -98 5 -124s10.333 -45 21 -57c12.667 -15.333 29.667 -23 51 -23c22 0 39.333 6.66699 52 20c14.667 15.333 22 39.333 22 72h55c0 -46 -12.333 -81.667 -37 -107c-22.667 -23.333 -53.334 -35 -92.001 -35
c-38 0 -68.667 12.333 -92 37c-16 17.333 -26.833 43.166 -32.5 77.499s-8.5 83.5 -8.5 147.5c0 65.333 2.83301 115 8.5 149s16.5 59.667 32.5 77c22.667 24.667 53 37 91 37s68.333 -12.333 91 -37c16 -18 26.833 -44.333 32.5 -79s8.5 -86.334 8.5 -155.001z
M253.001 291.002c-0.666992 83.333 -9.33203 134.333 -25.999 153c-12.667 15.333 -29.334 23 -50.001 23c-21.333 0 -38.333 -7.66699 -51 -23c-16 -18 -24.333 -69 -25 -153h152zM283.003 611.002h-212v45h212v-45z" />
    <glyph glyph-name="Ebreve" unicode="&#x114;" horiz-adv-x="364" 
d="M317 0h-248v712h248v-53h-189v-276h163v-53h-163v-277h189v-53zM309 858c-6 -69.333 -42.667 -104 -110 -104c-68 0 -105 34.667 -111 104h46c5.33301 -40 27 -60 65 -60s59.333 20 64 60h46z" />
    <glyph glyph-name="ebreve" unicode="&#x115;" horiz-adv-x="349" 
d="M309 246l-207.999 0.00195312c0 -56.667 1.66699 -98 5 -124s10.333 -45 21 -57c12.667 -15.333 29.667 -23 51 -23c22 0 39.333 6.66699 52 20c14.667 15.333 22 39.333 22 72h55c0 -46 -12.333 -81.667 -37 -107c-22.667 -23.333 -53.334 -35 -92.001 -35
c-38 0 -68.667 12.333 -92 37c-16 17.333 -26.833 43.166 -32.5 77.499s-8.5 83.5 -8.5 147.5c0 65.333 2.83301 115 8.5 149s16.5 59.667 32.5 77c22.667 24.667 53 37 91 37s68.333 -12.333 91 -37c16 -18 26.833 -44.333 32.5 -79s8.5 -86.334 8.5 -155.001z
M253.001 291.002c-0.666992 83.333 -9.33203 134.333 -25.999 153c-12.667 15.333 -29.334 23 -50.001 23c-21.333 0 -38.333 -7.66699 -51 -23c-16 -18 -24.333 -69 -25 -153h152zM288.003 684.002c-6 -69.333 -42.668 -104 -110.001 -104s-104.333 34.667 -111 104h46
c4.66699 -40 26.334 -60 65.001 -60c37.333 0 59 20 65 60h45z" />
    <glyph glyph-name="Edotaccent" unicode="&#x116;" horiz-adv-x="364" 
d="M317 0h-248v712h248v-53h-189v-276h163v-53h-163v-277h189v-53zM229 784h-63v63h63v-63z" />
    <glyph glyph-name="edotaccent" unicode="&#x117;" horiz-adv-x="349" 
d="M309 246l-207.999 0.00195312c0 -56.667 1.66699 -98 5 -124s10.333 -45 21 -57c12.667 -15.333 29.667 -23 51 -23c22 0 39.333 6.66699 52 20c14.667 15.333 22 39.333 22 72h55c0 -46 -12.333 -81.667 -37 -107c-22.667 -23.333 -53.334 -35 -92.001 -35
c-38 0 -68.667 12.333 -92 37c-16 17.333 -26.833 43.166 -32.5 77.499s-8.5 83.5 -8.5 147.5c0 65.333 2.83301 115 8.5 149s16.5 59.667 32.5 77c22.667 24.667 53 37 91 37s68.333 -12.333 91 -37c16 -18 26.833 -44.333 32.5 -79s8.5 -86.334 8.5 -155.001z
M253.001 291.002c-0.666992 83.333 -9.33203 134.333 -25.999 153c-12.667 15.333 -29.334 23 -50.001 23c-21.333 0 -38.333 -7.66699 -51 -23c-16 -18 -24.333 -69 -25 -153h152zM208.003 610.002h-63v63h63v-63z" />
    <glyph glyph-name="Eogonek" unicode="&#x118;" horiz-adv-x="364" 
d="M317 0h-248v712h248v-53h-189v-276h163v-53h-163v-277h189v-53zM300 -37l-46 -134h-53l53 134h46z" />
    <glyph glyph-name="eogonek" unicode="&#x119;" horiz-adv-x="349" 
d="M309 246l-207.999 0.00195312c0 -56.667 1.66699 -98 5 -124s10.333 -45 21 -57c12.667 -15.333 29.667 -23 51 -23c22 0 39.333 6.66699 52 20c14.667 15.333 22 39.333 22 72h55c0 -46 -12.333 -81.667 -37 -107c-22.667 -23.333 -53.334 -35 -92.001 -35
c-38 0 -68.667 12.333 -92 37c-16 17.333 -26.833 43.166 -32.5 77.499s-8.5 83.5 -8.5 147.5c0 65.333 2.83301 115 8.5 149s16.5 59.667 32.5 77c22.667 24.667 53 37 91 37s68.333 -12.333 91 -37c16 -18 26.833 -44.333 32.5 -79s8.5 -86.334 8.5 -155.001z
M253.001 291.002c-0.666992 83.333 -9.33203 134.333 -25.999 153c-12.667 15.333 -29.334 23 -50.001 23c-21.333 0 -38.333 -7.66699 -51 -23c-16 -18 -24.333 -69 -25 -153h152zM249.003 -36.998l-46 -134h-53l53 134h46z" />
    <glyph glyph-name="Ecaron" unicode="&#x11a;" horiz-adv-x="364" 
d="M317 0h-248v712h248v-53h-189v-276h163v-53h-163v-277h189v-53zM309 887l-86 -129h-50l-87 129h52l60 -91l59 91h52z" />
    <glyph glyph-name="ecaron" unicode="&#x11b;" horiz-adv-x="349" 
d="M309 246l-207.999 0.00195312c0 -56.667 1.66699 -98 5 -124s10.333 -45 21 -57c12.667 -15.333 29.667 -23 51 -23c22 0 39.333 6.66699 52 20c14.667 15.333 22 39.333 22 72h55c0 -46 -12.333 -81.667 -37 -107c-22.667 -23.333 -53.334 -35 -92.001 -35
c-38 0 -68.667 12.333 -92 37c-16 17.333 -26.833 43.166 -32.5 77.499s-8.5 83.5 -8.5 147.5c0 65.333 2.83301 115 8.5 149s16.5 59.667 32.5 77c22.667 24.667 53 37 91 37s68.333 -12.333 91 -37c16 -18 26.833 -44.333 32.5 -79s8.5 -86.334 8.5 -155.001z
M253.001 291.002c-0.666992 83.333 -9.33203 134.333 -25.999 153c-12.667 15.333 -29.334 23 -50.001 23c-21.333 0 -38.333 -7.66699 -51 -23c-16 -18 -24.333 -69 -25 -153h152zM288.003 709.002l-86 -129h-50l-87 129h52l60 -91l60 91h51z" />
    <glyph glyph-name="Gcircumflex" unicode="&#x11c;" horiz-adv-x="412" 
d="M358 152c0 -51.333 -14.167 -90.833 -42.5 -118.5s-63.5 -41.5 -105.5 -41.5c-44.667 0 -80 14 -106 42c-21.333 22.667 -35 53.5 -41 92.5s-9 115.5 -9 229.5s3 190.5 9 229.5s19.667 69.833 41 92.5c26 28 61.333 42 106 42c43.333 0 78 -13 104 -39
c28 -30 42.667 -74 44 -132h-59c0 78.667 -29.667 118 -89 118c-26.667 0 -47.667 -8.66699 -63 -26c-14.667 -16.667 -24 -42.167 -28 -76.5s-6 -103.833 -6 -208.5s2 -174.167 6 -208.5s13.333 -59.833 28 -76.5c15.333 -17.333 36.333 -26 63 -26s48.167 9.5 64.5 28.5
s24.5 45.167 24.5 78.5v175h-89v50h148v-225zM322 764h-52l-59 92l-60 -92h-52l87 130h50z" />
    <glyph glyph-name="gcircumflex" unicode="&#x11d;" horiz-adv-x="365" 
d="M303 509v-523.997c0 -42.667 -2.66699 -74.834 -8 -96.501s-15.333 -40.5 -30 -56.5c-23.333 -24.667 -53.666 -37 -90.999 -37c-38.667 0 -69.334 11.333 -92.001 34c-23.333 24 -35 59.667 -35 107h55c0 -34 7.33301 -58.333 22 -73c12 -12.667 28.333 -19 49 -19
s37.334 7.33301 50.001 22c16 16.667 24 56 24 118v65c-6 -10.667 -15 -20.334 -27 -29.001c-16.667 -11.333 -35.667 -17 -57 -17c-32 0 -58.333 11.667 -79 35c-15.333 17.333 -25.666 42.166 -30.999 74.499s-8 81.5 -8 147.5c0 66.667 2.66699 116 8 148
s15.666 56.333 30.999 73c21.333 24 47.666 36 78.999 36c22 0 41.333 -5.66699 58 -17c11.333 -8 20.333 -18 27 -30v39h55zM247 141.003l0.000976562 237.001c0 31.333 -7.66699 54.666 -23 69.999c-14 12.667 -30.333 19 -49 19c-19.333 0 -35.333 -7.66699 -48 -23
c-10.667 -12.667 -17.667 -31.667 -21 -57s-5 -68 -5 -128s1.66699 -102.667 5 -128s10.333 -44.333 21 -57c12.667 -14.667 28.667 -22 48 -22c21.333 0 37.666 6 48.999 18c15.333 17.333 23 41 23 71zM287.001 586.004h-51l-60 92l-60 -92h-52l87 130h50z" />
    <glyph glyph-name="Gbreve" unicode="&#x11e;" horiz-adv-x="412" 
d="M358 152c0 -51.333 -14.167 -90.833 -42.5 -118.5s-63.5 -41.5 -105.5 -41.5c-44.667 0 -80 14 -106 42c-21.333 22.667 -35 53.5 -41 92.5s-9 115.5 -9 229.5s3 190.5 9 229.5s19.667 69.833 41 92.5c26 28 61.333 42 106 42c43.333 0 78 -13 104 -39
c28 -30 42.667 -74 44 -132h-59c0 78.667 -29.667 118 -89 118c-26.667 0 -47.667 -8.66699 -63 -26c-14.667 -16.667 -24 -42.167 -28 -76.5s-6 -103.833 -6 -208.5s2 -174.167 6 -208.5s13.333 -59.833 28 -76.5c15.333 -17.333 36.333 -26 63 -26s48.167 9.5 64.5 28.5
s24.5 45.167 24.5 78.5v175h-89v50h148v-225zM321 858c-6 -69.333 -42.667 -104 -110 -104c-68 0 -105 34.667 -111 104h46c5.33301 -40 27 -60 65 -60s59.333 20 64 60h46z" />
    <glyph glyph-name="gbreve" unicode="&#x11f;" horiz-adv-x="365" 
d="M303 509v-523.997c0 -42.667 -2.66699 -74.834 -8 -96.501s-15.333 -40.5 -30 -56.5c-23.333 -24.667 -53.666 -37 -90.999 -37c-38.667 0 -69.334 11.333 -92.001 34c-23.333 24 -35 59.667 -35 107h55c0 -34 7.33301 -58.333 22 -73c12 -12.667 28.333 -19 49 -19
s37.334 7.33301 50.001 22c16 16.667 24 56 24 118v65c-6 -10.667 -15 -20.334 -27 -29.001c-16.667 -11.333 -35.667 -17 -57 -17c-32 0 -58.333 11.667 -79 35c-15.333 17.333 -25.666 42.166 -30.999 74.499s-8 81.5 -8 147.5c0 66.667 2.66699 116 8 148
s15.666 56.333 30.999 73c21.333 24 47.666 36 78.999 36c22 0 41.333 -5.66699 58 -17c11.333 -8 20.333 -18 27 -30v39h55zM247 141.003l0.000976562 237.001c0 31.333 -7.66699 54.666 -23 69.999c-14 12.667 -30.333 19 -49 19c-19.333 0 -35.333 -7.66699 -48 -23
c-10.667 -12.667 -17.667 -31.667 -21 -57s-5 -68 -5 -128s1.66699 -102.667 5 -128s10.333 -44.333 21 -57c12.667 -14.667 28.667 -22 48 -22c21.333 0 37.666 6 48.999 18c15.333 17.333 23 41 23 71zM286.001 684.004c-6 -69.333 -42.668 -104 -110.001 -104
s-104.333 34.667 -111 104h46c4.66699 -40 26.334 -60 65.001 -60c37.333 0 59 20 65 60h45z" />
    <glyph glyph-name="Gdotaccent" unicode="&#x120;" horiz-adv-x="412" 
d="M358 152c0 -51.333 -14.167 -90.833 -42.5 -118.5s-63.5 -41.5 -105.5 -41.5c-44.667 0 -80 14 -106 42c-21.333 22.667 -35 53.5 -41 92.5s-9 115.5 -9 229.5s3 190.5 9 229.5s19.667 69.833 41 92.5c26 28 61.333 42 106 42c43.333 0 78 -13 104 -39
c28 -30 42.667 -74 44 -132h-59c0 78.667 -29.667 118 -89 118c-26.667 0 -47.667 -8.66699 -63 -26c-14.667 -16.667 -24 -42.167 -28 -76.5s-6 -103.833 -6 -208.5s2 -174.167 6 -208.5s13.333 -59.833 28 -76.5c15.333 -17.333 36.333 -26 63 -26s48.167 9.5 64.5 28.5
s24.5 45.167 24.5 78.5v175h-89v50h148v-225zM242 784h-63v63h63v-63z" />
    <glyph glyph-name="gdotaccent" unicode="&#x121;" horiz-adv-x="365" 
d="M303 509v-523.997c0 -42.667 -2.66699 -74.834 -8 -96.501s-15.333 -40.5 -30 -56.5c-23.333 -24.667 -53.666 -37 -90.999 -37c-38.667 0 -69.334 11.333 -92.001 34c-23.333 24 -35 59.667 -35 107h55c0 -34 7.33301 -58.333 22 -73c12 -12.667 28.333 -19 49 -19
s37.334 7.33301 50.001 22c16 16.667 24 56 24 118v65c-6 -10.667 -15 -20.334 -27 -29.001c-16.667 -11.333 -35.667 -17 -57 -17c-32 0 -58.333 11.667 -79 35c-15.333 17.333 -25.666 42.166 -30.999 74.499s-8 81.5 -8 147.5c0 66.667 2.66699 116 8 148
s15.666 56.333 30.999 73c21.333 24 47.666 36 78.999 36c22 0 41.333 -5.66699 58 -17c11.333 -8 20.333 -18 27 -30v39h55zM247 141.003l0.000976562 237.001c0 31.333 -7.66699 54.666 -23 69.999c-14 12.667 -30.333 19 -49 19c-19.333 0 -35.333 -7.66699 -48 -23
c-10.667 -12.667 -17.667 -31.667 -21 -57s-5 -68 -5 -128s1.66699 -102.667 5 -128s10.333 -44.333 21 -57c12.667 -14.667 28.667 -22 48 -22c21.333 0 37.666 6 48.999 18c15.333 17.333 23 41 23 71zM207.001 610.004h-63v63h63v-63z" />
    <glyph glyph-name="Gcommaaccent" unicode="&#x122;" horiz-adv-x="412" 
d="M358 152c0 -51.333 -14.167 -90.833 -42.5 -118.5s-63.5 -41.5 -105.5 -41.5c-44.667 0 -80 14 -106 42c-21.333 22.667 -35 53.5 -41 92.5s-9 115.5 -9 229.5s3 190.5 9 229.5s19.667 69.833 41 92.5c26 28 61.333 42 106 42c43.333 0 78 -13 104 -39
c28 -30 42.667 -74 44 -132h-59c0 78.667 -29.667 118 -89 118c-26.667 0 -47.667 -8.66699 -63 -26c-14.667 -16.667 -24 -42.167 -28 -76.5s-6 -103.833 -6 -208.5s2 -174.167 6 -208.5s13.333 -59.833 28 -76.5c15.333 -17.333 36.333 -26 63 -26s48.167 9.5 64.5 28.5
s24.5 45.167 24.5 78.5v175h-89v50h148v-225zM236 -37l-46 -134h-53l53 134h46z" />
    <glyph glyph-name="gcommaaccent" unicode="&#x123;" horiz-adv-x="365" 
d="M303 509v-523.997c0 -42.667 -2.66699 -74.834 -8 -96.501s-15.333 -40.5 -30 -56.5c-23.333 -24.667 -53.666 -37 -90.999 -37c-38.667 0 -69.334 11.333 -92.001 34c-23.333 24 -35 59.667 -35 107h55c0 -34 7.33301 -58.333 22 -73c12 -12.667 28.333 -19 49 -19
s37.334 7.33301 50.001 22c16 16.667 24 56 24 118v65c-6 -10.667 -15 -20.334 -27 -29.001c-16.667 -11.333 -35.667 -17 -57 -17c-32 0 -58.333 11.667 -79 35c-15.333 17.333 -25.666 42.166 -30.999 74.499s-8 81.5 -8 147.5c0 66.667 2.66699 116 8 148
s15.666 56.333 30.999 73c21.333 24 47.666 36 78.999 36c22 0 41.333 -5.66699 58 -17c11.333 -8 20.333 -18 27 -30v39h55zM247 141.003l0.000976562 237.001c0 31.333 -7.66699 54.666 -23 69.999c-14 12.667 -30.333 19 -49 19c-19.333 0 -35.333 -7.66699 -48 -23
c-10.667 -12.667 -17.667 -31.667 -21 -57s-5 -68 -5 -128s1.66699 -102.667 5 -128s10.333 -44.333 21 -57c12.667 -14.667 28.667 -22 48 -22c21.333 0 37.666 6 48.999 18c15.333 17.333 23 41 23 71zM152.001 586.004l46 134h53l-53 -134h-46z" />
    <glyph glyph-name="Hcircumflex" unicode="&#x124;" horiz-adv-x="432" 
d="M363 0h-59v336h-176v-336h-59v712h59v-323h176v323h59v-712zM327 764h-52l-59 92l-60 -92h-52l87 130h50z" />
    <glyph glyph-name="hcircumflex" unicode="&#x125;" horiz-adv-x="373" 
d="M315 0h-55.999v383c0 26.667 -6.5 47.167 -19.5 61.5s-29.833 21.5 -50.5 21.5s-37.667 -7.16699 -51 -21.5s-20 -34.833 -20 -61.5v-383h-56v712h56v-243c4 9.33301 13.333 19.333 28 30c17.333 12 36.666 18 57.999 18c31.333 0 58 -11.667 80 -35
c20.667 -22 31 -55.333 31 -100v-382zM202.001 764h-51l-60 92l-60 -92h-52l87 130h50z" />
    <glyph glyph-name="Hbar" unicode="&#x126;" horiz-adv-x="442" 
d="M419 520h-51v-520h-59v335h-176v-335h-60v520h-50v48h50v144h60v-144h176v144h59v-144h51v-48zM309 389v131h-176v-131h176z" />
    <glyph glyph-name="hbar" unicode="&#x127;" horiz-adv-x="387" 
d="M329 0h-55.999v383c0 26.667 -6.5 47.167 -19.5 61.5s-29.833 21.5 -50.5 21.5s-37.667 -7.16699 -51 -21.5s-20 -34.833 -20 -61.5v-383h-56v584h-60v42h60v86h56v-86h87v-42h-87v-115c4 9.33301 13.333 19.333 28 30c17.333 12 36.666 18 57.999 18
c31.333 0 58 -11.667 80 -35c20.667 -22 31 -55.333 31 -100v-382z" />
    <glyph glyph-name="Itilde" unicode="&#x128;" horiz-adv-x="197" 
d="M128 0h-59v712h59v-712zM218 813c-26 -25.333 -49.666 -38 -70.999 -38c-15.333 0 -33.333 5.66699 -54 17c-16.667 10.667 -30.667 16 -42 16c-12.667 0 -27 -8 -43 -24l-28 29c25.333 25.333 48.666 38 69.999 38c17.333 0 35.333 -5.66699 54 -17
c18 -10.667 32 -16 42 -16c12.667 0 27 8 43 24z" />
    <glyph glyph-name="itilde" unicode="&#x129;" horiz-adv-x="181" 
d="M119 0h-56v509h56v-509zM211 635c-26 -25.333 -49.666 -38 -70.999 -38c-15.333 0 -33.333 5.66699 -54 17c-16.667 10.667 -30.667 16 -42 16c-12.667 0 -27 -8 -43 -24l-28 29c25.333 25.333 48.666 38 69.999 38c17.333 0 35.333 -5.66699 54 -17
c18 -10.667 32 -16 42 -16c12.667 0 27 8 43 24z" />
    <glyph glyph-name="Imacron" unicode="&#x12a;" horiz-adv-x="197" 
d="M128 0h-59v712h59v-712zM205 785h-212v45h212v-45z" />
    <glyph glyph-name="imacron" unicode="&#x12b;" horiz-adv-x="181" 
d="M119 0h-56v509h56v-509zM197 611h-212v45h212v-45z" />
    <glyph glyph-name="Ibreve" unicode="&#x12c;" horiz-adv-x="197" 
d="M128 0h-59v712h59v-712zM210 858c-6 -69.333 -42.667 -104 -110 -104c-68 0 -105 34.667 -111 104h46c4.66699 -40 26.334 -60 65.001 -60c37.333 0 58.666 20 63.999 60h46z" />
    <glyph glyph-name="ibreve" unicode="&#x12d;" horiz-adv-x="181" 
d="M119 0h-56v509h56v-509zM202 684c-6 -69.333 -42.668 -104 -110.001 -104s-104.333 34.667 -111 104h46c4.66699 -40 26.334 -60 65.001 -60c37.333 0 59 20 65 60h45z" />
    <glyph glyph-name="Iogonek" unicode="&#x12e;" horiz-adv-x="197" 
d="M128 0h-59v712h59v-712zM127 -37l-46 -134h-53l53 134h46z" />
    <glyph glyph-name="iogonek" unicode="&#x12f;" horiz-adv-x="181" 
d="M118 0h-56v509h56v-509zM126 626h-72v72h72v-72zM118 -37l-46 -134h-53l53 134h46z" />
    <glyph glyph-name="Idotaccent" unicode="&#x130;" horiz-adv-x="197" 
d="M128 0h-59v712h59v-712zM130 784h-63v63h63v-63z" />
    <glyph glyph-name="dotlessi" unicode="&#x131;" horiz-adv-x="181" 
d="M119 0h-56v509h56v-509z" />
    <glyph glyph-name="IJ" unicode="&#x132;" horiz-adv-x="529" 
d="M128 0h-59v712h59v-712zM468 153c0 -52 -13.999 -92 -41.999 -120c-27.333 -27.333 -63.333 -41 -108 -41c-47.333 0 -85 16.667 -113 50l43 39c17.333 -24 40.666 -36 69.999 -36c26.667 0 48.5 9.5 65.5 28.5s25.5 45.5 25.5 79.5v559h59v-559z" />
    <glyph glyph-name="ij" unicode="&#x133;" horiz-adv-x="362" 
d="M118 0h-56v509h56v-509zM126 626h-72v72h72v-72zM299 -68c0 -45.333 -12.666 -79.667 -37.999 -103c-22.667 -21.333 -56.334 -32 -101.001 -32v50c55.333 0 83 28.667 83 86v576h56v-577zM307.001 625.999h-72v72h72v-72z" />
    <glyph glyph-name="Jcircumflex" unicode="&#x134;" horiz-adv-x="332" 
d="M271 153c0 -52 -13.999 -92 -41.999 -120c-27.333 -27.333 -63.333 -41 -108 -41c-47.333 0 -85 16.667 -113 50l43 39c17.333 -24 40.666 -36 69.999 -36c26.667 0 48.5 9.5 65.5 28.5s25.5 45.5 25.5 79.5v559h59v-559zM353.001 764h-52l-59 92l-60 -92h-52l87 130h50z
" />
    <glyph glyph-name="jcircumflex" unicode="&#x135;" horiz-adv-x="181" 
d="M118 -67c0 -46 -12.666 -80.667 -37.999 -104c-22.667 -21.333 -56.334 -32 -101.001 -32v50c27.333 0 48 6.66699 62 20s21 35.333 21 66v576h56v-576zM202.001 586h-51l-60 92l-60 -92h-52l87 130h50z" />
    <glyph glyph-name="Kcommaaccent" unicode="&#x136;" horiz-adv-x="409" 
d="M399 0h-64l-138 352l-69 -136v-216h-59v712h59v-387l189 387h63l-146 -294zM247 -37l-46 -134h-53l53 134h46z" />
    <glyph glyph-name="kcommaaccent" unicode="&#x137;" horiz-adv-x="373" 
d="M357 0h-62l-110 265l-67 -106v-159h-56v712h56v-470l161 267h61l-120 -195zM227 -37l-46 -134h-53l53 134h46z" />
    <glyph glyph-name="kgreenlandic" unicode="&#x138;" horiz-adv-x="373" 
d="M357 0h-62l-110 265l-67 -106v-159h-56v509h56v-267l161 267h61l-120 -195z" />
    <glyph glyph-name="Lacute" unicode="&#x139;" horiz-adv-x="339" 
d="M317 0h-248v712h59v-659h189v-53zM195 894l-75 -130h-49l65 130h59z" />
    <glyph glyph-name="lacute" unicode="&#x13a;" horiz-adv-x="212" 
d="M196 0c-44.667 0 -78.333 10.667 -101 32c-25.333 23.333 -38 58 -38 104v576h56v-576c0 -57.333 27.667 -86 83 -86v-50zM181.001 890l-74 -130h-49l65 130h58z" />
    <glyph glyph-name="Lcommaaccent" unicode="&#x13b;" horiz-adv-x="339" 
d="M317 0h-248v712h59v-659h189v-53zM228 -37l-46 -134h-53l53 134h46z" />
    <glyph glyph-name="lcommaaccent" unicode="&#x13c;" horiz-adv-x="212" 
d="M196 0c-44.667 0 -78.333 10.667 -101 32c-25.333 23.333 -38 58 -38 104v576h56v-576c0 -57.333 27.667 -86 83 -86v-50zM163.001 -37l-46 -134h-53l53 134h46z" />
    <glyph glyph-name="Lcaron" unicode="&#x13d;" horiz-adv-x="339" 
d="M317 0h-248v712h59v-659h189v-53zM266 712l-30 -134h-44l21 134h53z" />
    <glyph glyph-name="lcaron" unicode="&#x13e;" horiz-adv-x="212" 
d="M196 0c-44.667 0 -78.333 10.667 -101 32c-25.333 23.333 -38 58 -38 104v576h56v-576c0 -57.333 27.667 -86 83 -86v-50zM233.001 719l-30 -134h-44l21 134h53z" />
    <glyph glyph-name="Ldot" unicode="&#x13f;" horiz-adv-x="339" 
d="M317 0h-248v712h59v-659h189v-53zM301 324h-63v63h63v-63z" />
    <glyph glyph-name="ldot" unicode="&#x140;" horiz-adv-x="208" 
d="M196 0c-44.667 0 -78.333 10.667 -101 32c-25.333 23.333 -38 58 -38 104v576h56v-576c0 -57.333 27.667 -86 83 -86v-50zM223.001 274h-63v63h63v-63z" />
    <glyph glyph-name="Lslash" unicode="&#x141;" horiz-adv-x="341" 
d="M318 0h-248v294l-50 -47v64l50 48v353h59v-300l95 90v-64l-95 -91v-294h189v-53z" />
    <glyph glyph-name="lslash" unicode="&#x142;" horiz-adv-x="238" 
d="M218 0c-44.667 0 -78.333 10.667 -101 32c-25.333 23.333 -38 58 -38 104v184l-62 -64v63l62 64v329h56v-276l63 66v-63l-63 -66v-237c0 -57.333 27.667 -86 83 -86v-50z" />
    <glyph glyph-name="Nacute" unicode="&#x143;" horiz-adv-x="454" 
d="M385 0h-58l-199 555v-555h-59v712h59l198 -555v555h59v-712zM323 894l-75 -130h-49l65 130h59z" />
    <glyph glyph-name="nacute" unicode="&#x144;" horiz-adv-x="373" 
d="M315 0h-56v383c0 26.667 -6.5 47.167 -19.5 61.5s-29.833 21.5 -50.5 21.5s-37.667 -7.16699 -51 -21.5s-20 -34.833 -20 -61.5v-383h-56v509h55v-41c6.66699 12 16.334 22.333 29.001 31c17.333 12 36.666 18 57.999 18c31.333 0 58 -11.667 80 -35
c20.667 -22 31 -55.333 31 -100v-382zM286 716l-74 -130h-49l65 130h58z" />
    <glyph glyph-name="Ncommaaccent" unicode="&#x145;" horiz-adv-x="454" 
d="M385 0h-58l-199 555v-555h-59v712h59l198 -555v555h59v-712zM247 -37l-46 -134h-53l53 134h46z" />
    <glyph glyph-name="ncommaaccent" unicode="&#x146;" horiz-adv-x="373" 
d="M315 0h-56v383c0 26.667 -6.5 47.167 -19.5 61.5s-29.833 21.5 -50.5 21.5s-37.667 -7.16699 -51 -21.5s-20 -34.833 -20 -61.5v-383h-56v509h55v-41c6.66699 12 16.334 22.333 29.001 31c17.333 12 36.666 18 57.999 18c31.333 0 58 -11.667 80 -35
c20.667 -22 31 -55.333 31 -100v-382zM219 -37l-46 -134h-53l53 134h46z" />
    <glyph glyph-name="Ncaron" unicode="&#x147;" horiz-adv-x="454" 
d="M385 0h-58l-199 555v-555h-59v712h59l198 -555v555h59v-712zM338 887l-86 -129h-50l-87 129h52l60 -91l59 91h52z" />
    <glyph glyph-name="ncaron" unicode="&#x148;" horiz-adv-x="373" 
d="M315 0h-56v383c0 26.667 -6.5 47.167 -19.5 61.5s-29.833 21.5 -50.5 21.5s-37.667 -7.16699 -51 -21.5s-20 -34.833 -20 -61.5v-383h-56v509h55v-41c6.66699 12 16.334 22.333 29.001 31c17.333 12 36.666 18 57.999 18c31.333 0 58 -11.667 80 -35
c20.667 -22 31 -55.333 31 -100v-382zM301 709l-86 -129h-50l-87 129h52l60 -91l60 91h51z" />
    <glyph glyph-name="napostrophe" unicode="&#x149;" horiz-adv-x="383" 
d="M325 0h-56v383c0 26.667 -6.5 47.167 -19.5 61.5s-29.833 21.5 -50.5 21.5s-37.667 -7.16699 -51 -21.5s-20 -34.833 -20 -61.5v-383h-56v509h55v-41c6.66699 12 16.334 22.333 29.001 31c17.333 12 36.666 18 57.999 18c31.333 0 58 -11.667 80 -35
c20.667 -22 31 -55.333 31 -100v-382zM52 607l-52 -40v152h52v-112z" />
    <glyph glyph-name="Eng" unicode="&#x14a;" horiz-adv-x="454" 
d="M246 -120c26.667 0.666992 46.834 7.5 60.501 20.5s20.5 34.833 20.5 65.5v34l-199 555v-555h-59v712h59l198 -555v555h59v-746c0 -46 -12.667 -80.667 -38 -104c-22.667 -21.333 -56.334 -32 -101.001 -32v50z" />
    <glyph glyph-name="eng" unicode="&#x14b;" horiz-adv-x="373" 
d="M315 -35c0 -46 -12.666 -80.667 -37.999 -104c-22.667 -21.333 -56.334 -32 -101.001 -32v50c27.333 0 48 6.66699 62 20s21 35.333 21 66v418c0 26.667 -6.5 47.167 -19.5 61.5s-29.833 21.5 -50.5 21.5s-37.667 -7.16699 -51 -21.5s-20 -34.833 -20 -61.5v-383h-56v509
h55v-41c6.66699 12 16.334 22.333 29.001 31c17.333 12 36.666 18 57.999 18c31.333 0 58 -11.667 80 -35c20.667 -22 31 -55.333 31 -100v-417z" />
    <glyph glyph-name="Omacron" unicode="&#x14c;" horiz-adv-x="421" 
d="M367 356c0 -114 -3 -190.5 -9 -229.5s-19.667 -69.833 -41 -92.5c-26 -28 -61.667 -42 -107 -42c-44.667 0 -80 14 -106 42c-21.333 22.667 -35 53.5 -41 92.5s-9 115.5 -9 229.5s3 190.5 9 229.5s19.667 69.833 41 92.5c26 28 61.333 42 106 42c45.333 0 81 -14 107 -42
c21.333 -22.667 35 -53.5 41 -92.5s9 -115.5 9 -229.5zM308 356c0 104.667 -2 174.167 -6 208.5s-13.333 59.833 -28 76.5c-15.333 17.333 -36.666 26 -63.999 26c-26.667 0 -47.667 -8.66699 -63 -26c-14.667 -16.667 -24 -42.167 -28 -76.5s-6 -103.833 -6 -208.5
s2 -174.167 6 -208.5s13.333 -59.833 28 -76.5c15.333 -17.333 36.333 -26 63 -26c27.333 0 48.666 8.66699 63.999 26c14.667 16.667 24 42.167 28 76.5s6 103.833 6 208.5zM317 785h-212v45h212v-45z" />
    <glyph glyph-name="omacron" unicode="&#x14d;" horiz-adv-x="353" 
d="M309 254c0 -63.333 -2.66699 -111.666 -8 -144.999s-15.333 -59 -30 -77c-22 -26.667 -53.333 -40 -94 -40s-72 13.333 -94 40c-14.667 18 -24.667 43.667 -30 77s-8 81.666 -8 144.999s2.66699 111.666 8 144.999s15.333 59 30 77c22 27.333 53.333 41 94 41
s72 -13.667 94 -41c14.667 -18 24.667 -43.667 30 -77s8 -81.666 8 -144.999zM253 254c0 59.333 -1.66699 102.499 -5 129.499s-10.333 47.167 -21 60.5c-12.667 15.333 -29.334 23 -50.001 23c-21.333 0 -38.333 -7.66699 -51 -23c-10.667 -13.333 -17.5 -33.333 -20.5 -60
s-4.5 -70 -4.5 -130s1.5 -103.167 4.5 -129.5s9.83301 -46.166 20.5 -59.499c12.667 -15.333 29.667 -23 51 -23c20.667 0 37.334 7.66699 50.001 23c10.667 13.333 17.667 33.333 21 60s5 69.667 5 129zM283 610.999h-212v45h212v-45z" />
    <glyph glyph-name="Obreve" unicode="&#x14e;" horiz-adv-x="421" 
d="M367 356c0 -114 -3 -190.5 -9 -229.5s-19.667 -69.833 -41 -92.5c-26 -28 -61.667 -42 -107 -42c-44.667 0 -80 14 -106 42c-21.333 22.667 -35 53.5 -41 92.5s-9 115.5 -9 229.5s3 190.5 9 229.5s19.667 69.833 41 92.5c26 28 61.333 42 106 42c45.333 0 81 -14 107 -42
c21.333 -22.667 35 -53.5 41 -92.5s9 -115.5 9 -229.5zM308 356c0 104.667 -2 174.167 -6 208.5s-13.333 59.833 -28 76.5c-15.333 17.333 -36.666 26 -63.999 26c-26.667 0 -47.667 -8.66699 -63 -26c-14.667 -16.667 -24 -42.167 -28 -76.5s-6 -103.833 -6 -208.5
s2 -174.167 6 -208.5s13.333 -59.833 28 -76.5c15.333 -17.333 36.333 -26 63 -26c27.333 0 48.666 8.66699 63.999 26c14.667 16.667 24 42.167 28 76.5s6 103.833 6 208.5zM322 858c-6 -69.333 -42.667 -104 -110 -104c-68 0 -105 34.667 -111 104h46
c4.66699 -40 26.334 -60 65.001 -60c37.333 0 58.666 20 63.999 60h46z" />
    <glyph glyph-name="obreve" unicode="&#x14f;" horiz-adv-x="353" 
d="M309 254c0 -63.333 -2.66699 -111.666 -8 -144.999s-15.333 -59 -30 -77c-22 -26.667 -53.333 -40 -94 -40s-72 13.333 -94 40c-14.667 18 -24.667 43.667 -30 77s-8 81.666 -8 144.999s2.66699 111.666 8 144.999s15.333 59 30 77c22 27.333 53.333 41 94 41
s72 -13.667 94 -41c14.667 -18 24.667 -43.667 30 -77s8 -81.666 8 -144.999zM253 254c0 59.333 -1.66699 102.499 -5 129.499s-10.333 47.167 -21 60.5c-12.667 15.333 -29.334 23 -50.001 23c-21.333 0 -38.333 -7.66699 -51 -23c-10.667 -13.333 -17.5 -33.333 -20.5 -60
s-4.5 -70 -4.5 -130s1.5 -103.167 4.5 -129.5s9.83301 -46.166 20.5 -59.499c12.667 -15.333 29.667 -23 51 -23c20.667 0 37.334 7.66699 50.001 23c10.667 13.333 17.667 33.333 21 60s5 69.667 5 129zM288 683.999c-6 -69.333 -42.668 -104 -110.001 -104
s-104.333 34.667 -111 104h46c4.66699 -40 26.334 -60 65.001 -60c37.333 0 59 20 65 60h45z" />
    <glyph glyph-name="Ohungarumlaut" unicode="&#x150;" horiz-adv-x="421" 
d="M367 356c0 -114 -3 -190.5 -9 -229.5s-19.667 -69.833 -41 -92.5c-26 -28 -61.667 -42 -107 -42c-44.667 0 -80 14 -106 42c-21.333 22.667 -35 53.5 -41 92.5s-9 115.5 -9 229.5s3 190.5 9 229.5s19.667 69.833 41 92.5c26 28 61.333 42 106 42c45.333 0 81 -14 107 -42
c21.333 -22.667 35 -53.5 41 -92.5s9 -115.5 9 -229.5zM308 356c0 104.667 -2 174.167 -6 208.5s-13.333 59.833 -28 76.5c-15.333 17.333 -36.666 26 -63.999 26c-26.667 0 -47.667 -8.66699 -63 -26c-14.667 -16.667 -24 -42.167 -28 -76.5s-6 -103.833 -6 -208.5
s2 -174.167 6 -208.5s13.333 -59.833 28 -76.5c15.333 -17.333 36.333 -26 63 -26c27.333 0 48.666 8.66699 63.999 26c14.667 16.667 24 42.167 28 76.5s6 103.833 6 208.5zM241 894l-70 -130h-48l59 130h59zM367 894l-70 -130h-47l58 130h59z" />
    <glyph glyph-name="ohungarumlaut" unicode="&#x151;" horiz-adv-x="353" 
d="M309 254c0 -63.333 -2.66699 -111.666 -8 -144.999s-15.333 -59 -30 -77c-22 -26.667 -53.333 -40 -94 -40s-72 13.333 -94 40c-14.667 18 -24.667 43.667 -30 77s-8 81.666 -8 144.999s2.66699 111.666 8 144.999s15.333 59 30 77c22 27.333 53.333 41 94 41
s72 -13.667 94 -41c14.667 -18 24.667 -43.667 30 -77s8 -81.666 8 -144.999zM253 254c0 59.333 -1.66699 102.499 -5 129.499s-10.333 47.167 -21 60.5c-12.667 15.333 -29.334 23 -50.001 23c-21.333 0 -38.333 -7.66699 -51 -23c-10.667 -13.333 -17.5 -33.333 -20.5 -60
s-4.5 -70 -4.5 -130s1.5 -103.167 4.5 -129.5s9.83301 -46.166 20.5 -59.499c12.667 -15.333 29.667 -23 51 -23c20.667 0 37.334 7.66699 50.001 23c10.667 13.333 17.667 33.333 21 60s5 69.667 5 129zM205 715.999l-69 -130h-48l59 130h58zM331 715.999l-69 -130h-47
l58 130h58z" />
    <glyph glyph-name="OE" unicode="&#x152;" horiz-adv-x="602" 
d="M556 0l-245.999 0.00195312v40c-22.667 -32 -56.334 -48 -101.001 -48c-44 0 -79 14 -105 42c-21.333 23.333 -35 55.166 -41 95.499s-9 115.833 -9 226.5s3 186.167 9 226.5s19.667 72.166 41 95.499c26 28 61 42 105 42c45.333 0 79 -16 101 -48v40h246v-53h-190v-276
h164v-53h-164v-277h190v-53zM308.001 356.002c0 104.667 -2 174 -6 208s-13.333 59.667 -28 77c-15.333 17.333 -36.666 26 -63.999 26c-26.667 0 -47.667 -8.66699 -63 -26c-14.667 -17.333 -24 -43 -28 -77s-6 -103.333 -6 -208s2 -174 6 -208s13.333 -59.667 28 -77
c15.333 -17.333 36.333 -26 63 -26c27.333 0 48.666 8.66699 63.999 26c14.667 17.333 24 43 28 77s6 103.333 6 208z" />
    <glyph glyph-name="oe" unicode="&#x153;" horiz-adv-x="559" 
d="M516 246l-207.001 0.00292969c0 -56.667 1.66699 -98 5 -124s10.333 -45 21 -57c12.667 -15.333 29.667 -23 51 -23c22.667 0 39.667 6.66699 51 20c15.333 15.333 23 39.333 23 72h55c0 -45.333 -12.667 -81 -38 -107c-21.333 -23.333 -51.666 -35 -90.999 -35
c-34.667 0 -63.334 11.333 -86.001 34c-8.66699 10 -15 19.667 -19 29c-4 -9.33301 -10.333 -19 -19 -29c-20.667 -22.667 -49 -34 -85 -34c-40 0 -71.333 13.333 -94 40c-14.667 18 -24.667 43.667 -30 77s-8 81.666 -8 144.999s2.66699 111.833 8 145.5
s15.333 59.167 30 76.5c22 27.333 53.333 41 94 41c34.667 0 63.334 -11.333 86.001 -34c7.33301 -8.66699 13.333 -18.334 18 -29.001c4.66699 11.333 11 21 19 29c22.667 22.667 50.667 34 84 34c38 0 68.333 -12.333 91 -37c16 -18 26.833 -44.333 32.5 -79
s8.5 -86.334 8.5 -155.001zM252.999 254.003c0 59.333 -1.66602 102.5 -4.99902 129.5s-10.333 47.167 -21 60.5c-12.667 15.333 -29.334 23 -50.001 23c-21.333 0 -38.333 -7.66699 -51 -23c-10.667 -13.333 -17.5 -33.333 -20.5 -60s-4.5 -70 -4.5 -130
c0 -60.667 1.5 -104.167 4.5 -130.5s9.83301 -45.833 20.5 -58.5c12 -15.333 29 -23 51 -23c21.333 0 38 7.66699 50 23c10.667 12.667 17.667 32.5 21 59.5s5 70.167 5 129.5zM460 291.003c0 46.667 -1.66602 81 -4.99902 103s-10 38.667 -20 50
c-12.667 15.333 -29.667 23 -51 23c-20.667 0 -37.334 -7.66699 -50.001 -23c-10 -11.333 -16.667 -28 -20 -50s-5 -56.333 -5 -103h151z" />
    <glyph glyph-name="Racute" unicode="&#x154;" horiz-adv-x="432" 
d="M386 0h-63l-103 319h-92v-319h-59v712h140c49.333 0 87.333 -13.667 114 -41s40 -79.333 40 -156c0 -101.333 -29.333 -163 -88 -185zM304 515c0 48.667 -6.83301 84.833 -20.5 108.5s-37.834 35.5 -72.501 35.5h-83v-287h83c34.667 0 58.834 11.667 72.501 35
s20.5 59.333 20.5 108zM298 893.999l-75 -130h-49l65 130h59z" />
    <glyph glyph-name="racute" unicode="&#x155;" horiz-adv-x="245" 
d="M229 464l-11.999 0.000976562c-30 0 -54 -8.83301 -72 -26.5s-27 -41.834 -27 -72.501v-365h-56v509h55v-54c5.33301 11.333 13.666 22 24.999 32c22 20 51 30 87 30v-53zM226.001 716.001l-74 -130h-49l65 130h58z" />
    <glyph glyph-name="Rcommaaccent" unicode="&#x156;" horiz-adv-x="432" 
d="M386 0h-63l-103 319h-92v-319h-59v712h140c49.333 0 87.333 -13.667 114 -41s40 -79.333 40 -156c0 -101.333 -29.333 -163 -88 -185zM304 515c0 48.667 -6.83301 84.833 -20.5 108.5s-37.834 35.5 -72.501 35.5h-83v-287h83c34.667 0 58.834 11.667 72.501 35
s20.5 59.333 20.5 108zM244 -37.001l-46 -134h-53l53 134h46z" />
    <glyph glyph-name="rcommaaccent" unicode="&#x157;" horiz-adv-x="245" 
d="M229 464l-11.999 0.000976562c-30 0 -54 -8.83301 -72 -26.5s-27 -41.834 -27 -72.501v-365h-56v509h55v-54c5.33301 11.333 13.666 22 24.999 32c22 20 51 30 87 30v-53zM118.001 -36.999l-46 -134h-53l53 134h46z" />
    <glyph glyph-name="Rcaron" unicode="&#x158;" horiz-adv-x="432" 
d="M386 0h-63l-103 319h-92v-319h-59v712h140c49.333 0 87.333 -13.667 114 -41s40 -79.333 40 -156c0 -101.333 -29.333 -163 -88 -185zM304 515c0 48.667 -6.83301 84.833 -20.5 108.5s-37.834 35.5 -72.501 35.5h-83v-287h83c34.667 0 58.834 11.667 72.501 35
s20.5 59.333 20.5 108zM313 886.999l-86 -129h-50l-87 129h52l60 -91l59 91h52z" />
    <glyph glyph-name="rcaron" unicode="&#x159;" horiz-adv-x="245" 
d="M229 464l-11.999 0.000976562c-30 0 -54 -8.83301 -72 -26.5s-27 -41.834 -27 -72.501v-365h-56v509h55v-54c5.33301 11.333 13.666 22 24.999 32c22 20 51 30 87 30v-53zM242.001 709.001l-86 -129h-50l-87 129h52l60 -91l60 91h51z" />
    <glyph glyph-name="Sacute" unicode="&#x15a;" horiz-adv-x="396" 
d="M350 186c0 -73.333 -14.6699 -124.669 -44.0029 -154.002c-25.333 -25.333 -62.333 -38 -111 -38c-49.333 0 -86.666 12.667 -111.999 38c-16 16.667 -27 35.334 -33 56.001s-9 50.667 -9 90h59c0 -52.667 9.33301 -88.334 28 -107.001c16 -16 38.333 -24 67 -24
c30.667 0 53.334 8 68.001 24c18.667 20 28 57.667 28 113c0 45.333 -5 78 -15 98s-30 36 -60 48l-76 31c-36.667 14.667 -61.5 34.5 -74.5 59.5s-19.5 64.5 -19.5 118.5c0 63.333 16.333 110.333 49 141c26.667 25.333 61.334 38 104.001 38c45.333 0 81 -13 107 -39
c16.667 -16.667 28 -35.5 34 -56.5s9 -48.167 9 -81.5h-59c0 44.667 -9 77.334 -27 98.001c-15.333 17.333 -37 26 -65 26c-26 0 -46.667 -7.66699 -62 -23c-20.667 -20.667 -31 -54.667 -31 -102c0 -41.333 4.83301 -70.5 14.5 -87.5s30.5 -32.167 62.5 -45.5l76 -31
c36.667 -14.667 61.167 -36.167 73.5 -64.5s18.5 -70.166 18.5 -125.499zM297.997 893.997l-75 -130h-49l65 130h59z" />
    <glyph glyph-name="sacute" unicode="&#x15b;" horiz-adv-x="336" 
d="M303 130c0 -39.333 -13.3291 -72.332 -39.9961 -98.999c-26 -26 -58.333 -39 -97 -39c-38 0 -69 12 -93 36c-26.667 27.333 -40 64 -40 110h56c0 -32.667 8.66699 -57.667 26 -75c14 -14 31 -21 51 -21c23.333 0 42.666 7.66699 57.999 23s23 36.333 23 63
c0 22 -4.66699 40.333 -14 55c-10.667 16.667 -27.667 31.334 -51 44.001l-64 35c-30.667 17.333 -52.667 37.333 -66 60c-9.33301 18 -14 39.333 -14 64c0 37.333 13.333 69.333 40 96c23.333 23.333 53.666 35 90.999 35c38 0 68.333 -11.333 91 -34
c24.667 -24.667 37 -61.334 37 -110.001h-56c0 34 -7.33301 58.667 -22 74c-12.667 13.333 -29.334 20 -50.001 20c-22.667 0 -40.334 -6.33301 -53.001 -19c-14.667 -14 -22 -34 -22 -60c0 -18 3.33301 -32.667 10 -44c6 -10.667 21.667 -23.334 47 -38.001l63 -36
c32.667 -18 55.667 -38 69 -60s20 -48.667 20 -80zM269.004 716.001l-74 -130h-49l65 130h58z" />
    <glyph glyph-name="Scircumflex" unicode="&#x15c;" horiz-adv-x="396" 
d="M350 186c0 -73.333 -14.6699 -124.669 -44.0029 -154.002c-25.333 -25.333 -62.333 -38 -111 -38c-49.333 0 -86.666 12.667 -111.999 38c-16 16.667 -27 35.334 -33 56.001s-9 50.667 -9 90h59c0 -52.667 9.33301 -88.334 28 -107.001c16 -16 38.333 -24 67 -24
c30.667 0 53.334 8 68.001 24c18.667 20 28 57.667 28 113c0 45.333 -5 78 -15 98s-30 36 -60 48l-76 31c-36.667 14.667 -61.5 34.5 -74.5 59.5s-19.5 64.5 -19.5 118.5c0 63.333 16.333 110.333 49 141c26.667 25.333 61.334 38 104.001 38c45.333 0 81 -13 107 -39
c16.667 -16.667 28 -35.5 34 -56.5s9 -48.167 9 -81.5h-59c0 44.667 -9 77.334 -27 98.001c-15.333 17.333 -37 26 -65 26c-26 0 -46.667 -7.66699 -62 -23c-20.667 -20.667 -31 -54.667 -31 -102c0 -41.333 4.83301 -70.5 14.5 -87.5s30.5 -32.167 62.5 -45.5l76 -31
c36.667 -14.667 61.167 -36.167 73.5 -64.5s18.5 -70.166 18.5 -125.499zM312.997 763.997h-52l-59 92l-60 -92h-52l87 130h50z" />
    <glyph glyph-name="scircumflex" unicode="&#x15d;" horiz-adv-x="336" 
d="M303 130c0 -39.333 -13.3291 -72.332 -39.9961 -98.999c-26 -26 -58.333 -39 -97 -39c-38 0 -69 12 -93 36c-26.667 27.333 -40 64 -40 110h56c0 -32.667 8.66699 -57.667 26 -75c14 -14 31 -21 51 -21c23.333 0 42.666 7.66699 57.999 23s23 36.333 23 63
c0 22 -4.66699 40.333 -14 55c-10.667 16.667 -27.667 31.334 -51 44.001l-64 35c-30.667 17.333 -52.667 37.333 -66 60c-9.33301 18 -14 39.333 -14 64c0 37.333 13.333 69.333 40 96c23.333 23.333 53.666 35 90.999 35c38 0 68.333 -11.333 91 -34
c24.667 -24.667 37 -61.334 37 -110.001h-56c0 34 -7.33301 58.667 -22 74c-12.667 13.333 -29.334 20 -50.001 20c-22.667 0 -40.334 -6.33301 -53.001 -19c-14.667 -14 -22 -34 -22 -60c0 -18 3.33301 -32.667 10 -44c6 -10.667 21.667 -23.334 47 -38.001l63 -36
c32.667 -18 55.667 -38 69 -60s20 -48.667 20 -80zM284.004 586.001h-51l-60 92l-60 -92h-52l87 130h50z" />
    <glyph glyph-name="Scedilla" unicode="&#x15e;" horiz-adv-x="396" 
d="M350 186c0 -73.333 -14.6699 -124.669 -44.0029 -154.002c-25.333 -25.333 -62.333 -38 -111 -38c-49.333 0 -86.666 12.667 -111.999 38c-16 16.667 -27 35.334 -33 56.001s-9 50.667 -9 90h59c0 -52.667 9.33301 -88.334 28 -107.001c16 -16 38.333 -24 67 -24
c30.667 0 53.334 8 68.001 24c18.667 20 28 57.667 28 113c0 45.333 -5 78 -15 98s-30 36 -60 48l-76 31c-36.667 14.667 -61.5 34.5 -74.5 59.5s-19.5 64.5 -19.5 118.5c0 63.333 16.333 110.333 49 141c26.667 25.333 61.334 38 104.001 38c45.333 0 81 -13 107 -39
c16.667 -16.667 28 -35.5 34 -56.5s9 -48.167 9 -81.5h-59c0 44.667 -9 77.334 -27 98.001c-15.333 17.333 -37 26 -65 26c-26 0 -46.667 -7.66699 -62 -23c-20.667 -20.667 -31 -54.667 -31 -102c0 -41.333 4.83301 -70.5 14.5 -87.5s30.5 -32.167 62.5 -45.5l76 -31
c36.667 -14.667 61.167 -36.167 73.5 -64.5s18.5 -70.166 18.5 -125.499zM217.997 -37.0029l-46 -134h-53l53 134h46z" />
    <glyph glyph-name="scedilla" unicode="&#x15f;" horiz-adv-x="336" 
d="M303 130c0 -39.333 -13.3291 -72.332 -39.9961 -98.999c-26 -26 -58.333 -39 -97 -39c-38 0 -69 12 -93 36c-26.667 27.333 -40 64 -40 110h56c0 -32.667 8.66699 -57.667 26 -75c14 -14 31 -21 51 -21c23.333 0 42.666 7.66699 57.999 23s23 36.333 23 63
c0 22 -4.66699 40.333 -14 55c-10.667 16.667 -27.667 31.334 -51 44.001l-64 35c-30.667 17.333 -52.667 37.333 -66 60c-9.33301 18 -14 39.333 -14 64c0 37.333 13.333 69.333 40 96c23.333 23.333 53.666 35 90.999 35c38 0 68.333 -11.333 91 -34
c24.667 -24.667 37 -61.334 37 -110.001h-56c0 34 -7.33301 58.667 -22 74c-12.667 13.333 -29.334 20 -50.001 20c-22.667 0 -40.334 -6.33301 -53.001 -19c-14.667 -14 -22 -34 -22 -60c0 -18 3.33301 -32.667 10 -44c6 -10.667 21.667 -23.334 47 -38.001l63 -36
c32.667 -18 55.667 -38 69 -60s20 -48.667 20 -80zM190.004 -36.999l-46 -134h-53l53 134h46z" />
    <glyph glyph-name="Scaron" unicode="&#x160;" horiz-adv-x="396" 
d="M350 186c0 -73.333 -14.6699 -124.669 -44.0029 -154.002c-25.333 -25.333 -62.333 -38 -111 -38c-49.333 0 -86.666 12.667 -111.999 38c-16 16.667 -27 35.334 -33 56.001s-9 50.667 -9 90h59c0 -52.667 9.33301 -88.334 28 -107.001c16 -16 38.333 -24 67 -24
c30.667 0 53.334 8 68.001 24c18.667 20 28 57.667 28 113c0 45.333 -5 78 -15 98s-30 36 -60 48l-76 31c-36.667 14.667 -61.5 34.5 -74.5 59.5s-19.5 64.5 -19.5 118.5c0 63.333 16.333 110.333 49 141c26.667 25.333 61.334 38 104.001 38c45.333 0 81 -13 107 -39
c16.667 -16.667 28 -35.5 34 -56.5s9 -48.167 9 -81.5h-59c0 44.667 -9 77.334 -27 98.001c-15.333 17.333 -37 26 -65 26c-26 0 -46.667 -7.66699 -62 -23c-20.667 -20.667 -31 -54.667 -31 -102c0 -41.333 4.83301 -70.5 14.5 -87.5s30.5 -32.167 62.5 -45.5l76 -31
c36.667 -14.667 61.167 -36.167 73.5 -64.5s18.5 -70.166 18.5 -125.499zM316.997 886.997l-86 -129h-50l-87 129h52l60 -91l59 91h52z" />
    <glyph glyph-name="scaron" unicode="&#x161;" horiz-adv-x="336" 
d="M303 130c0 -39.333 -13.3291 -72.332 -39.9961 -98.999c-26 -26 -58.333 -39 -97 -39c-38 0 -69 12 -93 36c-26.667 27.333 -40 64 -40 110h56c0 -32.667 8.66699 -57.667 26 -75c14 -14 31 -21 51 -21c23.333 0 42.666 7.66699 57.999 23s23 36.333 23 63
c0 22 -4.66699 40.333 -14 55c-10.667 16.667 -27.667 31.334 -51 44.001l-64 35c-30.667 17.333 -52.667 37.333 -66 60c-9.33301 18 -14 39.333 -14 64c0 37.333 13.333 69.333 40 96c23.333 23.333 53.666 35 90.999 35c38 0 68.333 -11.333 91 -34
c24.667 -24.667 37 -61.334 37 -110.001h-56c0 34 -7.33301 58.667 -22 74c-12.667 13.333 -29.334 20 -50.001 20c-22.667 0 -40.334 -6.33301 -53.001 -19c-14.667 -14 -22 -34 -22 -60c0 -18 3.33301 -32.667 10 -44c6 -10.667 21.667 -23.334 47 -38.001l63 -36
c32.667 -18 55.667 -38 69 -60s20 -48.667 20 -80zM284.004 709.001l-86 -129h-50l-87 129h52l60 -91l60 91h51z" />
    <glyph glyph-name="Tcommaaccent" unicode="&#x162;" horiz-adv-x="341" 
d="M319 659h-119v-659h-59v659h-119v53h297v-53zM194 -37l-46 -134h-53l53 134h46z" />
    <glyph glyph-name="tcommaaccent" unicode="&#x163;" horiz-adv-x="245" 
d="M225 0c-50 0 -86.333 10.667 -109 32c-25.333 23.333 -38 58 -38 104v329h-62v44h62v149h56v-149h87v-44h-87v-329c0 -57.333 30.333 -86 91 -86v-50zM181 -37l-46 -134h-53l53 134h46z" />
    <glyph glyph-name="Tcaron" unicode="&#x164;" horiz-adv-x="341" 
d="M319 659h-119v-659h-59v659h-119v53h297v-53zM280 887l-86 -129h-50l-87 129h52l60 -91l59 91h52z" />
    <glyph glyph-name="tcaron" unicode="&#x165;" horiz-adv-x="245" 
d="M225 0c-50 0 -86.333 10.667 -109 32c-25.333 23.333 -38 58 -38 104v329h-62v44h62v149h56v-149h87v-44h-87v-329c0 -57.333 30.333 -86 91 -86v-50zM253 719l-30 -134h-44l21 134h53z" />
    <glyph glyph-name="Tbar" unicode="&#x166;" horiz-adv-x="341" 
d="M273 332h-73v-332h-59v332h-71v49h71v278h-119v53h297v-53h-119v-278h73v-49z" />
    <glyph glyph-name="tbar" unicode="&#x167;" horiz-adv-x="245" 
d="M225 0c-50 0 -86.333 10.667 -109 32c-25.333 23.333 -38 58 -38 104v148h-62v44h62v137h-62v44h62v149h56v-149h87v-44h-87v-137h87v-44h-87v-148c0 -57.333 30.333 -86 91 -86v-50z" />
    <glyph glyph-name="Utilde" unicode="&#x168;" horiz-adv-x="417" 
d="M356 148c0 -48.667 -14 -87 -42 -115c-28.667 -27.333 -63.667 -41 -105 -41s-76.333 13.667 -105 41c-28.667 28.667 -43 67 -43 115v564h59v-569c0 -30 8.5 -53.833 25.5 -71.5s38.167 -26.5 63.5 -26.5s46.333 8.83301 63 26.5s25 41.5 25 71.5v569h59v-564zM330 813
c-26 -25.333 -49.666 -38 -70.999 -38c-15.333 0 -33.333 5.66699 -54 17c-16.667 10.667 -30.667 16 -42 16c-12.667 0 -27 -8 -43 -24l-28 29c25.333 25.333 48.666 38 69.999 38c17.333 0 35.333 -5.66699 54 -17c18 -10.667 32 -16 42 -16c12.667 0 27 8 43 24z" />
    <glyph glyph-name="utilde" unicode="&#x169;" horiz-adv-x="373" 
d="M311 0h-55v41c-6.66699 -12 -16.334 -22.333 -29.001 -31c-17.333 -12 -36.666 -18 -57.999 -18c-32 0 -58.667 11.333 -80 34c-20.667 22 -31 55.667 -31 101v382h56v-383c0 -26.667 6.5 -47.167 19.5 -61.5s29.833 -21.5 50.5 -21.5s37.667 7.16699 51 21.5
s20 34.833 20 61.5v383h56v-509zM303 635c-26 -25.333 -49.666 -38 -70.999 -38c-15.333 0 -33.333 5.66699 -54 17c-16.667 10.667 -30.667 16 -42 16c-12.667 0 -27 -8 -43 -24l-28 29c25.333 25.333 48.666 38 69.999 38c17.333 0 35.333 -5.66699 54 -17
c18 -10.667 32 -16 42 -16c12.667 0 27 8 43 24z" />
    <glyph glyph-name="Umacron" unicode="&#x16a;" horiz-adv-x="417" 
d="M356 148c0 -48.667 -14 -87 -42 -115c-28.667 -27.333 -63.667 -41 -105 -41s-76.333 13.667 -105 41c-28.667 28.667 -43 67 -43 115v564h59v-569c0 -30 8.5 -53.833 25.5 -71.5s38.167 -26.5 63.5 -26.5s46.333 8.83301 63 26.5s25 41.5 25 71.5v569h59v-564zM316 785
h-212v45h212v-45z" />
    <glyph glyph-name="umacron" unicode="&#x16b;" horiz-adv-x="373" 
d="M311 0h-55v41c-6.66699 -12 -16.334 -22.333 -29.001 -31c-17.333 -12 -36.666 -18 -57.999 -18c-32 0 -58.667 11.333 -80 34c-20.667 22 -31 55.667 -31 101v382h56v-383c0 -26.667 6.5 -47.167 19.5 -61.5s29.833 -21.5 50.5 -21.5s37.667 7.16699 51 21.5
s20 34.833 20 61.5v383h56v-509zM290 611h-212v45h212v-45z" />
    <glyph glyph-name="Ubreve" unicode="&#x16c;" horiz-adv-x="417" 
d="M356 148c0 -48.667 -14 -87 -42 -115c-28.667 -27.333 -63.667 -41 -105 -41s-76.333 13.667 -105 41c-28.667 28.667 -43 67 -43 115v564h59v-569c0 -30 8.5 -53.833 25.5 -71.5s38.167 -26.5 63.5 -26.5s46.333 8.83301 63 26.5s25 41.5 25 71.5v569h59v-564zM320 858
c-6 -69.333 -42.667 -104 -110 -104c-68 0 -105 34.667 -111 104h46c4.66699 -40 26.334 -60 65.001 -60c37.333 0 58.666 20 63.999 60h46z" />
    <glyph glyph-name="ubreve" unicode="&#x16d;" horiz-adv-x="373" 
d="M311 0h-55v41c-6.66699 -12 -16.334 -22.333 -29.001 -31c-17.333 -12 -36.666 -18 -57.999 -18c-32 0 -58.667 11.333 -80 34c-20.667 22 -31 55.667 -31 101v382h56v-383c0 -26.667 6.5 -47.167 19.5 -61.5s29.833 -21.5 50.5 -21.5s37.667 7.16699 51 21.5
s20 34.833 20 61.5v383h56v-509zM294 684c-6 -69.333 -42.668 -104 -110.001 -104s-104.333 34.667 -111 104h46c4.66699 -40 26.334 -60 65.001 -60c37.333 0 59 20 65 60h45z" />
    <glyph glyph-name="Uring" unicode="&#x16e;" horiz-adv-x="417" 
d="M356 148c0 -48.667 -14 -87 -42 -115c-28.667 -27.333 -63.667 -41 -105 -41s-76.333 13.667 -105 41c-28.667 28.667 -43 67 -43 115v564h59v-569c0 -30 8.5 -53.833 25.5 -71.5s38.167 -26.5 63.5 -26.5s46.333 8.83301 63 26.5s25 41.5 25 71.5v569h59v-564zM301 842
c0 -24.667 -9 -46 -27 -64s-39.333 -27 -64 -27c-25.333 0 -46.833 8.83301 -64.5 26.5s-26.5 39.167 -26.5 64.5s8.83301 46.833 26.5 64.5s39.167 26.5 64.5 26.5c24.667 0 46 -9 64 -27s27 -39.333 27 -64zM262 842c0 14.667 -5.16699 27 -15.5 37s-22.5 15 -36.5 15
c-14.667 0 -27.167 -5 -37.5 -15s-15.5 -22.333 -15.5 -37s5.16699 -27.167 15.5 -37.5s22.833 -15.5 37.5 -15.5c14 0 26.167 5.16699 36.5 15.5s15.5 22.833 15.5 37.5z" />
    <glyph glyph-name="uring" unicode="&#x16f;" horiz-adv-x="373" 
d="M311 0h-55v41c-6.66699 -12 -16.334 -22.333 -29.001 -31c-17.333 -12 -36.666 -18 -57.999 -18c-32 0 -58.667 11.333 -80 34c-20.667 22 -31 55.667 -31 101v382h56v-383c0 -26.667 6.5 -47.167 19.5 -61.5s29.833 -21.5 50.5 -21.5s37.667 7.16699 51 21.5
s20 34.833 20 61.5v383h56v-509zM275 672c0 -25.333 -8.83301 -46.833 -26.5 -64.5s-39.167 -26.5 -64.5 -26.5s-46.833 8.83301 -64.5 26.5s-26.5 39.167 -26.5 64.5s8.83301 46.833 26.5 64.5s39.167 26.5 64.5 26.5s46.833 -8.83301 64.5 -26.5s26.5 -39.167 26.5 -64.5z
M236 672c0 14.667 -5.16699 27.167 -15.5 37.5s-22.5 15.5 -36.5 15.5c-14.667 0 -27.167 -5.16699 -37.5 -15.5s-15.5 -22.833 -15.5 -37.5c0 -14 5.16699 -26.167 15.5 -36.5s22.833 -15.5 37.5 -15.5c14 0 26.167 5.16699 36.5 15.5s15.5 22.5 15.5 36.5z" />
    <glyph glyph-name="Uhungarumlaut" unicode="&#x170;" horiz-adv-x="417" 
d="M356 148c0 -48.667 -14 -87 -42 -115c-28.667 -27.333 -63.667 -41 -105 -41s-76.333 13.667 -105 41c-28.667 28.667 -43 67 -43 115v564h59v-569c0 -30 8.5 -53.833 25.5 -71.5s38.167 -26.5 63.5 -26.5s46.333 8.83301 63 26.5s25 41.5 25 71.5v569h59v-564zM239 894
l-70 -130h-48l59 130h59zM365 894l-70 -130h-47l58 130h59z" />
    <glyph glyph-name="uhungarumlaut" unicode="&#x171;" horiz-adv-x="373" 
d="M311 0h-55v41c-6.66699 -12 -16.334 -22.333 -29.001 -31c-17.333 -12 -36.666 -18 -57.999 -18c-32 0 -58.667 11.333 -80 34c-20.667 22 -31 55.667 -31 101v382h56v-383c0 -26.667 6.5 -47.167 19.5 -61.5s29.833 -21.5 50.5 -21.5s37.667 7.16699 51 21.5
s20 34.833 20 61.5v383h56v-509zM212 716l-69 -130h-48l59 130h58zM338 716l-69 -130h-47l58 130h58z" />
    <glyph glyph-name="Uogonek" unicode="&#x172;" horiz-adv-x="417" 
d="M356 148c0 -48.667 -14 -87 -42 -115c-28.667 -27.333 -63.667 -41 -105 -41s-76.333 13.667 -105 41c-28.667 28.667 -43 67 -43 115v564h59v-569c0 -30 8.5 -53.833 25.5 -71.5s38.167 -26.5 63.5 -26.5s46.333 8.83301 63 26.5s25 41.5 25 71.5v569h59v-564zM307 -37
l-46 -134h-53l53 134h46z" />
    <glyph glyph-name="uogonek" unicode="&#x173;" horiz-adv-x="373" 
d="M311 0h-55v41c-6.66699 -12 -16.334 -22.333 -29.001 -31c-17.333 -12 -36.666 -18 -57.999 -18c-32 0 -58.667 11.333 -80 34c-20.667 22 -31 55.667 -31 101v382h56v-383c0 -26.667 6.5 -47.167 19.5 -61.5s29.833 -21.5 50.5 -21.5s37.667 7.16699 51 21.5
s20 34.833 20 61.5v383h56v-509zM310 -37l-46 -134h-53l53 134h46z" />
    <glyph glyph-name="Wcircumflex" unicode="&#x174;" horiz-adv-x="587" 
d="M583 712l-108 -712h-62l-119 607l-118 -607h-62l-110 712h65l76 -606l115 606h67l117 -606l75 606h64zM405 764h-52l-59 92l-60 -92h-52l87 130h50z" />
    <glyph glyph-name="wcircumflex" unicode="&#x175;" horiz-adv-x="474" 
d="M470 509l-99 -509h-60l-77 416l-73 -416h-60l-97 509h65l63 -421l74 421h56l78 -421l65 421h65zM346 586h-51l-60 92l-60 -92h-52l87 130h50z" />
    <glyph glyph-name="Ycircumflex" unicode="&#x176;" horiz-adv-x="315" 
d="M312 712l-125 -414v-298h-59v298l-125 414h65l89 -326l90 326h65zM269 764h-52l-59 92l-60 -92h-52l87 130h50z" />
    <glyph glyph-name="ycircumflex" unicode="&#x177;" horiz-adv-x="308" 
d="M301 509l-144.001 -608c-9.33301 -38 -26.166 -64.833 -50.499 -80.5s-56.833 -23.5 -97.5 -23.5v50c50.667 0 81.667 21.667 93 65l23 90l-121 507h62l87 -420l87 420h61zM268.999 586h-51l-60 92l-60 -92h-52l87 130h50z" />
    <glyph glyph-name="Ydieresis" unicode="&#x178;" horiz-adv-x="315" 
d="M312 712l-125 -414v-298h-59v298l-125 414h65l89 -326l90 326h65zM259 784h-63v63h63v-63zM121 784h-63v63h63v-63z" />
    <glyph glyph-name="Zacute" unicode="&#x179;" horiz-adv-x="324" 
d="M294 0h-264v46l203 613h-189v53h250v-46l-202 -613h202v-53zM264 894l-75 -130h-49l65 130h59z" />
    <glyph glyph-name="zacute" unicode="&#x17a;" horiz-adv-x="276" 
d="M255 0h-233v44l172 415h-162v50h223v-44l-172 -415h172v-50zM240 716l-74 -130h-49l65 130h58z" />
    <glyph glyph-name="Zdotaccent" unicode="&#x17b;" horiz-adv-x="324" 
d="M294 0h-264v46l203 613h-189v53h250v-46l-202 -613h202v-53zM199 784h-63v63h63v-63z" />
    <glyph glyph-name="zdotaccent" unicode="&#x17c;" horiz-adv-x="276" 
d="M255 0h-233v44l172 415h-162v50h223v-44l-172 -415h172v-50zM175 610h-63v63h63v-63z" />
    <glyph glyph-name="Zcaron" unicode="&#x17d;" horiz-adv-x="324" 
d="M294 0h-264v46l203 613h-189v53h250v-46l-202 -613h202v-53zM279 887l-86 -129h-50l-87 129h52l60 -91l59 91h52z" />
    <glyph glyph-name="zcaron" unicode="&#x17e;" horiz-adv-x="276" 
d="M255 0h-233v44l172 415h-162v50h223v-44l-172 -415h172v-50zM255 709l-86 -129h-50l-87 129h52l60 -91l60 91h51z" />
    <glyph glyph-name="longs" unicode="&#x17f;" horiz-adv-x="181" 
d="M118 578v-577.999h-56v578c0 45.333 12.667 79.666 38 102.999c24.667 22 59.667 33 105 33v-51c-58 0 -87 -28.333 -87 -85z" />
    <glyph glyph-name="uni018F" unicode="&#x18f;" horiz-adv-x="412" 
d="M54 152v224.998h245c-0.666992 95.333 -3 159 -7 191s-13 56.333 -27 73c-15.333 17.333 -36.333 26 -63 26c-59.333 0 -89 -39.333 -89 -118h-59c0 56.667 15 100.667 45 132c26 26 60.333 39 103 39c44.667 0 80 -14 106 -42c22 -23.333 35.833 -54.666 41.5 -93.999
s8.5 -115.333 8.5 -228s-2.83301 -188.667 -8.5 -228s-19.5 -70.666 -41.5 -93.999c-26 -28 -61.333 -42 -106 -42c-42 0 -77.167 14 -105.5 42s-42.5 67.333 -42.5 118zM113 326.998l0.000976562 -175.002c0 -32.667 8.33301 -58.667 25 -78s38 -29 64 -29
c26.667 0 47.667 8.66699 63 26c13.333 16.667 22.166 40.834 26.499 72.501s6.83301 92.834 7.5 183.501h-186z" />
    <glyph glyph-name="florin" unicode="&#x192;" horiz-adv-x="337" 
d="M316 664h-19c-24 0 -44.167 -7 -60.5 -21s-26.833 -34 -31.5 -60l-37 -201h83v-44h-91l-104 -542h-56l104 542h-57v44h65l37 202c8 42 25.167 74.167 51.5 96.5s59.833 33.5 100.5 33.5h15v-50z" />
    <glyph glyph-name="uni01B5" unicode="&#x1b5;" horiz-adv-x="324" 
d="M294 0h-264v46l94 286h-64v49h81l92 278h-189v53h250v-46l-94 -285h64v-49h-80l-92 -279h202v-53z" />
    <glyph glyph-name="uni01B6" unicode="&#x1b6;" horiz-adv-x="276" 
d="M255 0h-233v44l78 188h-57v45h75l76 182h-162v50h223v-44l-78 -188h61v-45h-80l-75 -182h172v-50z" />
    <glyph glyph-name="uni01C4" unicode="&#x1c4;" horiz-adv-x="748" 
d="M371 356c0 -111.333 -3 -186 -9 -224s-19.667 -68.333 -41 -91c-26 -27.333 -61.333 -41 -106 -41h-146v712h146c44.667 0 80 -13.667 106 -41c21.333 -22.667 35 -53 41 -91s9 -112.667 9 -224zM312 356c0 103.333 -2 171.5 -6 204.5s-13.667 57.5 -29 73.5
c-14.667 16.667 -36.334 25 -65.001 25h-84v-606h84c28.667 0 50.334 8.33301 65.001 25c15.333 16 25 40.5 29 73.5s6 101.167 6 204.5zM718 0h-264v46l203 613h-189v53h250v-46l-202 -613h202v-53zM703 887l-86 -129h-50l-87 129h52l60 -91l59 91h52z" />
    <glyph glyph-name="uni01C5" unicode="&#x1c5;" horiz-adv-x="700" 
d="M371 356c0 -111.333 -3 -186 -9 -224s-19.667 -68.333 -41 -91c-26 -27.333 -61.333 -41 -106 -41h-146v712h146c44.667 0 80 -13.667 106 -41c21.333 -22.667 35 -53 41 -91s9 -112.667 9 -224zM312 356c0 103.333 -2 171.5 -6 204.5s-13.667 57.5 -29 73.5
c-14.667 16.667 -36.334 25 -65.001 25h-84v-606h84c28.667 0 50.334 8.33301 65.001 25c15.333 16 25 40.5 29 73.5s6 101.167 6 204.5zM679 0h-233v44l172 415h-162v50h223v-44l-172 -415h172v-50zM679 709l-86 -129h-50l-87 129h52l60 -91l60 91h51z" />
    <glyph glyph-name="uni01C6" unicode="&#x1c6;" horiz-adv-x="641" 
d="M303 0l-55.001 -0.00195312v41c-5.33301 -12 -14.666 -22.333 -27.999 -31c-17.333 -12 -36.666 -18 -57.999 -18c-32 0 -58.333 12 -79 36c-14.667 16.667 -24.667 41.834 -30 75.501s-8 83.834 -8 150.501s2.66699 116.667 8 150s15.333 59 30 77
c19.333 24 45.666 36 78.999 36c24 0 43.333 -5.33301 58 -16c10.667 -8 19.667 -18 27 -30v241h56v-712zM246.999 130.998v247c0 31.333 -7.66699 54.666 -23 69.999c-14 12.667 -30.333 19 -49 19c-19.333 0 -35.333 -7.66699 -48 -23
c-10.667 -12.667 -17.667 -32.167 -21 -58.5s-5 -70.166 -5 -131.499s1.66699 -105.166 5 -131.499s10.333 -45.833 21 -58.5c12.667 -14.667 28.667 -22 48 -22c18.667 0 35 6.33301 49 19c15.333 15.333 23 38.666 23 69.999zM619.999 -0.00195312h-233v44l172 415h-162
v50h223v-44l-172 -415h172v-50zM619.999 708.998l-86 -129h-50l-87 129h52l60 -91l60 91h51z" />
    <glyph glyph-name="uni01C7" unicode="&#x1c7;" horiz-adv-x="671" 
d="M317 0h-248v712h59v-659h189v-53zM610 153c0 -52 -13.999 -92 -41.999 -120c-27.333 -27.333 -63.333 -41 -108 -41c-47.333 0 -85 16.667 -113 50l43 39c17.333 -24 40.666 -36 69.999 -36c26.667 0 48.5 9.5 65.5 28.5s25.5 45.5 25.5 79.5v559h59v-559z" />
    <glyph glyph-name="uni01C8" unicode="&#x1c8;" horiz-adv-x="520" 
d="M317 0h-248v712h59v-659h189v-53zM457 -68c0 -45.333 -12.666 -79.667 -37.999 -103c-22.667 -21.333 -56.334 -32 -101.001 -32v50c55.333 0 83 28.667 83 86v576h56v-577zM465.001 625.999h-72v72h72v-72z" />
    <glyph glyph-name="uni01C9" unicode="&#x1c9;" horiz-adv-x="393" 
d="M196 0c-44.667 0 -78.333 10.667 -101 32c-25.333 23.333 -38 58 -38 104v576h56v-576c0 -57.333 27.667 -86 83 -86v-50zM330.001 -68c0 -45.333 -12.666 -79.667 -37.999 -103c-22.667 -21.333 -56.334 -32 -101.001 -32v50c55.333 0 83 28.667 83 86v576h56v-577z
M338.002 625.999h-72v72h72v-72z" />
    <glyph glyph-name="uni01CA" unicode="&#x1ca;" horiz-adv-x="786" 
d="M385 0h-58l-199 555v-555h-59v712h59l198 -555v555h59v-712zM725 153c0 -52 -13.999 -92 -41.999 -120c-27.333 -27.333 -63.333 -41 -108 -41c-47.333 0 -85 16.667 -113 50l43 39c17.333 -24 40.666 -36 69.999 -36c26.667 0 48.5 9.5 65.5 28.5s25.5 45.5 25.5 79.5
v559h59v-559z" />
    <glyph glyph-name="uni01CB" unicode="&#x1cb;" horiz-adv-x="635" 
d="M385 0h-58l-199 555v-555h-59v712h59l198 -555v555h59v-712zM572 -68c0 -45.333 -12.666 -79.667 -37.999 -103c-22.667 -21.333 -56.334 -32 -101.001 -32v50c55.333 0 83 28.667 83 86v576h56v-577zM580.001 625.999h-72v72h72v-72z" />
    <glyph glyph-name="uni01CC" unicode="&#x1cc;" horiz-adv-x="554" 
d="M315 0h-56v383c0 26.667 -6.5 47.167 -19.5 61.5s-29.833 21.5 -50.5 21.5s-37.667 -7.16699 -51 -21.5s-20 -34.833 -20 -61.5v-383h-56v509h55v-41c6.66699 12 16.334 22.333 29.001 31c17.333 12 36.666 18 57.999 18c31.333 0 58 -11.667 80 -35
c20.667 -22 31 -55.333 31 -100v-382zM491 -68c0 -45.333 -12.666 -79.667 -37.999 -103c-22.667 -21.333 -56.334 -32 -101.001 -32v50c55.333 0 83 28.667 83 86v576h56v-577zM499.001 625.999h-72v72h72v-72z" />
    <glyph glyph-name="uni01F1" unicode="&#x1f1;" horiz-adv-x="748" 
d="M371 356c0 -111.333 -3 -186 -9 -224s-19.667 -68.333 -41 -91c-26 -27.333 -61.333 -41 -106 -41h-146v712h146c44.667 0 80 -13.667 106 -41c21.333 -22.667 35 -53 41 -91s9 -112.667 9 -224zM312 356c0 103.333 -2 171.5 -6 204.5s-13.667 57.5 -29 73.5
c-14.667 16.667 -36.334 25 -65.001 25h-84v-606h84c28.667 0 50.334 8.33301 65.001 25c15.333 16 25 40.5 29 73.5s6 101.167 6 204.5zM718 0h-264v46l203 613h-189v53h250v-46l-202 -613h202v-53z" />
    <glyph glyph-name="uni01F2" unicode="&#x1f2;" horiz-adv-x="700" 
d="M371 356c0 -111.333 -3 -186 -9 -224s-19.667 -68.333 -41 -91c-26 -27.333 -61.333 -41 -106 -41h-146v712h146c44.667 0 80 -13.667 106 -41c21.333 -22.667 35 -53 41 -91s9 -112.667 9 -224zM312 356c0 103.333 -2 171.5 -6 204.5s-13.667 57.5 -29 73.5
c-14.667 16.667 -36.334 25 -65.001 25h-84v-606h84c28.667 0 50.334 8.33301 65.001 25c15.333 16 25 40.5 29 73.5s6 101.167 6 204.5zM679 0h-233v44l172 415h-162v50h223v-44l-172 -415h172v-50z" />
    <glyph glyph-name="uni01F3" unicode="&#x1f3;" horiz-adv-x="641" 
d="M303 0l-55.001 -0.00195312v41c-5.33301 -12 -14.666 -22.333 -27.999 -31c-17.333 -12 -36.666 -18 -57.999 -18c-32 0 -58.333 12 -79 36c-14.667 16.667 -24.667 41.834 -30 75.501s-8 83.834 -8 150.501s2.66699 116.667 8 150s15.333 59 30 77
c19.333 24 45.666 36 78.999 36c24 0 43.333 -5.33301 58 -16c10.667 -8 19.667 -18 27 -30v241h56v-712zM246.999 130.998v247c0 31.333 -7.66699 54.666 -23 69.999c-14 12.667 -30.333 19 -49 19c-19.333 0 -35.333 -7.66699 -48 -23
c-10.667 -12.667 -17.667 -32.167 -21 -58.5s-5 -70.166 -5 -131.499s1.66699 -105.166 5 -131.499s10.333 -45.833 21 -58.5c12.667 -14.667 28.667 -22 48 -22c18.667 0 35 6.33301 49 19c15.333 15.333 23 38.666 23 69.999zM619.999 -0.00195312h-233v44l172 415h-162
v50h223v-44l-172 -415h172v-50z" />
    <glyph glyph-name="Aringacute" unicode="&#x1fa;" horiz-adv-x="379" 
d="M374 0h-63l-39 195h-166l-38 -195h-64l159 712h55zM261 248l-72 358l-71 -358h143zM283 842c0 -24.667 -9 -46 -27 -64s-39.333 -27 -64 -27c-25.333 0 -46.833 8.83301 -64.5 26.5s-26.5 39.167 -26.5 64.5s8.83301 46.833 26.5 64.5s39.167 26.5 64.5 26.5
c24.667 0 46 -9 64 -27s27 -39.333 27 -64zM244 842c0 14.667 -5.16699 27 -15.5 37s-22.5 15 -36.5 15c-14.667 0 -27.167 -5 -37.5 -15s-15.5 -22.333 -15.5 -37s5.16699 -27.167 15.5 -37.5s22.833 -15.5 37.5 -15.5c14 0 26.167 5.16699 36.5 15.5
s15.5 22.833 15.5 37.5zM288 1073l-75 -130h-49l65 130h59z" />
    <glyph glyph-name="aringacute" unicode="&#x1fb;" horiz-adv-x="352" 
d="M294 0h-54v46c-6.66699 -13.333 -16 -24.666 -28 -33.999c-18 -13.333 -38.333 -20 -61 -20c-32 0 -59 11.333 -81 34c-22 23.333 -33 61.666 -33 114.999c0 50.667 14.333 89 43 115c24.667 22.667 58 34 100 34h58v91c0 58 -23.333 87 -70 87
c-18 0 -33.333 -6.33301 -46 -19c-15.333 -16 -23 -39.667 -23 -71h-56c0 45.333 12.333 80.333 37 105c22.667 22.667 52 34 88 34c40.667 0 71 -10.667 91 -32c23.333 -24.667 35 -60 35 -106v-379zM238 134v112h-56c-26 0 -46.667 -7.33301 -62 -22
c-18 -18 -27 -45.333 -27 -82c0 -66.667 23.667 -100 71 -100c22 0 39.833 8.66699 53.5 26s20.5 39.333 20.5 66zM263 672c0 -25.333 -8.83301 -46.833 -26.5 -64.5s-39.167 -26.5 -64.5 -26.5s-46.833 8.83301 -64.5 26.5s-26.5 39.167 -26.5 64.5
s8.83301 46.833 26.5 64.5s39.167 26.5 64.5 26.5s46.833 -8.83301 64.5 -26.5s26.5 -39.167 26.5 -64.5zM224 672c0 14.667 -5.16699 27.167 -15.5 37.5s-22.5 15.5 -36.5 15.5c-14.667 0 -27.167 -5.16699 -37.5 -15.5s-15.5 -22.833 -15.5 -37.5
c0 -14 5.16699 -26.167 15.5 -36.5s22.833 -15.5 37.5 -15.5c14 0 26.167 5.16699 36.5 15.5s15.5 22.5 15.5 36.5zM268 903l-74 -130h-49l65 130h58z" />
    <glyph glyph-name="AEacute" unicode="&#x1fc;" horiz-adv-x="604" 
d="M558 0h-249v197h-168l-72 -197h-64l265 712h288v-53h-190v-276h164v-53h-164v-277h190v-53zM309 250v410l-149 -410h149zM437 894l-75 -130h-49l65 130h59z" />
    <glyph glyph-name="aeacute" unicode="&#x1fd;" horiz-adv-x="544" 
d="M502 246l-208.001 0.000976562c0 -55.333 1.66699 -96.166 5 -122.499s10.333 -45.833 21 -58.5c12.667 -15.333 30 -23 52 -23c20.667 0 37.667 6.66699 51 20c14.667 14.667 22 38.667 22 72h55c0 -46 -12.333 -81.667 -37 -107c-22.667 -23.333 -53 -35 -91 -35
c-34 0 -61.667 10 -83 30c-13.333 13.333 -23.666 28.333 -30.999 45c-9.33301 -24 -21.333 -41.333 -36 -52c-20 -15.333 -43.667 -23 -71 -23c-32 0 -59 11.333 -81 34c-22 23.333 -33 61.666 -33 114.999c0 50.667 14.333 89 43 115c24.667 22.667 58 34 100 34h58v91
c0 58 -23.333 87 -70 87c-19.333 0 -34.666 -6.33301 -45.999 -19c-15.333 -15.333 -23 -39 -23 -71h-56c0 45.333 12.333 80.333 37 105c22.667 22.667 52 34 88 34s64 -9.33301 84 -28c7.33301 -7.33301 13.333 -15.666 18 -24.999
c4.66699 7.33301 9.66699 13.666 15 18.999c21.333 22.667 49.666 34 84.999 34c38 0 68.333 -12.333 91 -37c16 -18 26.833 -44.333 32.5 -79s8.5 -86.334 8.5 -155.001zM237.999 134.001l0.000976562 112h-56c-26.667 0 -47.334 -7.33301 -62.001 -22
c-18 -16.667 -27 -44 -27 -82c0 -66.667 23.667 -100 71 -100c22 0 39.833 8.66699 53.5 26s20.5 39.333 20.5 66zM446 291.001c-0.666992 46.667 -2.66602 81.167 -5.99902 103.5s-10 38.833 -20 49.5c-12.667 15.333 -29.334 23 -50.001 23
c-21.333 0 -38.333 -7.66699 -51 -23c-16 -18 -24.333 -69 -25 -153h152zM362.001 716.001l-74 -130h-49l65 130h58z" />
    <glyph glyph-name="Oslashacute" unicode="&#x1fe;" horiz-adv-x="405" 
d="M367 356c0 -114 -2.99902 -190.5 -8.99902 -229.5s-19.667 -69.833 -41 -92.5c-26 -28 -61.667 -42 -107 -42c-30 0 -56.333 6.66699 -79 20l-17 -56h-50l29 90c-16.667 21.333 -27.334 52.166 -32.001 92.499s-7 112.833 -7 217.5c0 114 3 190.5 9 229.5
s19.667 69.833 41 92.5c26 28 61.333 42 106 42c31.333 0 58 -7 80 -21l17 57h50l-28 -91c16 -21.333 26.333 -52.166 31 -92.499s7 -112.5 7 -216.5zM272.001 644c-14 15.333 -34.667 23 -62 23c-26.667 0 -47.667 -8.66699 -63 -26c-14.667 -16.667 -24 -42.167 -28 -76.5
s-6 -103.833 -6 -208.5c0 -122.667 3.66699 -198 11 -226zM308.001 356c0 120.667 -3.33105 195.667 -9.99805 225l-149 -513c13.333 -15.333 33.666 -23 60.999 -23s48.666 8.66699 63.999 26c14.667 16.667 24 42.167 28 76.5s6 103.833 6 208.5zM307.003 894l-75 -130
h-49l65 130h59z" />
    <glyph glyph-name="oslashacute" unicode="&#x1ff;" horiz-adv-x="347" 
d="M311 553l-32 -87c20 -32 30 -102.667 30 -212c0 -63.333 -2.66699 -111.666 -8 -144.999s-15.333 -59 -30 -77c-22 -26.667 -53.333 -40 -94 -40c-28 0 -51 6 -69 18l-20 -54h-46l33 87c-20 32 -30 102.333 -30 211c0 63.333 2.66699 111.666 8 144.999s15.333 59 30 77
c22 27.333 53.333 41 94 41c26 0 48.667 -6.33301 68 -19l20 55h46zM226 447c-12.667 14 -29 21.001 -49 21.001c-22 0 -39 -7.66699 -51 -23c-10.667 -13.333 -17.5 -33.333 -20.5 -60s-4.5 -70.334 -4.5 -131.001c0 -69.333 2.66699 -114.333 8 -135zM253 254.001
c0 70 -2.66699 115.333 -8 136l-117 -329c12 -13.333 28.333 -20 49 -20c21.333 0 38 7.66699 50 23c10.667 13.333 17.667 33.5 21 60.5s5 70.167 5 129.5zM273 716.001l-74 -130h-49l65 130h58z" />
    <glyph glyph-name="Scommaaccent" unicode="&#x218;" horiz-adv-x="396" 
d="M350 186c0 -73.333 -14.6699 -124.669 -44.0029 -154.002c-25.333 -25.333 -62.333 -38 -111 -38c-49.333 0 -86.666 12.667 -111.999 38c-16 16.667 -27 35.334 -33 56.001s-9 50.667 -9 90h59c0 -52.667 9.33301 -88.334 28 -107.001c16 -16 38.333 -24 67 -24
c30.667 0 53.334 8 68.001 24c18.667 20 28 57.667 28 113c0 45.333 -5 78 -15 98s-30 36 -60 48l-76 31c-36.667 14.667 -61.5 34.5 -74.5 59.5s-19.5 64.5 -19.5 118.5c0 63.333 16.333 110.333 49 141c26.667 25.333 61.334 38 104.001 38c45.333 0 81 -13 107 -39
c16.667 -16.667 28 -35.5 34 -56.5s9 -48.167 9 -81.5h-59c0 44.667 -9 77.334 -27 98.001c-15.333 17.333 -37 26 -65 26c-26 0 -46.667 -7.66699 -62 -23c-20.667 -20.667 -31 -54.667 -31 -102c0 -41.333 4.83301 -70.5 14.5 -87.5s30.5 -32.167 62.5 -45.5l76 -31
c36.667 -14.667 61.167 -36.167 73.5 -64.5s18.5 -70.166 18.5 -125.499zM217.997 -37.0029l-46 -134h-53l53 134h46z" />
    <glyph glyph-name="scommaaccent" unicode="&#x219;" horiz-adv-x="336" 
d="M303 130c0 -39.333 -13.3291 -72.332 -39.9961 -98.999c-26 -26 -58.333 -39 -97 -39c-38 0 -69 12 -93 36c-26.667 27.333 -40 64 -40 110h56c0 -32.667 8.66699 -57.667 26 -75c14 -14 31 -21 51 -21c23.333 0 42.666 7.66699 57.999 23s23 36.333 23 63
c0 22 -4.66699 40.333 -14 55c-10.667 16.667 -27.667 31.334 -51 44.001l-64 35c-30.667 17.333 -52.667 37.333 -66 60c-9.33301 18 -14 39.333 -14 64c0 37.333 13.333 69.333 40 96c23.333 23.333 53.666 35 90.999 35c38 0 68.333 -11.333 91 -34
c24.667 -24.667 37 -61.334 37 -110.001h-56c0 34 -7.33301 58.667 -22 74c-12.667 13.333 -29.334 20 -50.001 20c-22.667 0 -40.334 -6.33301 -53.001 -19c-14.667 -14 -22 -34 -22 -60c0 -18 3.33301 -32.667 10 -44c6 -10.667 21.667 -23.334 47 -38.001l63 -36
c32.667 -18 55.667 -38 69 -60s20 -48.667 20 -80zM190.004 -36.999l-46 -134h-53l53 134h46z" />
    <glyph glyph-name="uni021A" unicode="&#x21a;" horiz-adv-x="341" 
d="M319 659h-119v-659h-59v659h-119v53h297v-53zM194 -37l-46 -134h-53l53 134h46z" />
    <glyph glyph-name="uni021B" unicode="&#x21b;" horiz-adv-x="245" 
d="M225 0c-50 0 -86.333 10.667 -109 32c-25.333 23.333 -38 58 -38 104v329h-62v44h62v149h56v-149h87v-44h-87v-329c0 -57.333 30.333 -86 91 -86v-50zM172 -37l-46 -134h-53l53 134h46z" />
    <glyph glyph-name="uni0237" unicode="&#x237;" horiz-adv-x="181" 
d="M118 -67c0 -46 -12.666 -80.667 -37.999 -104c-22.667 -21.333 -56.334 -32 -101.001 -32v50c27.333 0 48 6.66699 62 20s21 35.333 21 66v576h56v-576z" />
    <glyph glyph-name="uni0259" unicode="&#x259;" horiz-adv-x="349" 
d="M45 263l207.999 -0.00195312c0 56.667 -1.66699 98 -5 124s-10.333 45 -21 57c-12.667 15.333 -29.667 23 -51 23c-22 0 -39.333 -6.66699 -52 -20c-14.667 -15.333 -22 -39.333 -22 -72h-55c0 46 12.333 81.667 37 107c22.667 23.333 53.334 35 92.001 35
c38 0 68.667 -12.333 92 -37c16 -17.333 26.833 -43.166 32.5 -77.499s8.5 -83.5 8.5 -147.5c0 -65.333 -2.83301 -115 -8.5 -149s-16.5 -59.667 -32.5 -77c-22.667 -24.667 -53 -37 -91 -37s-68.333 12.333 -91 37c-16 18 -26.833 44.333 -32.5 79
s-8.5 86.334 -8.5 155.001zM100.999 217.998c0.666992 -83.333 9.33203 -134.333 25.999 -153c12.667 -15.333 29.334 -23 50.001 -23c21.333 0 38.333 7.66699 51 23c16 18 24.333 69 25 153h-152z" />
    <glyph glyph-name="uni02BB" unicode="&#x2bb;" horiz-adv-x="184" 
d="M127 620h-69v92l69 51v-143z" />
    <glyph glyph-name="afii57929" unicode="&#x2bc;" horiz-adv-x="184" 
d="M127 620l-69 -50v142h69v-92z" />
    <glyph glyph-name="circumflex" unicode="&#x2c6;" horiz-adv-x="354" 
d="M288 586h-51l-60 92l-60 -92h-52l87 130h50z" />
    <glyph glyph-name="caron" unicode="&#x2c7;" horiz-adv-x="354" 
d="M288 709l-86 -129h-50l-87 129h52l60 -91l60 91h51z" />
    <glyph glyph-name="breve" unicode="&#x2d8;" horiz-adv-x="354" 
d="M287 684c-6 -69.333 -42.667 -104 -110 -104s-104.333 34.667 -111 104h46c5.33301 -40 27 -60 65 -60c37.333 0 59 20 65 60h45z" />
    <glyph glyph-name="dotaccent" unicode="&#x2d9;" horiz-adv-x="354" 
d="M208 610h-63v63h63v-63z" />
    <glyph glyph-name="ring" unicode="&#x2da;" horiz-adv-x="354" 
d="M268 672c0 -25.333 -9 -46.833 -27 -64.5s-39.333 -26.5 -64 -26.5s-46 8.83301 -64 26.5s-27 39.167 -27 64.5s9 46.833 27 64.5s39.333 26.5 64 26.5s46 -8.83301 64 -26.5s27 -39.167 27 -64.5zM229 672c0 14.667 -5.16699 27.167 -15.5 37.5s-22.5 15.5 -36.5 15.5
c-14.667 0 -27.167 -5.16699 -37.5 -15.5s-15.5 -22.833 -15.5 -37.5c0 -14 5.16699 -26.167 15.5 -36.5s22.833 -15.5 37.5 -15.5c14 0 26.167 5.16699 36.5 15.5s15.5 22.5 15.5 36.5z" />
    <glyph glyph-name="ogonek" unicode="&#x2db;" horiz-adv-x="354" 
d="M209 -37l-46 -134h-53l53 134h46z" />
    <glyph glyph-name="tilde" unicode="&#x2dc;" horiz-adv-x="354" 
d="M297 635c-26 -25.333 -49.666 -38 -70.999 -38c-15.333 0 -33.333 5.66699 -54 17c-16.667 10.667 -30.667 16 -42 16c-12.667 0 -27 -8 -43 -24l-28 29c25.333 25.333 48.666 38 69.999 38c17.333 0 35.333 -5.66699 54 -17c18 -10.667 32 -16 42 -16
c12.667 0 27 8 43 24z" />
    <glyph glyph-name="hungarumlaut" unicode="&#x2dd;" horiz-adv-x="354" 
d="M205 716l-69 -130h-48l59 130h58zM331 716l-69 -130h-47l58 130h58z" />
    <glyph glyph-name="uni0394" unicode="&#x394;" horiz-adv-x="379" 
d="M375 0h-371l159 712h56zM301 53l-112 553l-110 -553h222z" />
    <glyph glyph-name="uni03A9" unicode="&#x3a9;" horiz-adv-x="429" 
d="M376 0h-137.999v44c31.333 15.333 51.666 37 60.999 65c8.66699 25.333 13 107.666 13 246.999c0 105.333 -2.16699 175 -6.5 209s-13.833 59.333 -28.5 76c-15.333 17.333 -36.333 26 -63 26s-47.667 -8.66699 -63 -26c-14.667 -16.667 -24.167 -42 -28.5 -76
s-6.5 -103.667 -6.5 -209c0 -139.333 4.33301 -221.666 13 -246.999c10 -28.667 30.667 -50.334 62 -65.001v-44h-139v49h73c-24 14.667 -41 33.334 -51 56.001c-11.333 28 -17 111.667 -17 251c0 112.667 3 188.834 9 228.501s20 70.834 42 93.501c26 28 61.333 42 106 42
s80 -14 106 -42c22 -22.667 36 -53.834 42 -93.501s9 -115.834 9 -228.501c0 -139.333 -5.66699 -223 -17 -251c-9.33301 -23.333 -26.333 -42 -51 -56h73v-49z" />
    <glyph glyph-name="uni03BC" unicode="&#x3bc;" horiz-adv-x="378" 
d="M315 0h-55v41c-6.66699 -12 -16.334 -22.333 -29.001 -31c-17.333 -12 -36.666 -18 -57.999 -18c-27.333 0 -46 7 -56 21v-217h-55v713h56v-384c0 -26.667 6.5 -47.167 19.5 -61.5s29.833 -21.5 50.5 -21.5s37.667 7.16699 51 21.5s20 34.833 20 61.5v384h56v-509z" />
    <glyph glyph-name="pi" unicode="&#x3c0;" horiz-adv-x="391" 
d="M322 509v-509h-56v461h-141v-461h-56v509h253z" />
    <glyph glyph-name="uni0400" unicode="&#x400;" horiz-adv-x="364" 
d="M317 0h-248v712h248v-53h-189v-276h163v-53h-163v-277h189v-53zM225 764h-49l-75 130h59z" />
    <glyph glyph-name="afii10023" unicode="&#x401;" horiz-adv-x="364" 
d="M317 0h-248v712h248v-53h-189v-276h163v-53h-163v-277h189v-53zM293 784h-63v63h63v-63zM155 784h-63v63h63v-63z" />
    <glyph glyph-name="afii10051" unicode="&#x402;" horiz-adv-x="464" 
d="M418 207c0 -74.667 -12.667 -127.832 -38 -159.499s-64 -47.5 -116 -47.5h-15v53h12c35.333 0 60.5 12.167 75.5 36.5s22.5 63.5 22.5 117.5c0 53.333 -7.5 92.166 -22.5 116.499s-40.167 36.5 -75.5 36.5h-75v-360h-59v659h-105v53h296v-53h-132v-246h78
c52 0 90.667 -15.5 116 -46.5s38 -84.167 38 -159.5z" />
    <glyph glyph-name="afii10052" unicode="&#x403;" horiz-adv-x="337" 
d="M312 659h-184v-659h-59v712h243v-53zM265 894l-75 -130h-49l65 130h59z" />
    <glyph glyph-name="afii10053" unicode="&#x404;" horiz-adv-x="399" 
d="M357 163c0 -62 -16.667 -107.667 -50 -137c-24.667 -22.667 -57 -34 -97 -34c-44.667 0 -80 14 -106 42c-21.333 22.667 -35 53.5 -41 92.5s-9 115.5 -9 229.5s3 190.5 9 229.5s19.667 69.833 41 92.5c26 28 61.333 42 106 42c42.667 0 76.667 -12.667 102 -38
c30 -30 45 -74.333 45 -133h-58c0 42.667 -9.33301 74.334 -28 95.001c-14 15.333 -34.333 23 -61 23c-28.667 0 -49.667 -8.33301 -63 -25c-14.667 -16.667 -24.167 -40.834 -28.5 -72.501s-6.5 -93.834 -6.5 -186.501h149v-53h-149c0 -94 2.16699 -156.667 6.5 -188
s13.833 -55.333 28.5 -72c13.333 -16.667 34.333 -25 63 -25c26.667 0 47 7.66699 61 23c18.667 20.667 28 52.334 28 95.001h58z" />
    <glyph glyph-name="afii10054" unicode="&#x405;" horiz-adv-x="396" 
d="M350 186c0 -73.333 -14.6699 -124.669 -44.0029 -154.002c-25.333 -25.333 -62.333 -38 -111 -38c-49.333 0 -86.666 12.667 -111.999 38c-16 16.667 -27 35.334 -33 56.001s-9 50.667 -9 90h59c0 -52.667 9.33301 -88.334 28 -107.001c16 -16 38.333 -24 67 -24
c30.667 0 53.334 8 68.001 24c18.667 20 28 57.667 28 113c0 45.333 -5 78 -15 98s-30 36 -60 48l-76 31c-36.667 14.667 -61.5 34.5 -74.5 59.5s-19.5 64.5 -19.5 118.5c0 63.333 16.333 110.333 49 141c26.667 25.333 61.334 38 104.001 38c45.333 0 81 -13 107 -39
c16.667 -16.667 28 -35.5 34 -56.5s9 -48.167 9 -81.5h-59c0 44.667 -9 77.334 -27 98.001c-15.333 17.333 -37 26 -65 26c-26 0 -46.667 -7.66699 -62 -23c-20.667 -20.667 -31 -54.667 -31 -102c0 -41.333 4.83301 -70.5 14.5 -87.5s30.5 -32.167 62.5 -45.5l76 -31
c36.667 -14.667 61.167 -36.167 73.5 -64.5s18.5 -70.166 18.5 -125.499z" />
    <glyph glyph-name="afii10055" unicode="&#x406;" horiz-adv-x="197" 
d="M128 0h-59v712h59v-712z" />
    <glyph glyph-name="afii10056" unicode="&#x407;" horiz-adv-x="197" 
d="M128 0h-59v712h59v-712zM199 784h-63v63h63v-63zM61 784h-63v63h63v-63z" />
    <glyph glyph-name="afii10057" unicode="&#x408;" horiz-adv-x="332" 
d="M271 153c0 -52 -13.999 -92 -41.999 -120c-27.333 -27.333 -63.333 -41 -108 -41c-47.333 0 -85 16.667 -113 50l43 39c17.333 -24 40.666 -36 69.999 -36c26.667 0 48.5 9.5 65.5 28.5s25.5 45.5 25.5 79.5v559h59v-559z" />
    <glyph glyph-name="afii10058" unicode="&#x409;" horiz-adv-x="666" 
d="M620 199c0 -76.667 -13.3301 -128.999 -39.9971 -156.999s-64.667 -42 -114 -42h-140v659h-143v-323c0 -60 -2.83301 -111.167 -8.5 -153.5s-12.667 -75.166 -21 -98.499s-19.833 -41.5 -34.5 -54.5s-28.334 -21.167 -41.001 -24.5s-28.334 -5 -47.001 -5h-17v53h8
c16.667 0 30 2.5 40 7.5s20.667 16.333 32 34s19.666 47.667 24.999 90s8 97.166 8 164.499v363h258v-315h81c49.333 0 87.333 -13.833 114 -41.5s40 -79.834 40 -156.501zM561.003 199.001c0 56 -8.16699 94.167 -24.5 114.5s-40.5 30.5 -72.5 30.5h-79v-291h79
c32 0 56.167 10.333 72.5 31s24.5 59 24.5 115z" />
    <glyph glyph-name="afii10059" unicode="&#x40a;" horiz-adv-x="645" 
d="M598 198c0 -40 -3.83301 -73.6689 -11.5 -101.002s-19 -47.666 -34 -60.999s-31 -22.666 -48 -27.999s-37.167 -8 -60.5 -8h-140v344h-176v-344h-59v712h59v-315h176v315h59v-315h81c52.667 0 91.5 -15 116.5 -45s37.5 -81.333 37.5 -154zM539 198.998
c0 48.667 -7 85 -21 109s-38 36 -72 36h-83v-291h83c34 0 58 12.167 72 36.5s21 60.833 21 109.5z" />
    <glyph glyph-name="afii10060" unicode="&#x40b;" horiz-adv-x="469" 
d="M418 0l-59 -0.000976562v239c0 45.333 -8.5 76.833 -25.5 94.5s-43.833 26.5 -80.5 26.5h-67v-360h-59v659h-105v53h296v-53h-132v-246h74c54 0 93.833 -12.667 119.5 -38s38.5 -67.666 38.5 -126.999v-248z" />
    <glyph glyph-name="afii10061" unicode="&#x40c;" horiz-adv-x="423" 
d="M412 0h-68l-215 371l200 341h66l-205 -338zM127 0h-59v712h59v-712zM317 894l-75 -130h-49l65 130h59z" />
    <glyph glyph-name="uni040D" unicode="&#x40d;" horiz-adv-x="444" 
d="M127 0h-58v712h59v-555l188 555h59v-712h-59v555zM249 764h-49l-75 130h59z" />
    <glyph glyph-name="afii10062" unicode="&#x40e;" horiz-adv-x="359" 
d="M355 712l-183 -610c-12.667 -42 -29.5 -69.5 -50.5 -82.5s-52.5 -19.5 -94.5 -19.5v53c28 0 48.667 4.83301 62 14.5s24.333 29.5 33 59.5l30 102l-148 483h64l113 -400l110 400h64zM294 857c-6 -68 -43.667 -102 -113 -102c-68.667 0 -106 34 -112 102h48
c4 -40.667 25.333 -61 64 -61c39.333 0 61 20.333 65 61h48z" />
    <glyph glyph-name="afii10145" unicode="&#x40f;" horiz-adv-x="432" 
d="M363 0h-119v-141h-57v141h-118v712h59v-659h176v659h59v-712z" />
    <glyph glyph-name="afii10017" unicode="&#x410;" horiz-adv-x="379" 
d="M374 0h-63l-39 195h-166l-38 -195h-64l159 712h55zM261 248l-72 358l-71 -358h143z" />
    <glyph glyph-name="afii10018" unicode="&#x411;" horiz-adv-x="416" 
d="M367 198c0 -40 -3.83301 -73.6689 -11.5 -101.002s-19 -47.666 -34 -60.999s-31 -22.666 -48 -27.999s-37.167 -8 -60.5 -8h-144v712h269v-53h-210v-262h85c52.667 0 91.5 -15 116.5 -45s37.5 -81.333 37.5 -154zM308 198.998c0 48.667 -7 85 -21 109s-38 36 -72 36h-87
v-291h87c34 0 58 12.167 72 36.5s21 60.833 21 109.5z" />
    <glyph glyph-name="afii10019" unicode="&#x412;" horiz-adv-x="415" 
d="M363 196c0 -42.667 -3.33301 -75.001 -10 -97.001s-18 -41.333 -34 -58c-26.667 -27.333 -67.667 -41 -123 -41h-127v712h128c54.667 0 94.667 -13.667 120 -41c15.333 -16 25.833 -34.333 31.5 -55s8.5 -49.667 8.5 -87c0 -58 -14.333 -101.667 -43 -131
c-14.667 -14.667 -29.667 -24 -45 -28c20 -5.33301 36.667 -14.666 50 -27.999c29.333 -29.333 44 -78 44 -146zM304 197.999c0 96.667 -35.333 145 -106 145h-70v-290h70c36 0 62.667 10.5 80 31.5s26 58.833 26 113.5zM298 526.999c0 49.333 -8.16699 83.667 -24.5 103
s-41.5 29 -75.5 29h-70v-264h70c66.667 0 100 44 100 132z" />
    <glyph glyph-name="afii10020" unicode="&#x413;" horiz-adv-x="337" 
d="M312 659h-184v-659h-59v712h243v-53z" />
    <glyph glyph-name="afii10021" unicode="&#x414;" horiz-adv-x="455" 
d="M426 -119h-57v119h-298v-119h-57v172h44c38.667 100 58 217 58 351v308h258v-659h52v-172zM315 53v606h-143v-263c0 -132.667 -17.667 -247 -53 -343h196z" />
    <glyph glyph-name="afii10022" unicode="&#x415;" horiz-adv-x="364" 
d="M317 0h-248v712h248v-53h-189v-276h163v-53h-163v-277h189v-53z" />
    <glyph glyph-name="afii10024" unicode="&#x416;" horiz-adv-x="632" 
d="M621 0h-64l-206 371l191 341h66l-193 -338zM349 0h-59v712h59v-712zM288 371l-213 -371h-65l214 374l-200 338h65z" />
    <glyph glyph-name="afii10025" unicode="&#x417;" horiz-adv-x="393" 
d="M340 186c0 -38 -3.16895 -68.334 -9.50195 -91.001s-18.166 -43.667 -35.499 -63c-24.667 -26.667 -60 -40 -106 -40c-42 0 -75 11.333 -99 34c-31.333 30 -47.666 75.667 -48.999 137h59c0 -44.667 9.66699 -76.667 29 -96c13.333 -14.667 33.333 -22 60 -22
c28 0 49 8 63 24c20 22.667 30 62 30 118c0 34.667 -2.33301 60.334 -7 77.001s-13 31.334 -25 44.001c-16 16 -35.667 24 -59 24h-59v51h59c24 0 43.333 7.66699 58 23c10.667 12 18.167 26.167 22.5 42.5s6.5 41.833 6.5 76.5c0 32 -1.5 56.333 -4.5 73s-10.5 32 -22.5 46
c-14 15.333 -34.667 23 -62 23c-26.667 0 -46.667 -7.33301 -60 -22c-19.333 -20 -29 -52 -29 -96h-58c0 58.667 14.667 102.667 44 132c26 26 60.333 39 103 39c44.667 0 79.667 -13 105 -39c18 -18.667 29.667 -39.834 35 -63.501s8 -54.167 8 -91.5
c0 -35.333 -2.33301 -61.833 -7 -79.5s-12.667 -34.167 -24 -49.5c-12.667 -16 -28 -28.667 -46 -38c20 -12 35.667 -24.333 47 -37c12 -14.667 20.5 -31.5 25.5 -50.5s7.5 -47.5 7.5 -85.5z" />
    <glyph glyph-name="afii10026" unicode="&#x418;" horiz-adv-x="444" 
d="M127 0h-58v712h59v-555l188 555h59v-712h-59v555z" />
    <glyph glyph-name="afii10027" unicode="&#x419;" horiz-adv-x="444" 
d="M127 0h-58v712h59v-555l188 555h59v-712h-59v555zM336 857c-6 -68 -43.667 -102 -113 -102c-68.667 0 -106 34 -112 102h48c4 -40.667 25.333 -61 64 -61c39.333 0 61 20.333 65 61h48z" />
    <glyph glyph-name="afii10028" unicode="&#x41a;" horiz-adv-x="423" 
d="M412 0h-68l-215 371l200 341h66l-205 -338zM127 0h-59v712h59v-712z" />
    <glyph glyph-name="afii10029" unicode="&#x41b;" horiz-adv-x="453" 
d="M384 0h-58.9971v659h-142v-323c0 -60 -2.83301 -111.167 -8.5 -153.5s-12.667 -75.166 -21 -98.499s-19.833 -41.5 -34.5 -54.5s-28.334 -21.167 -41.001 -24.5s-28.334 -5 -47.001 -5h-17v53h8c16.667 0 30 2.5 40 7.5s20.667 16.333 32 34s19.666 47.667 24.999 90
s8 97.166 8 164.499v363h257v-712z" />
    <glyph glyph-name="afii10030" unicode="&#x41c;" horiz-adv-x="557" 
d="M488 0h-59v573l-130 -376h-43l-128 364v-561h-59v712h59l150 -419l151 419h59v-712z" />
    <glyph glyph-name="afii10031" unicode="&#x41d;" horiz-adv-x="432" 
d="M363 0h-59v336h-176v-336h-59v712h59v-323h176v323h59v-712z" />
    <glyph glyph-name="afii10032" unicode="&#x41e;" horiz-adv-x="421" 
d="M367 356c0 -114 -3 -190.5 -9 -229.5s-19.667 -69.833 -41 -92.5c-26 -28 -61.667 -42 -107 -42c-44.667 0 -80 14 -106 42c-21.333 22.667 -35 53.5 -41 92.5s-9 115.5 -9 229.5s3 190.5 9 229.5s19.667 69.833 41 92.5c26 28 61.333 42 106 42c45.333 0 81 -14 107 -42
c21.333 -22.667 35 -53.5 41 -92.5s9 -115.5 9 -229.5zM308 356c0 104.667 -2 174.167 -6 208.5s-13.333 59.833 -28 76.5c-15.333 17.333 -36.666 26 -63.999 26c-26.667 0 -47.667 -8.66699 -63 -26c-14.667 -16.667 -24 -42.167 -28 -76.5s-6 -103.833 -6 -208.5
s2 -174.167 6 -208.5s13.333 -59.833 28 -76.5c15.333 -17.333 36.333 -26 63 -26c27.333 0 48.666 8.66699 63.999 26c14.667 16.667 24 42.167 28 76.5s6 103.833 6 208.5z" />
    <glyph glyph-name="afii10033" unicode="&#x41f;" horiz-adv-x="432" 
d="M363 0h-59v659h-177v-659h-58v712h294v-712z" />
    <glyph glyph-name="afii10034" unicode="&#x420;" horiz-adv-x="410" 
d="M363 513c0 -76.667 -13.5 -128.833 -40.5 -156.5s-64.833 -41.5 -113.5 -41.5h-81v-315h-59v712h140c48.667 0 86.5 -14 113.5 -42s40.5 -80.333 40.5 -157zM304 513.001c0 56 -8.33301 94.333 -25 115s-41 31 -73 31h-78v-291h78c32 0 56.333 10.167 73 30.5
s25 58.5 25 114.5z" />
    <glyph glyph-name="afii10035" unicode="&#x421;" horiz-adv-x="399" 
d="M358 163c-1.33301 -62 -17.998 -107.666 -49.998 -136.999c-24.667 -22.667 -57.334 -34 -98.001 -34c-44.667 0 -80 14 -106 42c-21.333 22.667 -35 53.5 -41 92.5s-9 115.5 -9 229.5s3 190.5 9 229.5s19.667 69.833 41 92.5c26 28 61.333 42 106 42
c42.667 0 76.667 -12.667 102 -38c29.333 -29.333 44.666 -73.666 45.999 -132.999h-59c0 43.333 -9.33301 74.666 -28 93.999c-14.667 16 -35 24 -61 24c-26.667 0 -47.667 -8.66699 -63 -26c-14.667 -16.667 -24 -42.167 -28 -76.5s-6 -103.833 -6 -208.5
s2 -174.167 6 -208.5s13.333 -59.833 28 -76.5c15.333 -17.333 36.333 -26 63 -26c26 0 46.333 8 61 24c18.667 19.333 28 50.666 28 93.999h59z" />
    <glyph glyph-name="afii10036" unicode="&#x422;" horiz-adv-x="341" 
d="M319 659h-119v-659h-59v659h-119v53h297v-53z" />
    <glyph glyph-name="afii10037" unicode="&#x423;" horiz-adv-x="359" 
d="M355 712l-183 -610c-12.667 -42 -29.5 -69.5 -50.5 -82.5s-52.5 -19.5 -94.5 -19.5v53c28 0 48.667 4.83301 62 14.5s24.333 29.5 33 59.5l30 102l-148 483h64l113 -400l110 400h64z" />
    <glyph glyph-name="afii10038" unicode="&#x424;" horiz-adv-x="515" 
d="M470 379c0 -104 -12.5 -178.833 -37.5 -224.5s-73.167 -70.167 -144.5 -73.5v-85h-59v85c-71.333 3.33301 -119.666 27.833 -144.999 73.5s-38 120.5 -38 224.5s12.667 178.833 38 224.5s73.666 70.167 144.999 73.5v60h59v-60
c71.333 -3.33301 119.5 -27.833 144.5 -73.5s37.5 -120.5 37.5 -224.5zM411 379c0 90 -8 152.832 -24 188.499s-49 54.834 -99 57.501v-491c50 2.66699 83 21.667 99 57s24 98 24 188zM229 133.999v491.002c-50 -2.66699 -83.167 -21.834 -99.5 -57.501
s-24.5 -98.5 -24.5 -188.5c0 -89.333 8.33301 -151.833 25 -187.5s49.667 -54.834 99 -57.501z" />
    <glyph glyph-name="afii10039" unicode="&#x425;" horiz-adv-x="372" 
d="M353 0h-64l-103 308l-102 -308h-65l132 371l-121 341h65l91 -282l92 282h64l-124 -341z" />
    <glyph glyph-name="afii10040" unicode="&#x426;" horiz-adv-x="444" 
d="M415 -141h-57v141h-289v712h59v-659h176v659h59v-659h52v-194z" />
    <glyph glyph-name="afii10041" unicode="&#x427;" horiz-adv-x="425" 
d="M357 0h-59.002v266c-34 -6 -66 -9 -96 -9c-43.333 0 -76.666 11.333 -99.999 34s-35 61.667 -35 117v304h59v-298c0 -40.667 7.33301 -68.167 22 -82.5s35.334 -21.5 62.001 -21.5c32 0 61.333 2.66699 88 8v394h59v-712z" />
    <glyph glyph-name="afii10042" unicode="&#x428;" horiz-adv-x="644" 
d="M576 0h-507v712h59v-659h165v659h59v-659h165v659h59v-712z" />
    <glyph glyph-name="afii10043" unicode="&#x429;" horiz-adv-x="656" 
d="M576 712v-659h52v-194h-57v141h-502v712h59v-659h165v659h59v-659h165v659h59z" />
    <glyph glyph-name="afii10044" unicode="&#x42a;" horiz-adv-x="470" 
d="M22 659v52.998h167v-315h81c52.667 0 91.5 -15 116.5 -45s37.5 -81.333 37.5 -154c0 -40 -3.83301 -73.667 -11.5 -101s-19 -47.666 -34 -60.999s-31 -22.666 -48 -27.999s-37.167 -8 -60.5 -8h-140v659h-108zM365 198.998c0 48.667 -7 85 -21 109s-38 36 -72 36h-83
v-291h83c34 0 58 12.167 72 36.5s21 60.833 21 109.5z" />
    <glyph glyph-name="afii10045" unicode="&#x42b;" horiz-adv-x="559" 
d="M363 198c0 -40 -3.83301 -73.6689 -11.5 -101.002s-19 -47.666 -34 -60.999s-31 -22.666 -48 -27.999s-37.167 -8 -60.5 -8h-140v712h59v-315h81c52.667 0 91.5 -15 116.5 -45s37.5 -81.333 37.5 -154zM304 198.998c0 48.667 -7 85 -21 109s-38 36 -72 36h-83v-291h83
c34 0 58 12.167 72 36.5s21 60.833 21 109.5zM490 -0.00195312h-59v712h59v-712z" />
    <glyph glyph-name="afii10046" unicode="&#x42c;" horiz-adv-x="409" 
d="M363 198c0 -40 -3.83301 -73.6689 -11.5 -101.002s-19 -47.666 -34 -60.999s-31 -22.666 -48 -27.999s-37.167 -8 -60.5 -8h-140v712h59v-315h81c52.667 0 91.5 -15 116.5 -45s37.5 -81.333 37.5 -154zM304 198.998c0 48.667 -7 85 -21 109s-38 36 -72 36h-83v-291h83
c34 0 58 12.167 72 36.5s21 60.833 21 109.5z" />
    <glyph glyph-name="afii10047" unicode="&#x42d;" horiz-adv-x="399" 
d="M133 330l0.00195312 52.998h153c-0.666992 92 -3.16699 153.833 -7.5 185.5s-13.166 55.834 -26.499 72.501c-15.333 17.333 -36.333 26 -63 26s-47 -8 -61 -24c-18.667 -19.333 -28 -50.666 -28 -93.999h-59c1.33301 59.333 16.666 103.666 45.999 132.999
c25.333 25.333 59.333 38 102 38c44.667 0 80 -14 106 -42c21.333 -22.667 35 -53.5 41 -92.5s9 -115.5 9 -229.5s-3 -190.5 -9 -229.5s-19.667 -69.833 -41 -92.5c-26 -28 -61.333 -42 -106 -42c-40.667 0 -73.334 11.333 -98.001 34c-32 29.333 -48.667 75 -50 137h59
c0 -43.333 9.33301 -74.666 28 -93.999c16 -16 36.333 -24 61 -24c28 0 49 8.66699 63 26c13.333 16.667 22.166 41 26.499 73s6.83301 94 7.5 186h-153z" />
    <glyph glyph-name="afii10048" unicode="&#x42e;" horiz-adv-x="589" 
d="M536 356c0 -114 -3 -190.5 -9 -229.5s-19.667 -69.833 -41 -92.5c-26 -28 -61.667 -42 -107 -42c-44.667 0 -80 14 -106 42c-20.667 22 -34.167 51.667 -40.5 89s-9.5 108 -9.5 212h-95v-335h-59v712h59v-324h95c0.666992 99.333 4 167 10 203s19.333 65 40 87
c26 28 61.333 42 106 42c45.333 0 81 -14 107 -42c21.333 -22.667 35 -53.5 41 -92.5s9 -115.5 9 -229.5zM477 356c0 104.667 -2 174.167 -6 208.5s-13.333 59.833 -28 76.5c-15.333 17.333 -36.666 26 -63.999 26c-26.667 0 -47.667 -8.66699 -63 -26
c-14.667 -16.667 -24 -42.167 -28 -76.5s-6 -103.833 -6 -208.5s2 -174.167 6 -208.5s13.333 -59.833 28 -76.5c15.333 -17.333 36.333 -26 63 -26c27.333 0 48.666 8.66699 63.999 26c14.667 16.667 24 42.167 28 76.5s6 103.833 6 208.5z" />
    <glyph glyph-name="afii10049" unicode="&#x42f;" horiz-adv-x="398" 
d="M80 0h-63l111 330c-58.667 22 -88 83.667 -88 185c0 76.667 13.333 128.667 40 156s64.667 41 114 41h140v-712h-59v319h-92zM99 515c0 -48.667 6.83301 -84.666 20.5 -107.999s37.834 -35 72.501 -35h83v287h-83c-34.667 0 -58.834 -11.833 -72.501 -35.5
s-20.5 -59.834 -20.5 -108.501z" />
    <glyph glyph-name="afii10065" unicode="&#x430;" horiz-adv-x="352" 
d="M294 0h-54v46c-6.66699 -13.333 -16 -24.666 -28 -33.999c-18 -13.333 -38.333 -20 -61 -20c-32 0 -59 11.333 -81 34c-22 23.333 -33 61.666 -33 114.999c0 50.667 14.333 89 43 115c24.667 22.667 58 34 100 34h58v91c0 58 -23.333 87 -70 87
c-18 0 -33.333 -6.33301 -46 -19c-15.333 -16 -23 -39.667 -23 -71h-56c0 45.333 12.333 80.333 37 105c22.667 22.667 52 34 88 34c40.667 0 71 -10.667 91 -32c23.333 -24.667 35 -60 35 -106v-379zM238 134v112h-56c-26 0 -46.667 -7.33301 -62 -22
c-18 -18 -27 -45.333 -27 -82c0 -66.667 23.667 -100 71 -100c22 0 39.833 8.66699 53.5 26s20.5 39.333 20.5 66z" />
    <glyph glyph-name="afii10066" unicode="&#x431;" horiz-adv-x="359" 
d="M314 254c0 -63.333 -2.66504 -111.668 -7.99805 -145.001s-15.333 -59 -30 -77c-22.667 -26.667 -54 -40 -94 -40s-71.333 13.333 -94 40c-14.667 18 -24.667 43.667 -30 77s-8 81.666 -8 144.999c0 138 2.16699 228.833 6.5 272.5s14.5 78.5 30.5 104.5
c18 28.667 43.667 49.334 77 62.001s76.666 19.667 129.999 21v-51c-42 -1.33301 -75.5 -5.66602 -100.5 -12.999s-43.833 -21 -56.5 -41c-10.667 -17.333 -18 -36.5 -22 -57.5s-7.33301 -50.5 -10 -88.5c19.333 34.667 49.333 52 90 52c31.333 0 58 -12.333 80 -37
c15.333 -16.667 25.666 -41.5 30.999 -74.5s8 -82.833 8 -149.5zM258.002 253.998c0 59.333 -1.66602 102.5 -4.99902 129.5s-10.333 47.167 -21 60.5c-12.667 15.333 -29.334 23 -50.001 23c-21.333 0 -38.333 -7.66699 -51 -23c-10.667 -13.333 -17.5 -33.333 -20.5 -60
s-4.5 -70 -4.5 -130c0 -60.667 1.5 -104.167 4.5 -130.5s9.83301 -45.833 20.5 -58.5c12 -15.333 29 -23 51 -23c21.333 0 38 7.66699 50 23c10.667 12.667 17.667 32.5 21 59.5s5 70.167 5 129.5z" />
    <glyph glyph-name="afii10067" unicode="&#x432;" horiz-adv-x="360" 
d="M261 145c0 64.667 -27.667 97 -83 97h-60v-192h60c28 0 48.833 7 62.5 21s20.5 38.667 20.5 74zM255 374c0 31.333 -6.5 53.333 -19.5 66s-32.167 19 -57.5 19h-60v-172h60c51.333 0 77 29 77 87zM317 143c0 -49.333 -12.332 -86.332 -36.999 -110.999
c-21.333 -21.333 -55.333 -32 -102 -32h-116v509h115c46.667 0 80 -10 100 -30c22.667 -20.667 34 -54.667 34 -102c0 -40.667 -11.667 -71.334 -35 -92.001c-8.66699 -7.33301 -18.667 -13.333 -30 -18c13.333 -4.66699 24.666 -11 33.999 -19c24.667 -20 37 -55 37 -105z
" />
    <glyph glyph-name="afii10068" unicode="&#x433;" horiz-adv-x="288" 
d="M273 509v-50h-155v-459h-56v509h211z" />
    <glyph glyph-name="afii10069" unicode="&#x434;" horiz-adv-x="399" 
d="M374 -124l-55.001 0.000976562v124h-249v-124h-56v174h45c16.667 40.667 28.334 81.167 35.001 121.5s10 96.166 10 167.499v170h226v-459h44v-174zM272.999 50.001v409h-115v-125c0 -72.667 -2.83301 -128.167 -8.5 -166.5s-16.167 -77.5 -31.5 -117.5h155z" />
    <glyph glyph-name="afii10070" unicode="&#x435;" horiz-adv-x="349" 
d="M309 246l-207.999 0.00195312c0 -56.667 1.66699 -98 5 -124s10.333 -45 21 -57c12.667 -15.333 29.667 -23 51 -23c22 0 39.333 6.66699 52 20c14.667 15.333 22 39.333 22 72h55c0 -46 -12.333 -81.667 -37 -107c-22.667 -23.333 -53.334 -35 -92.001 -35
c-38 0 -68.667 12.333 -92 37c-16 17.333 -26.833 43.166 -32.5 77.499s-8.5 83.5 -8.5 147.5c0 65.333 2.83301 115 8.5 149s16.5 59.667 32.5 77c22.667 24.667 53 37 91 37s68.333 -12.333 91 -37c16 -18 26.833 -44.333 32.5 -79s8.5 -86.334 8.5 -155.001z
M253.001 291.002c-0.666992 83.333 -9.33203 134.333 -25.999 153c-12.667 15.333 -29.334 23 -50.001 23c-21.333 0 -38.333 -7.66699 -51 -23c-16 -18 -24.333 -69 -25 -153h152z" />
    <glyph glyph-name="afii10072" unicode="&#x436;" horiz-adv-x="529" 
d="M521 0h-64l-162 264l152 245h63l-155 -242zM293 0h-56v509h56v-509zM235 264l-162 -264h-65l167 267l-155 242h62z" />
    <glyph glyph-name="afii10073" unicode="&#x437;" horiz-adv-x="339" 
d="M296 136c0 -30 -3.00098 -53.168 -9.00098 -69.501s-16.333 -31.833 -31 -46.5c-22 -18.667 -52 -28 -90 -28s-67.333 9.33301 -88 28c-26.667 24 -40.667 60.667 -42 110h56c0 -32.667 8.33301 -57 25 -73c11.333 -10 27.666 -15 48.999 -15
c20.667 0 37.334 5.33301 50.001 16c16 14 24 40.667 24 80c0 40 -8.33301 67.333 -25 82c-13.333 10.667 -30.666 16 -51.999 16h-39v47h39c21.333 0 37.666 5.66699 48.999 17c16 14 24 39 24 75c0 36.667 -7.66699 62.334 -23 77.001c-11.333 10 -27 15 -47 15
c-21.333 0 -38.333 -5.66699 -51 -17c-15.333 -15.333 -23 -39 -23 -71h-56c1.33301 45.333 14 80 38 104c22.667 22.667 53.334 34 92.001 34c38 0 67.333 -9.33301 88 -28c25.333 -22.667 38 -59.667 38 -111c0 -38 -8.66699 -67.333 -26 -88
c-10 -12.667 -22.333 -22 -37 -28c13.333 -6 25.333 -13.667 36 -23c20.667 -18.667 31 -53 31 -103z" />
    <glyph glyph-name="afii10074" unicode="&#x438;" horiz-adv-x="391" 
d="M328 0h-56v388l-157 -388h-53v509h56v-388l157 388h53v-509z" />
    <glyph glyph-name="afii10075" unicode="&#x439;" horiz-adv-x="391" 
d="M328 0h-56v388l-157 -388h-53v509h56v-388l157 388h53v-509zM307 684c-4.66699 -68.667 -42 -103 -112 -103c-69.333 0 -107 34.333 -113 103h48c4 -40.667 25.667 -61 65 -61c38.667 0 60 20.333 64 61h48z" />
    <glyph glyph-name="afii10076" unicode="&#x43a;" horiz-adv-x="358" 
d="M347 0h-64l-163 264l153 245h62l-154 -242zM119 0h-56v509h56v-509z" />
    <glyph glyph-name="afii10077" unicode="&#x43b;" horiz-adv-x="387" 
d="M325 0l-56.001 0.000976562v459h-112v-262c0 -73.333 -10.833 -124.5 -32.5 -153.5s-52.834 -43.5 -93.501 -43.5h-17v49h9c10 0 18.833 1.5 26.5 4.5s15.834 9.5 24.501 19.5s15.334 26.667 20.001 50s7 52.666 7 87.999v298h224v-509z" />
    <glyph glyph-name="afii10078" unicode="&#x43c;" horiz-adv-x="475" 
d="M413 0h-56v385l-100 -241h-40l-99 241v-385h-56v509h53l122 -297l123 297h53v-509z" />
    <glyph glyph-name="afii10079" unicode="&#x43d;" horiz-adv-x="374" 
d="M311 0h-56v237h-137v-237h-56v509h56v-222h137v222h56v-509z" />
    <glyph glyph-name="afii10080" unicode="&#x43e;" horiz-adv-x="353" 
d="M309 254c0 -63.333 -2.66699 -111.666 -8 -144.999s-15.333 -59 -30 -77c-22 -26.667 -53.333 -40 -94 -40s-72 13.333 -94 40c-14.667 18 -24.667 43.667 -30 77s-8 81.666 -8 144.999s2.66699 111.666 8 144.999s15.333 59 30 77c22 27.333 53.333 41 94 41
s72 -13.667 94 -41c14.667 -18 24.667 -43.667 30 -77s8 -81.666 8 -144.999zM253 254c0 59.333 -1.66699 102.499 -5 129.499s-10.333 47.167 -21 60.5c-12.667 15.333 -29.334 23 -50.001 23c-21.333 0 -38.333 -7.66699 -51 -23c-10.667 -13.333 -17.5 -33.333 -20.5 -60
s-4.5 -70 -4.5 -130s1.5 -103.167 4.5 -129.5s9.83301 -46.166 20.5 -59.499c12.667 -15.333 29.667 -23 51 -23c20.667 0 37.334 7.66699 50.001 23c10.667 13.333 17.667 33.333 21 60s5 69.667 5 129z" />
    <glyph glyph-name="afii10081" unicode="&#x43f;" horiz-adv-x="374" 
d="M311 0h-56v459h-137v-459h-56v509h249v-509z" />
    <glyph glyph-name="afii10082" unicode="&#x440;" horiz-adv-x="365" 
d="M321 254c0 -66.667 -2.66699 -116.666 -8 -149.999s-15.333 -58.666 -30 -75.999c-21.333 -24 -47.666 -36 -78.999 -36c-23.333 0 -42.666 5.33301 -57.999 16c-10 6.66699 -19.333 16.667 -28 30v-241h-56v712h55v-41c5.33301 11.333 15 21.666 29 30.999
c17.333 12 36.666 18 57.999 18c31.333 0 57.666 -12 78.999 -36c14.667 -17.333 24.667 -42.833 30 -76.5s8 -83.834 8 -150.501zM265 254.001c0 61.333 -1.66699 105.167 -5 131.5s-10.333 45.833 -21 58.5c-12.667 15.333 -29 23 -49 23
c-19.333 0 -35.333 -6.33301 -48 -19c-16 -14.667 -24 -38 -24 -70v-247c0 -31.333 8 -54.666 24 -69.999c12.667 -12.667 28.667 -19 48 -19c20 0 36.333 7.33301 49 22c10.667 12.667 17.667 32.167 21 58.5s5 70.166 5 131.499z" />
    <glyph glyph-name="afii10083" unicode="&#x441;" horiz-adv-x="340" 
d="M303 134c-1.33301 -50 -13.332 -86.334 -35.999 -109.001c-22 -22 -52 -33 -90 -33c-40 0 -71.333 13.333 -94 40c-14.667 17.333 -24.667 42.833 -30 76.5s-8 82.167 -8 145.5s2.66699 111.833 8 145.5s15.333 59.167 30 76.5c22 27.333 53.333 41 94 41
c38.667 0 68.667 -10.667 90 -32c22.667 -22 34.667 -59 36 -111h-55c0 34 -6.66699 58 -20 72c-12 14 -28.667 21 -50 21c-22.667 0 -40 -7.66699 -52 -23c-10.667 -13.333 -17.5 -33.666 -20.5 -60.999s-4.5 -70.333 -4.5 -129s1.5 -101.5 4.5 -128.5
s9.83301 -47.167 20.5 -60.5c12 -15.333 29.333 -23 52 -23c19.333 0 35.666 6.66699 48.999 20c14 14.667 21 38.667 21 72h55z" />
    <glyph glyph-name="afii10084" unicode="&#x442;" horiz-adv-x="288" 
d="M273 459h-101v-459h-56v459h-100v50h257v-50z" />
    <glyph glyph-name="afii10085" unicode="&#x443;" horiz-adv-x="308" 
d="M301 509l-144.001 -608c-9.33301 -38 -26.166 -64.833 -50.499 -80.5s-56.833 -23.5 -97.5 -23.5v50c50.667 0 81.667 21.667 93 65l23 90l-121 507h62l87 -420l87 420h61z" />
    <glyph glyph-name="afii10086" unicode="&#x444;" horiz-adv-x="479" 
d="M435 254c0 -62 -3.49902 -108.668 -10.499 -140.001s-20.167 -56.333 -39.5 -75c-29.333 -28 -68.333 -42.667 -117 -44v-198h-56v198c-52 1.33301 -91 16 -117 44c-19.333 18.667 -32.5 43.834 -39.5 75.501s-10.5 78.167 -10.5 139.5s3.5 108 10.5 140
s19.833 57.333 38.5 76c27.333 28 66.666 42.667 117.999 44v198h56v-198c48.667 -0.666992 86.667 -14.334 114 -41.001c20.667 -20 34.667 -45.667 42 -77s11 -78.666 11 -141.999zM378.001 253.999c0 56.667 -2.5 98.1689 -7.5 124.502s-14.833 46.166 -29.5 59.499
c-20 17.333 -44.333 26 -73 26v-419c30 0 54.333 8.66699 73 26c14.667 13.333 24.5 33.166 29.5 59.499s7.5 67.5 7.5 123.5zM212.001 45.001l0.000976562 419c-30 0 -54.333 -8.66699 -73 -26c-15.333 -13.333 -25.5 -33.333 -30.5 -60s-7.5 -68 -7.5 -124
c0 -56.667 2.66699 -97.667 8 -123s15.333 -45.333 30 -60c17.333 -17.333 41.666 -26 72.999 -26z" />
    <glyph glyph-name="afii10087" unicode="&#x445;" horiz-adv-x="321" 
d="M304 0h-62l-81 210l-82 -210h-62l112 259l-106 250h62l76 -202l75 202h62l-108 -250z" />
    <glyph glyph-name="afii10088" unicode="&#x446;" horiz-adv-x="381" 
d="M356 -124h-53v124h-241v509h56v-459h137v459h56v-459h45v-174z" />
    <glyph glyph-name="afii10089" unicode="&#x447;" horiz-adv-x="339" 
d="M277 0l-56 0.000976562v178c-22.667 -4.66699 -47 -7 -73 -7c-72 0 -108 37.333 -108 112v226h56v-219c0 -26.667 5.16699 -44.834 15.5 -54.501s24.833 -14.5 43.5 -14.5c25.333 0 47.333 2 66 6v282h56v-509z" />
    <glyph glyph-name="afii10090" unicode="&#x448;" horiz-adv-x="530" 
d="M467 0h-405v509h56v-459h119v459h56v-459h118v459h56v-509z" />
    <glyph glyph-name="afii10091" unicode="&#x449;" horiz-adv-x="537" 
d="M512 -124h-54v124h-396v509h56v-459h119v459h56v-459h118v459h56v-459h45v-174z" />
    <glyph glyph-name="afii10092" unicode="&#x44a;" horiz-adv-x="390" 
d="M356 147c0 -50.667 -10.333 -87.833 -31 -111.5s-53.667 -35.5 -99 -35.5h-124v459h-86v50h142v-214h68c45.333 0 78.333 -12 99 -36s31 -61.333 31 -112zM299 147.001c0 34 -6.16699 58.833 -18.5 74.5s-31.833 23.5 -58.5 23.5h-64v-195h64
c26.667 0 46.167 7.66699 58.5 23s18.5 40 18.5 74z" />
    <glyph glyph-name="afii10093" unicode="&#x44b;" horiz-adv-x="490" 
d="M62 509l56 0.000976562v-214h68c45.333 0 78.333 -12 99 -36s31 -61.333 31 -112s-10.333 -87.834 -31 -111.501s-53.667 -35.5 -99 -35.5h-124v509zM259 147.001c0 34 -6.16699 58.833 -18.5 74.5s-31.833 23.5 -58.5 23.5h-64v-195h64c26.667 0 46.167 7.66699 58.5 23
s18.5 40 18.5 74zM428 0.000976562h-56v509h56v-509z" />
    <glyph glyph-name="afii10094" unicode="&#x44c;" horiz-adv-x="350" 
d="M62 509l56 0.000976562v-214h68c45.333 0 78.333 -12 99 -36s31 -61.333 31 -112s-10.333 -87.834 -31 -111.501s-53.667 -35.5 -99 -35.5h-124v509zM259 147.001c0 34 -6.16699 58.833 -18.5 74.5s-31.833 23.5 -58.5 23.5h-64v-195h64c26.667 0 46.167 7.66699 58.5 23
s18.5 40 18.5 74z" />
    <glyph glyph-name="afii10095" unicode="&#x44d;" horiz-adv-x="343" 
d="M299 254c0 -63.333 -2.66699 -111.667 -8 -145s-15.333 -58.666 -30 -75.999c-22 -27.333 -53.667 -41 -95 -41c-38 0 -67 9 -87 27c-26.667 24 -40.667 60.667 -42 110h54c1.33301 -32.667 9.66602 -56.334 24.999 -71.001c10.667 -10.667 27.334 -16 50.001 -16
s40 7.66699 52 23c10.667 12 17.5 30.167 20.5 54.5s4.5 63.5 4.5 117.5h-130v48h130c0 48.667 -1.5 84.334 -4.5 107.001s-9.83301 40 -20.5 52c-12 15.333 -29.333 23 -52 23s-40 -6 -52 -18c-14 -14 -21.667 -37.333 -23 -70h-54c1.33301 47.333 14 82.666 38 105.999
c22.667 21.333 53 32 91 32c41.333 0 73 -13.667 95 -41c14.667 -17.333 24.667 -42.833 30 -76.5s8 -82.167 8 -145.5z" />
    <glyph glyph-name="afii10096" unicode="&#x44e;" horiz-adv-x="502" 
d="M457 254c0 -63.333 -2.66699 -111.668 -8 -145.001s-15.333 -58.666 -30 -75.999c-22 -27.333 -53.333 -41 -94 -41s-72 13.667 -94 41c-14 16.667 -23.667 39.667 -29 69s-8.33301 74 -9 134h-75v-236h-56v509h56v-223h75c2 98.667 14.667 162 38 190
c22 27.333 53.333 41 94 41s72 -13.667 94 -41c14.667 -17.333 24.667 -42.833 30 -76.5s8 -82.167 8 -145.5zM401 253.998c0 59.333 -1.66699 102.5 -5 129.5s-10.333 47.167 -21 60.5c-12.667 15.333 -29.334 23 -50.001 23s-37.334 -7.66699 -50.001 -23
c-10.667 -13.333 -17.667 -33.5 -21 -60.5s-5 -70.167 -5 -129.5c0 -58.667 1.66699 -101.5 5 -128.5s10.333 -47.167 21 -60.5c12.667 -15.333 29.334 -23 50.001 -23s37.334 7.66699 50.001 23c10.667 13.333 17.667 33.5 21 60.5s5 69.833 5 128.5z" />
    <glyph glyph-name="afii10097" unicode="&#x44f;" horiz-adv-x="349" 
d="M287 0h-56v219h-68l-75 -219h-59l82 229c-44.667 20.667 -67 65.667 -67 135c0 96.667 41.667 145 125 145h118v-509zM231 268v191.999h-60c-25.333 0 -43.5 -7.66699 -54.5 -23s-16.5 -39.666 -16.5 -72.999c0 -64 23.667 -96 71 -96h60z" />
    <glyph glyph-name="uni0450" unicode="&#x450;" horiz-adv-x="349" 
d="M309 246l-207.999 0.00195312c0 -56.667 1.66699 -98 5 -124s10.333 -45 21 -57c12.667 -15.333 29.667 -23 51 -23c22 0 39.333 6.66699 52 20c14.667 15.333 22 39.333 22 72h55c0 -46 -12.333 -81.667 -37 -107c-22.667 -23.333 -53.334 -35 -92.001 -35
c-38 0 -68.667 12.333 -92 37c-16 17.333 -26.833 43.166 -32.5 77.499s-8.5 83.5 -8.5 147.5c0 65.333 2.83301 115 8.5 149s16.5 59.667 32.5 77c22.667 24.667 53 37 91 37s68.333 -12.333 91 -37c16 -18 26.833 -44.333 32.5 -79s8.5 -86.334 8.5 -155.001z
M253.001 291.002c-0.666992 83.333 -9.33203 134.333 -25.999 153c-12.667 15.333 -29.334 23 -50.001 23c-21.333 0 -38.333 -7.66699 -51 -23c-16 -18 -24.333 -69 -25 -153h152zM207.003 586.002h-49l-75 130h58z" />
    <glyph glyph-name="afii10071" unicode="&#x451;" horiz-adv-x="349" 
d="M309 246l-207.999 0.00195312c0 -56.667 1.66699 -98 5 -124s10.333 -45 21 -57c12.667 -15.333 29.667 -23 51 -23c22 0 39.333 6.66699 52 20c14.667 15.333 22 39.333 22 72h55c0 -46 -12.333 -81.667 -37 -107c-22.667 -23.333 -53.334 -35 -92.001 -35
c-38 0 -68.667 12.333 -92 37c-16 17.333 -26.833 43.166 -32.5 77.499s-8.5 83.5 -8.5 147.5c0 65.333 2.83301 115 8.5 149s16.5 59.667 32.5 77c22.667 24.667 53 37 91 37s68.333 -12.333 91 -37c16 -18 26.833 -44.333 32.5 -79s8.5 -86.334 8.5 -155.001z
M253.001 291.002c-0.666992 83.333 -9.33203 134.333 -25.999 153c-12.667 15.333 -29.334 23 -50.001 23c-21.333 0 -38.333 -7.66699 -51 -23c-16 -18 -24.333 -69 -25 -153h152zM277.003 606.002h-63v63h63v-63zM140.003 606.002h-64v63h64v-63z" />
    <glyph glyph-name="afii10099" unicode="&#x452;" horiz-adv-x="373" 
d="M315 -55c0 -42.667 -12.333 -75.333 -37 -98c-21.333 -20 -52.666 -30 -93.999 -30v50c50 0 75 26 75 78v438c0 26.667 -6.66699 47.167 -20 61.5s-30.333 21.5 -51 21.5s-37.5 -7.16699 -50.5 -21.5s-19.5 -34.833 -19.5 -61.5v-383h-56v586h-57v42h57v84h56v-84h147
v-42h-147v-116c6 11.333 15 21 27 29c17.333 12 36.666 18 57.999 18c32 0 59 -11.667 81 -35c20.667 -22 31 -55.333 31 -100v-437z" />
    <glyph glyph-name="afii10100" unicode="&#x453;" horiz-adv-x="288" 
d="M273 509v-50h-155v-459h-56v509h211zM248 716l-74 -130h-49l65 130h58z" />
    <glyph glyph-name="afii10101" unicode="&#x454;" horiz-adv-x="343" 
d="M45 254c0 63.333 2.66699 111.834 8 145.501s15.333 59.167 30 76.5c22 27.333 53.667 41 95 41c38 0 68.333 -10.667 91 -32c24 -23.333 36.667 -58.666 38 -105.999h-54c-1.33301 32.667 -9 56 -23 70c-12 12 -29.333 18 -52 18s-40 -7.66699 -52 -23
c-10.667 -12 -17.5 -29.333 -20.5 -52s-4.5 -58.334 -4.5 -107.001h130v-48h-130c0 -54 1.5 -93.167 4.5 -117.5s9.83301 -42.5 20.5 -54.5c12 -15.333 29.333 -23 52 -23s39.334 5.33301 50.001 16c15.333 14.667 23.666 38.334 24.999 71.001h54
c-1.33301 -49.333 -15.333 -86 -42 -110c-20 -18 -49 -27 -87 -27c-41.333 0 -73 13.667 -95 41c-14.667 17.333 -24.667 42.666 -30 75.999s-8 81.666 -8 144.999z" />
    <glyph glyph-name="afii10102" unicode="&#x455;" horiz-adv-x="336" 
d="M303 130c0 -39.333 -13.3291 -72.332 -39.9961 -98.999c-26 -26 -58.333 -39 -97 -39c-38 0 -69 12 -93 36c-26.667 27.333 -40 64 -40 110h56c0 -32.667 8.66699 -57.667 26 -75c14 -14 31 -21 51 -21c23.333 0 42.666 7.66699 57.999 23s23 36.333 23 63
c0 22 -4.66699 40.333 -14 55c-10.667 16.667 -27.667 31.334 -51 44.001l-64 35c-30.667 17.333 -52.667 37.333 -66 60c-9.33301 18 -14 39.333 -14 64c0 37.333 13.333 69.333 40 96c23.333 23.333 53.666 35 90.999 35c38 0 68.333 -11.333 91 -34
c24.667 -24.667 37 -61.334 37 -110.001h-56c0 34 -7.33301 58.667 -22 74c-12.667 13.333 -29.334 20 -50.001 20c-22.667 0 -40.334 -6.33301 -53.001 -19c-14.667 -14 -22 -34 -22 -60c0 -18 3.33301 -32.667 10 -44c6 -10.667 21.667 -23.334 47 -38.001l63 -36
c32.667 -18 55.667 -38 69 -60s20 -48.667 20 -80z" />
    <glyph glyph-name="afii10103" unicode="&#x456;" horiz-adv-x="181" 
d="M118 0h-56v509h56v-509zM126 626h-72v72h72v-72z" />
    <glyph glyph-name="afii10104" unicode="&#x457;" horiz-adv-x="181" 
d="M119 0h-56v509h56v-509zM191 606h-63v63h63v-63zM54 606h-64v63h64v-63z" />
    <glyph glyph-name="afii10105" unicode="&#x458;" horiz-adv-x="181" 
d="M118 -68c0 -45.333 -12.666 -79.667 -37.999 -103c-22.667 -21.333 -56.334 -32 -101.001 -32v50c55.333 0 83 28.667 83 86v576h56v-577zM126.001 625.999h-72v72h72v-72z" />
    <glyph glyph-name="afii10106" unicode="&#x459;" horiz-adv-x="556" 
d="M523 147c0 -50.667 -10.334 -87.833 -31.001 -111.5s-54 -35.5 -100 -35.5h-123v459h-112v-262c0 -73.333 -10.833 -124.5 -32.5 -153.5s-52.834 -43.5 -93.501 -43.5h-17v48h9c10 0 18.833 1.66699 26.5 5s15.834 9.83301 24.501 19.5s15.334 26.167 20.001 49.5
s7 53 7 89v298h224v-214h67c46 0 79.333 -12 100 -36s31 -61.333 31 -112zM465.999 147.001c0 34 -6.33301 58.833 -19 74.5s-32 23.5 -58 23.5h-64v-195h64c26.667 0 46.167 7.66699 58.5 23s18.5 40 18.5 74z" />
    <glyph glyph-name="afii10107" unicode="&#x45a;" horiz-adv-x="543" 
d="M509 147c0 -50.667 -10.333 -87.832 -31 -111.499s-53.667 -35.5 -99 -35.5h-124v246h-137v-246h-56v509h56v-215h137v215h56v-215h68c45.333 0 78.333 -11.833 99 -35.5s31 -60.834 31 -111.501zM453 147.002c0 34 -6.33301 59 -19 75s-32.334 24 -59.001 24h-64v-196
h64c26.667 0 46.334 7.66699 59.001 23s19 40 19 74z" />
    <glyph glyph-name="afii10108" unicode="&#x45b;" horiz-adv-x="373" 
d="M315 0l-55.999 -0.00195312v383c0 26.667 -6.5 47.167 -19.5 61.5s-29.833 21.5 -50.5 21.5s-37.667 -7.16699 -51 -21.5s-20 -34.833 -20 -61.5v-383h-56v586h-57v42h57v84h56v-84h147v-42h-147v-116c6 10.667 15.333 20.334 28 29.001c17.333 12 36.666 18 57.999 18
c32 0 59 -11.667 81 -35c20 -21.333 30 -54.666 30 -99.999v-382z" />
    <glyph glyph-name="afii10109" unicode="&#x45c;" horiz-adv-x="358" 
d="M347 0h-64l-163 264l153 245h62l-154 -242zM119 0h-56v509h56v-509zM278 716l-74 -130h-49l65 130h58z" />
    <glyph glyph-name="uni045D" unicode="&#x45d;" horiz-adv-x="391" 
d="M328 0h-56v388l-157 -388h-53v509h56v-388l157 388h53v-509zM222 586h-49l-75 130h58z" />
    <glyph glyph-name="afii10110" unicode="&#x45e;" horiz-adv-x="308" 
d="M301 509l-144.001 -608c-9.33301 -38 -26.166 -64.833 -50.499 -80.5s-56.833 -23.5 -97.5 -23.5v50c50.667 0 81.667 21.667 93 65l23 90l-121 507h62l87 -420l87 420h61zM265.999 684c-4.66699 -68.667 -42 -103 -112 -103c-69.333 0 -107 34.333 -113 103h48
c4 -40.667 25.667 -61 65 -61c38.667 0 60 20.333 64 61h48z" />
    <glyph glyph-name="afii10193" unicode="&#x45f;" horiz-adv-x="374" 
d="M311 0h-97v-124h-54v124h-98v509h56v-459h137v459h56v-509z" />
    <glyph glyph-name="afii10146" unicode="&#x462;" horiz-adv-x="412" 
d="M366 198c0 -40 -3.83301 -73.6689 -11.5 -101.002s-19 -47.666 -34 -60.999s-31 -22.666 -48 -27.999s-37.167 -8 -60.5 -8h-140v556h-52v49h52v107h59v-107h92v-49h-92v-159h81c52.667 0 91.5 -15 116.5 -45s37.5 -81.333 37.5 -154zM307 198.998
c0 48.667 -7 85 -21 109s-38 36 -72 36h-83v-291h83c34 0 58 12.167 72 36.5s21 60.833 21 109.5z" />
    <glyph glyph-name="afii10194" unicode="&#x463;" horiz-adv-x="362" 
d="M220 393l-90 0.000976562v-98h68c45.333 0 78.333 -12 99 -36s31 -61.333 31 -112s-10.333 -87.834 -31 -111.501s-53.667 -35.5 -99 -35.5h-124v393h-58v42h58v74h56v-74h90v-42zM271 147.001c0 34 -6.16699 58.833 -18.5 74.5s-31.833 23.5 -58.5 23.5h-64v-195h64
c26.667 0 46.167 7.66699 58.5 23s18.5 40 18.5 74z" />
    <glyph glyph-name="afii10147" unicode="&#x472;" horiz-adv-x="421" 
d="M367 356c0 -112.667 -2.83301 -188.667 -8.5 -228s-19.5 -70.666 -41.5 -93.999c-26 -28 -61.667 -42 -107 -42c-44.667 0 -80 14 -106 42c-22 23.333 -35.833 54.666 -41.5 93.999s-8.5 115.333 -8.5 228s2.83301 188.667 8.5 228s19.5 70.666 41.5 93.999
c26 28 61.333 42 106 42c45.333 0 81 -14 107 -42c22 -23.333 35.833 -54.666 41.5 -93.999s8.5 -115.333 8.5 -228zM274 71c13.333 16.667 22.168 41 26.501 73s6.83301 94 7.5 186h-195c0 -92 2.16699 -154 6.5 -186s13.5 -56.333 27.5 -73
c15.333 -17.333 36.333 -26 63 -26c27.333 0 48.666 8.66699 63.999 26zM147.002 641c-14 -17.333 -23.1689 -41.833 -27.502 -73.5s-6.5 -93.167 -6.5 -184.5h195c-0.666992 91.333 -3.16699 152.833 -7.5 184.5s-13.166 56.167 -26.499 73.5
c-15.333 17.333 -36.666 26 -63.999 26c-26.667 0 -47.667 -8.66699 -63 -26z" />
    <glyph glyph-name="afii10195" unicode="&#x473;" horiz-adv-x="353" 
d="M309 254c0 -63.333 -2.66699 -111.666 -8 -144.999s-15.333 -59 -30 -77c-22 -26.667 -53.333 -40 -94 -40s-72 13.333 -94 40c-14.667 18 -24.667 43.667 -30 77s-8 81.666 -8 144.999s2.66699 111.666 8 144.999s15.333 59 30 77c22 27.333 53.333 41 94 41
s72 -13.667 94 -41c14.667 -18 24.667 -43.667 30 -77s8 -81.666 8 -144.999zM227 65c10.667 12.667 17.666 32.167 20.999 58.5s5 67.166 5 122.499h-152c0 -57.333 1.5 -98.666 4.5 -123.999s9.83301 -44.333 20.5 -57c12.667 -15.333 29.667 -23 51 -23
c20.667 0 37.334 7.66699 50.001 23zM125.999 444c-16.667 -20.667 -24.998 -71.667 -24.998 -153h152c-0.666992 81.333 -9.33398 132.333 -26.001 153c-12.667 15.333 -29.334 23 -50.001 23c-21.333 0 -38.333 -7.66699 -51 -23z" />
    <glyph glyph-name="afii10148" unicode="&#x474;" horiz-adv-x="438" 
d="M185 106l96 503.999c7.33301 38.667 22.166 65.334 44.499 80.001s55.833 22 100.5 22v-53c-26 0 -45.667 -5.83301 -59 -17.5s-22.666 -30.5 -27.999 -56.5l-125 -585h-58l-152 712h65z" />
    <glyph glyph-name="afii10196" unicode="&#x475;" horiz-adv-x="381" 
d="M274 394l-92 -394h-59l-119 509h62l87 -421l65 317c14 69.333 63.333 104 148 104v-50c-51.333 0 -82 -21.667 -92 -65z" />
    <glyph glyph-name="afii10050" unicode="&#x490;" horiz-adv-x="337" 
d="M312 659h-184v-659h-59v712h186v89h57v-142z" />
    <glyph glyph-name="afii10098" unicode="&#x491;" horiz-adv-x="288" 
d="M273 459h-155v-459h-56v509h157v117h54v-167z" />
    <glyph glyph-name="uni0492" unicode="&#x492;" horiz-adv-x="341" 
d="M316 659h-184v-278h91v-49h-91v-332h-59v332h-53v49h53v331h243v-53z" />
    <glyph glyph-name="uni0493" unicode="&#x493;" horiz-adv-x="300" 
d="M285 459h-155v-132h90v-42h-90v-285h-56v285h-58v42h58v182h211v-50z" />
    <glyph glyph-name="uni0496" unicode="&#x496;" horiz-adv-x="632" 
d="M608 712l-193 -338l178 -324h28v-174h-54v124h-10l-206 371l191 341h66zM288 371l-213 -371h-65l214 374l-200 338h65zM349 0h-59v712h59v-712z" />
    <glyph glyph-name="uni0497" unicode="&#x497;" horiz-adv-x="529" 
d="M510 509l-155 -242l135 -217h31v-174h-54v124h-10l-162 264l152 245h63zM235 264l-162 -264h-65l167 267l-155 242h62zM293 0h-56v509h56v-509z" />
    <glyph glyph-name="uni049A" unicode="&#x49a;" horiz-adv-x="423" 
d="M395 712l-205 -338l192 -324h30v-174h-54v124h-14l-215 371l200 341h66zM127 0h-59v712h59v-712z" />
    <glyph glyph-name="uni049B" unicode="&#x49b;" horiz-adv-x="358" 
d="M335 509l-154 -242l135 -217h31v-174h-54v124h-10l-163 264l153 245h62zM119 0h-56v509h56v-509z" />
    <glyph glyph-name="uni049C" unicode="&#x49c;" horiz-adv-x="479" 
d="M468 0h-69l-164 346h-25v-107h-48v107h-34v-346h-59v712h59v-313h34v107h48v-107h27l147 313h66l-164 -338z" />
    <glyph glyph-name="uni049D" unicode="&#x49d;" horiz-adv-x="410" 
d="M399 0h-64l-120 240h-24v-109h-43v109h-30v-240h-56v509h56v-221h30v109h43v-109h24l110 221h62l-123 -242z" />
    <glyph glyph-name="uni04A2" unicode="&#x4a2;" horiz-adv-x="432" 
d="M363 712v-662h24v-174h-54v124h-29v336h-176v-336h-59v712h59v-323h176v323h59z" />
    <glyph glyph-name="uni04A3" unicode="&#x4a3;" horiz-adv-x="374" 
d="M311 509v-459h26v-174h-54v124h-28v237h-137v-237h-56v509h56v-222h137v222h56z" />
    <glyph glyph-name="uni04AE" unicode="&#x4ae;" horiz-adv-x="315" 
d="M312 712l-125 -414v-298h-59v298l-125 414h65l89 -326l90 326h65z" />
    <glyph glyph-name="uni04AF" unicode="&#x4af;" horiz-adv-x="308" 
d="M301 509l-120 -506v-206h-56v205l-121 507h62l87 -420l87 420h61z" />
    <glyph glyph-name="uni04B0" unicode="&#x4b0;" horiz-adv-x="315" 
d="M312 712l-125 -414h72v-49h-72v-249h-59v249h-72v49h72l-125 414h65l89 -326l90 326h65z" />
    <glyph glyph-name="uni04B1" unicode="&#x4b1;" horiz-adv-x="308" 
d="M301 509l-120 -506h74v-42h-74v-164h-56v164h-74v42h74l-121 506h62l87 -420l87 420h61z" />
    <glyph glyph-name="uni04B2" unicode="&#x4b2;" horiz-adv-x="372" 
d="M342 712l-124 -341l117 -321h18v-174h-54v124h-10l-103 308l-102 -308h-65l132 371l-121 341h65l91 -282l92 282h64z" />
    <glyph glyph-name="uni04B3" unicode="&#x4b3;" horiz-adv-x="321" 
d="M298 509l-108 -250l92 -209h22v-174h-54v124h-8l-81 209l-82 -209h-62l112 259l-106 250h62l76 -202l75 202h62z" />
    <glyph glyph-name="uni04B6" unicode="&#x4b6;" horiz-adv-x="425" 
d="M357 712l-0.00195312 -662h24v-174h-54v124h-29v266c-34 -6 -66 -9 -96 -9c-43.333 0 -76.666 11.333 -99.999 34s-35 61.667 -35 117v304h59v-298c0 -40.667 7.33301 -68.167 22 -82.5s35.334 -21.5 62.001 -21.5c32 0 61.333 2.66699 88 8v394h59z" />
    <glyph glyph-name="uni04B7" unicode="&#x4b7;" horiz-adv-x="339" 
d="M277 509v-458.999h26v-174h-54v124h-28v178c-22.667 -4.66699 -47 -7 -73 -7c-72 0 -108 37.333 -108 112v226h56v-219c0 -26.667 5.16699 -44.834 15.5 -54.501s24.833 -14.5 43.5 -14.5c25.333 0 47.333 2 66 6v282h56z" />
    <glyph glyph-name="uni04B8" unicode="&#x4b8;" horiz-adv-x="434" 
d="M241 150h-47.999v107c-40.667 2.66699 -71.834 15.5 -93.501 38.5s-32.5 60.5 -32.5 112.5v304h59v-298c0 -34.667 5.66699 -59.5 17 -74.5s28 -24.167 50 -27.5v105h48v-107c18 0.666992 40 3.33398 66 8.00098v394h59v-712h-59v266
c-25.333 -4.66699 -47.333 -7.33398 -66 -8.00098v-108z" />
    <glyph glyph-name="uni04B9" unicode="&#x4b9;" horiz-adv-x="346" 
d="M184 62l-43 0.000976562v109c-67.333 4.66699 -101 42 -101 112v226h56v-219c0 -40.667 15 -63.667 45 -69v108h43v-109c14.667 1.33301 29.334 3.66602 44.001 6.99902v282h56v-509h-56v178c-14.667 -2.66699 -29.334 -4.66699 -44.001 -6v-110z" />
    <glyph glyph-name="uni04BA" unicode="&#x4ba;" horiz-adv-x="425" 
d="M68 712h59.002v-266c34 6 66 9 96 9c43.333 0 76.666 -11.333 99.999 -34s35 -61.667 35 -117v-304h-59v298c0 40.667 -7.33301 68.167 -22 82.5s-35.334 21.5 -62.001 21.5c-32 0 -61.333 -2.66699 -88 -8v-394h-59v712z" />
    <glyph glyph-name="uni04BB" unicode="&#x4bb;" horiz-adv-x="339" 
d="M62 509l56 -0.000976562v-178c22.667 4.66699 47 7 73 7c72 0 108 -37.333 108 -112v-226h-56v219c0 26.667 -5.16699 44.834 -15.5 54.501s-24.833 14.5 -43.5 14.5c-25.333 0 -47.333 -2 -66 -6v-282h-56v509z" />
    <glyph glyph-name="uni04C0" unicode="&#x4c0;" horiz-adv-x="197" 
d="M128 0h-59v712h59v-712z" />
    <glyph glyph-name="uni04CF" unicode="&#x4cf;" horiz-adv-x="170" 
d="M113 0h-56v712h56v-712z" />
    <glyph glyph-name="uni04D8" unicode="&#x4d8;" horiz-adv-x="412" 
d="M54 152v224.998h245c-0.666992 95.333 -3 159 -7 191s-13 56.333 -27 73c-15.333 17.333 -36.333 26 -63 26c-59.333 0 -89 -39.333 -89 -118h-59c0 56.667 15 100.667 45 132c26 26 60.333 39 103 39c44.667 0 80 -14 106 -42c22 -23.333 35.833 -54.666 41.5 -93.999
s8.5 -115.333 8.5 -228s-2.83301 -188.667 -8.5 -228s-19.5 -70.666 -41.5 -93.999c-26 -28 -61.333 -42 -106 -42c-42 0 -77.167 14 -105.5 42s-42.5 67.333 -42.5 118zM113 326.998l0.000976562 -175.002c0 -32.667 8.33301 -58.667 25 -78s38 -29 64 -29
c26.667 0 47.667 8.66699 63 26c13.333 16.667 22.166 40.834 26.499 72.501s6.83301 92.834 7.5 183.501h-186z" />
    </font>
</defs>
</svg>
